<?xml version="1.0" encoding="utf-8"?>
<!-- Generator: Adobe Illustrator 19.0.0, SVG Export Plug-In . SVG Version: 6.00 Build 0)  -->
<svg version="1.1" id="레이어_1" xmlns="http://www.w3.org/2000/svg" xmlns:xlink="http://www.w3.org/1999/xlink" x="0px"
	 y="0px" viewBox="0 0 600 580" style="enable-background:new 0 0 600 580;" xml:space="preserve">
<style type="text/css">
	.st0{opacity:0.5;}
	.st1{fill:none;}
	.st2{fill:none;stroke:#000000;}
	.st3{fill:none;stroke:#000000;stroke-width:5;stroke-miterlimit:10;}
</style>
<g id="XMLID_9_" class="st0">
	<path id="XMLID_49_" d="M418.5,124.3c1.4,5.1,2,10.5,1.8,16.1c-0.2,5.6-0.3,11.2-0.3,16.8c-0.9,17.7-1.5,38.1-1.8,61.3
		c-0.2,23.1-0.6,47.9-1,74.5c0,25.2-0.5,49.8-1.4,73.9c-0.9,24-1.9,45.8-2.8,65.4c0,2.8-0.1,6.5-0.4,11.2c-0.2,4.7-0.9,9.6-2.1,14.7
		c-1.2,5.1-3,10-5.3,14.7c-2.4,4.7-5.7,8.4-9.9,11.2c-5.2,3.7-11.2,5.3-18.1,4.5s-12.2-3.9-15.9-9.5c-3.3-5.1-4.7-11-4.2-17.5
		c0.5-6.5,0.7-12.4,0.7-17.5c0-4.2,0-10.6,0-19.3c0-8.6,0.1-17.7,0.3-27.3c0.2-9.6,0.3-18.5,0.3-27s0-14.5,0-18.2
		c0-0.9-0.1-2.2-0.3-3.8c-0.2-1.6-0.8-2.9-1.8-3.9c-1.4-0.9-3.2-1.5-5.3-1.8c-2.1-0.2-6.4-0.1-13,0.4c-9.3,0-16.4,0.1-21.3,0.3
		c-4.9,0.2-11.8,0.4-20.6,0.4c-4.2,0-7,0.9-8.4,2.8c-1.4,2.3-2.1,5.6-2.1,9.8c0,4.7-0.1,10-0.3,16.1c-0.2,6.1-0.4,16.1-0.4,30.1
		c-0.5,11.7-0.8,21.5-1.1,29.4c-0.2,7.9-0.8,17.7-1.8,29.4c-0.5,5.6-1.8,11.7-3.8,18.2c-2.1,6.5-6.4,10.5-13,11.9
		c-10.7,2.3-18.9,0.9-24.5-4.2c-5.6-5.1-9.6-11.9-11.9-20.3c-2.3-8.4-3.6-17.3-3.9-26.6c-0.2-9.3-0.4-17.3-0.4-23.8
		c0-6.5,0-14.7,0-24.5s-0.1-19.8-0.4-30.1c-0.2-10.3-0.3-19.9-0.3-29c0-9.1,0-16,0-20.6c-0.5-7.9-0.7-17.2-0.7-27.6
		c0-10.5,0-21.4,0-32.6c0-8.9-0.1-16.7-0.4-23.4c-0.2-6.8-0.4-13.5-0.4-20.3c0-6.8-0.1-13.5-0.3-20.3c-0.2-6.8-0.4-14.6-0.4-23.5
		c0-8.4,0.2-17.9,0.7-28.4c0.5-10.5,4.2-18.8,11.2-24.8c3.7-2.8,8.2-4.8,13.3-6c5.1-1.2,9.1-1.3,11.9-0.4c6.1,1.4,10.5,4.4,13.3,9.1
		c2.8,4.7,4.7,9.9,5.6,15.8c0.9,5.8,1.5,12,1.8,18.5c0.2,6.5,0.6,12.4,1,17.5c0.9,17.7,1.8,36.1,2.5,55c0.7,18.9,1.5,37.2,2.4,55
		c0,2.3,0.5,5.6,1.4,9.8c0.9,4.2,3,6.3,6.3,6.3c14,1.4,25.3,1.9,33.9,1.4c8.6-0.5,17.4-1.2,26.3-2.1c4.7-0.5,7-4.7,7-12.6
		c0-21,1-44.3,3.1-70c2.1-25.7,3.6-48.8,4.6-69.3c0-5.6,1-11.1,3.1-16.5c2.1-5.4,6.2-9.7,12.3-13c2.8-1.9,6.1-2.9,9.8-3.1
		c3.7-0.2,7.4,0.4,10.9,1.8s6.6,3.4,9.5,6C416.4,117.5,418,120.6,418.5,124.3z"/>
</g>
<g id="XMLID_3_">
	<path id="XMLID_25_" class="st1" d="M321.6,277"/>
</g>
<g id="XMLID_8_">
	<path id="XMLID_17_" class="st1" d="M349,148.9"/>
</g>
<g id="XMLID_1_">
	<path id="XMLID_29_" d="M254.7,90.3c-0.5,0.2-0.8,0.1-1.1-0.1c-0.3-0.2-0.5-0.6-0.6-1c-0.1-0.5-0.3-0.9-0.3-1.5
		c0-0.5-0.1-1-0.1-1.4c-0.1-1-0.2-1.9-0.2-2.8c0-0.9,0-1.8,0-2.6c-0.1-1-0.1-2,0-3l0-5.1c0-0.6,0.1-1.2,0.1-1.9
		c0-0.6,0.1-1.3,0.4-1.9c0.2-0.6,0.5-0.9,1-1c0.5-0.1,0.9,0.1,1.4,0.5c0.3,0.4,0.6,1,0.8,1.9c0.2,0.8,0.3,1.7,0.4,2.6
		c0.1,0.9,0.1,1.8,0.1,2.8c0,0.9,0,1.6,0,2.3v0c0,1.3,0,2.7-0.1,4.1c-0.1,1.4,0,2.9,0.1,4.5c0.1,0.8,0,1.5-0.4,2.2
		C255.8,89.5,255.3,90,254.7,90.3z"/>
</g>
<circle id="XMLID_4_" class="st2" cx="253.8" cy="79.8" r="18.5"/>
<g id="XMLID_7_">
	<path id="XMLID_27_" d="M325.4,273.5c0.7,0.5,1,1,1,1.6c-0.1,0.3-0.3,0.6-0.6,0.9c-0.3,0.3-0.7,0.4-1.1,0.5
		c-0.8,0.1-1.6,0.1-2.3,0.2c-0.7,0.1-1.4,0.1-2.1,0.2c-1,0.1-2,0.2-3,0.3c-1,0.1-2.1,0.1-3.3,0.1c-0.7,0-1.3-0.1-1.9-0.3
		c-0.6-0.2-1-0.5-1.3-1.1c-0.2-0.5-0.2-0.9,0-1.2c0.2-0.4,0.5-0.8,0.9-1.4c0.1-0.1,0.3-0.4,0.5-0.8c0.2-0.4,0.5-0.8,0.9-1.3
		c0.3-0.5,0.7-1,1.1-1.6c0.4-0.6,0.8-1.2,1.2-1.7c2.1-2.9,3.1-5,2.9-6.4c-0.1-0.4-0.4-0.7-0.9-0.9c-0.5-0.2-1.2-0.3-2-0.3
		s-1.5,0.1-2.3,0.3c-0.7,0.2-1.5,0.3-2.3,0.3c-0.5-0.1-0.7-0.3-0.8-0.7c-0.1-0.4-0.1-0.8,0-1.1c0.1-0.4,0.3-0.6,0.6-0.8
		c0.3-0.2,0.6-0.4,0.9-0.6c0.7-0.3,1.5-0.5,2.5-0.6c1-0.1,1.9-0.1,2.9,0c1,0.1,1.8,0.3,2.7,0.6c0.8,0.3,1.5,0.7,2.1,1.2
		c0.3,0.3,0.5,0.7,0.6,1.2c0.1,0.5,0.1,1,0,1.6c-0.1,0.5-0.2,1.1-0.3,1.6c-0.2,0.5-0.3,0.9-0.4,1.2c-0.2,0.5-0.4,1-0.6,1.5
		c-0.2,0.5-0.5,1.2-0.9,1.9c-0.4,0.7-0.9,1.6-1.6,2.5c-0.6,1-1.4,2.2-2.4,3.6l6.2-0.3c0.6,0,1.1-0.1,1.7-0.1
		C324.4,273.2,325,273.3,325.4,273.5z"/>
</g>
<circle id="XMLID_5_" class="st2" cx="316.6" cy="267.1" r="18.5"/>
<path id="XMLID_13_" class="st3" d="M301.9,274.8"/>
<path id="XMLID_6_" class="st3" d="M375.8,141.9"/>
<g id="XMLID_18_">
	<g id="XMLID_31_">
		<line id="XMLID_34_" class="st3" x1="253.8" y1="127.1" x2="253.8" y2="459.9"/>
		<g id="XMLID_32_">
			<path id="XMLID_33_" d="M253.8,475c-2.6-7.1-7.1-15.9-11.9-21.4l11.9,4.3l11.9-4.3C260.9,459.1,256.4,467.9,253.8,475z"/>
		</g>
	</g>
</g>
<g id="XMLID_21_">
	<g id="XMLID_39_">
		<line id="XMLID_42_" class="st3" x1="277" y1="315.9" x2="341.1" y2="315.9"/>
		<g id="XMLID_40_">
			<path id="XMLID_41_" d="M356.2,315.9c-7.1,2.6-15.9,7.1-21.4,11.9l4.3-11.9l-4.3-11.9C340.3,308.8,349.1,313.3,356.2,315.9z"/>
		</g>
	</g>
</g>
<g id="XMLID_10_">
	<g id="XMLID_45_">
		<line id="XMLID_48_" class="st3" x1="389.9" y1="130.7" x2="389.9" y2="463.6"/>
		<g id="XMLID_46_">
			<path id="XMLID_47_" d="M389.9,478.7c-2.6-7.1-7.1-15.9-11.9-21.4l11.9,4.3l11.9-4.3C397,462.8,392.5,471.6,389.9,478.7z"/>
		</g>
	</g>
</g>
<g id="XMLID_15_">
	<path id="XMLID_20_" class="st1" d="M399.4,89.6"/>
</g>
<g id="XMLID_14_">
	<path id="XMLID_23_" d="M397.2,80.3c0.6,0.2,1.2,0.5,1.7,0.9c0.5,0.3,0.9,0.8,1.3,1.4c0.3,0.4,0.5,1,0.5,1.8c0,0.7-0.1,1.5-0.5,2.2
		c-0.4,0.9-0.8,1.6-1.4,2.3c-0.5,0.6-1,1.1-1.2,1.4c-0.2,0.1-0.5,0.4-0.9,0.8c-0.5,0.4-1,0.8-1.6,1.2c-0.6,0.4-1.3,0.8-2,1
		c-0.7,0.3-1.4,0.5-2,0.5c-0.6,0-1.1-0.3-1.3-0.9c-0.2-0.4-0.1-0.8,0.3-1.3c0.4-0.5,0.7-0.9,1-1.1c0.4-0.2,0.9-0.6,1.6-1.1
		c0.7-0.5,1.3-1,1.9-1.5c0.6-0.5,1.1-1.1,1.4-1.7c0.3-0.6,0.4-1.2,0.1-1.8c-0.3-0.5-0.8-0.8-1.5-1c-0.7-0.2-1.3-0.3-1.8-0.4
		c-0.2,0-0.5-0.1-0.8-0.1c-0.3-0.1-0.7-0.1-1-0.3c-0.3-0.1-0.6-0.3-0.8-0.4c-0.3-0.2-0.4-0.4-0.5-0.6c-0.2-0.4,0-1.1,0.5-1.9
		c0.5-0.8,1-1.6,1.5-2.4c0.5-0.7,0.9-1.5,1.3-2.4c0.3-0.6,0.5-1.1,0.6-1.5c0.1-0.4,0.2-0.9,0.1-1.6c-0.1-0.6-0.4-0.8-0.9-0.8
		c-0.3,0-0.6,0-0.9,0.1c-0.3,0.1-0.6,0.2-0.9,0.3c-0.8,0.3-1.4,0.5-1.8,0.7c-0.4,0.2-0.9,0.3-1.5,0.3c-0.4,0-0.7-0.2-1-0.5
		c-0.2-0.3-0.3-0.7-0.3-1c0.1-0.3,0.2-0.6,0.4-0.9c0.2-0.2,0.6-0.5,1.2-0.8c0.9-0.4,2-0.8,3.1-1.1s2.3-0.5,3.5-0.6
		c0.4,0,0.8,0.1,1.3,0.3c0.5,0.2,0.9,0.5,1.1,0.9c0.3,0.5,0.5,1.2,0.5,1.9c0,0.7,0,1.5-0.2,2.3c-0.2,0.8-0.4,1.6-0.7,2.4
		c-0.3,0.8-0.6,1.5-1,2.2c-0.2,0.4-0.4,0.8-0.7,1.1c-0.3,0.3-0.3,0.6-0.3,0.9c0,0.3,0.3,0.5,0.9,0.5
		C396.1,79.9,396.7,80.1,397.2,80.3z"/>
</g>
<circle id="XMLID_12_" class="st2" cx="394.3" cy="79.8" r="18.5"/>
<path id="XMLID_11_" class="st3" d="M379.6,87.4"/>
<g id="XMLID_22_">
</g>
<g id="XMLID_51_">
</g>
<g id="XMLID_52_">
</g>
<g id="XMLID_53_">
</g>
<g id="XMLID_54_">
</g>
<g id="XMLID_55_">
</g>
<g id="XMLID_56_">
</g>
</svg>
