<?xml version="1.0" encoding="utf-8"?>
<!-- Generator: Adobe Illustrator 19.0.0, SVG Export Plug-In . SVG Version: 6.00 Build 0)  -->
<svg version="1.1" id="레이어_1" xmlns="http://www.w3.org/2000/svg" xmlns:xlink="http://www.w3.org/1999/xlink" x="0px"
	 y="0px" viewBox="0 0 600 580" style="enable-background:new 0 0 600 580;" xml:space="preserve">
<style type="text/css">
	.st0{opacity:0.5;}
	.st1{fill:none;}
	.st2{fill:none;stroke:#000000;}
	.st3{fill:none;stroke:#000000;stroke-width:5;stroke-miterlimit:10;}
</style>
<g id="XMLID_9_" class="st0">
	<path id="XMLID_24_" d="M380.2,456.2c-1,7.9-2.3,16.2-3.9,24.9c-1.7,8.6-6.3,15-13.8,19.3c-7.1,4.2-14.5,4.5-22.3,1
		c-7.8-3.5-12.6-9.2-14.5-17.2c-1.9-8.9-3.2-19.3-3.9-31.1c-0.7-11.9-1.2-24.2-1.4-36.8c-0.2-12.6-0.2-24.7,0-36.4
		c0.2-11.7,0.3-22.2,0.3-31.5c0-1.4,0-4,0-7.7c0-3.7-1.2-5.8-3.5-6.3c-2.3,0-5.5,0-9.4,0c-4,0-6.9,0.2-8.8,0.7
		c-4.7,0-10.7,0.2-18.2,0.7c-7.5,0.5-15,0.5-22.8,0c-7.7-0.5-14.9-1.6-21.7-3.5c-6.8-1.9-11.8-5.1-15-9.8c-2.3-3.7-3.9-8.4-4.5-14
		c-0.7-5.6,0.3-10.5,3.1-14.7c2.3-3.7,6.1-6.6,11.2-8.8c5.1-2.1,10.7-3.5,16.8-4.2c6.1-0.7,11.9-1.1,17.5-1.1s10.3,0,14,0l38.5-2.1
		c2.3,0,3.5-0.9,3.5-2.8c0-1.9,0-3.5,0-4.9c-0.9-21-1.4-42.5-1.4-64.4c0-21.9-0.5-42.7-1.4-62.3c0-5.1,0.7-10.1,2.1-15
		c1.4-4.9,4.5-9,9.2-12.3c6.6-3.7,13.6-4.2,20.9-1.4c7.3,2.8,12.9,7,16.6,12.6c3.3,5.1,5.5,10.9,6.7,17.2c1.2,6.3,2.2,12.7,3.2,19.3
		c1.9,8.9,3.1,17.7,3.5,26.6c0.5,8.9,1.2,17.7,2.1,26.6c0.9,20.1,1.5,41.2,1.8,63.4c0.2,22.2,0.3,43.3,0.3,63.4
		c0,10.7-0.1,20.6-0.3,29.8c-0.2,9.1-0.5,18-0.7,26.6c-0.2,8.6-0.7,17.5-1.4,26.6C382,435.6,381.2,445.5,380.2,456.2z"/>
</g>
<g id="XMLID_3_">
	<path id="XMLID_23_" class="st1" d="M471.2,225.2"/>
</g>
<g id="XMLID_8_">
	<path id="XMLID_19_" class="st1" d="M345.8,137.8"/>
</g>
<g id="XMLID_1_">
	<path id="XMLID_14_" d="M272.7,263c-0.5,0.2-0.8,0.1-1.1-0.1c-0.3-0.2-0.5-0.6-0.6-1c-0.1-0.5-0.3-0.9-0.3-1.5c0-0.5-0.1-1-0.1-1.4
		c-0.1-1-0.2-1.9-0.2-2.8c0-0.9,0-1.8,0-2.6c-0.1-1-0.1-2,0-3l0-5.1c0-0.6,0.1-1.2,0.1-1.9c0-0.6,0.1-1.3,0.4-1.9
		c0.2-0.6,0.5-0.9,1-1c0.5-0.1,0.9,0.1,1.4,0.5c0.3,0.4,0.6,1,0.8,1.9c0.2,0.8,0.3,1.7,0.4,2.6c0.1,0.9,0.1,1.8,0.1,2.8
		c0,0.9,0,1.6,0,2.3v0c0,1.3,0,2.7-0.1,4.1c-0.1,1.4,0,2.9,0.1,4.5c0.1,0.8,0,1.5-0.4,2.2C273.8,262.2,273.4,262.7,272.7,263z"/>
</g>
<circle id="XMLID_4_" class="st2" cx="271.8" cy="252.5" r="18.5"/>
<g id="XMLID_7_">
	<path id="XMLID_11_" d="M354.6,87.4c0.7,0.5,1,1,1,1.6c-0.1,0.3-0.3,0.6-0.6,0.9c-0.3,0.3-0.7,0.4-1.1,0.5
		c-0.8,0.1-1.6,0.1-2.3,0.2c-0.7,0.1-1.4,0.1-2.1,0.2c-1,0.1-2.1,0.2-3.1,0.3c-1,0.1-2.1,0.1-3.3,0.1c-0.7,0-1.3-0.1-1.8-0.3
		c-0.6-0.2-1-0.5-1.3-1.1c-0.2-0.5-0.2-0.9,0-1.2c0.2-0.4,0.5-0.8,0.8-1.4c0.1-0.1,0.3-0.4,0.5-0.8c0.2-0.4,0.5-0.8,0.9-1.3
		c0.4-0.5,0.7-1,1.1-1.6c0.4-0.6,0.8-1.2,1.2-1.7c2.1-2.9,3.1-5,2.9-6.4c-0.1-0.4-0.4-0.7-0.9-0.9c-0.5-0.2-1.2-0.3-2-0.3
		c-0.8,0-1.5,0.1-2.3,0.3c-0.7,0.2-1.5,0.3-2.3,0.3c-0.5-0.1-0.7-0.3-0.8-0.7c-0.1-0.4-0.1-0.8,0-1.1c0.1-0.4,0.3-0.6,0.6-0.8
		c0.3-0.2,0.6-0.4,0.9-0.6c0.7-0.3,1.5-0.5,2.5-0.6c1-0.1,1.9-0.1,2.8,0c1,0.1,1.9,0.3,2.7,0.6c0.9,0.3,1.5,0.7,2.1,1.2
		c0.3,0.3,0.5,0.7,0.5,1.2c0.1,0.5,0.1,1,0,1.6c-0.1,0.5-0.2,1.1-0.3,1.6c-0.1,0.5-0.3,0.9-0.4,1.2c-0.2,0.5-0.4,1-0.6,1.5
		c-0.2,0.5-0.5,1.2-0.9,1.9c-0.4,0.7-0.9,1.6-1.5,2.5c-0.6,1-1.4,2.2-2.4,3.6l6.2-0.3c0.6,0,1.1-0.1,1.7-0.1
		C353.6,87.1,354.1,87.2,354.6,87.4z"/>
</g>
<circle id="XMLID_5_" class="st2" cx="345.8" cy="81.1" r="18.5"/>
<path id="XMLID_13_" class="st3" d="M331,88.7"/>
<path id="XMLID_6_" class="st3" d="M372.6,130.8"/>
<g id="XMLID_18_">
	<g id="XMLID_33_">
		<line id="XMLID_39_" class="st3" x1="350.3" y1="134.1" x2="350.3" y2="466.9"/>
		<g id="XMLID_34_">
			<path id="XMLID_35_" d="M350.3,482c-2.6-7.1-7.1-15.9-11.9-21.4l11.9,4.3l11.9-4.3C357.4,466.1,352.9,474.9,350.3,482z"/>
		</g>
	</g>
</g>
<g id="XMLID_21_">
	<g id="XMLID_41_">
		<line id="XMLID_44_" class="st3" x1="241.2" y1="309.7" x2="321.3" y2="309.7"/>
		<g id="XMLID_42_">
			<path id="XMLID_43_" d="M336.4,309.7c-7.1,2.6-15.9,7.1-21.4,11.9l4.3-11.9l-4.3-11.9C320.5,302.6,329.3,307.1,336.4,309.7z"/>
		</g>
	</g>
</g>
<g id="XMLID_10_">
</g>
<g id="XMLID_26_">
</g>
<g id="XMLID_27_">
</g>
<g id="XMLID_28_">
</g>
<g id="XMLID_29_">
</g>
<g id="XMLID_30_">
</g>
<g id="XMLID_31_">
</g>
</svg>
