<?xml version="1.0" encoding="utf-8"?>
<!-- Generator: Adobe Illustrator 19.0.0, SVG Export Plug-In . SVG Version: 6.00 Build 0)  -->
<svg version="1.1" id="레이어_1" xmlns="http://www.w3.org/2000/svg" xmlns:xlink="http://www.w3.org/1999/xlink" x="0px"
	 y="0px" viewBox="0 0 600 580" style="enable-background:new 0 0 600 580;" xml:space="preserve">
<style type="text/css">
	.st0{opacity:0.5;}
	.st1{fill:none;}
	.st2{fill:none;stroke:#000000;}
	.st3{fill:none;stroke:#000000;stroke-width:5;stroke-miterlimit:10;}
</style>
<g id="XMLID_9_" class="st0">
	<path id="XMLID_49_" d="M510,331.8c2.8,5.1,3.6,10,2.5,14.7c-1.2,4.7-3.4,8.8-6.7,12.3c-3.3,3.5-7.1,6.4-11.5,8.8
		c-4.4,2.3-8.5,4-12.3,4.9c-7.5,1.9-21.7,4.1-42.7,6.7c-21,2.6-44.9,4.9-71.8,7c-26.8,2.1-54.8,3.4-84,3.8
		c-29.2,0.5-55.9-0.6-80.1-3.1c-24.3-2.6-44.1-6.9-59.5-13c-15.4-6.1-22.9-14.9-22.4-26.6c0-6.5,1.8-11.5,5.3-15s7.7-6.2,12.6-8
		c4.9-1.9,10-2.8,15.4-2.8c5.4,0,10.1,0.2,14.4,0.7c12.1,2.3,24.4,3.6,36.8,3.8c12.4,0.2,24.9,0.6,37.4,1c14.9,0,29.6-0.3,44.1-1
		c14.5-0.7,29.2-1.3,44.1-1.8c1.4-13.1,2.1-27.5,2.1-43.4c0-15.9,1.9-30.6,5.6-44.1c2.8-11.2,9.1-17.5,18.9-18.9
		c7.5-0.9,13.1,0.5,16.8,4.2c3.7,3.7,6.1,9.1,7,16.1l7.7,84c5.6,0.5,11.1,0.5,16.5,0c5.4-0.5,10.9-0.9,16.5-1.4
		c4.7,0,11.3-0.6,20-1.8c8.6-1.2,17.5-1.8,26.6-1.8c9.1,0,17.5,0.9,25.2,2.8C502,321.8,507.2,325.7,510,331.8z M227.2,252
		c1.4-6.1,2.8-10.6,4.2-13.7c1.4-3,3.7-7.3,7-12.9c1.4-2.3,3.7-4,7-4.9c3.3-0.9,6.6-1.2,10.1-0.7c3.5,0.5,6.8,1.6,9.8,3.5
		c3,1.9,5,4.4,5.9,7.7c1.4,5.1,2.9,12.3,4.6,21.3c1.6,9.1,2.3,18.3,2.1,27.7c-0.2,9.3-2,17.7-5.3,25.2c-3.3,7.5-9.1,11.9-17.5,13.3
		c-7.9,1.4-14.1-0.4-18.6-5.3c-4.4-4.9-7.6-11.1-9.4-18.6c-1.9-7.5-2.7-15.2-2.5-23.1C225,263.6,225.8,257.1,227.2,252z"/>
</g>
<g id="XMLID_3_">
	<path id="XMLID_25_" class="st1" d="M371.5,205.1"/>
</g>
<g id="XMLID_8_">
	<path id="XMLID_17_" class="st1" d="M346.2,128.6"/>
</g>
<g id="XMLID_1_">
	<path id="XMLID_29_" d="M249.3,204c-0.5,0.2-0.8,0.1-1.1-0.1c-0.3-0.2-0.5-0.6-0.6-1c-0.1-0.5-0.3-0.9-0.3-1.5c0-0.5-0.1-1-0.1-1.4
		c-0.1-1-0.2-1.9-0.2-2.8c0-0.9,0-1.8,0-2.6c-0.1-1-0.1-2,0-3l0-5.1c0-0.6,0.1-1.2,0.1-1.9c0-0.6,0.1-1.3,0.4-1.9
		c0.2-0.6,0.5-0.9,1-1c0.5-0.1,0.9,0.1,1.4,0.5c0.3,0.4,0.6,1,0.8,1.9c0.2,0.8,0.3,1.7,0.4,2.6c0.1,0.9,0.1,1.8,0.1,2.8
		c0,0.9,0,1.6,0,2.3v0c0,1.3,0,2.7-0.1,4.1c-0.1,1.4,0,2.9,0.1,4.5c0.1,0.8,0,1.5-0.4,2.2C250.4,203.2,249.9,203.7,249.3,204z"/>
</g>
<circle id="XMLID_4_" class="st2" cx="248.3" cy="193.5" r="18.5"/>
<g id="XMLID_7_">
	<path id="XMLID_27_" d="M371.6,199.8c0.7,0.5,1,1,1,1.6c-0.1,0.3-0.3,0.6-0.6,0.9c-0.3,0.3-0.7,0.4-1.1,0.5
		c-0.8,0.1-1.6,0.1-2.3,0.2c-0.7,0.1-1.4,0.1-2.1,0.2c-1,0.1-2.1,0.2-3.1,0.3c-1,0.1-2.1,0.1-3.3,0.1c-0.7,0-1.3-0.1-1.8-0.3
		c-0.6-0.2-1-0.5-1.3-1.1c-0.2-0.5-0.2-0.9,0-1.2c0.2-0.4,0.5-0.8,0.8-1.4c0.1-0.1,0.3-0.4,0.5-0.8c0.2-0.4,0.5-0.8,0.9-1.3
		c0.4-0.5,0.7-1,1.1-1.6c0.4-0.6,0.8-1.2,1.2-1.7c2.1-2.9,3.1-5,2.9-6.4c-0.1-0.4-0.4-0.7-0.9-0.9c-0.5-0.2-1.2-0.3-2-0.3
		c-0.8,0-1.5,0.1-2.3,0.3c-0.7,0.2-1.5,0.3-2.3,0.3c-0.5-0.1-0.7-0.3-0.8-0.7c-0.1-0.4-0.1-0.8,0-1.1c0.1-0.4,0.3-0.6,0.6-0.8
		c0.3-0.2,0.6-0.4,0.9-0.6c0.7-0.3,1.5-0.5,2.5-0.6c1-0.1,1.9-0.1,2.8,0c1,0.1,1.9,0.3,2.7,0.6c0.9,0.3,1.5,0.7,2.1,1.2
		c0.3,0.3,0.5,0.7,0.5,1.2c0.1,0.5,0.1,1,0,1.6c-0.1,0.5-0.2,1.1-0.3,1.6c-0.1,0.5-0.3,0.9-0.4,1.2c-0.2,0.5-0.4,1-0.6,1.5
		c-0.2,0.5-0.5,1.2-0.9,1.9c-0.4,0.7-0.9,1.6-1.5,2.5c-0.6,1-1.4,2.2-2.4,3.6l6.2-0.3c0.6,0,1.1-0.1,1.7-0.1
		C370.6,199.5,371.1,199.6,371.6,199.8z"/>
</g>
<circle id="XMLID_5_" class="st2" cx="362.8" cy="193.5" r="18.5"/>
<path id="XMLID_13_" class="st3" d="M348.1,201.1"/>
<path id="XMLID_6_" class="st3" d="M373.1,121.6"/>
<g id="XMLID_18_">
	<g id="XMLID_32_">
		<line id="XMLID_35_" class="st3" x1="252.4" y1="231.9" x2="252.4" y2="317.5"/>
		<g id="XMLID_33_">
			<path id="XMLID_34_" d="M252.4,332.6c-2.6-7.1-7.1-15.9-11.9-21.4l11.9,4.3l11.9-4.3C259.5,316.7,255,325.5,252.4,332.6z"/>
		</g>
	</g>
</g>
<g id="XMLID_21_">
	<g id="XMLID_45_">
		<line id="XMLID_48_" class="st3" x1="154.4" y1="345.1" x2="461.6" y2="345.1"/>
		<g id="XMLID_46_">
			<path id="XMLID_47_" d="M476.7,345.1c-7.1,2.6-15.9,7.1-21.4,11.9l4.3-11.9l-4.3-11.9C460.8,338,469.6,342.5,476.7,345.1z"/>
		</g>
	</g>
</g>
<g id="XMLID_10_">
	<g id="XMLID_40_">
		<line id="XMLID_43_" class="st3" x1="362.8" y1="236.1" x2="362.8" y2="317.5"/>
		<g id="XMLID_41_">
			<path id="XMLID_42_" d="M362.8,332.6c-2.6-7.1-7.1-15.9-11.9-21.4l11.9,4.3l11.9-4.3C369.9,316.7,365.4,325.5,362.8,332.6z"/>
		</g>
	</g>
</g>
<g id="XMLID_15_">
	<path id="XMLID_20_" class="st1" d="M308.8,424.6"/>
</g>
<g id="XMLID_14_">
	<path id="XMLID_23_" d="M302.8,413.4c0.6,0.2,1.2,0.5,1.7,0.8c0.5,0.3,0.9,0.8,1.3,1.4c0.3,0.4,0.5,1,0.5,1.8
		c0,0.7-0.1,1.5-0.5,2.2c-0.4,0.9-0.8,1.6-1.4,2.3c-0.5,0.6-1,1.1-1.2,1.4c-0.2,0.1-0.5,0.4-0.9,0.8c-0.5,0.4-1,0.8-1.6,1.2
		c-0.6,0.4-1.3,0.8-2,1s-1.4,0.5-2,0.5c-0.6,0-1.1-0.3-1.3-0.9c-0.2-0.4-0.1-0.8,0.3-1.3c0.4-0.5,0.7-0.9,1-1.1
		c0.4-0.2,0.9-0.6,1.6-1.1c0.7-0.5,1.3-1,1.9-1.5c0.6-0.5,1-1.1,1.4-1.7c0.4-0.6,0.4-1.2,0.1-1.8c-0.3-0.5-0.7-0.8-1.4-1
		c-0.7-0.2-1.3-0.3-1.8-0.4c-0.2,0-0.5-0.1-0.8-0.1c-0.3,0-0.7-0.1-1-0.3c-0.3-0.1-0.6-0.3-0.9-0.4s-0.4-0.4-0.5-0.7
		c-0.2-0.4-0.1-1.1,0.4-1.9c0.5-0.8,1-1.6,1.5-2.4c0.5-0.7,0.9-1.5,1.3-2.3c0.3-0.6,0.5-1.1,0.6-1.5c0.1-0.4,0.2-0.9,0.1-1.6
		c-0.1-0.6-0.4-0.8-0.9-0.8c-0.3,0-0.6,0-0.9,0.1c-0.3,0.1-0.6,0.2-0.9,0.3c-0.8,0.3-1.4,0.5-1.9,0.7c-0.4,0.2-0.9,0.3-1.5,0.3
		c-0.4,0-0.7-0.2-1-0.5c-0.2-0.3-0.3-0.7-0.3-1c0.1-0.3,0.2-0.6,0.4-0.8c0.2-0.2,0.6-0.5,1.2-0.8c0.9-0.4,2-0.8,3.1-1.1
		c1.1-0.4,2.3-0.5,3.5-0.6c0.4,0,0.8,0.1,1.3,0.3c0.5,0.2,0.9,0.5,1.1,0.9c0.3,0.5,0.5,1.2,0.5,1.9s0,1.5-0.2,2.3s-0.4,1.6-0.7,2.4
		c-0.3,0.8-0.6,1.5-0.9,2.2c-0.2,0.4-0.4,0.8-0.7,1.1c-0.3,0.3-0.3,0.6-0.3,0.9c0,0.3,0.3,0.5,0.9,0.5
		C301.8,413.1,302.3,413.2,302.8,413.4z"/>
</g>
<circle id="XMLID_12_" class="st2" cx="300" cy="412.9" r="18.5"/>
<path id="XMLID_11_" class="st3" d="M285.3,420.5"/>
<g id="XMLID_22_">
</g>
<g id="XMLID_52_">
</g>
<g id="XMLID_53_">
</g>
<g id="XMLID_54_">
</g>
<g id="XMLID_55_">
</g>
<g id="XMLID_56_">
</g>
<g id="XMLID_57_">
</g>
</svg>
