<?xml version="1.0" encoding="utf-8"?>
<!-- Generator: Adobe Illustrator 19.0.0, SVG Export Plug-In . SVG Version: 6.00 Build 0)  -->
<svg version="1.1" id="레이어_1" xmlns="http://www.w3.org/2000/svg" xmlns:xlink="http://www.w3.org/1999/xlink" x="0px"
	 y="0px" viewBox="0 0 600 580" style="enable-background:new 0 0 600 580;" xml:space="preserve">
<style type="text/css">
	.st0{opacity:0.5;}
	.st1{fill:none;}
	.st2{fill:none;stroke:#000000;}
	.st3{fill:none;stroke:#000000;stroke-width:5;stroke-miterlimit:10;}
</style>
<g id="XMLID_9_" class="st0">
	<path id="XMLID_19_" d="M516.1,255.4c4.2,7.9,4,14.8-0.7,20.6c-4.7,5.8-12,10.7-22,14.7c-10,4-21.8,7.1-35.3,9.5
		c-13.5,2.3-27.1,4.1-40.6,5.3c-13.5,1.2-26,2-37.4,2.5c-11.4,0.5-20,0.7-25.6,0.7c0.5,14.5,0.5,26.8,0,37.1
		c-0.5,10.3-0.7,22.4-0.7,36.4c0,5.1-0.2,12.1-0.7,21c-0.5,8.9-1.3,17.9-2.5,27c-1.2,9.1-2.8,17.5-4.9,25.2c-2.1,7.7-5,13-8.8,15.8
		c-8.4,6.1-15.6,6.7-21.7,1.8c-6.1-4.9-10-10.8-11.9-17.8c-3.3-11.7-5.6-24-7-37.1c-1.4-13.1-2.5-26-3.1-38.8
		c-0.7-12.8-1.3-25.1-1.8-36.8c-0.5-11.7-1.4-22.4-2.8-32.2c-6.1-0.5-14.1-0.6-24.1-0.3c-10,0.2-21.1,0.5-33.3,0.7
		c-12.1,0.2-24.5-0.1-37.1-1c-12.6-0.9-24.4-2.7-35.3-5.3c-11-2.6-20.2-6.4-27.7-11.5c-7.5-5.1-12.1-12.1-14-21
		c-1.4-6.5-1.2-11.9,0.7-16.1c1.9-4.2,4.7-7.4,8.4-9.5c3.7-2.1,8.1-3.3,13-3.5c4.9-0.2,9.7,0.1,14.4,1c4.2,0.9,13.2,1.8,26.9,2.5
		c13.8,0.7,30.3,1.2,49.7,1.4c19.4,0.2,40.4,0.4,63,0.4c22.6,0,44.8-0.2,66.5-0.7c21.7-0.5,41.8-1.2,60.2-2.1
		c18.4-0.9,33.3-2.1,44.5-3.5c4.2-0.5,8.9-0.8,14-1.1c5.1-0.2,10,0,14.7,0.7c4.7,0.7,9,2.2,13,4.5
		C509.9,247.9,513.3,251.2,516.1,255.4z"/>
</g>
<g id="XMLID_3_">
	<path id="XMLID_25_" class="st1" d="M496.1,229.4"/>
</g>
<g id="XMLID_8_">
	<path id="XMLID_17_" class="st1" d="M370.7,142.1"/>
</g>
<g id="XMLID_1_">
	<path id="XMLID_14_" d="M81.3,280c-0.5,0.2-0.8,0.1-1.1-0.1c-0.3-0.2-0.5-0.6-0.6-1c-0.1-0.5-0.3-0.9-0.3-1.5c0-0.5-0.1-1-0.1-1.4
		c-0.1-1-0.2-1.9-0.2-2.8c0-0.9,0-1.8,0-2.6c-0.1-1-0.1-2,0-3l0-5.1c0-0.6,0.1-1.2,0.1-1.9c0-0.6,0.1-1.3,0.4-1.9
		c0.2-0.6,0.5-0.9,1-1c0.5-0.1,0.9,0.1,1.4,0.5c0.3,0.4,0.6,1,0.8,1.9c0.2,0.8,0.3,1.7,0.4,2.6c0.1,0.9,0.1,1.8,0.1,2.8
		c0,0.9,0,1.6,0,2.3v0c0,1.3,0,2.7-0.1,4.1c-0.1,1.4,0,2.9,0.1,4.5c0.1,0.8,0,1.5-0.4,2.2C82.5,279.2,82,279.6,81.3,280z"/>
</g>
<circle id="XMLID_4_" class="st2" cx="80.4" cy="269.4" r="18.5"/>
<g id="XMLID_7_">
	<path id="XMLID_11_" d="M394.5,387.1c0.7,0.5,1,1,1,1.6c-0.1,0.3-0.3,0.6-0.6,0.9c-0.3,0.3-0.7,0.4-1.1,0.5
		c-0.8,0.1-1.6,0.1-2.3,0.2c-0.7,0.1-1.4,0.1-2.1,0.2c-1,0.1-2,0.2-3,0.3c-1,0.1-2.1,0.1-3.3,0.1c-0.7,0-1.3-0.1-1.9-0.3
		s-1-0.5-1.3-1.1c-0.2-0.5-0.2-0.9,0-1.2c0.2-0.4,0.5-0.8,0.9-1.4c0.1-0.1,0.3-0.4,0.5-0.8c0.2-0.4,0.5-0.8,0.9-1.3
		c0.3-0.5,0.7-1,1.1-1.6c0.4-0.6,0.8-1.2,1.2-1.7c2.1-2.9,3.1-5,2.9-6.3c-0.1-0.4-0.4-0.7-0.9-0.9c-0.5-0.2-1.2-0.3-2-0.3
		s-1.5,0.1-2.3,0.3s-1.5,0.3-2.3,0.3c-0.5-0.1-0.7-0.3-0.8-0.7c-0.1-0.4-0.1-0.8,0-1.1c0.1-0.4,0.3-0.6,0.6-0.8s0.6-0.4,0.9-0.5
		c0.7-0.3,1.5-0.5,2.5-0.6c1-0.1,1.9-0.1,2.9,0c1,0.1,1.8,0.3,2.7,0.6c0.8,0.3,1.5,0.7,2.1,1.2c0.3,0.3,0.5,0.7,0.6,1.2
		c0.1,0.5,0.1,1,0,1.6c-0.1,0.5-0.2,1.1-0.3,1.6c-0.2,0.5-0.3,0.9-0.4,1.2c-0.2,0.5-0.4,1-0.6,1.5c-0.2,0.5-0.5,1.2-0.9,1.9
		c-0.4,0.7-0.9,1.6-1.6,2.5c-0.6,1-1.4,2.2-2.4,3.6l6.2-0.3c0.6,0,1.1-0.1,1.7-0.1C393.5,386.8,394,386.9,394.5,387.1z"/>
</g>
<circle id="XMLID_5_" class="st2" cx="385.7" cy="380.8" r="18.5"/>
<path id="XMLID_13_" class="st3" d="M371,388.4"/>
<path id="XMLID_6_" class="st3" d="M397.5,135.1"/>
<g id="XMLID_18_">
	<g id="XMLID_31_">
		<line id="XMLID_34_" class="st3" x1="323.2" y1="290" x2="323.2" y2="435.7"/>
		<g id="XMLID_32_">
			<path id="XMLID_33_" d="M323.2,450.8c-2.6-7.1-7.1-15.9-11.9-21.4l11.9,4.3l11.9-4.3C330.3,434.9,325.8,443.7,323.2,450.8z"/>
		</g>
	</g>
</g>
<g id="XMLID_21_">
	<g id="XMLID_39_">
		<line id="XMLID_42_" class="st3" x1="153.4" y1="269.4" x2="472.5" y2="269.4"/>
		<g id="XMLID_40_">
			<path id="XMLID_41_" d="M487.6,269.4c-7.1,2.6-15.9,7.1-21.4,11.9l4.3-11.9l-4.3-11.9C471.7,262.3,480.5,266.8,487.6,269.4z"/>
		</g>
	</g>
</g>
<g id="XMLID_10_">
</g>
<g id="XMLID_22_">
</g>
<g id="XMLID_23_">
</g>
<g id="XMLID_26_">
</g>
<g id="XMLID_27_">
</g>
<g id="XMLID_28_">
</g>
<g id="XMLID_29_">
</g>
</svg>
