<?xml version="1.0" encoding="utf-8"?>
<!-- Generator: Adobe Illustrator 19.0.0, SVG Export Plug-In . SVG Version: 6.00 Build 0)  -->
<svg version="1.1" id="레이어_1" xmlns="http://www.w3.org/2000/svg" xmlns:xlink="http://www.w3.org/1999/xlink" x="0px"
	 y="0px" viewBox="0 0 600 580" style="enable-background:new 0 0 600 580;" xml:space="preserve">
<style type="text/css">
	.st0{opacity:0.5;}
	.st1{fill:none;}
	.st2{fill:none;stroke:#000000;}
	.st3{fill:none;stroke:#000000;stroke-width:5;stroke-miterlimit:10;}
</style>
<g id="XMLID_9_" class="st0">
	<path id="XMLID_53_" d="M310,345.5c4.7,7.9,6.1,14.4,4.2,19.7c-1.9,5.3-5.5,9.9-10.8,13.8c-5.4,3.9-12.1,7-20.3,9.3
		c-8.2,2.3-16.3,4.2-24.5,5.5c-8.2,1.4-15.8,2.4-22.8,3.1c-7,0.7-12.1,1-15.4,1c-0.5,0-0.7,0.2-0.7,0.7c-0.9,7-1.4,16.6-1.4,28.7
		c0,12.1,0,24.5,0,37.1c0,12.6-0.6,24.4-1.8,35.4c-1.2,11-3.6,19-7.4,24.1c-5.1,7-12.4,10-21.7,9.1c-9.3-0.9-15.6-5.6-18.9-14
		c-2.8-7-4.7-15.6-5.6-25.9c-0.9-10.3-1.6-21-2.1-32.2c-0.5-11.2-0.8-22.2-1-32.9c-0.2-10.7-1-20.1-2.5-28
		c-11.7-0.5-21.2-0.8-28.7-1.1c-7.5-0.2-14.4-0.5-20.6-0.7c-6.3-0.2-9.7-0.4-10.2-0.4c-8.9,0-18-0.9-27.3-2.8
		c-9.3-1.8-17-6.5-23.1-13.8c-5.1-6-7-12.9-5.6-20.7c1.4-7.8,6.3-13.4,14.7-16.6c6.5-2.8,12.6-4.3,18.2-4.5
		c5.6-0.2,11.9,0.1,18.9,1.1c32.2,3.7,63.9,4.4,95.2,2.1c31.3-2.3,62.8-4.7,94.5-7c5.1-0.5,10.3-0.1,15.4,1
		C303.9,338,307.7,340.8,310,345.5z M428.3,504.5c-0.9,6.5-3,13-6.3,19.3c-3.3,6.3-7.1,11.2-11.6,14.7c-4.4,3.5-9.6,4.8-15.4,3.8
		c-5.8-0.9-11.5-5.6-17.2-14c-5.1-10.3-8.2-21.1-9.1-32.5c-0.9-11.4-1.6-22.8-2.1-34c0-0.5-0.1-2-0.3-4.5c-0.2-2.6-0.8-3.9-1.8-3.9
		c-6.5,0-13,0.2-19.3,0.7c-6.3,0.5-12.7,0.7-19.3,0.7c-5.6,0-11.2,0-16.8,0c-5.6,0-11-1.6-16.1-4.9c-5.6-3.3-8.9-8.5-9.8-15.8
		c-0.9-7.2-0.2-13.6,2.1-19.3c2.3-6.1,6.8-9.6,13.3-10.5c6.5-0.9,12.6-1.6,18.2-2.1c7.9-0.9,14.2-1.3,18.9-1
		c4.7,0.2,11,0.1,18.9-0.4c3.7-0.5,6.8-0.8,9.1-1c2.3-0.2,3.5-2.5,3.5-6.6c1.4-20.1,2.1-39.8,2.1-59.2c0-19.4,0-38.4,0-57
		c0-26.6,0-52.7,0-78.4c0-25.7,0.9-51.8,2.8-78.4c0.5-6.5,1.3-13.6,2.5-21.4c1.2-7.7,5-13.4,11.5-17.1c7.5-4.2,15.3-4.7,23.5-1.4
		c8.2,3.3,13.2,7.7,15,13.3c6.1,24.3,9.3,48.8,9.8,73.5c0.5,24.7,0.5,49.2,0,73.5c-0.5,20.1-0.5,40.7,0,62c0.5,21.2,0.5,41.9,0,62
		c-0.5,25.2-0.8,48.4-1.1,69.6C433.3,455.4,431.6,478.8,428.3,504.5z M534.7,195.8c1.4,25.2,2.2,52.5,2.4,81.9
		c0.2,29.4,0.4,56.7,0.4,81.9c0.5,18.2,0.5,36.5,0,55c-0.5,18.4-0.9,36.8-1.4,55c0,3.7,0,9.7,0,17.8c0,8.2-0.9,16.5-2.8,24.9
		c-1.9,8.4-5,15.8-9.4,22c-4.4,6.3-10.8,9-19.3,8c-7.9-0.5-14-3.3-18.2-8.4c-4.2-5.1-7.1-11.5-8.8-19.3c-1.6-7.7-2.4-16-2.4-24.8
		c0-8.9,0-17.5,0-25.9c0-57.4-0.9-114.9-2.8-172.5c-1.9-57.6-1.6-114.9,0.7-171.8c0-6.5,0.3-13.2,1-20c0.7-6.8,3.9-12,9.5-15.8
		c4.2-3.3,9.4-5.5,15.8-6.6c6.3-1.2,11.8-0.1,16.4,3.1c7,5.1,11,12.6,11.9,22.4c0.9,9.8,1.9,18.7,2.8,26.6
		c0.9,10.7,1.6,21.2,2.1,31.5C533.1,171,533.8,182.7,534.7,195.8z"/>
</g>
<g id="XMLID_3_">
	<path id="XMLID_40_" class="st1" d="M141.7,453.6"/>
</g>
<g id="XMLID_8_">
	<path id="XMLID_17_" class="st1" d="M276.4,107.9"/>
</g>
<g id="XMLID_1_">
	<path id="XMLID_51_" d="M104.3,323.1c-0.5,0.2-0.8,0.1-1.1-0.1c-0.3-0.2-0.5-0.6-0.6-1s-0.3-0.9-0.3-1.5c0-0.5-0.1-1-0.1-1.4
		c-0.1-1-0.2-1.9-0.2-2.8c0-0.9,0-1.8,0-2.6c-0.1-1-0.1-2,0-3l0-5.2c0-0.6,0.1-1.2,0.1-1.9c0-0.6,0.1-1.3,0.4-1.9
		c0.2-0.6,0.5-0.9,1-1s0.9,0.1,1.4,0.5c0.3,0.4,0.6,1,0.8,1.9c0.2,0.8,0.3,1.7,0.4,2.6c0.1,0.9,0.1,1.8,0.1,2.8s0,1.7,0,2.3v0
		c0,1.3,0,2.7-0.1,4.1c-0.1,1.4,0,2.9,0.1,4.5c0.1,0.8,0,1.5-0.4,2.2C105.4,322.3,104.9,322.8,104.3,323.1z"/>
</g>
<circle id="XMLID_4_" class="st2" cx="103.3" cy="312.6" r="18.5"/>
<g id="XMLID_7_">
	<path id="XMLID_49_" d="M145.5,450.1c0.7,0.5,1,1,1,1.6c-0.1,0.3-0.3,0.6-0.6,0.9s-0.7,0.4-1.1,0.5c-0.8,0.1-1.6,0.1-2.3,0.2
		c-0.7,0.1-1.4,0.1-2.1,0.2c-1,0.1-2.1,0.2-3.1,0.3s-2.1,0.1-3.3,0.1c-0.7,0-1.3-0.1-1.9-0.3c-0.6-0.2-1-0.5-1.3-1.1
		c-0.2-0.5-0.2-0.9,0-1.2c0.2-0.4,0.5-0.8,0.9-1.4c0.1-0.1,0.3-0.4,0.5-0.8c0.2-0.4,0.5-0.8,0.9-1.3s0.7-1,1.1-1.6
		c0.4-0.6,0.8-1.2,1.2-1.7c2.1-2.9,3.1-5,2.9-6.4c-0.1-0.4-0.4-0.7-0.9-0.9c-0.5-0.2-1.2-0.3-2-0.3c-0.8,0-1.5,0.1-2.3,0.3
		c-0.7,0.2-1.5,0.3-2.3,0.3c-0.5-0.1-0.7-0.3-0.8-0.7c-0.1-0.4-0.1-0.8,0-1.1c0.1-0.4,0.3-0.7,0.6-0.8c0.3-0.2,0.6-0.4,0.9-0.6
		c0.7-0.3,1.5-0.5,2.5-0.6c1-0.1,1.9-0.1,2.9,0c1,0.1,1.9,0.3,2.7,0.6s1.5,0.7,2.1,1.2c0.3,0.3,0.5,0.7,0.6,1.2c0.1,0.5,0.1,1,0,1.6
		c-0.1,0.5-0.2,1.1-0.3,1.6s-0.3,0.9-0.4,1.2c-0.2,0.5-0.4,1-0.6,1.5c-0.2,0.5-0.5,1.2-0.9,1.9c-0.4,0.7-0.9,1.6-1.6,2.5
		c-0.6,1-1.4,2.2-2.4,3.5l6.2-0.3c0.6,0,1.1-0.1,1.7-0.1C144.5,449.8,145.1,449.9,145.5,450.1z"/>
</g>
<circle id="XMLID_5_" class="st2" cx="136.7" cy="443.7" r="18.5"/>
<path id="XMLID_13_" class="st3" d="M122,451.4"/>
<path id="XMLID_6_" class="st3" d="M303.3,100.9"/>
<g id="XMLID_18_">
	<g id="XMLID_57_">
		<line id="XMLID_60_" class="st3" x1="403.8" y1="111" x2="403.8" y2="488.4"/>
		<g id="XMLID_58_">
			<path id="XMLID_59_" d="M403.8,503.4c-2.6-7.1-7.1-15.9-11.9-21.4l11.9,4.3l11.9-4.3C410.9,487.5,406.4,496.3,403.8,503.4z"/>
		</g>
	</g>
</g>
<g id="XMLID_21_">
	<g id="XMLID_65_">
		<line id="XMLID_73_" class="st3" x1="185" y1="367.8" x2="185" y2="488.4"/>
		<g id="XMLID_66_">
			<path id="XMLID_67_" d="M185,503.4c-2.6-7.1-7.1-15.9-11.9-21.4l11.9,4.3l11.9-4.3C192.1,487.5,187.6,496.3,185,503.4z"/>
		</g>
	</g>
</g>
<g id="XMLID_10_">
	<g id="XMLID_55_">
		<line id="XMLID_63_" class="st3" x1="299.2" y1="425.2" x2="382.3" y2="425.2"/>
		<g id="XMLID_61_">
			<path id="XMLID_62_" d="M397.4,425.2c-7.1,2.6-15.9,7.1-21.4,11.9l4.3-11.9l-4.3-11.9C381.5,418.1,390.3,422.6,397.4,425.2z"/>
		</g>
	</g>
</g>
<g id="XMLID_15_">
	<path id="XMLID_20_" class="st1" d="M334.8,490.6"/>
</g>
<g id="XMLID_14_">
	<path id="XMLID_47_" d="M332.6,481.2c0.6,0.2,1.2,0.5,1.7,0.9c0.5,0.3,0.9,0.8,1.3,1.3c0.3,0.4,0.5,1,0.5,1.8
		c0,0.7-0.1,1.5-0.5,2.2c-0.4,0.9-0.8,1.6-1.4,2.3c-0.5,0.6-1,1.1-1.2,1.3c-0.2,0.1-0.5,0.4-0.9,0.8c-0.5,0.4-1,0.8-1.6,1.2
		c-0.6,0.4-1.3,0.8-2,1c-0.7,0.3-1.4,0.5-2,0.5c-0.6,0-1.1-0.3-1.3-0.8c-0.2-0.4-0.1-0.8,0.3-1.3c0.4-0.5,0.7-0.9,1-1.1
		c0.4-0.2,0.9-0.6,1.6-1c0.7-0.5,1.3-1,1.9-1.5c0.6-0.5,1-1.1,1.4-1.7c0.4-0.6,0.4-1.2,0.1-1.8c-0.3-0.5-0.8-0.8-1.4-1
		c-0.7-0.2-1.3-0.3-1.8-0.4c-0.2,0-0.5-0.1-0.8-0.1c-0.3-0.1-0.7-0.1-1-0.3c-0.3-0.1-0.6-0.3-0.9-0.4c-0.3-0.2-0.4-0.4-0.5-0.6
		c-0.2-0.4-0.1-1.1,0.4-1.9c0.5-0.8,1-1.6,1.5-2.3c0.5-0.7,0.9-1.5,1.3-2.4c0.3-0.6,0.5-1.1,0.6-1.5c0.1-0.4,0.2-0.9,0.1-1.6
		c-0.1-0.6-0.4-0.8-0.9-0.8c-0.3,0-0.6,0-0.9,0.1c-0.3,0.1-0.6,0.2-0.9,0.3c-0.8,0.3-1.4,0.5-1.9,0.7c-0.4,0.2-0.9,0.3-1.5,0.3
		c-0.4,0-0.7-0.2-1-0.5c-0.2-0.3-0.3-0.7-0.3-1c0.1-0.3,0.2-0.6,0.4-0.9c0.2-0.2,0.6-0.5,1.2-0.8c0.9-0.4,2-0.8,3.1-1.1
		c1.1-0.3,2.3-0.5,3.5-0.6c0.4,0,0.8,0.1,1.3,0.3c0.5,0.2,0.9,0.5,1.1,0.9c0.3,0.5,0.5,1.2,0.5,1.9c0,0.7,0,1.5-0.2,2.3
		c-0.2,0.8-0.4,1.6-0.7,2.4c-0.3,0.8-0.6,1.5-0.9,2.2c-0.2,0.4-0.4,0.8-0.7,1.1s-0.3,0.6-0.3,0.9c0,0.3,0.3,0.5,0.9,0.5
		C331.6,480.9,332.1,481,332.6,481.2z"/>
</g>
<circle id="XMLID_12_" class="st2" cx="329.8" cy="480.7" r="18.5"/>
<path id="XMLID_11_" class="st3" d="M315.1,488.4"/>
<g id="XMLID_22_">
	<g id="XMLID_75_">
		<line id="XMLID_78_" class="st3" x1="72.8" y1="368.5" x2="269" y2="362.9"/>
		<g id="XMLID_76_">
			<path id="XMLID_77_" d="M284.1,362.5c-7,2.8-15.7,7.6-21,12.5l4-12l-4.6-11.8C268,355.8,276.9,360.1,284.1,362.5z"/>
		</g>
	</g>
</g>
<g id="XMLID_28_">
	<path id="XMLID_46_" class="st1" d="M402.4,65.5"/>
</g>
<g id="XMLID_27_">
	<path id="XMLID_42_" d="M407.6,57c0.3,0,0.6,0.1,1,0.3c0.4,0.1,0.6,0.4,0.6,0.8c0,0.5-0.1,0.8-0.3,1.1c-0.2,0.3-0.6,0.5-1.1,0.8
		c-0.9,0.2-1.5,0.3-1.9,0.4c-0.4,0.1-0.7,0.1-1,0.2c-0.2,0-0.4,0.1-0.6,0.1c-0.2,0-0.4,0-0.8,0.1c0,0.3,0,0.7,0,1.4
		c0,0.7,0,1.3,0,1.9c0,0.5,0,0.9,0,1.4c0,0.5,0,0.9-0.1,1.3c-0.1,0.4-0.2,0.7-0.5,1c-0.2,0.3-0.6,0.4-1,0.4c-0.6,0-1-0.2-1.3-0.5
		c-0.3-0.3-0.5-0.8-0.6-1.5c-0.1-0.6-0.2-1.4-0.2-2.4s-0.1-1.9-0.1-2.7c0,0-0.2,0-0.7,0c-0.5,0-1.1,0.1-1.9,0.1s-1.6,0-2.5,0
		c-0.9,0-1.7-0.1-2.5-0.2c-0.6-0.1-1.1-0.4-1.4-0.8c-0.7-1.1-0.8-3.1-0.3-6c0.3-1.4,0.6-2.6,0.9-3.7c0.4-1.1,0.6-1.8,0.7-2
		c0-0.1,0.1-0.3,0.3-0.6c0.2-0.3,0.4-0.4,0.6-0.4c0.7,0,1.2,0.2,1.5,0.6c0.3,0.4,0.4,0.9,0.4,1.5c0,0.6-0.1,1.2-0.2,1.9
		c-0.2,0.7-0.3,1.3-0.3,1.9c-0.1,1.1-0.2,2-0.2,2.7c0,0.7,0,1.2,0.1,1.5c0.1,0.2,0.2,0.3,0.4,0.3c0.2,0.1,0.6,0.1,1.2,0.1
		c0.6,0,1.2,0,1.8-0.1c0.6,0,1.1-0.1,1.5-0.1c0.5-0.1,0.7-0.1,0.7-0.2v-2.1c0-0.9,0-1.8,0.1-2.7c0-0.9,0-1.8,0-2.7
		c0-0.8,0-1.5,0-2.2c0-0.7,0.2-1.3,0.5-2c0.1-0.3,0.4-0.5,0.8-0.6c0.4,0,0.7,0.1,0.9,0.4c0.3,0.4,0.5,0.9,0.7,1.5
		c0.2,0.6,0.3,1.3,0.4,2c0.1,0.7,0.2,1.4,0.2,2.2c0,0.8,0,1.5,0,2.1v2.3c0,0.6,0,1.2,0,1.9c0.1,0,0.3,0,0.7-0.1
		c0.4,0,0.8-0.1,1.2-0.1c0.5,0,0.9-0.1,1.3-0.1C407.1,56.9,407.4,56.9,407.6,57z"/>
</g>
<circle id="XMLID_26_" class="st2" cx="397.4" cy="55.6" r="18.5"/>
<path id="XMLID_23_" class="st3" d="M382.7,63.3"/>
<g id="XMLID_29_">
	<g id="XMLID_69_">
		<line id="XMLID_72_" class="st3" x1="503.1" y1="111.7" x2="503.1" y2="488.4"/>
		<g id="XMLID_70_">
			<path id="XMLID_71_" d="M503.1,503.4c-2.6-7.1-7.1-15.9-11.9-21.4l11.9,4.3l11.9-4.3C510.2,487.5,505.7,496.3,503.1,503.4z"/>
		</g>
	</g>
</g>
<g id="XMLID_31_">
	<path id="XMLID_41_" class="st1" d="M508.1,60.8"/>
</g>
<g id="XMLID_30_">
	<path id="XMLID_34_" d="M504,49.7c1,0,2,0.2,3,0.6c1,0.4,1.7,1.1,2.1,2.1c0.5,1,0.4,2.3-0.1,3.8c-0.3,0.7-0.5,1.3-0.8,2
		c-0.3,0.6-0.6,1.2-0.9,1.8c-0.5,0.7-1,1.4-1.6,2c-0.6,0.6-1.3,1-2.1,1.1c-0.3,0-0.6,0-0.9-0.1c-0.3-0.1-0.5-0.3-0.7-0.6
		c-0.3-0.6-0.3-1.2,0-1.7c0.1-0.2,0.2-0.3,0.3-0.4c0.1-0.1,0.2-0.3,0.3-0.4c0.3-0.2,0.6-0.7,1.1-1.4c0.5-0.7,0.8-1.5,1.1-2.2
		c0.3-0.8,0.4-1.4,0.3-2c-0.1-0.6-0.5-0.9-1.4-0.9c-0.8,0-1.5,0.1-2.1,0.2c-0.7,0.1-1.4,0.1-2.1,0.1c-0.3,0-0.6-0.1-1-0.3
		c-0.3-0.2-0.5-0.4-0.7-0.6c-0.2-0.5-0.4-1.1-0.5-2s-0.1-1.8-0.1-2.7c0-0.9,0-1.9,0.1-2.8c0-0.9,0.1-1.6,0.1-2.1l-0.3-0.4
		c-0.2-0.4-0.2-0.6-0.2-0.8c0-0.1,0.1-0.3,0.2-0.6c0.1-0.3,0.3-0.5,0.6-0.7c0.3-0.1,0.6-0.3,0.9-0.3c0.3-0.1,0.7-0.1,1-0.1
		c0.3,0,0.6,0,0.9,0c1.4,0,2.9,0,4.3,0.1c0.3,0,0.6,0,1,0.1c0.4,0.1,0.8,0.1,1.2,0.2c0.4,0.1,0.8,0.2,1.1,0.3
		c0.3,0.1,0.6,0.3,0.8,0.5c0.1,0.2,0.2,0.4,0.3,0.4c0,0.1,0.1,0.2,0,0.4c-0.1,0.4-0.3,0.7-0.7,1c-0.4,0.3-0.9,0.4-1.4,0.4h-5
		c-0.5,0-0.8,0.2-0.9,0.5c-0.1,0.3-0.1,0.6-0.1,0.8c0,0.4,0,0.9,0,1.3c0,0.5,0,0.9,0,1.4c0,0.3,0,0.6,0,1.1c0,0.4,0.1,0.7,0.2,0.9
		c0.2,0.2,0.5,0.3,0.8,0.3c0.2,0,0.5,0,0.7,0C503,49.7,503.4,49.7,504,49.7z"/>
</g>
<circle id="XMLID_25_" class="st2" cx="503.1" cy="51" r="18.5"/>
<path id="XMLID_24_" class="st3" d="M488.3,58.6"/>
<g id="XMLID_33_">
</g>
<g id="XMLID_82_">
</g>
<g id="XMLID_83_">
</g>
<g id="XMLID_84_">
</g>
<g id="XMLID_85_">
</g>
<g id="XMLID_86_">
</g>
<g id="XMLID_87_">
</g>
</svg>
