<?xml version="1.0" encoding="utf-8"?>
<!-- Generator: Adobe Illustrator 19.0.0, SVG Export Plug-In . SVG Version: 6.00 Build 0)  -->
<svg version="1.1" id="레이어_1" xmlns="http://www.w3.org/2000/svg" xmlns:xlink="http://www.w3.org/1999/xlink" x="0px"
	 y="0px" viewBox="0 0 600 580" style="enable-background:new 0 0 600 580;" xml:space="preserve">
<style type="text/css">
	.st0{opacity:0.5;}
	.st1{fill:none;}
	.st2{fill:none;stroke:#000000;}
	.st3{fill:none;stroke:#000000;stroke-width:5;stroke-miterlimit:10;}
</style>
<g id="XMLID_9_" class="st0">
	<path id="XMLID_30_" d="M411.5,365.9c-5.6,6.8-14,12.4-25.2,16.8c-11.2,4.4-24.3,8.1-39.2,10.9c-14.9,2.8-28.9,4.9-42,6.3
		c-13.1,1.4-24,2.3-32.9,2.8c-8.9,0.5-13.1,0.7-12.6,0.7c-0.5,0-0.7,0.2-0.7,0.7c-0.9,7-1.4,16.2-1.4,27.6c0,11.4,0,23,0,34.7
		c0,11.7-0.6,22.6-1.8,32.9c-1.2,10.3-3.6,18-7.4,23.1c-5.1,7-12.4,10-21.7,9.1c-9.3-0.9-15.6-5.6-18.9-14c-2.8-7-4.7-15.3-5.6-24.8
		c-0.9-9.6-1.6-19.5-2.1-29.8c-0.5-10.3-0.8-20.4-1.1-30.5c-0.2-10-1-19-2.4-27c-11.7-0.5-21.2-0.8-28.7-1
		c-7.5-0.2-14.4-0.5-20.6-0.7c-6.3-0.2-9.7-0.3-10.1-0.3c-8.9,0-18-0.9-27.3-2.8c-9.3-1.9-17-6.5-23.1-14c-5.1-6.1-7-13.1-5.6-21
		c1.4-7.9,6.3-13.5,14.7-16.8c6.5-2.8,12.6-4.3,18.2-4.6c5.6-0.2,11.9,0.1,18.9,1.1c15.9,1.9,35,2.4,57.4,1.8
		c22.4-0.7,45.4-2,69-3.9c23.6-1.9,46.4-3.8,68.6-6c22.2-2.1,41.2-3.8,57.1-5.3c5.1-0.5,10.3-0.1,15.4,1.1c5.1,1.2,8.9,4.1,11.2,8.8
		C417.1,351.1,417.1,359.1,411.5,365.9z M453.1,212.6c1.6,28.2,3.1,57.6,4.6,88.2c1.4,30.6,2.1,62,2.1,94.1c0,32.2-1,64.9-2.8,98
		c-0.5,5.1-0.5,10.4,0,15.8c0.5,5.4,1.8,10.4,3.9,15.1c2.1,4.7,5.2,8.3,9.2,10.8c4,2.6,9.6,3.6,16.6,3.2c7.1-0.5,12.7-5,17-13.7
		c4.2-8.6,7.5-18.8,9.9-30.5c2.4-11.7,3.9-23.6,4.6-35.7c0.7-12.1,1.1-21.9,1.1-29.4c0-0.9,0.1-7.1,0.4-18.5c0.2-11.4,0.2-26,0-43.8
		c-0.2-17.7-0.6-37.7-1.1-59.9c-0.5-22.2-1.4-44.6-2.8-67.2c-1.4-22.6-3.4-44.4-6-65.4c-2.6-21-6-39.2-10.3-54.6
		c-4.2-15.4-9.4-27-15.6-34.6c-6.1-7.7-13.2-9.7-21.2-6c-4.7,2.3-8,5.6-9.9,9.8c-1.9,4.2-3.1,8.9-3.8,14c-0.7,5.1-0.9,10.4-0.7,15.8
		c0.2,5.4,0.3,10.1,0.3,14.3C450,157.7,451.5,184.4,453.1,212.6z"/>
</g>
<g id="XMLID_3_">
	<path id="XMLID_40_" class="st1" d="M183.4,459.6"/>
</g>
<g id="XMLID_8_">
	<path id="XMLID_17_" class="st1" d="M258.4,81.3"/>
</g>
<g id="XMLID_1_">
	<path id="XMLID_28_" d="M107.6,328.9c-0.5,0.2-0.8,0.1-1.1-0.1c-0.3-0.2-0.5-0.6-0.6-1s-0.3-0.9-0.3-1.5c0-0.5-0.1-1-0.1-1.4
		c-0.1-1-0.2-1.9-0.2-2.8c0-0.9,0-1.8,0-2.6c-0.1-1-0.1-2,0-3l0-5.2c0-0.6,0.1-1.2,0.1-1.9c0-0.6,0.1-1.3,0.4-1.9
		c0.2-0.6,0.5-0.9,1-1s0.9,0.1,1.4,0.5c0.3,0.4,0.6,1,0.8,1.9c0.2,0.8,0.3,1.7,0.4,2.6c0.1,0.9,0.1,1.8,0.1,2.8s0,1.7,0,2.3v0
		c0,1.3,0,2.7-0.1,4.1c-0.1,1.4,0,2.9,0.1,4.5c0.1,0.8,0,1.5-0.4,2.2C108.8,328.1,108.3,328.6,107.6,328.9z"/>
</g>
<circle id="XMLID_4_" class="st2" cx="106.7" cy="318.4" r="18.5"/>
<g id="XMLID_7_">
	<path id="XMLID_26_" d="M187.2,456c0.7,0.5,1,1,1,1.6c-0.1,0.3-0.3,0.6-0.6,0.9c-0.3,0.3-0.7,0.4-1.1,0.5c-0.8,0.1-1.6,0.1-2.3,0.2
		c-0.7,0.1-1.4,0.1-2.1,0.2c-1,0.1-2.1,0.2-3.1,0.3c-1,0.1-2.1,0.1-3.3,0.1c-0.7,0-1.3-0.1-1.9-0.3c-0.6-0.2-1-0.5-1.3-1.1
		c-0.2-0.5-0.2-0.9,0-1.2c0.2-0.4,0.5-0.8,0.9-1.4c0.1-0.1,0.3-0.4,0.5-0.8c0.2-0.4,0.5-0.8,0.9-1.3s0.7-1,1.1-1.6
		c0.4-0.6,0.8-1.2,1.2-1.7c2.1-2.9,3.1-5,2.9-6.3c-0.1-0.4-0.4-0.7-0.9-0.9c-0.5-0.2-1.2-0.3-2-0.3c-0.8,0-1.5,0.1-2.3,0.3
		c-0.7,0.2-1.5,0.3-2.3,0.3c-0.5-0.1-0.7-0.3-0.8-0.7c-0.1-0.4-0.1-0.8,0-1.1c0.1-0.4,0.3-0.6,0.6-0.8s0.6-0.4,0.9-0.5
		c0.7-0.3,1.5-0.5,2.5-0.6c1-0.1,1.9-0.1,2.9,0c1,0.1,1.9,0.3,2.7,0.6c0.9,0.3,1.5,0.7,2.1,1.2c0.3,0.3,0.5,0.7,0.6,1.2
		c0.1,0.5,0.1,1,0,1.6c-0.1,0.5-0.2,1.1-0.3,1.6s-0.3,0.9-0.4,1.2c-0.2,0.5-0.4,1-0.6,1.5c-0.2,0.5-0.5,1.2-0.9,1.9
		s-0.9,1.6-1.6,2.5c-0.6,1-1.4,2.2-2.4,3.6l6.2-0.3c0.6,0,1.1-0.1,1.7-0.1C186.2,455.8,186.7,455.8,187.2,456z"/>
</g>
<circle id="XMLID_5_" class="st2" cx="178.4" cy="449.7" r="18.5"/>
<path id="XMLID_13_" class="st3" d="M163.6,457.3"/>
<path id="XMLID_6_" class="st3" d="M285.2,74.3"/>
<g id="XMLID_18_">
	<g id="XMLID_45_">
		<line id="XMLID_57_" class="st3" x1="477.4" y1="108.1" x2="477.4" y2="474.5"/>
		<g id="XMLID_46_">
			<path id="XMLID_56_" d="M477.4,489.6c-2.6-7.1-7.1-15.9-11.9-21.4l11.9,4.3l11.9-4.3C484.5,473.6,480,482.5,477.4,489.6z"/>
		</g>
	</g>
</g>
<g id="XMLID_21_">
	<g id="XMLID_52_">
		<line id="XMLID_61_" class="st3" x1="228.1" y1="380.2" x2="228.1" y2="487.7"/>
		<g id="XMLID_53_">
			<path id="XMLID_54_" d="M228.1,502.8c-2.6-7.1-7.1-15.9-11.9-21.4l11.9,4.3l11.9-4.3C235.2,486.8,230.7,495.7,228.1,502.8z"/>
		</g>
	</g>
</g>
<g id="XMLID_42_">
	<path id="XMLID_67_" class="st1" d="M455.2,290.6"/>
</g>
<g id="XMLID_33_">
	<path id="XMLID_49_" class="st1" d="M356.9,290.6"/>
</g>
<g id="XMLID_15_">
	<path id="XMLID_20_" class="st1" d="M478.7,54.3"/>
</g>
<g id="XMLID_14_">
	<path id="XMLID_24_" d="M476.5,44.9c0.6,0.2,1.2,0.5,1.7,0.9c0.5,0.3,0.9,0.8,1.3,1.4c0.3,0.4,0.5,1,0.5,1.8c0,0.7-0.1,1.5-0.5,2.2
		c-0.4,0.9-0.8,1.6-1.4,2.3c-0.5,0.6-1,1.1-1.2,1.4c-0.2,0.1-0.5,0.4-0.9,0.8c-0.5,0.4-1,0.8-1.6,1.2c-0.6,0.4-1.3,0.8-2,1
		c-0.7,0.3-1.4,0.5-2,0.5c-0.6,0-1.1-0.3-1.3-0.9c-0.2-0.4-0.1-0.8,0.3-1.3c0.4-0.5,0.7-0.9,1-1.1c0.4-0.2,0.9-0.6,1.6-1.1
		c0.7-0.5,1.3-1,1.9-1.5c0.6-0.5,1-1.1,1.4-1.7c0.4-0.6,0.4-1.2,0.1-1.8c-0.3-0.5-0.8-0.8-1.4-1c-0.7-0.2-1.3-0.3-1.8-0.4
		c-0.2,0-0.5-0.1-0.8-0.1c-0.3-0.1-0.7-0.1-1-0.3c-0.3-0.1-0.6-0.3-0.9-0.4c-0.3-0.2-0.4-0.4-0.5-0.6c-0.2-0.4-0.1-1.1,0.4-1.9
		c0.5-0.8,1-1.6,1.5-2.4c0.5-0.7,0.9-1.5,1.3-2.4c0.3-0.6,0.5-1.1,0.6-1.5c0.1-0.4,0.2-0.9,0.1-1.6c-0.1-0.6-0.4-0.8-0.9-0.8
		c-0.3,0-0.6,0-0.9,0.1c-0.3,0.1-0.6,0.2-0.9,0.3c-0.8,0.3-1.4,0.5-1.9,0.7c-0.4,0.2-0.9,0.3-1.5,0.3c-0.4,0-0.7-0.2-1-0.5
		c-0.2-0.3-0.3-0.7-0.3-1c0.1-0.3,0.2-0.6,0.4-0.9c0.2-0.2,0.6-0.5,1.2-0.8c0.9-0.4,2-0.8,3.1-1.1c1.1-0.4,2.3-0.5,3.5-0.6
		c0.4,0,0.8,0.1,1.3,0.3c0.5,0.2,0.9,0.5,1.1,0.9c0.3,0.5,0.5,1.2,0.5,1.9c0,0.7,0,1.5-0.2,2.3c-0.2,0.8-0.4,1.6-0.7,2.4
		c-0.3,0.8-0.6,1.5-0.9,2.2c-0.2,0.4-0.4,0.8-0.7,1.1c-0.3,0.3-0.3,0.6-0.3,0.9c0,0.3,0.3,0.5,0.9,0.5
		C475.5,44.6,476,44.7,476.5,44.9z"/>
</g>
<circle id="XMLID_12_" class="st2" cx="473.7" cy="44.4" r="18.5"/>
<path id="XMLID_11_" class="st3" d="M458.9,52.1"/>
<g id="XMLID_22_">
	<g id="XMLID_59_">
		<line id="XMLID_63_" class="st3" x1="117" y1="369.7" x2="352.6" y2="364"/>
		<g id="XMLID_60_">
			<path id="XMLID_62_" d="M367.6,363.7c-7,2.8-15.7,7.5-21.1,12.4l4-12l-4.6-11.8C351.6,356.9,360.5,361.2,367.6,363.7z"/>
		</g>
	</g>
</g>
<g id="XMLID_43_">
	<path id="XMLID_74_" class="st1" d="M467.1,449.7"/>
</g>
<g id="XMLID_10_">
	<path id="XMLID_71_" class="st1" d="M467.1,101.8"/>
</g>
<g id="XMLID_23_">
</g>
<g id="XMLID_34_">
</g>
<g id="XMLID_35_">
</g>
<g id="XMLID_41_">
</g>
<g id="XMLID_64_">
</g>
<g id="XMLID_65_">
</g>
<g id="XMLID_66_">
</g>
</svg>
