<?xml version="1.0" encoding="utf-8"?>
<!-- Generator: Adobe Illustrator 19.0.0, SVG Export Plug-In . SVG Version: 6.00 Build 0)  -->
<svg version="1.1" id="레이어_1" xmlns="http://www.w3.org/2000/svg" xmlns:xlink="http://www.w3.org/1999/xlink" x="0px"
	 y="0px" viewBox="0 0 600 580" style="enable-background:new 0 0 600 580;" xml:space="preserve">
<style type="text/css">
	.st0{opacity:0.5;}
	.st1{fill:none;}
	.st2{fill:none;stroke:#000000;}
	.st3{fill:none;stroke:#000000;stroke-width:5;stroke-miterlimit:10;}
</style>
<g id="XMLID_9_" class="st0">
	<path id="XMLID_23_" d="M332.4,384.3c5.6-0.9,11.4-1.9,17.5-2.8c6.1-0.9,11.7-1.3,16.8-1c5.1,0.2,9.8,1.4,14,3.5
		c4.2,2.1,7.2,5.5,9.1,10.2c3.7,9.8,1.6,18.4-6.3,25.9c-7.9,7.5-19.1,14-33.6,19.6c-14.5,5.6-30.8,10.4-49,14.3
		c-18.2,4-35.5,7.2-51.8,9.8c-16.3,2.6-30.5,4.4-42.4,5.6c-11.9,1.2-18.8,1.8-20.6,1.8c-7.5,0-16.9,0-28.4,0
		c-11.4,0-22.4-1-32.9-3.2c-10.5-2.1-19.5-5.7-27-10.8c-7.5-5.1-11-12.8-10.5-23.1c0.5-13.1,4.8-21,13-23.8
		c8.2-2.8,16.9-3.7,26.3-2.8c37.8,4.2,73.6,3.4,107.4-2.5C267.8,399.1,300.6,392.2,332.4,384.3z M412.2,136.5c0-4.2-0.1-9-0.4-14.3
		c-0.2-5.4,0-10.6,0.7-15.8c0.7-5.1,2-9.8,3.9-14c1.9-4.2,5.2-7.5,9.9-9.8c8-3.7,15.1-2.2,21.2,4.6c6.1,6.8,11.3,17.1,15.6,31.1
		s7.7,30.6,10.3,49.7c2.6,19.1,4.6,39,6,59.5c1.4,20.5,2.4,41,2.8,61.3c0.5,20.3,0.8,38.6,1.1,55c0.2,16.3,0.2,29.8,0,40.3
		c-0.2,10.5-0.3,16.2-0.3,17.2c0,7.5-0.4,17.3-1.1,29.4c-0.7,12.1-2.2,24-4.6,35.7c-2.4,11.7-5.7,21.8-9.9,30.5
		c-4.3,8.6-9.9,13.2-17,13.7c-7.1,0.5-12.6-0.6-16.6-3.2c-4-2.6-7.1-6.2-9.2-10.8c-2.1-4.7-3.4-9.7-3.9-15.1
		c-0.5-5.4-0.5-10.6,0-15.8c1.9-33.1,2.8-64.2,2.8-93.1c0-28.9-0.7-56.7-2.1-83.3c-1.4-26.6-2.9-52.4-4.6-77.4
		C415.1,186.8,413.6,161.7,412.2,136.5z"/>
</g>
<g id="XMLID_3_">
	<path id="XMLID_40_" class="st1" d="M502.8,115.4"/>
</g>
<g id="XMLID_8_">
	<path id="XMLID_17_" class="st1" d="M250.2,96.4"/>
</g>
<g id="XMLID_1_">
	<path id="XMLID_14_" d="M150.6,390.9c-0.5,0.2-0.8,0.1-1.1-0.1c-0.3-0.2-0.5-0.6-0.6-1c-0.1-0.5-0.3-0.9-0.3-1.5
		c0-0.5-0.1-1-0.1-1.4c-0.1-1-0.2-1.9-0.2-2.8c0-0.9,0-1.8,0-2.7c-0.1-1-0.1-2,0-3l0-5.1c0-0.6,0.1-1.2,0.1-1.9
		c0-0.7,0.1-1.3,0.4-1.9c0.2-0.6,0.5-0.9,1-1c0.5-0.1,0.9,0.1,1.4,0.5c0.3,0.4,0.6,1,0.8,1.8c0.2,0.8,0.3,1.7,0.4,2.6
		c0.1,0.9,0.1,1.8,0.1,2.8c0,0.9,0,1.6,0,2.3v0c0,1.3,0,2.7-0.1,4.1c-0.1,1.4,0,2.9,0.1,4.5c0.1,0.8,0,1.5-0.4,2.2
		C151.7,390.1,151.2,390.6,150.6,390.9z"/>
</g>
<circle id="XMLID_4_" class="st2" cx="149.7" cy="380.3" r="18.5"/>
<g id="XMLID_7_">
	<path id="XMLID_11_" d="M506.6,111.8c0.7,0.5,1,1,1,1.6c-0.1,0.3-0.3,0.6-0.6,0.9c-0.3,0.3-0.7,0.4-1.1,0.5
		c-0.8,0.1-1.6,0.1-2.3,0.2c-0.7,0.1-1.4,0.1-2.1,0.2c-1,0.1-2,0.2-3,0.3c-1,0.1-2.1,0.1-3.3,0.1c-0.7,0-1.3-0.1-1.9-0.3
		c-0.6-0.2-1-0.5-1.3-1.1c-0.2-0.5-0.2-0.9,0-1.2c0.2-0.4,0.5-0.8,0.9-1.4c0.1-0.1,0.3-0.4,0.5-0.8c0.2-0.4,0.5-0.8,0.9-1.3
		c0.3-0.5,0.7-1,1.1-1.6c0.4-0.6,0.8-1.2,1.2-1.7c2.1-2.9,3.1-5,2.9-6.4c-0.1-0.4-0.4-0.7-0.9-0.9c-0.5-0.2-1.2-0.3-2-0.3
		s-1.5,0.1-2.3,0.3c-0.7,0.2-1.5,0.3-2.3,0.3c-0.5-0.1-0.7-0.3-0.8-0.7c-0.1-0.4-0.1-0.8,0-1.1c0.1-0.4,0.3-0.6,0.6-0.8
		c0.3-0.2,0.6-0.4,0.9-0.6c0.7-0.3,1.5-0.5,2.5-0.6c1-0.1,1.9-0.1,2.9,0c1,0.1,1.8,0.3,2.7,0.6c0.8,0.3,1.5,0.7,2.1,1.2
		c0.3,0.3,0.5,0.7,0.6,1.2c0.1,0.5,0.1,1,0,1.6c-0.1,0.5-0.2,1.1-0.3,1.6c-0.2,0.5-0.3,0.9-0.4,1.2c-0.2,0.5-0.4,1-0.6,1.5
		c-0.2,0.5-0.5,1.2-0.9,1.9c-0.4,0.7-0.9,1.6-1.6,2.5c-0.6,1-1.4,2.2-2.4,3.6l6.2-0.3c0.6,0,1.1-0.1,1.7-0.1
		C505.6,111.6,506.1,111.6,506.6,111.8z"/>
</g>
<circle id="XMLID_5_" class="st2" cx="497.7" cy="105.5" r="18.5"/>
<path id="XMLID_13_" class="st3" d="M483,113.1"/>
<g id="XMLID_19_">
	<path id="XMLID_33_" class="st1" d="M340.8,460.7"/>
</g>
<g id="XMLID_21_">
	<g id="XMLID_46_">
		<line id="XMLID_49_" class="st3" x1="443.3" y1="120.9" x2="443.3" y2="453.6"/>
		<g id="XMLID_47_">
			<path id="XMLID_48_" d="M443.3,468.7c-2.6-7.1-7.1-15.9-11.9-21.4l11.9,4.3l11.9-4.3C450.5,452.8,446,461.6,443.3,468.7z"/>
		</g>
	</g>
</g>
<g id="XMLID_22_">
	<g id="XMLID_41_">
		<line id="XMLID_44_" class="st3" x1="126.2" y1="431.8" x2="322.4" y2="426.3"/>
		<g id="XMLID_42_">
			<path id="XMLID_43_" d="M337.5,425.8c-7,2.8-15.7,7.6-21,12.5l4-12l-4.6-11.8C321.4,419.2,330.3,423.4,337.5,425.8z"/>
		</g>
	</g>
</g>
<g id="XMLID_6_">
	<path id="XMLID_28_" class="st1" d="M459,464.8"/>
</g>
<g id="XMLID_10_">
</g>
<g id="XMLID_29_">
</g>
<g id="XMLID_30_">
</g>
<g id="XMLID_31_">
</g>
<g id="XMLID_32_">
</g>
<g id="XMLID_34_">
</g>
<g id="XMLID_50_">
</g>
</svg>
