<?xml version="1.0" encoding="utf-8"?>
<!-- Generator: Adobe Illustrator 19.0.0, SVG Export Plug-In . SVG Version: 6.00 Build 0)  -->
<svg version="1.1" id="레이어_1" xmlns="http://www.w3.org/2000/svg" xmlns:xlink="http://www.w3.org/1999/xlink" x="0px"
	 y="0px" viewBox="0 0 600 580" style="enable-background:new 0 0 600 580;" xml:space="preserve">
<style type="text/css">
	.st0{opacity:0.5;}
	.st1{fill:none;}
	.st2{fill:none;stroke:#000000;}
	.st3{fill:none;stroke:#000000;stroke-width:5;stroke-miterlimit:10;}
</style>
<g id="XMLID_9_" class="st0">
	<path id="XMLID_11_" d="M283.8,168.2c0-4.2-0.1-9-0.4-14.4c-0.2-5.4,0-10.6,0.7-15.8c0.7-5.1,2-9.8,3.8-14c1.9-4.2,5.2-7.5,9.9-9.8
		c10.8-5.1,19.8-2.3,26.9,8.4c7.1,10.7,12.7,25.8,17,45.1c4.2,19.4,7.3,40.9,9.2,64.8c1.9,23.8,3.1,46.4,3.5,67.9
		c0.5,21.5,0.6,39.7,0.4,54.6c-0.2,14.9-0.4,23.1-0.4,24.5c0,7.5-0.4,17.3-1.1,29.4c-0.7,12.1-2.2,24-4.6,35.7
		c-2.4,11.7-5.7,21.8-9.9,30.4c-4.3,8.6-9.9,13.2-17,13.7c-7.1,0.5-12.6-0.6-16.6-3.2c-4-2.6-7.1-6.2-9.2-10.8
		c-2.1-4.7-3.4-9.7-3.9-15c-0.5-5.4-0.5-10.6,0-15.8c1.9-33.1,2.8-61.4,2.8-84.7c0-23.3-0.7-45-2.1-65.1
		c-1.4-20.1-2.9-39.8-4.6-59.2C286.7,215.7,285.2,193.4,283.8,168.2z"/>
</g>
<g id="XMLID_3_">
	<path id="XMLID_25_" class="st1" d="M492.5,222.8"/>
</g>
<g id="XMLID_8_">
	<path id="XMLID_17_" class="st1" d="M367.1,135.4"/>
</g>
<g id="XMLID_1_">
	<path id="XMLID_7_" d="M306.7,89.5c-0.5,0.2-0.8,0.1-1.1-0.1c-0.3-0.2-0.5-0.6-0.6-1c-0.1-0.5-0.3-0.9-0.3-1.5c0-0.5-0.1-1-0.1-1.4
		c-0.1-1-0.2-1.9-0.2-2.8c0-0.9,0-1.8,0-2.6c-0.1-1-0.1-2,0-3l0-5.1c0-0.6,0.1-1.2,0.1-1.9c0-0.6,0.1-1.3,0.3-1.9
		c0.2-0.6,0.5-0.9,1-1c0.5-0.1,1,0.1,1.4,0.5c0.3,0.4,0.6,1,0.8,1.9c0.2,0.8,0.3,1.7,0.4,2.6c0.1,0.9,0.1,1.8,0.1,2.8
		c0,0.9,0,1.6,0,2.3v0c0,1.3,0,2.7-0.1,4.1c-0.1,1.4,0,2.9,0.1,4.5c0.1,0.8,0,1.5-0.4,2.2C307.9,88.7,307.4,89.2,306.7,89.5z"/>
</g>
<circle id="XMLID_4_" class="st2" cx="305.8" cy="78.9" r="18.5"/>
<path id="XMLID_6_" class="st3" d="M393.9,128.4"/>
<g id="XMLID_18_">
	<g id="XMLID_27_">
		<line id="XMLID_30_" class="st3" x1="315" y1="147.2" x2="318.2" y2="458.2"/>
		<g id="XMLID_28_">
			<path id="XMLID_29_" d="M318.3,473.3c-2.7-7.1-7.3-15.8-12.1-21.2l11.9,4.2l11.8-4.4C325.3,457.3,320.9,466.1,318.3,473.3z"/>
		</g>
	</g>
</g>
<g id="XMLID_5_">
</g>
<g id="XMLID_13_">
</g>
<g id="XMLID_14_">
</g>
<g id="XMLID_15_">
</g>
<g id="XMLID_19_">
</g>
<g id="XMLID_20_">
</g>
<g id="XMLID_21_">
</g>
</svg>
