<?xml version="1.0" encoding="utf-8"?>
<!-- Generator: Adobe Illustrator 19.0.0, SVG Export Plug-In . SVG Version: 6.00 Build 0)  -->
<svg version="1.1" id="레이어_1" xmlns="http://www.w3.org/2000/svg" xmlns:xlink="http://www.w3.org/1999/xlink" x="0px"
	 y="0px" viewBox="0 0 784 585" style="enable-background:new 0 0 784 585;" xml:space="preserve">
<style type="text/css">
	.st0{fill:#E83818;}
	.st1{fill:none;stroke:#000000;stroke-miterlimit:10;}
	.st2{fill:none;stroke:#000000;stroke-width:22;stroke-linecap:square;stroke-miterlimit:10;}
	.st3{fill:none;stroke:#000000;stroke-width:22;stroke-linecap:round;stroke-miterlimit:10;}
</style>
<g id="XMLID_1_">
	<path id="XMLID_11_" class="st0" d="M452.9,256c4.6,0.6,9.1,1.5,13.6,2.7c4.5,1.2,8.4,3.7,11.9,7.5c4.4,5.2,7.2,11.1,8.4,17.7
		s1.7,13.1,1.5,19.5c0,3-0.1,5.5-0.3,7.5c-0.2,2-0.5,3.9-0.8,5.7c-0.3,1.8-0.6,3.7-0.9,5.7c-0.3,2-0.6,4.4-0.8,7.2
		c-0.4,4-1,8.4-1.8,13.2c-0.8,4.8-2.3,8.9-4.5,12.3c-2,2.8-4.3,4.6-7,5.4c-2.7,0.8-5.5-0.1-8.3-2.7c-2.6-2.6-4.1-5.6-4.5-9
		c-0.4-3.4-0.6-6.8-0.6-10.2c0-3.6,0.2-8.3,0.8-14c0.5-5.7,0.8-10.3,0.8-14c0-2.6,0-5.4,0-8.5c0-3.1-0.3-6.1-0.9-9
		c-0.6-2.9-1.8-5.3-3.5-7.3c-1.7-2-4.3-3.2-8-3.6c-2.8-0.2-6.3-0.4-10.3-0.6c-4.1-0.2-8.3-0.3-12.5-0.3s-8.2,0.1-11.8,0.1
		c-3.7,0.1-6.6,0.1-8.5,0.1c-4.6,0.2-8.7-0.5-12.2-2.3c-3.5-1.7-5.5-4.4-5.9-8.3c-0.4-3.6,0.5-6.5,2.6-8.5c2.1-2.1,4.7-3.7,8-4.8
		c3.2-1.1,6.5-1.7,10-1.9c3.5-0.2,6.5-0.3,9.1-0.3c2.2,0,5,0,8.3-0.1c3.3-0.1,6.6-0.1,10.1,0c3.4,0.1,6.7,0.2,9.9,0.3
		C448,255.7,450.7,255.8,452.9,256z"/>
</g>
<path id="XMLID_2_" class="st1" d="M576,230"/>
<path id="XMLID_4_" class="st1" d="M370.1,252"/>
<polyline id="XMLID_6_" class="st2" points="265,202 208,202 208,364 265,364 "/>
<polyline id="XMLID_7_" class="st2" points="509,208.8 564,208.8 564,364 509,364 "/>
<path id="XMLID_3_" class="st3" d="M427,202"/>
<g id="XMLID_5_">
	<path id="XMLID_9_" d="M438.6,290.3c3.2,1.9,5,3.7,5.5,5.5c0.5,1.7,0.4,4-0.2,6.9c-1.9,8.2-5.4,15.5-10.7,21.8
		c-5.2,6.3-11.3,11.6-18.2,15.9c-7,4.3-14.4,7.5-22.3,9.7c-7.9,2.2-15.6,3.3-23.2,3.3c-8.2,0-16.5-1.5-24.9-4.5
		c-8.4-3-16-7.3-23-12.8c-7-5.5-13-12.2-18-19.9c-5.1-7.7-8.4-16.4-10-25.8c-3.8-21.5-1.6-43.6,6.6-66.4c7.3-18,17.8-32.2,31.5-42.4
		c13.7-10.3,32.6-15.4,56.6-15.4c6.3,0,12.7,1,19.2,3.1c6.5,2.1,10.5,6.7,12.1,14c0.6,3.5,0.4,6.9-0.7,10.2c-1.1,3.3-4,5.5-8.8,6.4
		c-1.3,0.6-2.8,0.9-4.5,0.9c-1.7,0-3.9,0-6.4,0c-3.5,0-7.7,0.1-12.8,0.2c-5.1,0.2-11.1,0.9-18,2.1c-9.8,1.9-18.6,8.5-26.5,19.9
		c-3.5,5.4-6.2,11.1-8.3,17.3c-2.1,6.2-3.6,12.6-4.5,19.2c-1.6,17.7,1.8,31.8,10.2,42.2c8.4,10.4,20.5,15.6,36.3,15.6
		c5.7,0,10.6-0.9,14.7-2.8c4.1-1.9,8-4.1,11.6-6.6c3.6-2.5,7.3-5.3,10.9-8.3c3.6-3,7.7-5.5,12.1-7.3c1.6-0.6,3.5-1.3,5.7-2.1
		C432.8,289.3,435.5,289.4,438.6,290.3z"/>
</g>
<g id="XMLID_8_">
</g>
<g id="XMLID_13_">
</g>
<g id="XMLID_14_">
</g>
<g id="XMLID_15_">
</g>
<g id="XMLID_16_">
</g>
<g id="XMLID_17_">
</g>
</svg>
