<?xml version="1.0" encoding="utf-8"?>
<!-- Generator: Adobe Illustrator 19.0.0, SVG Export Plug-In . SVG Version: 6.00 Build 0)  -->
<svg version="1.1" id="레이어_1" xmlns="http://www.w3.org/2000/svg" xmlns:xlink="http://www.w3.org/1999/xlink" x="0px"
	 y="0px" viewBox="0 0 600 580" style="enable-background:new 0 0 600 580;" xml:space="preserve">
<style type="text/css">
	.st0{opacity:0.51;}
	.st1{fill:#E60012;}
	.st2{fill:none;stroke:#040000;stroke-width:10;stroke-linecap:round;stroke-linejoin:round;stroke-miterlimit:10;}
</style>
<g id="XMLID_1_" class="st0">
	<path id="XMLID_6_" class="st1" d="M332.8,419.3c-16.3,0.9-31.3,1.4-45,1.4c-13.7,0-28.7,0-45,0c-4.2,0-9-0.5-14.4-1.4
		c-5.4-0.9-10.3-2.5-14.7-4.5c-4.4-2.1-8.4-5.1-11.9-9.1c-3.5-4-5.5-9.2-5.9-15.8c-4.7-1.4-8.1-4.7-10.1-9.8
		c-2.1-5.1-3.5-10.6-4.2-16.4c-0.7-5.8-0.9-11.7-0.7-17.5c0.2-5.8,0.4-10.6,0.4-14.4c0-20.5,0.4-40.3,1.1-59.1
		c0.7-18.9,1.5-39.1,2.4-60.6c0.5-9.8,1.5-19,3.1-27.6c1.6-8.6,7.1-15.8,16.5-21.4c8.4-5.1,16.3-6.6,23.8-4.5
		c7.5,2.1,14.5,6.4,21,12.9c0.5,0,5.3-0.1,14.6-0.3c9.3-0.2,19.4-0.4,30.3-0.4s21,0,30.3,0s14.6,0,16,0c19.5,0.5,34.5,4.2,45,11.2
		c10.5,7,17.8,19.6,22,37.8c1.9,7.9,3.2,16.7,3.8,26.3c0.7,9.6,1.1,19.5,1.1,29.8c0,10.3-0.1,20.4-0.4,30.4
		c-0.2,10-0.3,19.3-0.3,27.7c0,8.9-0.2,17.6-0.7,26.3c-0.5,8.6-1.9,17.1-4.2,25.5c-1.9,7.9-5.6,14.2-11.2,18.9
		c-5.6,4.7-11.8,8.1-18.8,10.2c-7,2.1-14.4,3.4-22.3,3.8C346.5,419.1,339.3,419.3,332.8,419.3z M247.1,350c0,5.1,1.9,8.4,5.6,9.8
		c3.7,1.4,7.5,2.1,11.2,2.1c9.8,0.5,20,0.7,30.5,0.7c10.5,0,20.4,0,29.7,0c10.7,0,17.5-1.4,20.3-4.2c2.8-2.8,4.2-8.2,4.2-16.1
		c0-11.2,0.1-22.2,0.3-32.9c0.2-10.7,0.4-22.2,0.4-34.3c0-6.5-0.1-12.7-0.4-18.5c-0.2-5.8-2-11.6-5.3-17.1
		c-4.2-5.6-8.6-8.9-13.3-9.8c-4.7-0.9-10.3-1.4-16.8-1.4c-8.4,0-15.2,0-20.3,0c-5.1,0-12.4-0.2-21.7-0.7c-6.1-0.5-11.1-0.1-15.1,1.1
		c-4,1.2-6.4,5.3-7.4,12.3c-0.5,17.3-0.7,34.9-0.7,52.9C248.5,311.7,248,330.5,247.1,350z"/>
</g>
<polyline id="XMLID_2_" class="st2" points="196,411 226.3,174 298.9,351 368.8,174 407,411 "/>
<g id="XMLID_8_">
	<path id="XMLID_4_" class="st1" d="M484.1,375.5c0.1,1.7,0.1,3.4,0,5.1c-0.1,1.7-0.1,3.5,0,5.2c0.1,2.2,0.3,4.4,0.4,6.6
		c0.1,2.2,0.3,4.4,0.6,6.6c0.1,1.5,0.3,3.1,0.3,4.9c0.1,1.8,0.3,3.4,0.5,4.9c0.2,1.1,0,2.1-0.5,3c-0.5,0.9-1.2,1.4-2,1.7
		c-0.8,0.2-1.6,0.1-2.5-0.5c-0.9-0.5-1.5-1.7-2-3.4c-0.3-1.3-0.6-2.8-0.8-4.5c-0.2-1.7-0.4-3.2-0.5-4.5c-0.1-1.9-0.3-3.8-0.5-5.6
		c-0.2-1.9-0.3-3.8-0.4-5.8c-0.4,0.7-0.8,1.4-1.2,2c-0.4,0.6-0.8,1.2-1.1,1.8c-0.6,0.9-1.2,1.7-1.8,2.5c-0.6,0.8-1.2,1.6-1.9,2.4
		c-0.8,0.8-1.7,1.6-2.6,2.3c-0.9,0.8-1.9,1.5-2.9,2c-0.9,0.7-1.9,0.9-2.8,0.8c-0.9-0.2-1.8-0.6-2.5-1.5c-1-1.2-2-2.4-3-3.8
		c-1-1.3-1.9-2.6-2.8-3.9c0.1,2.1,0.3,4.4,0.4,6.9c0.1,2.5,0.3,4.8,0.4,6.9c0.1,1.6-0.2,2.8-0.8,3.8c-0.6,0.9-1.3,1.5-2.1,1.8
		c-0.8,0.3-1.6,0.1-2.3-0.4c-0.7-0.5-1.2-1.3-1.5-2.5c-0.4-1.9-0.7-4-1-6.3c-0.2-2.2-0.4-4.3-0.5-6.3c-0.1-1.9-0.1-3.7-0.2-5.5
		c0-1.8,0-3.7,0.1-5.5c0.1-1.3,0.1-2.7,0.1-4c0-1.3,0.1-2.7,0.3-4c0.1-0.1,0.1-0.4,0.1-0.8c0-0.4,0.1-0.7,0.2-0.9
		c0.1-0.9,0.5-1.7,1.2-2.3c0.6-0.6,1.3-1,2.1-1.1c0.8-0.2,1.5-0.1,2.2,0.3s1.2,1.1,1.4,2.1c0.4,1.7,1,3.3,1.8,4.8
		c0.8,1.5,1.6,3,2.3,4.5c0.5,0.9,1,1.8,1.5,2.7c0.5,0.9,1,1.7,1.7,2.6c0.4,0.6,0.8,1.2,1.2,1.8c0.4,0.6,0.8,1.1,1.3,1.8
		c2.1-1.9,3.9-4,5.4-6.3c1.5-2.3,2.9-4.7,4.2-7.2c0.5-0.9,1-1.9,1.5-3c0.5-1,1-2,1.6-3c0.5-0.7,1.1-1.2,1.9-1.6
		c0.8-0.4,1.7-0.7,2.6-0.7c0.9,0,1.6,0.2,2.3,0.7C483.8,373.7,484.1,374.4,484.1,375.5z"/>
</g>
<g id="XMLID_3_">
</g>
<g id="XMLID_10_">
</g>
<g id="XMLID_11_">
</g>
<g id="XMLID_12_">
</g>
<g id="XMLID_13_">
</g>
<g id="XMLID_14_">
</g>
</svg>
