<?xml version="1.0" encoding="utf-8"?>
<!-- Generator: Adobe Illustrator 19.0.0, SVG Export Plug-In . SVG Version: 6.00 Build 0)  -->
<svg version="1.1" id="레이어_1" xmlns="http://www.w3.org/2000/svg" xmlns:xlink="http://www.w3.org/1999/xlink" x="0px"
	 y="0px" viewBox="0 0 600 580" style="enable-background:new 0 0 600 580;" xml:space="preserve">
<style type="text/css">
	.st0{opacity:0.46;}
	.st1{fill:#E60012;}
	.st2{fill:none;stroke:#000000;stroke-width:10;stroke-linecap:round;stroke-miterlimit:10;}
</style>
<g id="XMLID_1_" class="st0">
	<path id="XMLID_6_" class="st1" d="M417.2,149.8c5.6,0.9,9.7,3.6,12.3,8.1c2.6,4.4,4.5,9.7,5.9,15.8c1.9,8.9,2.8,20.9,2.8,36
		c0,15.2-0.5,31-1.4,47.6c-0.9,16.6-2.1,32.7-3.5,48.3c-1.4,15.6-2.8,28.4-4.2,38.2c-1.9,13.5-5.7,24.5-11.5,32.9
		c-5.8,8.4-13,15.2-21.3,20.3c-8.4,5.1-17.9,8.9-28.4,11.2c-10.5,2.3-21.3,4.2-32.5,5.6c-6.5,0-14.6-0.3-24.1-1
		c-9.6-0.7-19.3-2.1-29.1-4.2c-9.8-2.1-19.1-5-28-8.8c-8.9-3.7-15.9-8.9-21-15.4c-12.1-14.5-20.1-28.8-23.8-43
		c-3.7-14.2-6.8-30.9-9.1-50.1c-4.2,0-9-0.3-14.4-1c-5.4-0.7-9.2-3.6-11.5-8.8c-1.9-3.7-2.7-8.2-2.5-13.3c0.2-5.1,1.5-9.6,3.9-13.3
		c2.8-4.2,5.7-6.5,8.8-7c3-0.5,6.9-1.2,11.6-2.1c-0.9-10.7-1.4-20.9-1.4-30.5c0-9.6,0.5-20,1.4-31.1c0.5-7.5,1.9-13.5,4.2-18.2
		c2.3-4.7,7-7.9,14-9.8c10.7-1.9,18.4-0.8,23.1,3.1c4.7,4,8.2,11.1,10.5,21.4c0.5,3.3,0.9,6.5,1.4,9.8c0.5,3.3,0.9,7,1.4,11.2
		c0.5,4.2,0.8,9.4,1.1,15.8c0.2,6.3,0.6,14.1,1,23.4c-1.4,0,2-0.2,10.1-0.7c8.2-0.5,17.4-0.8,27.7-1.1c10.3-0.2,19.5-0.5,27.7-0.7
		c8.2-0.2,11.5-0.4,10.1-0.4c2.8,0,6.5-0.2,11.2-0.7c4.7-0.5,9.2-0.3,13.6,0.4c4.4,0.7,8.3,2.1,11.6,4.2c3.3,2.1,4.9,5.5,4.9,10.1
		c0.5,6.1-0.9,12-4.2,17.9c-3.3,5.8-8.2,10.1-14.7,12.9c-3.7,1.4-8.9,2.6-15.4,3.5c-6.5,0.9-13.5,1.6-21,2.1
		c-7.5,0.5-14.6,0.8-21.4,1.1c-6.8,0.2-12,0.6-15.8,1c-3.3,0-6.5,0.1-9.8,0.4c-3.3,0.2-6.5,0.3-9.8,0.3c0,6.5,1.5,14.8,4.6,24.8
		c3,10,8,19.1,15,27.3c7,8.2,16.5,14.1,28.4,17.8c11.9,3.7,26.7,2.6,44.5-3.5c6.5-1.9,11.5-6.3,15-13.3s6.1-14.8,7.7-23.5
		c1.6-8.6,2.7-17.5,3.1-26.6c0.5-9.1,0.9-17.1,1.4-24.1c0.5-15.4,1.3-29.5,2.5-42.4c1.2-12.8,2.2-26.7,3.1-41.6
		c0-2.8,0.2-6.4,0.7-10.9c0.5-4.4,1.8-8.6,3.9-12.6c2.1-4,5.5-7.4,10.1-10.1C402.3,149.8,408.8,148.8,417.2,149.8z"/>
</g>
<path id="XMLID_3_" class="st2" d="M226,142v126v145c0,0,182,13,182-73s-182-72-182-72s182,10,182-74S226,142,226,142"/>
<g id="XMLID_8_">
	<path id="XMLID_4_" class="st1" d="M469.7,395.5c0.3,0.9,0.3,1.9,0.3,2.8c-0.1,1-0.3,1.9-0.5,2.8c-0.3,0.9-0.6,1.7-0.9,2.4
		c-0.3,0.7-0.6,1.3-0.8,1.7c-1.3,2.5-3.1,4.8-5.2,6.9c-2.1,2.1-4.5,3.8-7.2,5.1c-0.9,0.5-2.1,1-3.5,1.3c-1.4,0.3-2.7,0.5-3.8,0.7
		c-2.4,0-4.2-0.2-5.4-0.7c-1.2-0.4-2.2-1.3-2.9-2.5c-0.3-0.5-0.3-1.2,0-1.9c0.3-0.8,0.8-1.3,1.3-1.7c0.3-0.2,0.6-0.3,0.8-0.3
		c0.2,0,0.5,0,0.9,0c0.3,0.1,0.7,0.2,1.1,0.3c0.4,0.1,1,0.2,1.8,0.2c1.9,0.1,3.8-0.3,5.6-1.2c1.8-0.8,3.4-1.9,4.8-3.3
		c1.4-1.3,2.7-2.8,3.8-4.3c1.1-1.6,1.9-3.1,2.5-4.5c0.4-1,0.2-1.7-0.5-2.2c-0.7-0.5-1.7-0.8-2.8-1c-1.1-0.2-2.3-0.3-3.4-0.3
		c-1.1,0-1.9,0-2.3,0c-0.9,0-1.6-0.1-2.2-0.4c-0.6-0.3-1.1-0.6-1.5-1c-0.3-0.3-0.4-1-0.3-1.9c0.1-0.9,0.4-1.5,1.1-1.8
		c2.5-1,4.5-2.4,5.8-4.2s2.2-4.5,2.7-8c0.1-0.5-0.1-0.8-0.5-0.9c-0.4-0.1-0.7-0.1-0.8-0.1c-0.3,0-1,0.2-2,0.5
		c-1,0.3-2.1,0.8-3.2,1.3c-1.1,0.6-2.1,1.2-3,1.9c-0.9,0.7-1.3,1.4-1.3,2.1c-0.1,1.2-0.1,2.3-0.2,3.2c0,0.9,0,1.8,0,2.6
		c0,0.8,0,1.6,0,2.3c0,0.8,0,1.6,0.1,2.5c0,0.6,0,1.7,0,3.3c0,1.6,0,3.2,0,4.9c-0.1,1.7-0.2,3.2-0.4,4.7c-0.2,1.5-0.5,2.4-1,2.8
		c-0.3,0.3-0.6,0.5-0.9,0.8c-0.3,0.2-0.7,0.3-1.1,0.3c-0.9,0-1.7-0.3-2.4-0.9c-0.7-0.6-1.2-1.4-1.3-2.3c-0.3-1.2-0.4-2.6-0.5-4.1
		c-0.1-1.6-0.1-3-0.1-4.2c0-0.5,0-1.3,0-2.5c0-1.2,0-2.6,0-4c0-1.5,0-2.9,0-4.4c0-1.4-0.1-2.6-0.1-3.5c-0.1-1.4-0.1-2.7,0-3.8
		c0-1.2,0.1-2.7,0.2-4.5c0-0.8,0.1-1.6,0.3-2.4c0.2-0.8,0.5-1.5,1-2.1c0.5-0.7,1-1,1.7-1c0.7,0,1.3,0.2,1.8,0.4
		c0.3,0.1,0.7,0.4,1,0.7c0.3,0.3,0.6,0.7,0.8,1c0.2,0.4,0.4,0.7,0.5,1c0.1,0.3,0.2,0.4,0.3,0.4c2.2-1.4,4.3-2.5,6.4-3.3
		c2.1-0.8,4.1-1,6-0.8c2.1,0.2,3.7,1.2,4.6,3c0.9,1.5,1.2,3.4,0.9,5.5c-0.3,2.1-0.8,4-1.6,5.5l-2.3,4.6c-0.1,0.1-0.1,0.2,0.1,0.3
		c0.2,0.1,0.3,0.1,0.4,0.2c0.7,0.3,1.5,0.6,2.3,0.9c0.8,0.3,1.6,0.6,2.4,1C468.2,392.7,469.2,394,469.7,395.5z"/>
</g>
<g id="XMLID_2_">
</g>
<g id="XMLID_9_">
</g>
<g id="XMLID_10_">
</g>
<g id="XMLID_11_">
</g>
<g id="XMLID_12_">
</g>
<g id="XMLID_13_">
</g>
</svg>
