<?xml version="1.0" encoding="utf-8"?>
<!-- Generator: Adobe Illustrator 19.0.0, SVG Export Plug-In . SVG Version: 6.00 Build 0)  -->
<svg version="1.1" id="레이어_1" xmlns="http://www.w3.org/2000/svg" xmlns:xlink="http://www.w3.org/1999/xlink" x="0px"
	 y="0px" viewBox="0 0 600 580" style="enable-background:new 0 0 600 580;" xml:space="preserve">
<style type="text/css">
	.st0{opacity:0.5;}
	.st1{fill:#E60012;}
	.st2{fill:#E60012;stroke:#DC7E1C;stroke-width:40;stroke-linecap:round;stroke-miterlimit:10;}
	.st3{fill:none;stroke:#000000;stroke-width:5;stroke-miterlimit:10;}
</style>
<g id="XMLID_1_" class="st0">
	<path id="XMLID_23_" class="st1" d="M433.7,351c3.7,3.7,6.6,7.9,8.8,12.6c2.1,4.7,2.7,9.6,1.8,14.7c-0.5,5.1-2.9,9.8-7.4,14
		c-4.4,4.2-9.2,6.8-14.3,7.7c-5.1,0.5-10.5-0.8-16.1-3.8c-5.6-3-11.1-6.7-16.4-10.9c-5.4-4.2-10.4-8.8-15.1-13.6
		c-4.7-4.9-8.6-9-11.9-12.3c-1.9-1.4-5.5-4.7-10.8-9.8c-5.4-5.1-11.3-10.7-17.9-16.8c-6.5-6.1-12.8-11.9-18.9-17.5
		c-6.1-5.6-10.5-9.8-13.3-12.6l-62.3,72.1c-5.1,6.1-11.3,12.1-18.5,18.2c-7.2,6.1-14.8,8.4-22.8,7c-7.9-1.9-14.2-6.1-18.9-12.6
		c-4.7-6.5-6.3-13.5-4.9-21c0.5-3.7,3.5-10,9.1-18.9c5.6-8.9,12.5-18.8,20.6-29.8c8.2-11,17-22.4,26.6-34.3
		c9.6-11.9,18.5-23.1,27-33.6c8.4-10.5,15.8-19.5,22-27c6.3-7.5,10.4-12.1,12.3-14c3.7-4.2,7.7-9.2,11.9-15
		c4.2-5.8,9-11.3,14.3-16.5c5.4-5.1,11.1-9.1,17.2-11.9c6.1-2.8,12.8-3.3,20.3-1.4c5.1,1.4,9.3,4,12.6,7.7c3.3,3.7,5.6,7.5,7,11.2
		c2.3,7.9,0.5,16.6-5.6,25.9c-7,11.2-12.1,19.4-15.4,24.5c-3.3,5.1-7,11-11.2,17.5c-0.9,0.9-0.9,1.6,0,2.1
		c7.5,7.9,15.3,16.1,23.4,24.5c8.2,8.4,16,16.6,23.5,24.5c7,7.9,14.3,16.1,22,24.5C420,334.9,427.1,343,433.7,351z"/>
</g>
<path id="XMLID_2_" class="st2" d="M689,328"/>
<g id="XMLID_17_">
	<path id="XMLID_11_" class="st1" d="M285.1,418.9c0.3,3-0.6,5.7-2.9,8c-1.2,1.4-2.7,2.5-4.5,3.3c-1.8,0.8-3.7,1.1-5.6,1.1
		c-2.1,0-4-0.4-5.7-1.3c-1.7-0.9-3.2-2.2-4.3-3.8c-0.7-1-0.8-2-0.3-2.9c0.7-1.3,1.7-1.9,3.2-1.9c0.5,0,1.1,0.1,1.6,0.4
		c0.7,0.5,1.7,1,2.9,1.3c1.2,0.3,2.4,0.5,3.6,0.5c0.9,0,1.7-0.2,2.6-0.5c0.9-0.4,1.4-1.2,1.7-2.3c0.2-0.9,0.1-1.7-0.2-2.4
		c-0.3-0.7-0.8-1.5-1.4-2.2c-0.6-0.7-1.4-1.3-2.2-1.9c-0.8-0.6-1.6-1.2-2.4-1.7c-3.8-2.5-6.6-5.9-8.3-10c-0.5-1.5-0.8-3-0.9-4.5
		c0-1.4,0.1-2.8,0.5-4.2c0.5-1.9,1.3-3.7,2.6-5.3c1.3-1.6,2.9-2.9,4.8-3.9c0.9-0.5,2-0.8,3.3-1.1c1.2-0.2,2.5-0.3,3.9-0.3
		c1.8,0,3.5,0.3,5,0.8c1.6,0.5,2.4,1.4,2.4,2.5c0,0.9-0.5,1.6-1.4,2.1c-1,0.5-1.8,0.7-2.5,0.8c-0.5,0.1-1,0.1-1.4,0.1
		c-0.4,0-0.8,0.1-1.3,0.1c-1.5,0.1-2.8,0.3-4,0.6c-1.2,0.3-2.3,1.3-3.3,3c-0.6,1.1-0.9,2.2-0.9,3.5c0,1.3,0.3,2.5,0.7,3.7
		c0.4,1.2,1.1,2.3,1.9,3.3c0.8,1,1.8,1.8,2.9,2.3c1.1,0.8,2.3,1.6,3.4,2.5c1.2,0.9,2.2,1.8,3.2,2.8
		C283.7,413.7,284.9,416.2,285.1,418.9z"/>
	<path id="XMLID_13_" d="M312,405.2c1.1-0.2,2.1-0.1,2.9,0.3c0.8,0.4,1.3,0.9,1.5,1.5c0.3,0.6,0.2,1.2-0.1,1.9c-0.3,0.7-1,1.1-2,1.4
		c-0.6,0.2-1.3,0.5-1.9,0.8c-0.7,0.3-1.4,0.7-2.1,1.2c-0.7,0.5-1.4,1-2,1.5c-0.6,0.5-1.1,1-1.5,1.5c0.3,0.7,0.7,1.4,1.4,2.2
		c0.7,0.8,1.4,1.5,2.3,2.2c0.8,0.7,1.7,1.4,2.5,2c0.8,0.7,1.5,1.2,2,1.7c1.1,0.9,1.7,1.8,1.8,2.7c0.1,0.9,0,1.6-0.5,2.1
		c-0.5,0.5-1.1,0.9-2,1c-0.9,0.2-1.8,0-2.8-0.5c-0.6-0.3-1.3-0.8-2.2-1.4c-0.9-0.6-1.8-1.3-2.7-1.9c-0.9-0.7-1.8-1.4-2.5-2.2
		c-0.8-0.7-1.4-1.4-1.9-2c0,0.3,0,0.7-0.1,1.3c0,0.6-0.1,1.3-0.1,2c-0.1,0.7-0.1,1.3-0.2,1.9c0,0.6-0.1,0.9-0.1,1.1
		c-0.3,1.1-0.9,1.9-1.7,2.4c-0.8,0.5-1.5,0.7-2.3,0.6c-0.8-0.1-1.4-0.4-2-1c-0.6-0.6-0.9-1.5-0.9-2.7v-1.7c0.1-3.1,0.1-6.1,0.3-9
		c0.1-2.9,0.1-6.1,0.1-9.7c0-0.9,0-2.2,0.1-3.7c0.1-1.5,0.3-3.1,0.5-4.7c0.2-1.6,0.4-3.1,0.7-4.6c0.3-1.5,0.6-2.7,1-3.7
		c0.5-1.2,1.1-2,1.9-2.3c0.8-0.3,1.5-0.2,2.2,0.2c0.7,0.4,1.2,1.2,1.5,2.3c0.4,1.1,0.4,2.4,0.2,3.9c-0.2,1-0.4,2.1-0.5,3.4
		c-0.1,1.2-0.2,2.5-0.3,3.8c-0.1,1.3-0.1,2.6-0.1,3.8c0,1.2,0,2.3,0.1,3.3v2.4C305.2,407.5,308.4,405.8,312,405.2z"/>
	<path id="XMLID_15_" d="M329.4,403.6c0,3.6-0.1,7.3-0.3,11.2c-0.2,3.9,0,7.9,0.6,12c-0.1,1.3-0.7,2.2-1.8,2.5
		c-1.1,0.3-2.1,0.1-3.1-0.6c-1.1-0.9-1.9-2.4-2.3-4.7c-0.4-2.2-0.7-4.6-0.8-7.3c-0.1-2.6-0.1-5.1,0-7.6c0.1-2.5,0.3-4.5,0.4-5.9
		c0.2-1.1,0.7-1.9,1.4-2.4c0.8-0.5,1.5-0.8,2.4-0.8c0.8,0,1.6,0.3,2.3,0.9C328.8,401.6,329.2,402.5,329.4,403.6z M324.3,396.8
		c-0.9-0.5-1.5-1.3-2-2.1c-0.5-0.9-0.7-1.9-0.7-3c0-0.9,0.3-1.7,1-2.4c0.7-0.7,1.5-1.1,2.3-1.2c0.6-0.1,1.2,0.1,1.8,0.6
		c0.6,0.5,1.2,1,1.6,1.7c0.5,0.6,0.9,1.3,1.2,1.9c0.3,0.7,0.5,1.1,0.5,1.4c0,0.7-0.2,1.3-0.6,1.8c-0.4,0.6-0.9,1-1.4,1.4
		c-0.6,0.3-1.2,0.5-1.8,0.5S324.9,397.2,324.3,396.8z"/>
</g>
<path id="XMLID_21_" class="st3" d="M288.2,217.1l55.2-65.6c0,0,46.5-15.5,41,31l-57,72.3"/>
<path id="XMLID_19_" class="st3" d="M148.3,390.8c-9.1,61.8,45,34,45,34"/>
<polyline id="XMLID_20_" class="st3" points="252.1,256.3 148.3,390.8 193.3,424.8 294.6,296.3 "/>
<path id="XMLID_3_" class="st3" d="M288,290l-38,46.5c0,0-32.5,13-25-20.5l38.8-48.7"/>
<path id="XMLID_22_" class="st3" d="M246.1,322.7c0,0,5.1,6.7-6.6,10.7c0,0-5.7-0.5-9.6-6.9c0,0-1.1-9.9,6.3-11
	C236.2,315.5,239.9,316.7,246.1,322.7z"/>
<g id="XMLID_4_">
	<path id="XMLID_9_" class="st3" d="M457.2,449L294.6,296.3l-39.3-36.9l-23.2-21.8c0,0-12.2-47.5,33.8-38.7l22.3,20.3l39.2,35.6
		l166.9,151.7C494.3,406.4,518.2,462.4,457.2,449z"/>
	<line id="XMLID_8_" class="st3" x1="457.2" y1="449" x2="494.3" y2="406.4"/>
	<path id="XMLID_7_" class="st3" d="M388,367.3L313,299.4c0,0-10.6-29.8,22.5-25.5l74.6,69.9C410.2,343.8,420.9,377.1,388,367.3z"/>
	<path id="XMLID_6_" class="st3" d="M396.2,346.6c0,0,7.1-4.6,10.2,7.3c0,0-0.9,5.7-7.5,9.1c0,0-10,0.4-10.6-7
		C388.3,356,389.8,352.4,396.2,346.6z"/>
	<path id="XMLID_5_" class="st3" d="M327.9,297.1l8.4-8.1c0,0,4.6-5.3-5.7-9.1c0,0-14.7-1.2-12.9,12.4
		C317.7,292.3,319.9,300,327.9,297.1z"/>
</g>
<g id="XMLID_10_">
</g>
<g id="XMLID_25_">
</g>
<g id="XMLID_26_">
</g>
<g id="XMLID_27_">
</g>
<g id="XMLID_28_">
</g>
<g id="XMLID_29_">
</g>
</svg>
