<?xml version="1.0" encoding="utf-8"?>
<!-- Generator: Adobe Illustrator 19.0.0, SVG Export Plug-In . SVG Version: 6.00 Build 0)  -->
<svg version="1.1" id="레이어_1" xmlns="http://www.w3.org/2000/svg" xmlns:xlink="http://www.w3.org/1999/xlink" x="0px"
	 y="0px" viewBox="0 0 600 580" style="enable-background:new 0 0 600 580;" xml:space="preserve">
<style type="text/css">
	.st0{opacity:0.53;}
	.st1{fill:#E60012;}
	.st2{fill:none;stroke:#000000;stroke-width:5;stroke-miterlimit:10;}
	.st3{stroke:#000000;stroke-width:3;stroke-miterlimit:10;}
</style>
<g id="XMLID_8_">
</g>
<g id="XMLID_1_">
</g>
<g id="XMLID_2_" class="st0">
	<path id="XMLID_28_" class="st1" d="M202.1,426.1c-7.9-2.3-12.3-7.3-13-15s1-14.3,5.3-20c3.7-5.1,7.7-8.9,11.9-11.2
		c4.2-2.3,9.1-5.4,14.7-9.1c18.7-7.9,35.5-18.3,50.4-31.2c14.9-12.8,28.5-26.7,40.6-41.6c0.9-1.4,3.6-5.3,8-11.5
		c4.4-6.3,8.5-12.7,12.3-19.3c-16.8,0.9-32.9,2.3-48.3,4.2c-15.4,1.9-30.3,3.3-44.8,4.2c-4.2,0-8.6-0.1-13.3-0.4
		c-4.7-0.2-9-1.3-13-3.1c-4-1.9-7.1-4.3-9.4-7.4c-2.3-3-3.3-7.4-2.8-13c0.5-8.9,4.8-15.8,13-20.6c8.2-4.9,17.5-8.6,28-11.2
		c10.5-2.6,21.2-4.2,32.2-4.9c11-0.7,19.7-1.5,26.3-2.4c3.7-0.5,7.3-0.7,10.8-0.7s7.1-0.2,10.8-0.7c5.6,0,12.1-0.1,19.6-0.4
		c7.5-0.2,14.8,0.4,22,1.8c7.2,1.4,13.8,3.6,19.6,6.6c5.8,3,10.1,7.6,12.9,13.6c2.8,6.1,4,12.6,3.5,19.6c-0.5,7-1.9,13.5-4.2,19.6
		c-4.2,12.1-10.4,23.3-18.6,33.6c-8.2,10.3-15.5,20.8-22,31.5c0.5,0.5,1.9,1.4,4.2,2.8c2.3,1.4,4.7,2.8,7,4.2
		c9.3,6.1,19.7,12.1,31.2,18.2c11.4,6.1,21.1,13.1,29,21c3.7,3.7,6.6,8.3,8.8,13.7c2.1,5.4,2.9,10.2,2.5,14.3
		c-0.9,8.4-3.9,13.8-8.8,16.1c-4.9,2.3-10.5,2.9-16.8,1.8c-6.3-1.2-12.7-3.3-19.3-6.3c-6.5-3-11.9-5.7-16.1-8.1
		c-8.9-4.7-18.5-10.6-29-17.8c-10.5-7.2-21.1-13.7-31.9-19.3c-4.2,3.3-7.5,5.8-9.8,7.7c-2.3,1.9-4.5,3.7-6.6,5.6
		c-2.1,1.9-3.4,3-3.9,3.5c-9.3,6.5-19.1,12.3-29.4,17.2c-10.3,4.9-21.5,9.2-33.6,13c-5.1,1.4-10.1,2.4-15,3.1S207.3,428,202.1,426.1
		z M311.3,201.4c-6.5,1.4-13.4,0.6-20.6-2.4c-7.2-3-14.2-7.2-21-12.6c-6.8-5.4-12.5-11.6-17.1-18.6c-4.7-7-7.5-13.8-8.4-20.3
		c-0.9-3.3-0.6-7.7,1-13.3c1.6-5.6,3.6-9.6,6-11.9c6.5-6.5,12.5-8.8,17.8-6.6c5.4,2.1,10.6,4.8,15.8,8.1c3.3,2.8,8.2,7.2,14.7,13.3
		c6.5,6.1,12.6,12.8,18.2,20.3c5.6,7.5,9.5,14.8,11.5,22.1c2.1,7.2,0.3,13.2-5.3,17.9c-1.4,1.4-3.5,2.3-6.3,2.8
		C314.8,200.5,312.7,200.9,311.3,201.4z"/>
</g>
<path id="XMLID_4_" class="st2" d="M386,449c4-36-18-106-18-106s83-58,47-124s-143-45-143-45s-92,19-79,82s79,71,79,71s-21,58-1,129
	"/>
<path id="XMLID_3_" class="st2" d="M257.4,178.1c0,0-38.4,2.9-16.4-26.1c0,0-43,9-21-30c0,0-40,12-20-23s77-23,77-23
	s56,16.6,61,94.8"/>
<path id="XMLID_6_" class="st2" d="M266.2,350.2c0,0-73.2,8.8-89.2,65.8s52,22,52,22s15.9-12,34-62"/>
<path id="XMLID_5_" class="st2" d="M203.1,282.7C197,288,138,340,138,340l93.7-28.2"/>
<line id="XMLID_9_" class="st2" x1="138" y1="340" x2="214.9" y2="298.2"/>
<ellipse id="XMLID_7_" class="st3" cx="243.3" cy="223.5" rx="22.9" ry="20.5"/>
<g id="XMLID_10_">
	<path id="XMLID_12_" class="st1" d="M366.6,476.6c-0.3,0.5-0.8,0.9-1.5,1.3c-0.7,0.4-1.5,0.8-2.3,1s-1.6,0.5-2.5,0.8
		c-0.8,0.2-1.5,0.3-2.1,0.3c-1.1,0-2.3-0.1-3.5-0.3c-1.2-0.2-2.4-0.6-3.5-1.2c-1.1-0.5-2.1-1.2-2.9-2.1c-0.8-0.9-1.4-1.9-1.7-3.2
		c-0.3-1.4-0.4-2.9-0.4-4.5c0-1.6,0.1-3.1,0.5-4.7c0.3-1.5,0.8-3,1.4-4.3c0.7-1.3,1.6-2.5,2.8-3.4c1-0.8,2.1-1.4,3.3-1.7
		c1.2-0.3,2.5-0.5,3.8-0.4c1.3,0.1,2.5,0.4,3.7,0.9s2.2,1.2,3.1,2.1c1.1,1.1,1.2,2.3,0.5,3.6c-0.4,0.7-1,1-1.9,0.8
		c-0.9-0.2-1.6-0.3-2.2-0.5c-0.9-0.1-1.9-0.2-2.8-0.1c-0.9,0-1.8,0.3-2.6,0.8c-1.4,0.9-2.3,2.1-2.6,3.7c-0.4,1.6-0.4,3.1-0.2,4.5
		c0.2,1,0.6,1.8,1.3,2.3c0.7,0.6,1.4,1,2.3,1.2c0.9,0.2,1.8,0.3,2.7,0.2c0.9-0.1,1.8-0.4,2.5-0.8c1.4-0.7,2.6-1,3.7-0.7
		c1,0.3,1.6,0.9,1.8,2C367.3,475.2,367.1,475.9,366.6,476.6z"/>
	<path id="XMLID_14_" class="st1" d="M396.9,465.4c0.3,1.9,0.7,3.7,1,5.5c0.3,1.8,0.5,3.7,0.6,5.6c0,1.4-0.3,2.5-0.9,3.3
		c-0.6,0.8-1.2,1.2-2,1.4c-0.8,0.2-1.5,0-2.3-0.5c-0.7-0.5-1.2-1.3-1.4-2.5c-0.3-1.3-0.5-2.6-0.6-4c-0.1-1.4-0.3-2.8-0.5-4.1
		c-0.2-1.4-0.5-2.8-0.8-4.1c-0.4-1.3-0.9-2.6-1.5-3.7c-0.6,0.3-1.3,0.8-2,1.3s-1.3,1.1-1.8,1.8c-1.3,1.5-2.3,3.3-3.2,5.3
		c-0.9,2-1.6,4-2.2,6c-0.3,1.1-0.9,1.9-1.6,2.5c-0.7,0.6-1.5,1-2.3,1.2c-0.8,0.1-1.6,0-2.3-0.4c-0.7-0.4-1.1-1.2-1.3-2.3
		c-0.5-4.2-1.1-8.4-1.8-12.5c-0.6-4.1-1.1-8.3-1.3-12.5c-0.1-1.4-0.1-2.9-0.1-4.5c0-1.6,0.1-3.2,0.4-4.8c0.3-1.6,0.7-3,1.3-4.5
		c0.6-1.4,1.5-2.7,2.6-3.8c0.9-0.8,1.7-1.2,2.6-1.3c0.8-0.1,1.5,0.2,2,0.7s0.8,1.2,0.8,2.1s-0.4,1.9-1.2,3c-0.6,0.8-1,1.9-1.2,3.2
		c-0.2,1.3-0.2,2.7-0.2,4.1c0,1.4,0.1,2.9,0.3,4.3c0.2,1.4,0.3,2.6,0.3,3.5c0.2,1.7,0.4,3.3,0.5,4.8c0.2,1.4,0.4,3,0.7,4.7
		c0.4-0.6,0.7-1.1,1-1.5c0.3-0.4,0.7-0.9,1.2-1.5c0.7-0.8,1.4-1.7,2.3-2.5c0.9-0.9,1.8-1.7,2.8-2.3c1-0.6,2.1-1.1,3.2-1.3
		c1.1-0.2,2.3,0,3.5,0.5c0.9,0.4,1.6,1,2.1,1.8c0.6,0.8,1.1,1.6,1.5,2.5c0.4,0.9,0.7,1.8,0.9,2.8
		C396.5,463.6,396.7,464.5,396.9,465.4z"/>
	<path id="XMLID_16_" d="M410.9,455.6c0,3.6-0.1,7.3-0.3,11.2c-0.2,3.9,0,7.9,0.6,12c-0.1,1.3-0.7,2.2-1.8,2.5
		c-1.1,0.3-2.1,0.1-3.1-0.6c-1.1-0.9-1.9-2.4-2.3-4.7c-0.4-2.2-0.7-4.6-0.8-7.3c-0.1-2.6-0.1-5.1,0-7.6c0.1-2.5,0.3-4.5,0.4-5.9
		c0.2-1.1,0.7-1.9,1.4-2.4c0.8-0.5,1.5-0.8,2.4-0.8c0.8,0,1.6,0.3,2.3,0.9C410.4,453.6,410.8,454.5,410.9,455.6z M405.9,448.8
		c-0.9-0.5-1.5-1.3-2-2.1c-0.5-0.9-0.7-1.9-0.7-3c0-0.9,0.3-1.7,1-2.4c0.7-0.7,1.5-1.1,2.3-1.2c0.6-0.1,1.2,0.1,1.8,0.6
		c0.6,0.5,1.2,1,1.6,1.6c0.5,0.6,0.9,1.3,1.2,2c0.3,0.7,0.5,1.1,0.5,1.4c0,0.7-0.2,1.3-0.6,1.8c-0.4,0.6-0.9,1-1.4,1.4
		c-0.6,0.3-1.2,0.5-1.8,0.5C407.1,449.4,406.5,449.2,405.9,448.8z"/>
	<path id="XMLID_19_" d="M438,476.6c-0.3,0.5-0.8,0.9-1.5,1.3c-0.7,0.4-1.5,0.8-2.3,1s-1.6,0.5-2.5,0.8c-0.8,0.2-1.5,0.3-2.1,0.3
		c-1.1,0-2.3-0.1-3.5-0.3c-1.2-0.2-2.4-0.6-3.5-1.2c-1.1-0.5-2.1-1.2-2.9-2.1c-0.8-0.9-1.4-1.9-1.7-3.2c-0.3-1.4-0.4-2.9-0.4-4.5
		c0-1.6,0.1-3.1,0.5-4.7c0.3-1.5,0.8-3,1.4-4.3c0.7-1.3,1.6-2.5,2.8-3.4c1-0.8,2.1-1.4,3.3-1.7c1.2-0.3,2.5-0.5,3.8-0.4
		c1.3,0.1,2.5,0.4,3.7,0.9s2.2,1.2,3.1,2.1c1.1,1.1,1.2,2.3,0.5,3.6c-0.4,0.7-1,1-1.9,0.8c-0.9-0.2-1.6-0.3-2.2-0.5
		c-0.9-0.1-1.9-0.2-2.8-0.1c-0.9,0-1.8,0.3-2.6,0.8c-1.4,0.9-2.3,2.1-2.6,3.7c-0.4,1.6-0.4,3.1-0.2,4.5c0.2,1,0.6,1.8,1.3,2.3
		c0.7,0.6,1.4,1,2.3,1.2c0.9,0.2,1.8,0.3,2.7,0.2c0.9-0.1,1.8-0.4,2.5-0.8c1.4-0.7,2.6-1,3.7-0.7c1,0.3,1.6,0.9,1.8,2
		C438.7,475.2,438.5,475.9,438,476.6z"/>
	<path id="XMLID_21_" d="M461,457.2c1.1-0.2,2.1-0.1,2.8,0.3c0.8,0.4,1.3,0.9,1.6,1.5c0.3,0.6,0.2,1.2-0.1,1.9c-0.3,0.7-1,1.1-2,1.4
		c-0.6,0.2-1.3,0.5-2,0.8c-0.7,0.3-1.4,0.7-2.1,1.2c-0.7,0.5-1.4,1-2,1.5c-0.6,0.5-1.2,1-1.5,1.5c0.3,0.7,0.7,1.4,1.4,2.2
		c0.7,0.8,1.4,1.5,2.3,2.2c0.8,0.7,1.7,1.4,2.5,2c0.8,0.7,1.5,1.2,2.1,1.7c1.1,0.9,1.7,1.8,1.8,2.7c0.1,0.9,0,1.6-0.5,2.1
		c-0.5,0.5-1.1,0.9-2,1c-0.9,0.2-1.8,0-2.8-0.5c-0.6-0.3-1.3-0.8-2.2-1.4c-0.9-0.6-1.8-1.3-2.7-2c-0.9-0.7-1.8-1.4-2.5-2.1
		c-0.8-0.7-1.4-1.4-1.9-2c0,0.3,0,0.7,0,1.3c0,0.6-0.1,1.3-0.1,2c-0.1,0.7-0.1,1.3-0.2,1.9c0,0.6-0.1,1-0.2,1.2
		c-0.3,1.1-0.9,1.9-1.6,2.4c-0.8,0.5-1.5,0.7-2.3,0.6c-0.8-0.1-1.5-0.4-2.1-1c-0.6-0.6-0.9-1.5-0.9-2.7v-1.7c0.1-3.1,0.1-6.1,0.3-9
		c0.1-2.9,0.1-6.1,0.1-9.7c0-0.9,0.1-2.2,0.2-3.7c0.1-1.5,0.3-3.1,0.5-4.7s0.4-3.2,0.7-4.7c0.3-1.5,0.6-2.7,1-3.6
		c0.5-1.2,1.1-2,1.8-2.3c0.8-0.3,1.5-0.2,2.2,0.2c0.7,0.4,1.2,1.2,1.5,2.3c0.4,1.1,0.4,2.4,0.1,3.9c-0.2,1-0.3,2.1-0.4,3.4
		c-0.1,1.2-0.2,2.5-0.3,3.8c-0.1,1.3-0.1,2.6-0.1,3.8c0,1.2,0,2.3,0.1,3.3v2.4C454.3,459.5,457.5,457.8,461,457.2z"/>
	<path id="XMLID_23_" d="M491.7,471.6c0.5-0.1,1-0.2,1.5-0.3c0.5,0,0.9,0,1.3,0.1c1.5,0.2,2.1,1,1.7,2.3c-0.1,0.4-0.5,0.8-1,1.2
		c-0.5,0.4-1,0.8-1.5,1.1c-0.8,0.5-1.8,0.9-2.9,1.3c-1.1,0.4-2.3,0.8-3.6,1.1c-1.3,0.3-2.5,0.4-3.9,0.4c-1.3,0-2.5-0.2-3.6-0.6
		c-2.4-0.9-4.3-2.2-5.8-3.9c-1.4-1.7-2.4-3.8-2.8-6.1c-0.9-0.3-1.8-0.7-2.7-1.1c-0.8-0.4-1.5-1-2.1-1.9c-1-1.3-1.3-2.4-0.8-3.2
		c0.5-0.8,1.9-0.9,4.2-0.3c0.9,0.1,1.5,0.1,1.7-0.1c0.5-2.3,1.2-4.4,2.2-6.2c1-1.8,2.2-3.2,3.6-4.3c1.4-1.1,3.1-1.7,5.1-2
		c1.9-0.3,4.1,0,6.4,0.7c2.2,1,3.6,2.3,4.2,3.9s0.7,3.1,0.2,4.8c-0.5,1.6-1.4,3.1-2.8,4.6c-1.3,1.5-2.8,2.7-4.4,3.5
		c-1.1,0.5-2.3,1-3.3,1.5c-1.1,0.4-2.3,0.7-3.5,0.9c0.4,0.7,0.9,1.4,1.4,1.9c0.5,0.5,1.2,0.9,1.9,1.2c1.5,0.6,3.1,0.8,4.8,0.7
		C488.8,472.6,490.3,472.2,491.7,471.6z M480.9,456.4c-0.5,0.3-1.1,0.7-1.6,1.3c-0.5,0.6-1,1.2-1.4,1.8c-0.4,0.6-0.6,1.2-0.7,1.8
		c-0.1,0.6,0.1,1,0.5,1.2c0.7,0.4,1.5,0.5,2.6,0.3c1.1-0.2,2.1-0.6,3.1-1.2c1-0.6,1.8-1.3,2.5-2.1c0.7-0.8,1-1.7,1-2.7
		c-0.1-0.7-0.3-1.1-0.8-1.4c-0.4-0.3-0.9-0.4-1.5-0.4c-0.6,0-1.2,0.2-1.9,0.5C482.1,455.8,481.5,456.1,480.9,456.4z"/>
	<path id="XMLID_26_" d="M521.1,473.2c0.9,0.7,1.3,1.5,1.4,2.5c0.1,1-0.1,1.8-0.6,2.5c-0.5,0.7-1.2,1.3-2,1.5
		c-0.8,0.3-1.7,0.1-2.5-0.5c-1.1-0.9-2-1.9-2.7-3c-0.7-1.1-1.3-2.3-1.8-3.7c-0.2-0.5-0.4-1.1-0.6-1.8c-0.2-0.8-0.4-1.5-0.6-2.3
		c-0.2-0.8-0.5-1.6-0.8-2.3c-0.3-0.7-0.6-1.3-1-1.7c-0.2,0.1-0.4,0.3-0.6,0.4c-0.2,0.1-0.3,0.3-0.4,0.5c-0.5,0.5-0.9,1.4-1.2,2.5
		c-0.3,1.1-0.5,2.1-0.7,2.8c-0.4,1.3-0.8,2.6-1.1,3.9c-0.3,1.2-0.7,2.5-1,3.8c-0.1,0.7-0.5,1.2-1,1.7c-0.6,0.5-1.2,0.8-1.9,0.9
		c-0.7,0.1-1.4,0.1-2-0.2c-0.7-0.3-1.1-0.8-1.4-1.5c-0.7-1.7-1.3-3.5-1.6-5.5c-0.3-2-0.5-4.1-0.5-6.3c0-2.1,0.2-4.2,0.5-6.3
		c0.3-2,0.8-3.9,1.4-5.7c0.4-1,1-1.7,1.9-2c0.9-0.4,1.7-0.5,2.6-0.3c0.9,0.2,1.5,0.6,2,1.3s0.5,1.6,0.1,2.7c-0.1,0.5-0.3,1-0.4,1.5
		c-0.2,0.5-0.3,1-0.4,1.5c0.9-0.9,1.8-1.7,2.9-2.3c1-0.6,2.1-0.8,3.3-0.7c1.8,0.3,3.2,1,4.3,2.1c1,1.1,1.9,2.5,2.7,4.1
		c0.4,0.9,0.8,2,1.1,3.3c0.4,1.4,0.8,2.5,1.2,3.5c0.1,0.3,0.3,0.9,0.6,1.5C520.5,472.5,520.8,473,521.1,473.2z"/>
</g>
<g id="XMLID_11_">
</g>
<g id="XMLID_31_">
</g>
<g id="XMLID_32_">
</g>
<g id="XMLID_33_">
</g>
<g id="XMLID_34_">
</g>
<g id="XMLID_35_">
</g>
</svg>
