<?xml version="1.0" encoding="utf-8"?>
<!-- Generator: Adobe Illustrator 19.0.0, SVG Export Plug-In . SVG Version: 6.00 Build 0)  -->
<svg version="1.1" id="레이어_1" xmlns="http://www.w3.org/2000/svg" xmlns:xlink="http://www.w3.org/1999/xlink" x="0px"
	 y="0px" viewBox="0 0 600 580" style="enable-background:new 0 0 600 580;" xml:space="preserve">
<style type="text/css">
	.st0{opacity:0.5;}
	.st1{fill:#E60012;}
	.st2{fill:none;stroke:#000000;stroke-width:5;stroke-linecap:round;stroke-miterlimit:10;}
	.st3{fill:none;stroke:#000000;stroke-width:5;stroke-linecap:round;stroke-linejoin:round;stroke-miterlimit:10;}
	.st4{fill:#FFFFFF;stroke:#000000;stroke-width:5;stroke-miterlimit:10;}
</style>
<g id="XMLID_1_" class="st0">
	<path id="XMLID_20_" class="st1" d="M389.9,289.2c4.2-0.5,9.3-1.1,15.4-2.1c6.1-0.9,11.9-1.4,17.5-1.4c5.6,0,10.7,1.1,15.4,3.1
		c4.7,2.1,7.9,6.1,9.8,12.2c2.3,5.6,2.6,11.2,0.7,17c-1.9,5.8-5.1,10.5-9.8,14.2c-6.5,6-14.5,10-23.8,11.8
		c-9.3,1.9-18.2,3.7-26.6,5.6c-12.6,2.3-25.9,4.1-39.9,5.2s-27.3,2-39.9,2.4c-8.4,0-16.9-0.6-25.6-1.8c-8.6-1.2-16.8-3.3-24.5-6.3
		c-7.7-3-14.6-7.3-20.6-12.9c-6.1-5.6-10.7-12.8-14-21.7c-5.1-14-7.9-28-8.4-42c-0.5-14-1.2-28.7-2.1-44.1c0-12.1,0.5-24.3,1.4-36.4
		c0.9-12.1,1.6-25,2.1-38.5c-8.9-3.7-14.9-10-18.2-18.9c-1.9-5.6-1.9-11.2,0-16.8c1.9-5.6,5.1-9.8,9.8-12.6
		c4.7-3.7,9.8-6.2,15.4-7.4c5.6-1.2,11.4-1.8,17.5-1.8c6.1,0,12.3,0.4,18.5,1c6.3,0.7,13,1.1,20,1.1c19.1,0.5,36.1,0.3,50.8-0.4
		c14.7-0.7,31.6-0.8,50.8-0.4c6.5,0.5,12.9,2.5,19.3,6c6.3,3.5,10.6,8.8,12.9,15.8c2.8,9.3,1.8,16.7-3.2,22
		c-4.9,5.4-11.5,9.5-19.9,12.3s-17.6,4.7-27.7,5.6c-10,0.9-18.5,1.4-25.5,1.4c-11.2,0-21.7,0.2-31.5,0.7c-9.8,0.5-20.8,0.5-32.9,0
		c0,0.5,0,1,0,1.8c0,0.7,0,2.3,0,4.9c0,2.6,0.1,6.5,0.4,11.9c0.2,5.4,0.4,12.5,0.4,21.4c4.2,0,8.4,0.1,12.6,0.4
		c4.2,0.2,8.4,0.3,12.6,0.3c13.5,0.5,27,0.6,40.3,0.4c13.3-0.2,26.7-1,40.3-2.4c2.8,0,6.5,0.1,11.2,0.4c4.7,0.2,9.2,0.9,13.7,2.1
		c4.4,1.2,8.3,3.1,11.5,5.7c3.3,2.6,4.9,6.3,4.9,11c0,12.3-6.5,21-19.6,26.2c-7.5,3.3-16.8,5.8-28,7.4c-11.2,1.7-22.8,2.6-34.6,2.8
		c-11.9,0.2-23.6,0.1-35-0.4c-11.4-0.5-21.4-0.9-29.8-1.4c0,7,1.3,14.3,3.8,21.9c2.6,7.6,7.8,13.3,15.8,17
		c5.1,2.3,10.6,3.7,16.5,4.2c5.8,0.5,12,0.5,18.5,0c9.3-0.9,19.5-2.2,30.5-3.8C369.8,291.4,380.1,290.1,389.9,289.2z"/>
</g>
<path id="XMLID_2_" class="st2" d="M396,344H249c-6.6,0-12-5.4-12-12V231V130c0-6.6,5.4-12,12-12h147c6.6,0,12,5.4,12,12v202
	C408,338.6,402.6,344,396,344z"/>
<line id="XMLID_4_" class="st2" x1="237" y1="231" x2="408" y2="231"/>
<path id="XMLID_3_" class="st3" d="M208,424h216c5.5,0,10-4.5,10-10v-47c0-3.9-3.1-7-7-7H221c-7.2,0-13-5.8-13-13V231
	c0-8.8-7.2-16-16-16h-72.2c-4,0-7.8,1.8-10.2,5c-9.7,12.5-32,50.9-33.6,140v52c0,6.6,5.4,12,12,12H208z"/>
<circle id="XMLID_5_" class="st4" cx="186.5" cy="438.5" r="36.5"/>
<circle id="XMLID_6_" class="st4" cx="344.2" cy="438.5" r="36.5"/>
<path id="XMLID_7_" class="st3" d="M176.5,239h-44.6c-5.3,0-9.9,3.4-11.5,8.5l-13.6,44c-2.4,7.7,3.4,15.5,11.5,15.5h57.2
	c6.1,0,11-4.9,11-11v-47C186.5,243.5,182,239,176.5,239z"/>
<g id="XMLID_8_">
	<path id="XMLID_10_" class="st1" d="M421.5,444.3c1.1,0.3,1.8,0.7,2.3,1.4c0.5,0.7,0.7,1.3,0.5,2c-0.1,0.7-0.5,1.3-1.1,1.8
		c-0.6,0.5-1.5,0.8-2.5,0.9c-0.7,0-1.2,0-1.6,0c-0.4,0-0.8,0-1,0s-0.6,0-1,0c-0.3,0-0.8,0-1.4,0c-0.2,0.7-0.3,1.4-0.4,2
		c-0.1,0.6-0.1,1.3-0.2,2c-0.1,0.7-0.3,1.6-0.4,2.7c-0.1,1.1-0.2,2.2-0.1,3.3c0.1,1.1,0.3,2.2,0.7,3.2c0.4,1,1,1.8,2,2.5
		c0.9,0.6,1.4,1.3,1.7,2c0.2,0.8,0.2,1.5,0,2.2c-0.2,0.7-0.7,1.3-1.3,1.7c-0.6,0.4-1.5,0.5-2.5,0.3c-2-0.4-3.6-1.3-4.8-2.8
		c-1.2-1.4-2-3.2-2.5-5.2c-0.5-2-0.7-4.3-0.7-6.6c0.1-2.4,0.3-4.7,0.7-7c-0.1,0.1-0.4,0.1-0.7,0c-0.3,0-0.6,0-0.7,0
		c-1.4,0-2.4-0.1-3-0.3c-0.6-0.2-1.1-0.6-1.4-1.2c-0.5-0.7-0.6-1.5-0.1-2.3c0.5-0.8,1.1-1.3,2-1.6c1.2-0.3,2.1-0.5,2.8-0.6
		c0.6-0.1,1.5-0.3,2.7-0.7c0.1-0.5,0.2-1,0.2-1.3c0-0.3,0-0.8,0.1-1.3c0.1-0.5,0.1-1,0.2-1.5c0.1-0.5,0.2-0.9,0.3-1.4
		c0.2-0.5,0.4-0.9,0.7-1.2c0.3-0.3,0.6-0.5,1.1-0.8c0.4-0.3,1-0.4,1.8-0.4c0.8,0,1.4,0.3,1.9,0.8c0.3,0.3,0.5,0.6,0.6,1
		c0.2,0.3,0.3,0.7,0.4,1.3c0,0.1,0,0.3,0,0.8c0,0.5,0,1,0,1.5c0,0.5,0,1,0,1.5c0,0.4-0.1,0.7-0.1,0.8c0.3,0,0.6,0,1.1,0
		c0.5,0,0.9,0,1.4,0.1c0.5,0.1,0.9,0.1,1.4,0.2C420.9,444.2,421.2,444.2,421.5,444.3z"/>
	<path id="XMLID_12_" d="M453.3,447.1c-0.1,1.1-0.5,1.9-1.2,2.4c-0.7,0.4-1.6,0.8-2.5,1.1c-0.9,0.3-1.8,0.8-2.8,1.5
		c-1,0.7-1.9,1.4-2.5,2c-0.6,0.7-1.1,1.2-1.6,1.7c-0.5,0.5-0.9,0.9-1.3,1.4c-0.4,0.4-0.9,0.9-1.3,1.4c-0.4,0.5-0.9,1.2-1.5,2
		c-0.3,0.5-0.7,1.1-1,1.9c-0.3,0.8-0.6,1.5-0.8,2.3c-0.3,0.8-0.5,1.6-0.7,2.4s-0.4,1.5-0.5,2.1c-0.1,0.5-0.3,0.9-0.5,1.3
		c-0.2,0.4-0.6,0.5-1.2,0.5c-0.6-0.1-1.2-0.2-1.8-0.3c-0.6-0.1-1.1-0.4-1.6-0.8s-0.9-1-1.2-1.7c-0.3-0.7-0.5-1.7-0.5-3
		c0-1.1,0-2.3,0-3.6c0-1.3-0.1-2.7-0.2-4.1c-0.1-1.4-0.1-2.8-0.1-4.1c0-1.3,0-2.5,0-3.6c0.1-0.9,0.1-1.9,0.2-2.8
		c0.1-0.9,0.2-1.9,0.3-2.8c0.1-0.7,0.1-1.4,0.2-2c0.1-0.6,0.3-1.2,0.7-1.9c0.1-0.1,0.4-0.4,0.7-0.7c0.3-0.3,0.7-0.5,1.1-0.5
		c0.5-0.1,1,0,1.5,0.3c0.5,0.3,0.8,0.6,0.9,0.9c0.1,0.4,0.2,1,0.3,1.8c0.1,0.8,0.3,1.5,0.4,2.3c0.1,0.8,0.3,1.6,0.4,2.4
		c0.1,0.8,0.1,1.4,0.1,1.9c0.1,0.5,0.1,1.2,0.2,2c0.1,0.9,0.2,1.8,0.3,2.6c1.1-0.9,2.1-2,3.1-3.1c1-1.1,2.2-2.1,3.5-3
		c1-0.7,2-1.3,3.1-1.8c1.1-0.5,2.3-0.9,3.5-1.2c1.1-0.3,2.2-0.2,3,0.2C453,444.8,453.4,445.7,453.3,447.1z"/>
	<path id="XMLID_14_" d="M454.4,458.6c-0.1-1.5-0.3-3.1-0.3-4.7c-0.1-1.6,0-3.2,0.1-4.8c0.1-0.9,0.3-1.8,0.5-2.8
		c0.2-0.9,0.4-1.8,0.8-2.6c0.2-0.4,0.5-0.7,1-0.9c0.4-0.2,0.9-0.3,1.5-0.4c0.5-0.1,1,0,1.5,0.1c0.5,0.1,0.8,0.4,1,0.7
		c0.7,0.9,1,2.1,1,3.8c0,1.7,0.1,3.1,0.1,4.4c0,1.5,0,3.3,0.1,5.1c0.1,1.9,0.5,3.5,1,4.9c0.3,0.6,0.7,1,1.1,1.3
		c0.4,0.3,1,0.4,1.7,0.3c1,0,1.8-0.5,2.4-1.5c0.6-1,1.1-2.2,1.5-3.6c0.4-1.4,0.6-2.8,0.8-4.3c0.2-1.4,0.3-2.6,0.3-3.5
		c0-0.7,0-1.5-0.1-2.4c-0.1-0.9,0-1.8,0-2.5c0.1-0.8,0.4-1.5,0.9-2c0.5-0.6,1.2-0.8,2.3-0.8c0.7-0.1,1.4,0.1,2,0.4
		c0.6,0.3,0.9,0.7,1,1c0.3,1.1,0.5,2.4,0.5,3.8c0,1.4,0,2.7,0,3.8c0,1.3-0.1,2.9-0.3,4.6c-0.2,1.8-0.4,3-0.6,3.8
		c-0.5,1.4-1,2.8-1.5,4.1c-0.4,1.3-1.3,2.5-2.7,3.6c-1.8,1.4-3.7,2.2-5.8,2.3c-2.1,0.1-4-0.3-5.7-1.1c-1.7-0.9-3.2-2.2-4.4-4
		C455.1,463,454.5,460.9,454.4,458.6z"/>
	<path id="XMLID_16_" d="M500.1,467.6c-0.3,0.5-0.8,0.9-1.5,1.3c-0.7,0.4-1.5,0.8-2.3,1s-1.6,0.5-2.5,0.8c-0.8,0.2-1.5,0.3-2.1,0.3
		c-1.1,0-2.3-0.1-3.5-0.3c-1.2-0.2-2.4-0.6-3.5-1.2c-1.1-0.5-2.1-1.2-2.9-2.1c-0.8-0.9-1.4-1.9-1.7-3.2c-0.3-1.4-0.4-2.9-0.4-4.5
		c0-1.6,0.1-3.1,0.5-4.7c0.3-1.5,0.8-3,1.4-4.3c0.7-1.3,1.6-2.5,2.8-3.4c1-0.8,2.1-1.4,3.3-1.7c1.2-0.3,2.5-0.5,3.8-0.4
		c1.3,0.1,2.5,0.4,3.7,0.9s2.2,1.2,3.1,2.1c1.1,1.1,1.2,2.3,0.5,3.6c-0.4,0.7-1,1-1.9,0.8c-0.9-0.2-1.6-0.3-2.2-0.5
		c-0.9-0.1-1.9-0.2-2.8-0.1c-0.9,0-1.8,0.3-2.6,0.8c-1.4,0.9-2.3,2.1-2.6,3.7c-0.4,1.6-0.4,3.1-0.2,4.5c0.2,1,0.6,1.8,1.3,2.3
		c0.7,0.6,1.4,1,2.3,1.2c0.9,0.2,1.8,0.3,2.7,0.2c0.9-0.1,1.8-0.4,2.5-0.8c1.4-0.7,2.6-1,3.7-0.7c1,0.3,1.6,0.9,1.8,2
		C500.8,466.2,500.6,466.9,500.1,467.6z"/>
	<path id="XMLID_18_" d="M523.1,448.2c1.1-0.2,2.1-0.1,2.8,0.3c0.8,0.4,1.3,0.9,1.6,1.5c0.3,0.6,0.2,1.2-0.1,1.9
		c-0.3,0.7-1,1.1-2,1.4c-0.6,0.2-1.3,0.5-2,0.8c-0.7,0.3-1.4,0.7-2.1,1.2c-0.7,0.5-1.4,1-2,1.5c-0.6,0.5-1.2,1-1.5,1.5
		c0.3,0.7,0.7,1.4,1.4,2.2c0.7,0.8,1.4,1.5,2.3,2.2c0.8,0.7,1.7,1.4,2.5,2c0.8,0.7,1.5,1.2,2.1,1.7c1.1,0.9,1.7,1.8,1.8,2.7
		c0.1,0.9,0,1.6-0.5,2.1c-0.5,0.5-1.1,0.9-2,1c-0.9,0.2-1.8,0-2.8-0.5c-0.6-0.3-1.3-0.8-2.2-1.4c-0.9-0.6-1.8-1.3-2.7-2
		c-0.9-0.7-1.8-1.4-2.5-2.1c-0.8-0.7-1.4-1.4-1.9-2c0,0.3,0,0.7,0,1.3c0,0.6-0.1,1.3-0.1,2c-0.1,0.7-0.1,1.3-0.2,1.9
		c0,0.6-0.1,1-0.2,1.2c-0.3,1.1-0.9,1.9-1.6,2.4c-0.8,0.5-1.5,0.7-2.3,0.6c-0.8-0.1-1.5-0.4-2.1-1c-0.6-0.6-0.9-1.5-0.9-2.7v-1.7
		c0.1-3.1,0.1-6.1,0.3-9c0.1-2.9,0.1-6.1,0.1-9.7c0-0.9,0.1-2.2,0.2-3.7c0.1-1.5,0.3-3.1,0.5-4.7s0.4-3.2,0.7-4.7
		c0.3-1.5,0.6-2.7,1-3.6c0.5-1.2,1.1-2,1.8-2.3c0.8-0.3,1.5-0.2,2.2,0.2c0.7,0.4,1.2,1.2,1.5,2.3c0.4,1.1,0.4,2.4,0.1,3.9
		c-0.2,1-0.3,2.1-0.4,3.4c-0.1,1.2-0.2,2.5-0.3,3.8c-0.1,1.3-0.1,2.6-0.1,3.8c0,1.2,0,2.3,0.1,3.3v2.4
		C516.4,450.5,519.6,448.8,523.1,448.2z"/>
</g>
<g id="XMLID_9_">
</g>
<g id="XMLID_22_">
</g>
<g id="XMLID_23_">
</g>
<g id="XMLID_24_">
</g>
<g id="XMLID_25_">
</g>
<g id="XMLID_26_">
</g>
</svg>
