<?xml version="1.0" encoding="utf-8"?>
<!-- Generator: Adobe Illustrator 19.0.0, SVG Export Plug-In . SVG Version: 6.00 Build 0)  -->
<svg version="1.1" id="레이어_1" xmlns="http://www.w3.org/2000/svg" xmlns:xlink="http://www.w3.org/1999/xlink" x="0px"
	 y="0px" viewBox="0 0 600 580" style="enable-background:new 0 0 600 580;" xml:space="preserve">
<style type="text/css">
	.st0{opacity:0.5;}
	.st1{fill:none;stroke:#000000;stroke-width:5;stroke-miterlimit:10;}
	.st2{fill:none;}
	.st3{fill:none;stroke:#000000;}
</style>
<g id="XMLID_9_" class="st0">
	<path id="XMLID_58_" d="M232.1,401.7c-11.2,0-22.1-2-32.6-6c-10.5-4-17.1-12-19.9-24.2c-0.9-4.7-0.9-9,0-13c0.9-4,3.7-7.3,8.4-10.1
		c6.1-2.8,12.1-4.1,18.2-3.9c6.1,0.2,12.4,0.8,18.9,1.8c6.5,0.9,13.4,1.4,20.6,1.4c7.2,0,14.1-0.2,20.6-0.7c14-0.5,27.4-0.8,40.3-1
		c12.8-0.2,25.5-0.6,38.2-1c0.5-5.1,0.6-11.3,0.3-18.5c-0.2-7.2-0.1-13.7,0.3-19.3c0-2.8,0.2-7.4,0.7-13.7c0.5-6.3,1.2-13,2.1-20
		c0.9-7,2-13.4,3.1-19.3c1.2-5.8,2.5-9.9,3.9-12.3c7-9.3,15.2-11.7,24.5-7c6.1,2.8,10.5,8.4,13.3,16.8c2.8,7.5,4.2,15.4,4.2,23.8
		c0,8.4,0,16.6,0,24.5c0.5,7,0.9,14,1.4,21c0.5,7,1.2,14,2.1,21c4.2-0.5,8.5-0.8,12.9-1.1c4.4-0.2,9-0.6,13.7-1
		c2.8,0,6.2-0.1,10.2-0.3c4-0.2,7.9,0,11.9,0.7c4,0.7,7.7,2,11.2,3.8c3.5,1.9,6.2,4.4,8,7.7c4.2,8.4,3.6,15.2-1.8,20.3
		c-5.4,5.1-11.1,8.9-17.1,11.2c-9.3,3.3-18.9,6.1-28.7,8.4c-9.8,2.3-19.6,4-29.4,4.9c-23.3,2.3-46.7,3.7-70,4.2
		c-14.5,0.9-29.3,1.5-44.4,1.8C262,403,247,402.7,232.1,401.7z M208.3,219.7c-5.1-1.9-9.4-4.4-12.9-7.7c-3.5-3.3-5.7-6.9-6.7-10.9
		c-0.9-4-0.6-7.8,1.1-11.5c1.6-3.7,5-7.5,10.1-11.2c7.5-5.6,14.5-8.4,21-8.4c6.5,0,14-0.2,22.4-0.7c9.3,0,18.8-0.1,28.4-0.3
		c9.6-0.2,19-0.1,28.4,0.3c4.7,0,10.3,0.1,16.8,0.4c6.5,0.2,13.3,0.5,20.3,0.7c7,0.2,13.9,0.5,20.6,0.7c6.8,0.2,12.5,0.6,17.2,1.1
		c7.5,0.5,15.2,0.8,23.1,1c7.9,0.2,15.2,2.2,21.7,6c13.1,6.5,16.6,16.6,10.5,30.1c-3.3,6.1-8.2,10-14.7,11.9
		c-6.5,1.9-12.6,3-18.2,3.5c-6.1,0.9-11.8,1.5-17.2,1.8c-5.4,0.2-11.1,0.6-17.2,1c-7,0.5-15,0.7-24.1,0.7c-9.1,0-18.3-0.1-27.7-0.4
		c-9.3-0.2-18.4-0.5-27.3-0.7c-8.9-0.2-16.8-0.3-23.8-0.3c-9.8-0.5-18.3-0.9-25.6-1.4c-7.2-0.5-15.5-2.3-24.9-5.6H208.3z M286,303.7
		c0,0.9-0.1,2.7-0.4,5.3c-0.2,2.6-0.6,5.6-1,9.1c-0.5,3.5-1.3,6.9-2.5,10.2c-1.2,3.3-2.9,6.1-5.3,8.4c-4.7,3.7-10.6,5.1-17.9,4.2
		c-7.2-0.9-12.7-3.5-16.4-7.7c-4.2-4.7-6.9-11.3-8.1-20c-1.2-8.6-1.4-17.6-0.7-26.9c0.7-9.3,2-18.1,3.8-26.3
		c1.9-8.2,4-14.1,6.3-17.9c2.3-3.7,6.2-6.4,11.5-8.1c5.4-1.6,10.4-2,15.1-1c4.2,0.9,7.1,2.6,8.8,4.9c1.6,2.3,2.7,5.4,3.1,9.1
		l1.4,18.2c0.5,5.1,0.9,11.1,1.4,17.8C285.7,289.9,286,296.7,286,303.7z"/>
</g>
<g id="XMLID_6_">
	<g id="XMLID_28_">
		<line id="XMLID_31_" class="st1" x1="216.8" y1="197.2" x2="398.9" y2="197.2"/>
		<g id="XMLID_29_">
			<path id="XMLID_30_" d="M414,197.2c-7.1,2.6-15.9,7.1-21.4,11.9l4.3-11.9l-4.3-11.9C398.1,190.1,406.9,194.6,414,197.2z"/>
		</g>
	</g>
</g>
<g id="XMLID_10_">
	<path id="XMLID_20_" class="st2" d="M423,379.8"/>
</g>
<g id="XMLID_8_">
	<path id="XMLID_17_" class="st2" d="M224.4,227"/>
</g>
<g id="XMLID_1_">
	<path id="XMLID_56_" d="M309.2,156.4c-0.5,0.2-0.8,0.1-1.1-0.1c-0.3-0.2-0.5-0.6-0.6-1c-0.1-0.5-0.3-0.9-0.3-1.5
		c-0.1-0.5-0.1-1-0.1-1.4c-0.1-1-0.2-1.9-0.2-2.8c0-0.9,0-1.8,0-2.6c-0.1-1-0.1-2,0-3l0-5.1c0-0.6,0.1-1.2,0.1-1.9s0.2-1.3,0.4-1.9
		c0.2-0.6,0.5-0.9,1-1c0.5-0.1,1,0.1,1.4,0.5c0.3,0.4,0.6,1,0.8,1.9c0.2,0.8,0.3,1.7,0.4,2.6c0.1,0.9,0.1,1.8,0.1,2.8
		c0,0.9,0,1.6,0,2.3v0c0,1.3,0,2.7-0.1,4.1c-0.1,1.4,0,2.9,0.1,4.5c0.1,0.8,0,1.5-0.3,2.2C310.3,155.6,309.8,156.1,309.2,156.4z"/>
</g>
<circle id="XMLID_4_" class="st3" cx="308.3" cy="145.9" r="18.5"/>
<g id="XMLID_7_">
	<path id="XMLID_54_" d="M207.1,296.3c0.7,0.5,1,1,1,1.6c-0.1,0.3-0.3,0.6-0.6,0.9c-0.3,0.3-0.7,0.4-1.1,0.5
		c-0.8,0.1-1.6,0.1-2.3,0.2c-0.7,0.1-1.4,0.1-2.1,0.2c-1,0.1-2.1,0.2-3.1,0.3c-1,0.1-2.1,0.1-3.3,0.1c-0.7,0-1.3-0.1-1.9-0.3
		c-0.6-0.2-1-0.5-1.3-1.1c-0.2-0.5-0.2-0.9,0-1.2c0.2-0.4,0.5-0.8,0.9-1.4c0.1-0.1,0.3-0.4,0.5-0.8c0.2-0.4,0.5-0.8,0.9-1.3
		s0.7-1,1.1-1.6c0.4-0.6,0.8-1.2,1.2-1.7c2.1-2.9,3.1-5,2.9-6.4c-0.1-0.4-0.4-0.7-0.9-0.9c-0.5-0.2-1.2-0.3-2-0.3
		c-0.8,0-1.5,0.1-2.3,0.3c-0.7,0.2-1.5,0.3-2.3,0.3c-0.5-0.1-0.7-0.3-0.8-0.7c-0.1-0.4-0.1-0.8,0-1.1c0.1-0.4,0.3-0.6,0.6-0.8
		c0.3-0.2,0.6-0.4,0.9-0.6c0.7-0.3,1.5-0.5,2.5-0.6c1-0.1,1.9-0.1,2.9,0c1,0.1,1.9,0.3,2.7,0.6c0.9,0.3,1.5,0.7,2.1,1.2
		c0.3,0.3,0.5,0.7,0.6,1.2c0.1,0.5,0.1,1,0,1.6c-0.1,0.5-0.2,1.1-0.3,1.6s-0.3,0.9-0.4,1.2c-0.2,0.5-0.4,1-0.6,1.5
		c-0.2,0.5-0.5,1.2-0.9,1.9c-0.4,0.7-0.9,1.6-1.6,2.5c-0.6,1-1.4,2.2-2.4,3.6l6.2-0.3c0.6,0,1.1-0.1,1.7-0.1
		C206.1,296.1,206.6,296.1,207.1,296.3z"/>
</g>
<circle id="XMLID_5_" class="st3" cx="198.3" cy="290" r="18.5"/>
<g id="XMLID_3_">
	<g id="XMLID_39_">
		<line id="XMLID_42_" class="st1" x1="224.4" y1="369.4" x2="413.7" y2="369.4"/>
		<g id="XMLID_40_">
			<path id="XMLID_41_" d="M428.8,369.4c-7.1,2.6-15.9,7.1-21.4,11.9l4.3-11.9l-4.3-11.9C412.8,362.3,421.7,366.8,428.8,369.4z"/>
		</g>
	</g>
</g>
<g id="XMLID_12_">
	<g id="XMLID_45_">
		<line id="XMLID_48_" class="st1" x1="263.5" y1="248.6" x2="263.5" y2="307.1"/>
		<g id="XMLID_46_">
			<path id="XMLID_47_" d="M263.5,322.2c-2.6-7.1-7.1-15.9-11.9-21.4l11.9,4.3l11.9-4.3C270.6,306.3,266.1,315.1,263.5,322.2z"/>
		</g>
	</g>
</g>
<g id="XMLID_11_">
	<g id="XMLID_14_">
		<line id="XMLID_33_" class="st1" x1="372.5" y1="253.2" x2="372.5" y2="311.7"/>
		<g id="XMLID_21_">
			<path id="XMLID_32_" d="M372.5,326.8c-2.6-7.1-7.1-15.9-11.9-21.4l11.9,4.3l11.9-4.3C379.6,310.9,375.1,319.7,372.5,326.8z"/>
		</g>
	</g>
</g>
<g id="XMLID_23_">
	<path id="XMLID_52_" d="M431.6,285.9c0.6,0.2,1.2,0.5,1.7,0.9c0.5,0.3,0.9,0.8,1.3,1.4c0.3,0.4,0.5,1,0.5,1.8
		c0,0.7-0.1,1.5-0.5,2.2c-0.4,0.9-0.8,1.6-1.4,2.3c-0.5,0.6-1,1.1-1.2,1.3c-0.2,0.1-0.5,0.4-0.9,0.8c-0.5,0.4-1,0.8-1.6,1.2
		c-0.6,0.4-1.3,0.8-2,1c-0.7,0.3-1.4,0.5-2,0.5c-0.6,0-1.1-0.3-1.3-0.8c-0.2-0.4-0.1-0.8,0.3-1.3c0.4-0.5,0.7-0.9,1-1.1
		c0.4-0.2,0.9-0.6,1.6-1s1.3-1,1.9-1.5c0.6-0.5,1-1.1,1.4-1.7c0.4-0.6,0.4-1.2,0.1-1.8c-0.3-0.5-0.8-0.8-1.4-1
		c-0.7-0.2-1.3-0.3-1.8-0.4c-0.2,0-0.5-0.1-0.8-0.1c-0.3-0.1-0.7-0.1-1-0.3c-0.3-0.1-0.6-0.3-0.8-0.4c-0.3-0.2-0.4-0.4-0.5-0.6
		c-0.2-0.4-0.1-1.1,0.4-1.9c0.5-0.8,1-1.6,1.5-2.4c0.5-0.7,0.9-1.5,1.3-2.4c0.3-0.6,0.5-1.1,0.6-1.5c0.1-0.4,0.2-0.9,0.1-1.6
		c-0.1-0.6-0.4-0.8-0.9-0.8c-0.3,0-0.6,0-0.9,0.1c-0.3,0.1-0.6,0.2-0.9,0.3c-0.8,0.3-1.4,0.5-1.8,0.7c-0.4,0.2-0.9,0.3-1.5,0.3
		c-0.4,0-0.7-0.2-1-0.5c-0.2-0.3-0.3-0.7-0.3-1c0.1-0.3,0.2-0.6,0.4-0.9c0.2-0.2,0.6-0.5,1.2-0.8c0.9-0.4,2-0.8,3.1-1.1
		c1.1-0.4,2.3-0.5,3.5-0.6c0.4,0,0.8,0.1,1.3,0.3c0.5,0.2,0.9,0.5,1.1,0.9c0.3,0.5,0.5,1.2,0.5,1.9c0,0.7,0,1.5-0.2,2.3
		c-0.2,0.8-0.4,1.6-0.7,2.4c-0.3,0.8-0.6,1.5-0.9,2.2c-0.2,0.4-0.4,0.8-0.7,1.1c-0.3,0.3-0.3,0.6-0.3,0.9c0,0.3,0.3,0.5,0.9,0.5
		C430.5,285.5,431.1,285.7,431.6,285.9z"/>
</g>
<circle id="XMLID_22_" class="st3" cx="428.8" cy="285.4" r="18.5"/>
<g id="XMLID_25_">
	<path id="XMLID_50_" d="M318.5,428.3c0.3,0,0.6,0.1,1,0.3c0.4,0.1,0.6,0.4,0.6,0.8c0,0.5-0.1,0.8-0.3,1.1s-0.6,0.5-1.1,0.8
		c-0.9,0.2-1.5,0.3-1.9,0.4c-0.4,0.1-0.7,0.1-1,0.2s-0.4,0.1-0.6,0.1c-0.2,0-0.4,0-0.8,0.1c0,0.3,0,0.7,0,1.4s0,1.3,0,1.8
		c0,0.5,0,0.9,0,1.4s0,0.9-0.1,1.3c-0.1,0.4-0.2,0.7-0.5,1c-0.2,0.3-0.6,0.4-1,0.4c-0.6,0-1-0.2-1.3-0.5s-0.5-0.8-0.5-1.5
		c-0.1-0.6-0.2-1.4-0.2-2.4c-0.1-1-0.1-1.9-0.1-2.7c0,0-0.2,0-0.7,0c-0.5,0-1.1,0.1-1.9,0.1s-1.6,0-2.4,0c-0.9,0-1.7-0.1-2.5-0.2
		c-0.6-0.1-1.1-0.4-1.4-0.8c-0.7-1.1-0.7-3.1-0.3-6c0.3-1.4,0.6-2.6,0.9-3.7c0.3-1.1,0.6-1.8,0.7-2c0-0.1,0.1-0.3,0.3-0.6
		c0.2-0.3,0.4-0.4,0.7-0.4c0.7,0,1.2,0.2,1.5,0.6c0.3,0.4,0.4,0.9,0.4,1.5c0,0.6-0.1,1.2-0.2,1.9c-0.1,0.7-0.3,1.3-0.3,1.9
		c-0.1,1.1-0.2,2-0.2,2.7c0,0.7,0,1.2,0.1,1.5c0.1,0.2,0.2,0.3,0.4,0.3c0.2,0.1,0.6,0.1,1.2,0.1c0.6,0,1.2,0,1.8,0
		c0.6,0,1.1-0.1,1.5-0.2c0.5-0.1,0.7-0.1,0.7-0.2v-2.1c0-0.9,0-1.8,0-2.7c0-0.9,0-1.8,0-2.7c0-0.8,0-1.5,0.1-2.2
		c0-0.7,0.2-1.3,0.4-2c0.1-0.3,0.4-0.5,0.8-0.6c0.4,0,0.7,0.1,0.9,0.4c0.3,0.4,0.5,0.9,0.7,1.5c0.2,0.6,0.3,1.3,0.4,2
		c0.1,0.7,0.2,1.4,0.2,2.2c0,0.8,0,1.5,0,2.2v2.3c0,0.6,0,1.2,0,1.9c0.1,0,0.3,0,0.7-0.1c0.4,0,0.8-0.1,1.2-0.1
		c0.5,0,0.9-0.1,1.3-0.1C318,428.2,318.3,428.3,318.5,428.3z"/>
</g>
<circle id="XMLID_24_" class="st3" cx="308.3" cy="427" r="18.5"/>
<g id="XMLID_26_">
</g>
<g id="XMLID_34_">
</g>
<g id="XMLID_43_">
</g>
<g id="XMLID_49_">
</g>
<g id="XMLID_62_">
</g>
<g id="XMLID_63_">
</g>
<g id="XMLID_64_">
</g>
<g id="XMLID_65_">
</g>
<g id="XMLID_66_">
</g>
<g id="XMLID_67_">
</g>
</svg>
