<?xml version="1.0" encoding="utf-8"?>
<!-- Generator: Adobe Illustrator 19.0.0, SVG Export Plug-In . SVG Version: 6.00 Build 0)  -->
<svg version="1.1" id="레이어_1" xmlns="http://www.w3.org/2000/svg" xmlns:xlink="http://www.w3.org/1999/xlink" x="0px"
	 y="0px" viewBox="0 0 600 580" style="enable-background:new 0 0 600 580;" xml:space="preserve">
<style type="text/css">
	.st0{opacity:0.5;}
	.st1{fill:none;stroke:#000000;stroke-width:5;stroke-miterlimit:10;}
	.st2{fill:none;}
	.st3{fill:none;stroke:#000000;}
</style>
<g id="XMLID_9_" class="st0">
	<path id="XMLID_32_" d="M443.3,184c3.7,2.8,6.5,4.9,8.4,6.3c1.9,1.4,3.3,3.3,4.2,5.6c4.2,7,5.1,13.2,2.8,18.6
		c-2.3,5.4-6.1,9.8-11.2,13.3c-5.1,3.5-11.1,6.4-17.8,8.8c-6.8,2.3-12.9,4.2-18.6,5.6c-26.6,7.5-53.5,11.8-80.8,12.9
		c-27.3,1.2-55,1.3-83,0.4c-7-0.5-14.2-1.3-21.7-2.4c-7.5-1.2-14.3-3.2-20.6-6c-6.3-2.8-11.4-6.5-15.4-11.2c-4-4.7-6-10.7-6-18.2
		c0-7,1.6-12.5,4.9-16.5c3.3-4,7.6-6.9,12.9-8.8c5.4-1.9,11.4-2.8,18.2-2.8c6.8,0,13.4,0.2,19.9,0.7c17.3,2.3,34.4,3.4,51.5,3.2
		c17-0.2,34.2-1.1,51.4-2.5c4.7-0.5,11.7-1.6,21-3.5c9.3-1.9,19-3.5,29.1-4.9c10-1.4,19.7-2.2,29-2.5
		C430.9,180,438.1,181.2,443.3,184z M395.7,325.4c6.1,12.1,10.3,25,12.6,38.5c2.3,13.5,2.3,27,0,40.3c-2.3,13.3-6.9,25.9-13.7,37.8
		c-6.8,11.9-16.2,22.3-28.3,31.1c-15.4,10.7-32.9,16.3-52.5,16.8c-19.6,0.5-36.9-4.7-51.8-15.4c-8.4-5.6-15.1-13.2-20-22.8
		c-4.9-9.6-8.3-19.8-10.1-30.8c-1.9-11-2.2-22.1-1.1-33.3c1.2-11.2,3.9-21.5,8.1-30.8c2.8-6.5,6.8-14.1,11.9-22.8
		c5.1-8.6,11.1-17.1,17.9-25.5c6.8-8.4,14.5-16.1,23.1-23.1c8.6-7,18.3-12.4,29.1-16.1c7-1.4,13.7-2.2,19.9-2.4
		c6.3-0.2,12,2.2,17.2,7.3c3.3,3.7,5,7,5.3,9.8c0.2,2.8-0.3,5.8-1.8,9.1c9.3,3.3,16.6,7.8,21.7,13.6
		C388.2,312.7,392.4,318.9,395.7,325.4z M329.2,177.7c-7.5,1.4-15.4,0.5-23.8-2.8c-8.4-3.3-16.5-8-24.1-14.4
		c-7.7-6.3-14.2-13.4-19.6-21.3c-5.4-7.9-8.5-15.6-9.5-23.1c-0.9-3.7-0.5-8.8,1.4-15.1c1.9-6.3,4-10.8,6.3-13.6
		c3.7-3.7,7.4-6.1,10.9-7c3.5-0.9,6.8-1,9.8-0.4c3,0.7,6.1,1.9,9.1,3.5c3,1.6,5.9,3.4,8.8,5.3c3.7,2.8,9.5,7.8,17.2,15.1
		c7.7,7.2,14.7,15,21,23.4c6.3,8.4,10.6,16.7,12.9,24.9c2.3,8.2,0.2,15.1-6.3,20.6c-1.4,1.9-3.7,3-7,3.5
		C332.9,176.8,330.6,177.3,329.2,177.7z M350.2,372.3c-1.4-8.9-4.7-17.3-9.8-25.2c-5.1-7.9-12.1-10.3-21-7c-7,2.3-13,7.1-17.8,14.4
		c-4.9,7.2-8.6,15.2-11.2,23.8c-2.6,8.6-3.8,17.1-3.8,25.5s1.9,14.7,5.6,18.9c5.1,6.5,11.9,10.6,20.3,12.3
		c8.4,1.6,16.3-1.5,23.8-9.5c7.9-8.4,12.5-16.8,13.6-25.2C351,391.9,351.1,382.6,350.2,372.3z"/>
</g>
<g id="XMLID_6_">
	<g id="XMLID_28_">
		<line id="XMLID_31_" class="st1" x1="274.6" y1="105.5" x2="319.1" y2="147.3"/>
		<g id="XMLID_29_">
			<path id="XMLID_30_" d="M330.1,157.6c-7-2.9-16.5-5.7-23.7-5.9l11.3-5.7l5-11.6C323.4,141.5,326.8,150.8,330.1,157.6z"/>
		</g>
	</g>
</g>
<g id="XMLID_10_">
	<path id="XMLID_20_" class="st2" d="M442.8,383.3"/>
</g>
<g id="XMLID_8_">
	<path id="XMLID_17_" class="st2" d="M244.1,230.5"/>
</g>
<g id="XMLID_1_">
	<path id="XMLID_25_" d="M231.5,97.6c-0.5,0.2-0.8,0.1-1.1-0.1c-0.3-0.2-0.5-0.6-0.6-1c-0.1-0.5-0.3-0.9-0.3-1.5
		c0-0.5-0.1-1-0.1-1.4c-0.1-1-0.2-1.9-0.2-2.8c0-0.9,0-1.8,0-2.6c-0.1-1-0.1-2,0-3l0-5.1c0-0.6,0.1-1.2,0.1-1.9
		c0-0.6,0.1-1.3,0.4-1.9c0.2-0.6,0.5-0.9,1-1c0.5-0.1,0.9,0.1,1.4,0.5c0.3,0.4,0.6,1,0.8,1.9c0.2,0.8,0.3,1.7,0.4,2.6
		c0.1,0.9,0.1,1.8,0.1,2.8c0,0.9,0,1.6,0,2.3v0c0,1.3,0,2.7-0.1,4.1c-0.1,1.4,0,2.9,0.1,4.5c0.1,0.8,0,1.5-0.4,2.2
		C232.7,96.8,232.2,97.3,231.5,97.6z"/>
</g>
<circle id="XMLID_4_" class="st3" cx="230.6" cy="87" r="18.5"/>
<g id="XMLID_7_">
	<path id="XMLID_23_" d="M163.2,225.1c0.7,0.5,1,1,1,1.6c-0.1,0.3-0.3,0.6-0.6,0.9c-0.3,0.3-0.7,0.4-1.1,0.5
		c-0.8,0.1-1.6,0.1-2.3,0.2c-0.7,0.1-1.4,0.1-2.1,0.2c-1,0.1-2.1,0.2-3.1,0.3c-1,0.1-2.1,0.1-3.3,0.1c-0.7,0-1.3-0.1-1.9-0.3
		c-0.6-0.2-1-0.5-1.3-1.1c-0.2-0.5-0.2-0.9,0-1.2c0.2-0.4,0.5-0.8,0.9-1.4c0.1-0.1,0.3-0.4,0.5-0.8c0.2-0.4,0.5-0.8,0.9-1.3
		s0.7-1,1.1-1.6c0.4-0.6,0.8-1.2,1.2-1.7c2.1-2.9,3.1-5,2.9-6.4c-0.1-0.4-0.4-0.7-0.9-0.9c-0.5-0.2-1.2-0.3-2-0.3
		c-0.8,0-1.5,0.1-2.3,0.3c-0.7,0.2-1.5,0.3-2.3,0.3c-0.5-0.1-0.7-0.3-0.8-0.7c-0.1-0.4-0.1-0.8,0-1.1c0.1-0.4,0.3-0.6,0.6-0.8
		c0.3-0.2,0.6-0.4,0.9-0.6c0.7-0.3,1.5-0.5,2.5-0.6c1-0.1,1.9-0.1,2.9,0c1,0.1,1.9,0.3,2.7,0.6c0.9,0.3,1.5,0.7,2.1,1.2
		c0.3,0.3,0.5,0.7,0.6,1.2c0.1,0.5,0.1,1,0,1.6c-0.1,0.5-0.2,1.1-0.3,1.6s-0.3,0.9-0.4,1.2c-0.2,0.5-0.4,1-0.6,1.5
		c-0.2,0.5-0.5,1.2-0.9,1.9c-0.4,0.7-0.9,1.6-1.6,2.5c-0.6,1-1.4,2.2-2.4,3.6l6.2-0.3c0.6,0,1.1-0.1,1.7-0.1
		C162.2,224.8,162.7,224.9,163.2,225.1z"/>
</g>
<circle id="XMLID_5_" class="st3" cx="154.4" cy="218.7" r="18.5"/>
<g id="XMLID_11_">
	<g id="XMLID_45_">
		<path id="XMLID_48_" class="st1" d="M212.1,218.7c2.3,0,145.8-6.3,193.3-8.4"/>
		<g id="XMLID_46_">
			<path id="XMLID_47_" d="M420.4,209.7c-7,2.9-15.6,7.8-20.8,12.8l3.8-12.1l-4.8-11.7C404.2,203.2,413.2,207.3,420.4,209.7z"/>
		</g>
	</g>
</g>
<g id="XMLID_3_">
	<g id="XMLID_40_">
		<path id="XMLID_43_" class="st1" d="M321.1,300c0,0-52.1,7.6-64.6,86.1s59.7,81.9,59.7,81.9s47.2,5.3,68.8-79
			c14.8-57.7-11.6-76.2-29.6-82.1"/>
		<g id="XMLID_41_">
			<path id="XMLID_42_" d="M340.6,304.1c7.5-1.2,17-3.8,23.3-7.4l-6.6,10.8l1.8,12.5C354.7,314.3,347,308.1,340.6,304.1z"/>
		</g>
	</g>
</g>
<g id="XMLID_13_">
	<path id="XMLID_21_" d="M233.4,323.5c0.6,0.2,1.2,0.5,1.7,0.9c0.5,0.3,0.9,0.8,1.3,1.3c0.3,0.4,0.5,1,0.5,1.8
		c0,0.7-0.1,1.5-0.5,2.2c-0.4,0.9-0.8,1.6-1.4,2.3c-0.5,0.6-1,1.1-1.2,1.3c-0.2,0.1-0.5,0.4-0.9,0.8c-0.5,0.4-1,0.8-1.6,1.2
		c-0.6,0.4-1.3,0.8-2,1c-0.7,0.3-1.4,0.5-2,0.5c-0.6,0-1.1-0.3-1.3-0.8c-0.2-0.4-0.1-0.8,0.3-1.3c0.4-0.5,0.7-0.9,1-1.1
		c0.4-0.2,0.9-0.6,1.6-1c0.7-0.5,1.3-1,1.9-1.5c0.6-0.5,1.1-1.1,1.4-1.7c0.4-0.6,0.4-1.2,0.1-1.8c-0.3-0.5-0.8-0.8-1.4-1
		c-0.7-0.2-1.3-0.3-1.8-0.4c-0.2,0-0.5-0.1-0.8-0.1c-0.3-0.1-0.7-0.1-1-0.3c-0.3-0.1-0.6-0.3-0.9-0.4c-0.3-0.2-0.4-0.4-0.5-0.6
		c-0.2-0.4-0.1-1.1,0.4-1.9c0.5-0.8,1-1.6,1.5-2.3c0.5-0.7,0.9-1.5,1.3-2.4c0.3-0.6,0.5-1.1,0.6-1.5c0.1-0.4,0.2-0.9,0.1-1.6
		c-0.1-0.6-0.4-0.8-0.9-0.8c-0.3,0-0.6,0-0.9,0.1c-0.3,0.1-0.6,0.2-0.9,0.3c-0.8,0.3-1.4,0.5-1.9,0.7c-0.4,0.2-0.9,0.3-1.5,0.3
		c-0.4,0-0.7-0.2-1-0.5c-0.2-0.3-0.3-0.7-0.3-1c0.1-0.3,0.2-0.6,0.4-0.9c0.2-0.2,0.6-0.5,1.2-0.8c0.9-0.4,2-0.8,3.1-1.1
		c1.1-0.3,2.3-0.5,3.5-0.6c0.4,0,0.8,0.1,1.3,0.3c0.5,0.2,0.9,0.5,1.1,0.9c0.3,0.5,0.5,1.2,0.5,1.9c0,0.7,0,1.5-0.2,2.3
		c-0.2,0.8-0.4,1.6-0.7,2.4c-0.3,0.8-0.6,1.5-0.9,2.2c-0.2,0.4-0.4,0.8-0.7,1.1s-0.3,0.6-0.3,0.9c0,0.3,0.3,0.5,0.9,0.5
		C232.4,323.2,232.9,323.3,233.4,323.5z"/>
</g>
<circle id="XMLID_12_" class="st3" cx="230.6" cy="323.1" r="18.5"/>
<g id="XMLID_14_">
</g>
<g id="XMLID_50_">
</g>
<g id="XMLID_51_">
</g>
<g id="XMLID_52_">
</g>
<g id="XMLID_53_">
</g>
<g id="XMLID_54_">
</g>
<g id="XMLID_55_">
</g>
</svg>
