<?xml version="1.0" encoding="utf-8"?>
<!-- Generator: Adobe Illustrator 19.0.0, SVG Export Plug-In . SVG Version: 6.00 Build 0)  -->
<svg version="1.1" id="레이어_1" xmlns="http://www.w3.org/2000/svg" xmlns:xlink="http://www.w3.org/1999/xlink" x="0px"
	 y="0px" viewBox="0 0 192 108" style="enable-background:new 0 0 192 108;" xml:space="preserve">
<style type="text/css">
	.st0{fill:none;stroke:#FFFFFF;stroke-width:2;stroke-linecap:round;stroke-linejoin:round;stroke-miterlimit:10;}
	.st1{fill:none;}
	.st2{fill:#FFFFFF;}
	.st3{fill:none;stroke:#FFFFFF;stroke-width:3;stroke-linecap:round;stroke-linejoin:round;stroke-miterlimit:10;}
</style>
<polyline class="st0" points="15,51.7 15,11.4 35.1,11.4 35.1,51.7 "/>
<line class="st0" x1="15" y1="31.5" x2="35.1" y2="31.5"/>
<polyline class="st0" points="40.2,11.4 40.2,51.7 60.7,51.7 60.7,11.4 "/>
<line class="st0" x1="50.4" y1="51.7" x2="50.4" y2="11.4"/>
<polyline class="st0" points="85.5,11.4 65,11.4 65,51.7 85.5,51.7 "/>
<line class="st0" x1="65" y1="31.5" x2="85.5" y2="31.5"/>
<polyline class="st0" points="109.6,11.4 89.5,11.4 89.5,31.5 109.6,31.5 109.6,51.7 89.5,51.7 "/>
<rect x="112.5" y="11.4" class="st0" width="20.1" height="40.3"/>
<polyline class="st0" points="136.2,51.7 136.2,11.4 156.4,11.4 156.4,51.7 "/>
<line class="st0" x1="146.3" y1="11.4" x2="146.3" y2="51.7"/>
<polyline class="st0" points="179.7,11.4 159.6,11.4 159.6,51.7 179.7,51.7 "/>
<line class="st0" x1="159.6" y1="31.5" x2="179.7" y2="31.5"/>
<line class="st0" x1="15" y1="57.1" x2="15" y2="97"/>
<polyline class="st0" points="35.1,97 25.1,97 15,77.7 25.1,57.1 35.1,57.1 "/>
<rect x="40.2" y="57.1" class="st0" width="20.5" height="41.4"/>
<polyline class="st0" points="65,98.4 65,57.1 85.5,57.1 85.5,77 65,77 "/>
<path class="st0" d="M85.5,77"/>
<polyline class="st0" points="109.6,57.1 89.5,57.1 89.5,98.4 109.6,98.4 "/>
<line id="XMLID_27_" class="st0" x1="75.3" y1="77" x2="87.2" y2="98.4"/>
<line class="st0" x1="89.5" y1="77" x2="109.6" y2="77"/>
<polyline class="st0" points="112.5,98.4 112.5,57.1 132.6,57.1 132.6,98.4 "/>
<line class="st0" x1="112.5" y1="77" x2="132.6" y2="77"/>
<polyline class="st0" points="136.2,98.4 136.2,57.1 146.3,57.1 146.3,98.4 156.4,98.4 156.4,57.1 "/>
<g id="XMLID_28_">
	<rect id="XMLID_41_" x="161.6" y="57.1" class="st1" width="20.1" height="41.4"/>
	<path id="XMLID_31_" class="st2" d="M166.3,63.1c-0.2,0-0.5,0.1-0.8,0.2c-0.4,0.1-0.6,0.1-0.8,0.1c-0.2,0-0.5-0.2-0.9-0.5
		c-0.5-0.3-0.7-0.6-0.6-0.8c0.1-0.2,0.4-0.2,0.8-0.2c1,0,1.8,0,2.4,0s1.2-0.1,1.8-0.2c0.2,0,0.3-0.1,0.5-0.2c0.1,0,0.2-0.1,0.4-0.1
		c0.3-0.1,0.5-0.2,0.7-0.1c0.2,0,0.5,0.1,1,0.4c0.3,0.2,0.4,0.4,0.4,0.7c-0.1,0.3-0.4,0.5-0.8,0.4c-0.4,0-0.8-0.1-1.3-0.1
		c-0.6,0-1.2,0-1.7,0.1C167.1,62.9,166.7,63,166.3,63.1z M169.7,64.2c0.6,0.5,0.9,1.2,0.9,2c0,0.6-0.3,1.2-0.8,1.7
		c-0.5,0.5-1.1,0.8-1.8,0.8s-1.3-0.3-1.9-0.8c-0.6-0.6-0.9-1.2-0.9-2c0-0.6,0.2-1.2,0.7-1.6c0.5-0.5,1.1-0.7,1.9-0.7
		C168.5,63.6,169.1,63.8,169.7,64.2z M166.4,60.7c-0.2-0.2-0.6-0.5-1-0.9c-0.2-0.3-0.3-0.5-0.2-0.6s0.3-0.1,0.7,0
		c0.3,0.1,0.6,0.1,1,0.1c0.4,0,0.9,0,1.4,0c0.5,0,0.9,0.2,1,0.6c0.1,0.3,0,0.6-0.4,0.8c-0.2,0.1-0.5,0.2-0.7,0.2
		c-0.3,0.1-0.5,0.1-0.7,0.1h-0.1C167.1,61,166.7,61,166.4,60.7z M166.9,65.2c-0.2,0.2-0.4,0.5-0.4,0.8s0.1,0.6,0.4,0.9
		s0.6,0.4,0.9,0.4c0.5,0,0.8-0.1,1-0.3c0.2-0.2,0.4-0.4,0.4-0.8c0-0.4-0.1-0.7-0.4-1c-0.3-0.2-0.6-0.4-0.9-0.4
		C167.5,64.8,167.1,64.9,166.9,65.2z M170.3,69.8c0.4,0.2,0.6,0.5,0.7,0.8c0,0.1,0.1,0.3,0.1,0.5c0,0.1,0,0.3,0,0.5
		c0,0.2,0,0.4,0,0.5c0,0.2,0.1,0.3,0.3,0.4c0.5,0,1.1-0.1,1.6-0.2c0.4-0.1,1-0.2,1.6-0.4c0.4-0.1,0.6,0,0.8,0.1
		c0.2,0.1,0.3,0.3,0.3,0.6c0,0.4-0.3,0.7-1,1c-0.6,0.2-1.2,0.4-2,0.5c-0.4,0-0.8,0-1.1-0.1c-0.3-0.1-0.7-0.4-1-0.8l-0.2-0.2
		c-0.3-0.4-0.5-0.7-0.7-0.9c-0.3-0.4-0.6-0.8-0.9-1.1c-0.5-0.5-0.7-0.8-0.7-1.1c0-0.2,0.3-0.3,0.7-0.3l0.1,0
		C169.5,69.4,169.9,69.6,170.3,69.8z M173.1,59.2c-0.2-0.3-0.5-0.5-0.7-0.8c-0.3-0.3-0.5-0.5-0.5-0.6c0-0.2,0.2-0.2,0.7-0.3
		c0.3,0,0.6,0.1,1,0.2c0.5,0.2,1,0.5,1.5,0.8c0.3,0.2,0.4,0.3,0.5,0.5c0,0.1,0,0.3,0,0.5l0,0.4v4.7c0.2,0,0.3,0,0.5-0.1
		c0.1,0,0.2-0.1,0.3-0.2c0.2-0.1,0.3-0.2,0.4-0.2c0.2-0.1,0.4-0.1,0.7-0.1c0.4,0.1,0.7,0.2,0.9,0.4s0.3,0.5,0.2,0.8
		c-0.1,0.3-0.2,0.5-0.4,0.5c-0.1,0-0.4,0-0.9-0.1c-0.3,0-0.6-0.1-0.8-0.1c-0.3,0-0.7,0-1,0c0,0.4-0.1,0.8-0.3,1.4
		c-0.2,0.5-0.4,1-0.6,1.5c-0.2,0.5-0.4,0.7-0.5,0.7c-0.1,0-0.1-0.3,0.1-0.8c0-0.2,0-0.5,0-0.8c0-0.2-0.1-0.5-0.2-1
		c-0.1-0.5-0.2-0.9-0.2-1.2c-0.1-0.5-0.1-0.9-0.1-1.3l0-4.2C173.6,59.9,173.4,59.5,173.1,59.2z"/>
	<path id="XMLID_38_" class="st2" d="M171.9,86.2c0.1,0,0.1,0,0.2,0c0.3-0.6,0.6-1.2,1-2c0.4-0.8,0.6-1.4,0.7-1.8
		c0.1-0.2,0-0.5-0.4-0.8c-0.4-0.3-0.7-0.5-0.8-0.4c-0.6,0.2-1,0.4-1.3,0.6c-0.2,0.1-0.3,0.2-0.5,0.4c-0.1,0.1-0.2,0.2-0.3,0.2
		c-0.1,0.1-0.4,0.1-0.8,0.1c-0.3,0-0.6-0.1-0.9-0.2c-0.3-0.1-0.5-0.2-0.7-0.4c-0.2-0.2-0.3-0.3-0.3-0.4c0-0.2,0.1-0.3,0.4-0.3
		c0.3-0.1,0.7-0.2,1.1-0.4c0.3-0.1,0.6-0.3,1.1-0.5c0.6-0.3,1-0.4,1.2-0.5c0.4-0.2,0.8-0.2,1-0.2c0.4,0,1,0.3,1.6,0.8
		c0.5,0.5,0.9,0.9,1.2,1.4c0.2,0.4,0.3,0.7,0.2,0.9c0,0.2-0.2,0.3-0.4,0.5c-0.1,0.1-0.2,0.2-0.2,0.2c-0.1,0.1-0.2,0.2-0.3,0.3
		c-0.3,0.4-0.6,0.8-0.8,1.1c-0.2,0.2-0.4,0.4-0.7,0.7c-0.2,0.1-0.3,0.2-0.3,0.3c-0.1,0.1-0.2,0.2-0.3,0.3c0.7-0.1,1.4-0.1,1.9-0.2
		c0.3-0.1,0.6-0.1,0.9-0.3c0.3-0.1,0.5-0.1,0.6-0.2c0.2,0,0.5,0,0.9,0.1c0.7,0.2,1.1,0.4,1.4,0.6c0.2,0.2,0.2,0.5,0.1,0.8
		c-0.1,0.3-0.3,0.4-0.4,0.5c-0.1,0-0.4,0-0.9,0c-0.8-0.1-1.5-0.1-2.1-0.1c-1.2,0-2.5,0-4,0.1c-1.2,0.1-2.3,0.2-3.1,0.3
		c-0.5,0.1-1,0.2-1.6,0.4c-0.5,0.1-0.8,0.2-1,0.2c-0.3,0-0.7-0.2-1.2-0.5c-0.7-0.3-1.1-0.6-1.2-1c-0.1-0.3,0.1-0.5,0.6-0.4
		c0.9,0,1.9,0.1,3.2,0.1c1.3,0,2.8,0,4.4-0.1h0.7C171.7,86.3,171.8,86.3,171.9,86.2z M171.6,90.4c-0.3,0.1-0.6,0.2-0.9,0.3
		c-0.4,0.1-0.6,0.2-0.7,0.2c-0.2,0-0.4-0.1-0.8-0.2c-0.4-0.2-0.7-0.4-0.9-0.5c-0.2-0.2-0.3-0.3-0.4-0.5c0-0.1,0-0.2,0.1-0.3
		c0.1-0.1,0.2-0.1,0.4-0.1l0.7,0c0.6,0,1.1,0.1,1.4,0.1c0.6,0,1.2-0.1,1.9-0.2c0.2,0,0.3-0.1,0.5-0.1c0.1,0,0.2-0.1,0.4-0.1
		c0.3-0.1,0.5-0.2,0.7-0.2c0.2,0,0.5,0.2,0.9,0.4c0.3,0.2,0.5,0.4,0.5,0.6c0,0.1,0,0.3-0.2,0.5c-0.1,0.2-0.2,0.3-0.3,0.5
		c-0.1,0.2-0.2,0.5-0.2,0.7c0.5,0.3,0.7,0.6,0.5,0.9c-0.2,0.2-0.5,0.4-1,0.5h-0.2c-0.8,0.1-1.3,0.1-1.8,0.2
		c-0.8,0.1-1.3,0.2-1.6,0.2c0,0.2,0,0.3,0,0.5c0,0.1,0,0.2,0.1,0.4l0,0.3c0.5,0,1,0,1.6-0.1c0.3,0,0.8-0.1,1.3-0.2
		c0.6-0.1,1-0.2,1.2-0.1c0.3,0,0.5,0.2,0.6,0.5c0.1,0.4-0.2,0.7-0.8,1c-0.5,0.2-1.1,0.4-1.9,0.4c-0.9,0-1.7-0.1-2.2-0.4
		c-0.6-0.4-0.9-1-0.9-1.8c0-0.2-0.1-0.3-0.3-0.5c-0.1-0.1-0.3-0.2-0.5-0.3c-0.2-0.1-0.4-0.2-0.5-0.2c-0.1-0.1-0.2-0.3-0.2-0.4
		c0-0.2,0.1-0.4,0.5-0.5c0.2,0,0.7-0.1,1.4-0.1c0.8,0,1.3,0,1.7-0.1c0.7-0.1,1.4-0.2,1.9-0.4c0-0.3-0.1-0.5-0.1-0.7
		c0-0.2-0.1-0.4-0.2-0.5C172.7,90.1,172.1,90.3,171.6,90.4z"/>
</g>
<rect x="4.3" y="3" class="st3" width="183.3" height="102"/>
<g id="XMLID_29_">
</g>
<g id="XMLID_30_">
</g>
<g id="XMLID_42_">
</g>
<g id="XMLID_43_">
</g>
<g id="XMLID_44_">
</g>
<g id="XMLID_45_">
</g>
</svg>
