<?xml version="1.0" encoding="utf-8"?>
<!-- Generator: Adobe Illustrator 19.0.0, SVG Export Plug-In . SVG Version: 6.00 Build 0)  -->
<svg version="1.1" id="레이어_1" xmlns="http://www.w3.org/2000/svg" xmlns:xlink="http://www.w3.org/1999/xlink" x="0px"
	 y="0px" viewBox="0 0 192 108" style="enable-background:new 0 0 192 108;" xml:space="preserve">
<style type="text/css">
	.st0{fill:#FFFFFF;stroke:#000000;stroke-miterlimit:10;}
	.st1{fill:none;}
	.st2{fill:#040000;stroke:#000000;stroke-miterlimit:10;}
</style>
<rect x="4.3" y="3" class="st0" width="183.3" height="102"/>
<polyline id="XMLID_1_" class="st0" points="15,51.7 15,11.4 35.1,11.4 35.1,51.7 "/>
<line id="XMLID_2_" class="st0" x1="15" y1="31.5" x2="35.1" y2="31.5"/>
<polyline id="XMLID_3_" class="st0" points="40.2,11.4 40.2,51.7 60.7,51.7 60.7,11.4 "/>
<line id="XMLID_4_" class="st0" x1="50.4" y1="51.7" x2="50.4" y2="11.4"/>
<polyline id="XMLID_5_" class="st0" points="85.5,11.4 65,11.4 65,51.7 85.5,51.7 "/>
<line id="XMLID_6_" class="st0" x1="65" y1="31.5" x2="85.5" y2="31.5"/>
<polyline id="XMLID_7_" class="st0" points="109.6,11.4 89.5,11.4 89.5,31.5 109.6,31.5 109.6,51.7 89.5,51.7 "/>
<rect id="XMLID_8_" x="112.5" y="11.4" class="st0" width="20.1" height="40.3"/>
<polyline id="XMLID_9_" class="st0" points="136.2,51.7 136.2,11.4 156.4,11.4 156.4,51.7 "/>
<line id="XMLID_10_" class="st0" x1="146.3" y1="11.4" x2="146.3" y2="51.7"/>
<polyline id="XMLID_11_" class="st0" points="179.7,11.4 159.6,11.4 159.6,51.7 179.7,51.7 "/>
<line id="XMLID_12_" class="st0" x1="159.6" y1="31.5" x2="179.7" y2="31.5"/>
<line id="XMLID_13_" class="st0" x1="15" y1="57.1" x2="15" y2="97"/>
<polyline id="XMLID_14_" class="st0" points="35.1,97 25.1,97 15,77.7 25.1,57.1 35.1,57.1 "/>
<rect id="XMLID_15_" x="40.2" y="57.1" class="st0" width="20.5" height="41.4"/>
<polyline id="XMLID_16_" class="st0" points="65,98.4 65,57.1 85.5,57.1 85.5,77 65,77 "/>
<path id="XMLID_17_" class="st0" d="M85.5,77"/>
<polyline id="XMLID_18_" class="st0" points="109.6,57.1 89.5,57.1 89.5,98.4 109.6,98.4 "/>
<line id="XMLID_19_" class="st0" x1="85.5" y1="77" x2="87.2" y2="98.4"/>
<line id="XMLID_20_" class="st0" x1="89.5" y1="77" x2="109.6" y2="77"/>
<polyline id="XMLID_21_" class="st0" points="112.5,98.4 112.5,57.1 132.6,57.1 132.6,98.4 "/>
<line id="XMLID_22_" class="st0" x1="112.5" y1="77" x2="132.6" y2="77"/>
<polyline id="XMLID_23_" class="st0" points="136.2,98.4 136.2,57.1 146.3,57.1 146.3,98.4 156.4,98.4 156.4,57.1 "/>
<g id="XMLID_28_">
	<rect id="XMLID_40_" x="161.6" y="57.7" class="st1" width="20.1" height="41.4"/>
	<path id="XMLID_25_" class="st2" d="M169,62c-0.1,0-0.3,0.1-0.5,0.1c-0.3,0.1-0.4,0.1-0.5,0.1c-0.1,0-0.3-0.1-0.6-0.3
		c-0.4-0.2-0.5-0.4-0.4-0.6c0.1-0.1,0.3-0.2,0.6-0.1c0.7,0,1.2,0,1.6,0c0.5,0,0.9-0.1,1.3-0.2c0.1,0,0.2-0.1,0.3-0.1
		c0.1,0,0.2-0.1,0.3-0.1c0.2-0.1,0.4-0.1,0.5-0.1c0.1,0,0.4,0.1,0.7,0.3c0.2,0.2,0.2,0.4,0.1,0.6c-0.1,0.2-0.3,0.3-0.6,0.3
		c-0.2,0-0.4,0-0.7,0c-0.2,0-0.5,0-0.9,0.1l-0.2,0l-0.1,0C169.5,61.9,169.3,61.9,169,62z M168.6,62.8c-0.3,0.3-0.5,0.7-0.5,1.1
		c0,0.5,0.2,0.9,0.7,1.3c0.4,0.4,0.9,0.6,1.3,0.6c0.5,0,0.9-0.2,1.3-0.5c0.4-0.3,0.6-0.7,0.6-1.1c0-0.6-0.2-1-0.6-1.3
		c-0.4-0.3-0.8-0.5-1.4-0.5C169.4,62.3,169,62.5,168.6,62.8z M169,60.3c-0.2-0.1-0.4-0.3-0.7-0.6c-0.2-0.2-0.2-0.4-0.1-0.4
		c0.1-0.1,0.2-0.1,0.5,0c0.2,0.1,0.4,0.1,0.7,0.1c0.3,0,0.6,0,1,0c0.2,0,0.3,0.1,0.5,0.1c0.1,0.1,0.2,0.2,0.2,0.3c0,0.1,0,0.2,0,0.3
		c0,0.1-0.1,0.2-0.2,0.2c-0.2,0.1-0.3,0.1-0.5,0.2c-0.2,0-0.4,0.1-0.5,0.1h-0.1C169.5,60.5,169.3,60.5,169,60.3z M170.7,63.4
		c0.2,0.2,0.3,0.4,0.3,0.6c0,0.2-0.1,0.4-0.2,0.5c-0.2,0.1-0.4,0.2-0.7,0.2c-0.2,0-0.5-0.1-0.6-0.3c-0.2-0.2-0.3-0.3-0.3-0.5
		c0-0.2,0.1-0.4,0.3-0.5c0.2-0.1,0.4-0.2,0.7-0.2C170.3,63.2,170.5,63.3,170.7,63.4z M169.9,66.3c0.1-0.1,0.4-0.2,0.8-0.1
		c0.5,0.1,0.8,0.2,0.9,0.4c0.1,0.1,0.1,0.3,0.1,0.6c0,0.1,0,0.1,0,0.2c0,0.1,0,0.2,0,0.2c0,0.2,0.1,0.4,0.1,0.5
		c0,0.1,0.1,0.2,0.1,0.3c0.4,0,0.8,0,1.1,0c0.2,0,0.4-0.1,0.7-0.2c0.2-0.1,0.4-0.1,0.5-0.1c0.1,0,0.3,0.1,0.4,0.2
		c0.1,0.3,0.1,0.5-0.1,0.7c-0.2,0.2-0.6,0.4-1.2,0.5c-0.4,0-0.7,0-0.9,0c-0.2-0.1-0.5-0.2-0.8-0.4c-0.2-0.1-0.3-0.3-0.4-0.5
		c-0.1-0.1-0.1-0.2-0.3-0.4c-0.1-0.2-0.2-0.4-0.3-0.5c-0.1-0.2-0.3-0.4-0.5-0.5l0,0C169.9,66.7,169.8,66.5,169.9,66.3z M173.5,59.1
		c-0.1-0.1-0.3-0.4-0.6-0.7l0,0c-0.1-0.1-0.1-0.2,0-0.3c0.1-0.1,0.2-0.1,0.4-0.1c0.2,0,0.5,0,0.7,0.2c0.3,0.1,0.6,0.3,1,0.6
		c0.1,0.1,0.2,0.2,0.2,0.3c0,0.1,0,0.2,0,0.3c0,0.1,0,0.1,0,0.2c0,0.1,0,0.2,0,0.2v3.6c0.2,0,0.3,0,0.5-0.1c0.1,0,0.2-0.1,0.3-0.1
		c0.1-0.1,0.2-0.1,0.2-0.1c0.1,0,0.3,0,0.4,0c0.3,0.1,0.5,0.2,0.7,0.3c0.1,0.1,0.1,0.3,0.1,0.5c0,0.2-0.1,0.4-0.3,0.4
		c-0.1,0-0.3,0-0.7-0.1c-0.2,0-0.4-0.1-0.5-0.1c-0.2,0-0.4-0.1-0.7-0.1c0,0.4-0.1,0.8-0.2,1.2c-0.1,0.2-0.2,0.5-0.3,0.8l-0.2,0.4
		c-0.2,0.4-0.3,0.6-0.4,0.6c0,0,0-0.3,0.1-0.7c0-0.1,0-0.3,0-0.5c0-0.1-0.1-0.3-0.1-0.6c-0.1-0.4-0.1-0.7-0.2-1
		c-0.1-0.4-0.1-0.9-0.1-1.3l0-3.1C173.8,59.5,173.7,59.3,173.5,59.1z"/>
	<path id="XMLID_34_" class="st2" d="M170.2,77.7c-0.4,0.1-0.9,0.2-1.3,0.3c-0.2,0.1-0.4,0.1-0.5,0.1c-0.1,0-0.4-0.1-0.7-0.3
		c-0.3-0.1-0.6-0.3-0.8-0.4c-0.2-0.1-0.3-0.3-0.3-0.4c-0.1-0.1-0.1-0.2,0-0.2c0.1-0.1,0.2-0.1,0.3-0.1l0.5,0
		c0.7,0.1,1.3,0.1,1.8,0.1c0.8,0,1.8,0,3-0.1c0.2-0.3,0.4-0.6,0.7-1c0.3-0.5,0.5-0.8,0.6-1.1c0.1-0.2,0-0.4-0.2-0.6
		c-0.2-0.2-0.3-0.3-0.5-0.3c-0.3,0.1-0.6,0.3-0.9,0.4c-0.1,0.1-0.3,0.2-0.4,0.3c-0.1,0.1-0.2,0.2-0.3,0.2c-0.1,0-0.2,0-0.4,0
		c-0.7-0.2-1.1-0.3-1.2-0.6s0.1-0.4,0.6-0.6l0.5-0.2c0.5-0.2,1-0.4,1.3-0.4c0.5-0.2,0.9-0.3,1.1-0.3c0.3,0,0.6,0.1,1.1,0.6
		c0.4,0.4,0.6,0.7,0.8,1.1c0.1,0.3,0.1,0.5,0.1,0.6c0,0.1-0.1,0.2-0.3,0.3c-0.1,0.1-0.2,0.1-0.2,0.2c-0.1,0.1-0.2,0.1-0.3,0.2
		c-0.2,0.2-0.4,0.4-0.6,0.6c-0.1,0.1-0.3,0.2-0.6,0.4c-0.2,0.1-0.3,0.1-0.3,0.2c-0.1,0.1-0.1,0.1-0.1,0.2c0.6-0.1,1.1-0.2,1.5-0.3
		c0.2-0.1,0.5-0.1,0.7-0.3c0.2-0.1,0.3-0.1,0.4-0.1c0.1,0,0.4,0,0.6,0.1c0.4,0.1,0.8,0.2,0.9,0.4c0.2,0.2,0.2,0.4,0.1,0.6
		c-0.1,0.2-0.2,0.3-0.4,0.4c-0.1,0-0.3,0-0.7,0c-0.3,0-0.5-0.1-0.7-0.1c-0.3,0-0.7,0-1,0c0.4,0.2,0.6,0.3,0.7,0.5c0,0.1,0,0.2,0,0.3
		l-0.1,0.1c0,0.1,0,0.2,0,0.3c0,0,0,0.1,0,0.2c0,0.3-0.1,0.5-0.1,0.7c-0.1,0.3-0.3,0.5-0.6,0.7c0.5,0.2,0.9,0.3,1,0.5
		c0.1,0.1,0,0.3-0.1,0.5c0,0.1-0.1,0.1-0.1,0.2c0,0.1,0,0.1,0,0.2c0,0.5,0,0.9-0.1,1.2c-0.1,0.2-0.2,0.4-0.3,0.6l-0.1,0.1
		c-0.3,0.4-0.4,0.6-0.5,0.6c0,0,0-0.1,0-0.3c0-0.1,0-0.1,0-0.2c0-0.1,0-0.1,0-0.2c0-0.1,0-0.2,0-0.3c0-0.1,0-0.2-0.1-0.4
		c-0.1-0.3-0.1-0.5-0.1-0.7c0-0.3-0.1-0.6-0.1-1c-0.7,0.1-1.3,0.2-1.8,0.3c-0.3,0.1-0.5,0.2-0.8,0.3c-0.2,0.1-0.3,0.1-0.4,0.1
		c-0.1,0-0.3-0.1-0.6-0.2c-0.3-0.1-0.5-0.2-0.7-0.4c-0.2-0.1-0.3-0.2-0.4-0.3c-0.1-0.1-0.1-0.2-0.1-0.3c0-0.1,0.2-0.1,0.4-0.1l0.2,0
		c0.7,0.1,1.3,0.1,1.8,0.1c0.8,0,1.7-0.2,2.7-0.4c0-0.1,0-0.2,0-0.4c0-0.1,0-0.3-0.1-0.5c-0.1-0.3-0.1-0.6-0.2-0.8
		c-0.1-0.4-0.1-0.8-0.1-1.2l-0.1,0C172,77.4,171,77.5,170.2,77.7z"/>
	<path id="XMLID_36_" class="st2" d="M169.4,89.1c0.6,0,1.1,0.2,1.6,0.7c0.5,0.5,0.7,1,0.7,1.7c0,0.6-0.2,1.1-0.6,1.5
		c-0.4,0.4-1,0.6-1.8,0.6c-0.6,0-1.2-0.2-1.7-0.7c-0.5-0.5-0.8-1-0.8-1.5c0-0.7,0.2-1.3,0.6-1.7C168,89.3,168.6,89.1,169.4,89.1z
		 M169.4,90.2c-0.4,0-0.8,0.2-1.1,0.5c-0.2,0.3-0.3,0.5-0.3,0.8c0,0.2,0.1,0.5,0.4,0.7c0.3,0.3,0.6,0.4,1,0.4c0.4,0,0.7-0.1,1-0.4
		c0.3-0.2,0.4-0.5,0.4-0.8s-0.1-0.5-0.4-0.8C170,90.3,169.7,90.2,169.4,90.2z M173.8,88.6l0,2.5c-0.2,0.1-0.5,0.1-0.8,0.1
		c-0.2,0-0.5,0-0.7,0c-0.3,0-0.4,0-0.4,0.2c0,0.2,0.1,0.4,0.5,0.6c0.3,0.2,0.5,0.3,0.6,0.3c0.1,0,0.2,0,0.4-0.1
		c0.1-0.1,0.2-0.1,0.2-0.1c0.1,0,0.2-0.1,0.3-0.1c0,1.1,0,2,0.1,2.8c0,0.5,0.1,1,0.2,1.5c0,0.3,0.1,0.5,0.1,0.7c0,0.2,0,0.4,0,0.6
		c-0.1,0.4-0.1,0.6,0,0.7c0.1,0,0.2-0.2,0.3-0.6l0.1-0.2c0.2-0.5,0.3-1,0.4-1.5c0.1-0.8,0.2-1.8,0.2-3.1v-4.4c0-0.1,0-0.1,0-0.2
		c0,0,0-0.1,0-0.2c0-0.2,0-0.3,0-0.4c0-0.1-0.2-0.3-0.4-0.4c-0.3-0.2-0.7-0.4-1-0.5c-0.3-0.1-0.5-0.1-0.7-0.1
		c-0.2,0-0.3,0.1-0.4,0.1s0,0.2,0.1,0.3c0.4,0.3,0.6,0.6,0.8,0.8C173.7,88.2,173.8,88.4,173.8,88.6z"/>
</g>
<g id="XMLID_24_">
</g>
<g id="XMLID_29_">
</g>
<g id="XMLID_41_">
</g>
<g id="XMLID_42_">
</g>
<g id="XMLID_43_">
</g>
<g id="XMLID_44_">
</g>
</svg>
