<?xml version="1.0" encoding="utf-8"?>
<!-- Generator: Adobe Illustrator 19.0.0, SVG Export Plug-In . SVG Version: 6.00 Build 0)  -->
<svg version="1.1" id="레이어_1" xmlns="http://www.w3.org/2000/svg" xmlns:xlink="http://www.w3.org/1999/xlink" x="0px"
	 y="0px" viewBox="-80 40 24 24" style="enable-background:new -80 40 24 24;" xml:space="preserve">
<style type="text/css">
	.st0{fill:#FFFFFF;stroke:#000000;stroke-miterlimit:10;}
</style>
<path d="M-63.1,51.8c-0.9-0.2-3.4-0.7-4.1-0.8v-2.6c0-1.2-1-2.2-2.2-2.2s-2.2,1-2.2,2.2v5.5c-0.4-0.2-0.9-0.5-1.4-0.5
	c-1.4-0.2-2.3,0.7-2.3,1.9c0,0.6,0.3,1.2,0.8,1.7c2.9,2.9,4.2,3.8,4.5,7.1h7.4v-1.3c0-3.8,2.2-4.5,2.2-7.4
	C-60.6,53.4-61.4,52.2-63.1,51.8z M-62.9,57.7c-0.6,1.1-1.4,2.5-1.4,4.8h-4.5c-0.5-2.8-2.8-4.7-4.8-6.6c-0.5-0.5-0.3-1,0.3-1
	c0.9,0,2.3,1.4,3.1,2.4v-8.9c0-0.4,0.3-0.7,0.7-0.7s0.7,0.3,0.7,0.7v5.2c0,0.2,0.2,0.4,0.4,0.4c0.2,0,0.4-0.2,0.4-0.4v-0.4
	c0-0.4,0.4-0.7,0.8-0.6c0.3,0.1,0.5,0.3,0.5,0.6v0.9c0,0.2,0.2,0.4,0.4,0.4c0.2,0,0.4-0.2,0.4-0.4v-0.6c0-0.4,0.4-0.7,0.7-0.6
	c0.3,0.1,0.5,0.3,0.5,0.6v1.1c0,0.2,0.2,0.4,0.4,0.4c0.2,0,0.4-0.2,0.4-0.4v-0.7c0-0.4,0.4-0.6,0.8-0.5c0.5,0.2,0.9,0.7,0.9,1.8
	C-62.1,56.3-62.4,56.9-62.9,57.7z"/>
<path class="st0" d="M-72.9,46.2"/>
<line class="st0" x1="-71.7" y1="45.9" x2="-74.2" y2="42.9"/>
<line class="st0" x1="-69.6" y1="45.2" x2="-69.6" y2="41.6"/>
<line class="st0" x1="-67.7" y1="45.7" x2="-65.7" y2="43"/>
</svg>
