<?xml version="1.0" encoding="utf-8"?>
<!-- Generator: Adobe Illustrator 19.0.0, SVG Export Plug-In . SVG Version: 6.00 Build 0)  -->
<svg version="1.1" id="레이어_1" xmlns="http://www.w3.org/2000/svg" xmlns:xlink="http://www.w3.org/1999/xlink" x="0px"
	 y="0px" viewBox="0 0 600 580" style="enable-background:new 0 0 600 580;" xml:space="preserve">
<style type="text/css">
	.st0{fill:#E60012;}
</style>
<g id="XMLID_1_">
	<path id="XMLID_19_" class="st0" d="M188.1,199.8c0.9,13.5,1.2,28.8,0.7,45.9c-0.5,17,0.2,32.6,2.1,46.5c0.5,6.5,2.3,12.7,5.6,18.6
		c3.3,5.8,8.2,10.4,14.7,13.6c5.6,2.8,12.5,4.5,20.6,5.3c8.2,0.7,16.7,1,25.5,1c8.9,0,17.5-0.3,25.9-1c8.4-0.7,15.4-1.3,21-1.8
		c4.7-0.5,10.3-1.2,16.8-2.1c6.5-0.9,13.1-1.4,19.6-1.4c6.5,0,12.5,0.9,17.9,2.8c5.4,1.9,9,5.8,10.8,11.9c2.8,9.3,1.6,17.2-3.5,23.4
		c-5.1,6.3-12.6,11.3-22.4,15.1c-9.8,3.7-21,6.5-33.6,8.4c-12.6,1.9-25.1,3-37.4,3.5c-12.4,0.5-23.7,0.6-34,0.3
		c-10.3-0.2-17.7-0.6-22.4-1.1c-7-0.5-14.4-1.6-22-3.5c-7.7-1.9-15.1-4.5-22.1-8s-13.3-7.9-18.9-13.3c-5.6-5.4-9.8-11.8-12.6-19.3
		c-3.3-9.3-6.3-22.3-9.1-38.8c-2.8-16.6-4.5-33.6-5.3-51.1c-0.7-17.5,0-34.2,2.1-50c2.1-15.9,6.4-28,13-36.4
		c3.7-4.2,9.2-6.8,16.4-7.7c7.2-0.9,14.1,1.2,20.7,6.3c4.7,3.7,7.2,8.9,7.7,15.4C186.5,188.8,187.2,194.6,188.1,199.8z"/>
</g>
<g id="XMLID_2_">
	<path id="XMLID_8_" class="st0" d="M418.4,331.3v3.4c0.1,2.7,0.2,5.2,0.2,7.5c0,2.4,0,4.5,0.1,6.3c0.1,1.1,0.1,2.1,0.2,3.1
		c0,1,0,2.1,0,3.2v3.4c0,0.5-0.1,0.9-0.2,1.2c-0.2,0.6-0.6,1.2-1.1,1.7c-0.6,0.5-1.2,0.9-1.9,1.1s-1.4,0.2-2.2,0.1
		c-0.8-0.1-1.4-0.5-1.9-1.2c-0.7-0.7-1.5-1.5-2.3-2.3c-0.8-0.8-1.6-1.7-2.3-2.5c-1.6-2-3.1-4-4.5-6c-0.7-0.9-1.3-1.9-1.8-2.9
		c-0.5-1-1.1-2-1.6-3c-0.1,0.3-0.2,0.7-0.2,1.3c-0.1,1.5-0.1,3.1-0.2,4.6c0,1.5,0,3.1,0,4.6c0.1,0.7,0.2,1.7,0.4,2.9
		c0.2,1.2,0.3,1.9,0.5,2.3c0.3,1.3,0.2,2.4-0.2,3.4c-0.4,1-0.9,1.7-1.5,2.2c-0.6,0.5-1.3,0.6-2,0.5c-0.7-0.1-1.3-0.7-1.8-1.7
		c-1.1-2.6-1.9-5.5-2.3-8.7c-0.4-3.2-0.5-6.2-0.4-9.1c0.1-1.3,0.2-2.9,0.3-4.6c0-1.8,0.1-3.3,0.3-4.7l0.2-1.9
		c0.1-1.5,0.3-2.8,0.6-3.9c0.3-1.2,0.6-2.5,0.9-3.9c0.2-0.9,0.7-1.6,1.5-2.1c0.8-0.5,1.7-0.8,2.6-0.9c0.9,0,1.7,0.2,2.4,0.7
		c0.7,0.5,1,1.2,1,2.3c0,0.1,0,0.3-0.1,0.5c-0.1,0.2-0.1,0.3-0.2,0.5c0.1,0.1,0.3,0.4,0.5,0.7c0.2,0.3,0.3,0.5,0.3,0.4
		c0.7,2.1,1.6,4.5,2.5,7c0.9,2.5,2,4.7,3.2,6.7c0.7,0.9,1.4,1.8,2.1,2.7c0.7,0.9,1.5,1.8,2.2,2.7v-4.4l-0.3-10.2
		c0-1.1,0-2.2,0.1-3.2c0.1-1,0.1-2,0.1-3.1c0-0.5,0.1-1.2,0.3-1.9c0.2-0.7,0.5-1.3,1-1.6c0.8-0.6,1.6-1,2.5-1.2c0.3,0,0.5,0,0.8,0
		s0.6,0.1,1,0.2c0.5,0.2,0.9,0.8,1.2,1.6c0.3,0.9,0.4,1.7,0.4,2.5V331.3z"/>
	<path id="XMLID_10_" d="M440.4,336.6c0.9,1.1,1.8,2.3,2.5,3.7s1.3,2.9,1.7,4.4c0.4,1.5,0.7,3,0.8,4.5c0.1,1.5,0.1,3,0,4.4
		c-0.1,1.4-0.5,2.9-1.2,4.4c-0.7,1.5-1.5,2.9-2.5,4.1c-1,1.2-2.3,2.1-3.7,2.8c-1.4,0.6-3,0.8-4.6,0.4c-1.4-0.3-2.6-0.9-3.5-1.8
		c-0.9-0.9-1.7-1.9-2.3-3.1c-0.6-1.2-1-2.4-1.2-3.8c-0.2-1.4-0.3-2.7-0.3-4c0.1-2.9,0.8-5.6,2-8.3c1.2-2.7,3.1-4.7,5.8-6
		c0.1-0.6,0.5-1.1,1-1.6c0.5-0.5,1.1-0.8,1.8-1.1c0.7-0.2,1.3-0.3,2-0.1C439.3,335.6,439.9,336,440.4,336.6z M434.8,358.7
		c0.9-0.1,1.5-0.4,2-1c0.5-0.6,0.9-1.3,1.2-2.1c0.3-0.8,0.4-1.6,0.5-2.5c0-0.9,0-1.7-0.1-2.4c-0.1-2.2-0.6-4.4-1.7-6.7l-0.7,0.5
		c-0.6,0.3-1.1,0.7-1.5,1.3c-0.4,0.6-0.7,1.4-1,2.2c-0.2,0.8-0.4,1.6-0.5,2.4c-0.1,0.8-0.1,1.5-0.1,2.1c0,0.8,0,1.6,0.1,2.4
		c0.1,0.8,0.3,1.6,0.7,2.3c0.2,0.4,0.4,0.8,0.7,1C434.8,358.5,434.9,358.7,434.8,358.7L434.8,358.7L434.8,358.7z"/>
	<path id="XMLID_13_" d="M478.6,341.1c-0.1,1.1-0.5,1.9-1.2,2.4c-0.7,0.4-1.6,0.8-2.5,1.1c-0.9,0.3-1.8,0.8-2.8,1.5
		c-1,0.7-1.9,1.4-2.5,2c-0.6,0.7-1.1,1.2-1.6,1.7c-0.5,0.5-0.9,0.9-1.3,1.4c-0.4,0.4-0.9,0.9-1.3,1.4c-0.4,0.5-0.9,1.2-1.5,2
		c-0.3,0.5-0.7,1.1-1,1.9c-0.3,0.8-0.6,1.5-0.8,2.3c-0.3,0.8-0.5,1.6-0.7,2.4s-0.4,1.5-0.5,2.1c-0.1,0.5-0.3,0.9-0.5,1.3
		c-0.2,0.4-0.6,0.5-1.2,0.5c-0.6-0.1-1.2-0.2-1.8-0.3c-0.6-0.1-1.1-0.4-1.6-0.8s-0.9-1-1.2-1.7c-0.3-0.7-0.5-1.7-0.5-3
		c0-1.1,0-2.3,0-3.6c0-1.3-0.1-2.7-0.2-4.1c-0.1-1.4-0.1-2.8-0.1-4.1c0-1.3,0-2.5,0-3.6c0.1-0.9,0.1-1.9,0.2-2.8
		c0.1-0.9,0.2-1.9,0.3-2.8c0.1-0.7,0.1-1.4,0.2-2c0.1-0.6,0.3-1.2,0.7-1.9c0.1-0.1,0.4-0.3,0.7-0.6c0.3-0.3,0.7-0.5,1.1-0.5
		c0.5-0.1,1,0,1.5,0.3c0.5,0.3,0.8,0.6,0.9,0.9c0.1,0.4,0.2,1,0.3,1.8c0.1,0.8,0.3,1.6,0.4,2.4c0.1,0.8,0.3,1.6,0.4,2.4
		c0.1,0.8,0.1,1.4,0.1,1.9c0.1,0.5,0.1,1.2,0.2,2c0.1,0.9,0.2,1.8,0.3,2.6c1.1-0.9,2.1-2,3.1-3.1c1-1.1,2.2-2.1,3.5-3
		c1-0.7,2-1.3,3.1-1.8c1.1-0.5,2.3-0.9,3.5-1.2c1.1-0.3,2.2-0.2,3,0.2C478.4,338.8,478.8,339.7,478.6,341.1z"/>
	<path id="XMLID_15_" d="M499.4,338.3c1.1,0.3,1.8,0.7,2.3,1.4c0.5,0.7,0.7,1.3,0.5,2c-0.1,0.7-0.5,1.3-1.1,1.8
		c-0.6,0.5-1.5,0.8-2.5,0.9c-0.7,0-1.2,0-1.6,0c-0.4,0-0.8,0-1,0s-0.6,0-1,0c-0.3,0-0.8,0-1.4,0c-0.2,0.7-0.3,1.4-0.4,2
		c-0.1,0.6-0.1,1.3-0.2,2c-0.1,0.7-0.3,1.6-0.4,2.7c-0.1,1.1-0.2,2.2-0.1,3.3c0.1,1.1,0.3,2.2,0.7,3.2c0.4,1,1,1.8,2,2.5
		c0.9,0.6,1.4,1.3,1.7,2c0.2,0.8,0.2,1.5,0,2.2c-0.2,0.7-0.7,1.3-1.3,1.7c-0.6,0.4-1.5,0.5-2.5,0.3c-2-0.4-3.6-1.3-4.8-2.8
		c-1.2-1.4-2-3.2-2.5-5.2c-0.5-2-0.7-4.3-0.7-6.6c0.1-2.4,0.3-4.7,0.7-7c-0.1,0.1-0.4,0.1-0.7,0c-0.3,0-0.6,0-0.7,0
		c-1.4,0-2.4-0.1-3-0.3c-0.6-0.2-1.1-0.6-1.4-1.2c-0.5-0.7-0.6-1.5-0.1-2.3c0.5-0.8,1.1-1.3,2-1.6c1.2-0.3,2.1-0.5,2.8-0.6
		c0.6-0.1,1.5-0.3,2.7-0.7c0.1-0.5,0.2-1,0.2-1.3c0-0.3,0-0.8,0.1-1.3c0.1-0.5,0.1-1,0.2-1.5c0.1-0.5,0.2-0.9,0.3-1.4
		c0.2-0.5,0.4-0.9,0.7-1.2c0.3-0.3,0.6-0.5,1.1-0.8c0.4-0.3,1-0.4,1.8-0.4c0.8,0,1.4,0.3,1.9,0.8c0.3,0.3,0.5,0.6,0.6,0.9
		c0.2,0.3,0.3,0.7,0.4,1.3c0,0.1,0,0.3,0,0.8c0,0.5,0,1,0,1.5c0,0.5,0,1,0,1.4c0,0.4-0.1,0.7-0.1,0.8c0.3,0,0.6,0,1.1,0
		c0.5,0,0.9,0,1.4,0.1c0.5,0.1,0.9,0.1,1.4,0.1C498.8,338.2,499.2,338.2,499.4,338.3z"/>
	<path id="XMLID_17_" d="M530.8,350.4c0.3,1.9,0.7,3.7,1,5.5c0.3,1.8,0.5,3.7,0.6,5.6c0,1.4-0.3,2.5-0.9,3.3c-0.6,0.8-1.2,1.2-2,1.4
		c-0.8,0.2-1.5,0-2.3-0.5c-0.7-0.5-1.2-1.3-1.4-2.5c-0.3-1.3-0.5-2.6-0.6-4c-0.1-1.4-0.3-2.8-0.5-4.1c-0.2-1.4-0.5-2.8-0.8-4.1
		c-0.4-1.3-0.9-2.6-1.5-3.7c-0.6,0.3-1.3,0.8-2,1.3s-1.3,1.1-1.8,1.8c-1.3,1.5-2.3,3.3-3.2,5.3c-0.9,2-1.6,4-2.2,6
		c-0.3,1.1-0.9,1.9-1.6,2.5c-0.7,0.6-1.5,1-2.3,1.2c-0.8,0.1-1.6,0-2.3-0.4c-0.7-0.4-1.1-1.2-1.3-2.3c-0.5-4.2-1.1-8.4-1.8-12.5
		c-0.6-4.1-1.1-8.3-1.3-12.5c-0.1-1.4-0.1-2.9-0.1-4.5s0.1-3.2,0.4-4.8c0.3-1.6,0.7-3,1.3-4.5c0.6-1.4,1.5-2.7,2.6-3.8
		c0.9-0.8,1.7-1.2,2.6-1.3c0.8-0.1,1.5,0.1,2,0.6s0.8,1.2,0.8,2.1c0,0.9-0.4,1.9-1.2,3c-0.6,0.8-1,1.9-1.2,3.2
		c-0.2,1.3-0.2,2.7-0.2,4.2c0,1.4,0.1,2.8,0.3,4.3c0.2,1.4,0.3,2.6,0.3,3.5c0.2,1.7,0.4,3.3,0.5,4.8c0.2,1.4,0.4,3,0.7,4.7
		c0.4-0.6,0.7-1.1,1-1.5c0.3-0.4,0.7-0.9,1.2-1.5c0.7-0.8,1.4-1.7,2.3-2.5c0.9-0.9,1.8-1.7,2.8-2.3c1-0.6,2.1-1.1,3.2-1.3
		c1.1-0.2,2.3,0,3.5,0.5c0.9,0.4,1.6,1,2.1,1.8c0.6,0.8,1.1,1.6,1.5,2.5c0.4,0.9,0.7,1.8,0.9,2.8
		C530.4,348.6,530.6,349.5,530.8,350.4z"/>
</g>
<path id="XMLID_4_" class="st0" d="M655.3,245.8"/>
<path id="XMLID_5_" class="st0" d="M-64.2,163.2"/>
<polyline id="XMLID_3_" class="st0" points="80,188.5 161,124 243,188.5 "/>
<path id="XMLID_6_" class="st0" d="M402.5,317.3"/>
<g id="XMLID_7_">
</g>
<g id="XMLID_21_">
</g>
<g id="XMLID_22_">
</g>
<g id="XMLID_23_">
</g>
<g id="XMLID_24_">
</g>
<g id="XMLID_25_">
</g>
</svg>
