<?xml version="1.0" encoding="utf-8"?>
<!-- Generator: Adobe Illustrator 19.0.0, SVG Export Plug-In . SVG Version: 6.00 Build 0)  -->
<svg version="1.1" id="레이어_1" xmlns="http://www.w3.org/2000/svg" xmlns:xlink="http://www.w3.org/1999/xlink" x="0px"
	 y="0px" viewBox="0 0 600 580" style="enable-background:new 0 0 600 580;" xml:space="preserve">
<style type="text/css">
	.st0{opacity:0.51;}
	.st1{fill:#E60012;}
	.st2{fill:none;stroke:#000000;stroke-width:5;stroke-linecap:round;stroke-linejoin:round;stroke-miterlimit:10;}
	.st3{fill:none;stroke:#000000;stroke-width:5;stroke-miterlimit:10;}
</style>
<g id="XMLID_1_" class="st0">
	<path id="XMLID_16_" class="st1" d="M437.2,163.9c3.7,2.8,6.5,4.9,8.4,6.3c1.9,1.4,3.3,3.3,4.2,5.6c4.2,7,5.1,13.2,2.8,18.6
		c-2.3,5.4-6.1,9.8-11.2,13.3c-5.1,3.5-11.1,6.4-17.9,8.8c-6.8,2.3-12.9,4.2-18.5,5.6c-26.6,7.5-53.5,11.8-80.8,12.9
		c-27.3,1.2-55,1.3-83,0.4c-7-0.5-14.2-1.3-21.7-2.4c-7.5-1.2-14.3-3.2-20.6-6c-6.3-2.8-11.4-6.5-15.4-11.2c-4-4.7-6-10.7-6-18.2
		c0-7,1.6-12.5,4.9-16.5c3.3-4,7.6-6.9,12.9-8.8c5.4-1.9,11.4-2.8,18.2-2.8c6.8,0,13.4,0.2,19.9,0.7c17.3,2.3,34.4,3.4,51.5,3.2
		c17-0.2,34.2-1.1,51.5-2.5c4.7-0.5,11.7-1.6,21-3.5c9.3-1.9,19-3.5,29-4.9c10-1.4,19.7-2.2,29.1-2.5
		C424.8,159.8,432,161.1,437.2,163.9z M389.6,305.3c6.1,12.1,10.3,25,12.6,38.5c2.3,13.5,2.3,27,0,40.3
		c-2.3,13.3-6.9,25.9-13.7,37.8c-6.8,11.9-16.2,22.3-28.3,31.1c-15.4,10.7-32.9,16.3-52.5,16.8c-19.6,0.5-36.9-4.7-51.8-15.4
		c-8.4-5.6-15.1-13.2-20-22.8c-4.9-9.6-8.3-19.8-10.1-30.8c-1.9-11-2.2-22.1-1.1-33.3c1.2-11.2,3.9-21.5,8.1-30.8
		c2.8-6.5,6.8-14.1,11.9-22.8c5.1-8.6,11.1-17.1,17.9-25.5c6.8-8.4,14.5-16.1,23.1-23.1c8.6-7,18.3-12.4,29-16.1
		c7-1.4,13.6-2.2,20-2.4c6.3-0.2,12,2.2,17.1,7.3c3.3,3.7,5,7,5.3,9.8c0.2,2.8-0.3,5.8-1.8,9.1c9.3,3.3,16.6,7.8,21.7,13.6
		C382.1,292.6,386.3,298.8,389.6,305.3z M323.1,157.6c-7.5,1.4-15.4,0.5-23.8-2.8c-8.4-3.3-16.5-8-24.1-14.4
		c-7.7-6.3-14.2-13.4-19.6-21.3c-5.4-7.9-8.5-15.6-9.5-23.1c-0.9-3.7-0.5-8.8,1.4-15.1c1.9-6.3,4-10.8,6.3-13.6
		c3.7-3.7,7.4-6.1,10.9-7c3.5-0.9,6.8-1,9.8-0.4c3,0.7,6.1,1.9,9.1,3.5c3,1.6,5.9,3.4,8.8,5.3c3.7,2.8,9.4,7.8,17.1,15.1
		c7.7,7.2,14.7,15,21,23.4c6.3,8.4,10.6,16.7,13,24.9c2.3,8.2,0.2,15.1-6.3,20.6c-1.4,1.9-3.7,3-7,3.5
		C326.8,156.7,324.5,157.2,323.1,157.6z M344.1,352.2c-1.4-8.9-4.7-17.3-9.8-25.2c-5.1-7.9-12.1-10.3-21-7
		c-7,2.3-12.9,7.1-17.8,14.4c-4.9,7.2-8.6,15.2-11.2,23.8c-2.6,8.6-3.8,17.1-3.8,25.5s1.9,14.7,5.6,18.9
		c5.1,6.5,11.9,10.6,20.3,12.3c8.4,1.6,16.3-1.5,23.8-9.5c7.9-8.4,12.5-16.8,13.7-25.2C344.9,371.8,345,362.5,344.1,352.2z"/>
</g>
<g id="XMLID_7_">
	<path id="XMLID_9_" class="st1" d="M431.8,438.4c0.3,1.9,0.7,3.7,1,5.5c0.3,1.8,0.5,3.7,0.6,5.6c0,1.4-0.3,2.5-0.9,3.3
		c-0.6,0.8-1.2,1.2-2,1.4c-0.8,0.2-1.5,0-2.3-0.5c-0.7-0.5-1.2-1.3-1.4-2.5c-0.3-1.3-0.5-2.6-0.6-4c-0.1-1.4-0.3-2.8-0.5-4.1
		c-0.2-1.4-0.5-2.8-0.8-4.1c-0.4-1.3-0.9-2.6-1.5-3.7c-0.6,0.3-1.3,0.8-2,1.3s-1.3,1.1-1.8,1.8c-1.3,1.5-2.3,3.3-3.2,5.3
		c-0.9,2-1.6,4-2.2,6c-0.3,1.1-0.9,1.9-1.6,2.5c-0.7,0.6-1.5,1-2.3,1.2c-0.8,0.1-1.6,0-2.3-0.4c-0.7-0.4-1.1-1.2-1.3-2.3
		c-0.5-4.2-1.1-8.4-1.8-12.5c-0.6-4.1-1.1-8.3-1.3-12.5c-0.1-1.4-0.1-2.9-0.1-4.5c0-1.6,0.1-3.2,0.4-4.8c0.3-1.6,0.7-3,1.3-4.5
		c0.6-1.4,1.5-2.7,2.6-3.8c0.9-0.8,1.7-1.2,2.6-1.3c0.8-0.1,1.5,0.2,2,0.7s0.8,1.2,0.8,2.1s-0.4,1.9-1.2,3c-0.6,0.8-1,1.9-1.2,3.2
		c-0.2,1.3-0.2,2.7-0.2,4.1c0,1.4,0.1,2.9,0.3,4.3c0.2,1.4,0.3,2.6,0.3,3.5c0.2,1.7,0.4,3.3,0.5,4.8c0.2,1.4,0.4,3,0.7,4.7
		c0.4-0.6,0.7-1.1,1-1.5c0.3-0.4,0.7-0.9,1.2-1.5c0.7-0.8,1.4-1.7,2.3-2.5c0.9-0.9,1.8-1.7,2.8-2.3c1-0.6,2.1-1.1,3.2-1.3
		c1.1-0.2,2.3,0,3.5,0.5c0.9,0.4,1.6,1,2.1,1.8c0.6,0.8,1.1,1.6,1.5,2.5c0.4,0.9,0.7,1.8,0.9,2.8
		C431.4,436.6,431.6,437.5,431.8,438.4z"/>
	<path id="XMLID_11_" d="M457.4,445.1c0.4,0.1,0.7,0.2,1,0.5c0.3,0.2,0.5,0.5,0.7,0.8c0.2,0.3,0.3,0.7,0.4,1.2
		c0,0.9-0.1,1.6-0.4,2.1c-0.2,0.5-0.5,1-0.8,1.4c-0.3,0.4-0.7,0.6-1.1,0.8c-0.4,0.2-0.8,0.4-1.1,0.6c-1.7,0.8-3.5,1.3-5.2,1.6
		c-1.7,0.3-3.4,0.4-4.9,0.3c-1.5-0.1-2.9-0.5-4.2-1.1c-1.2-0.6-2.3-1.5-3-2.6c-1.3-1.9-1.8-3.7-1.5-5.4c0.3-1.7,1-3.5,2.1-5.2
		c0.9-1.3,1.9-2.4,3.2-3.3c1.2-0.9,2.6-1.6,4.2-2.2c0.5-0.1,1.1-0.3,1.8-0.6c0.6-0.3,1.2-0.5,1.8-0.7c0.1,0,0-0.4-0.1-1.2
		c-0.1-0.8-0.4-1.5-0.8-2.1c-0.4-0.6-1-1-1.9-1.2c-0.8-0.2-1.9,0.3-3.2,1.5c-0.5,0.3-1.1,0.7-1.6,1c-0.5,0.4-1.1,0.5-1.8,0.3
		c-0.7-0.1-1.2-0.5-1.5-1.1c-0.3-0.6-0.3-1.3,0-1.9c1-2.3,2.3-3.8,4-4.6c1.7-0.8,3.7-1.3,6-1.4c1.1,0,2,0.2,2.8,0.6
		c0.8,0.4,1.4,0.9,1.9,1.5c0.5,0.6,0.9,1.3,1.3,2c0.3,0.7,0.6,1.3,0.8,1.8c0.5,1.7,0.9,3.6,1.1,5.6s0.3,4,0.3,6c0,0.7,0,1.6-0.1,2.5
		C457.2,443.7,457.3,444.5,457.4,445.1z M446,448.6c0.5,0.1,1,0.2,1.6,0.2c0.6,0,1.2-0.1,1.7-0.3c0.5-0.1,0.9-0.3,1.3-0.7
		c0.4-0.3,0.5-0.6,0.5-1c0.1-1.1,0.2-2,0.2-2.5c0-0.6,0-1.4,0-2.5c0-0.7-0.2-1.1-0.5-1.4c-0.4-0.2-0.8-0.3-1.3-0.3
		c-0.5,0-1,0.1-1.5,0.3c-0.5,0.2-1,0.5-1.4,0.8c-0.7,0.4-1.3,0.9-1.6,1.4c-0.3,0.5-0.7,1.2-1,2.1c-0.5,1.3-0.4,2.3,0.2,2.9
		C444.8,448.1,445.4,448.5,446,448.6z"/>
	<path id="XMLID_14_" d="M481.7,426.3c1.1,0.3,1.8,0.7,2.3,1.4c0.5,0.7,0.7,1.3,0.5,2c-0.1,0.7-0.5,1.3-1.1,1.8
		c-0.6,0.5-1.5,0.8-2.5,0.9c-0.7,0-1.2,0-1.6,0c-0.4,0-0.8,0-1,0s-0.6,0-1,0c-0.3,0-0.8,0-1.4,0c-0.2,0.7-0.3,1.4-0.4,2
		c-0.1,0.6-0.1,1.3-0.2,2c-0.1,0.7-0.3,1.6-0.4,2.7c-0.1,1.1-0.2,2.2-0.1,3.3c0.1,1.1,0.3,2.2,0.7,3.2c0.4,1,1,1.8,2,2.5
		c0.9,0.6,1.4,1.3,1.7,2c0.2,0.8,0.2,1.5,0,2.2c-0.2,0.7-0.7,1.3-1.3,1.7c-0.6,0.4-1.5,0.5-2.5,0.3c-2-0.4-3.6-1.3-4.8-2.8
		c-1.2-1.4-2-3.2-2.5-5.2c-0.5-2-0.7-4.3-0.7-6.6c0.1-2.4,0.3-4.7,0.7-7c-0.1,0.1-0.4,0.1-0.7,0c-0.3,0-0.6,0-0.7,0
		c-1.4,0-2.4-0.1-3-0.3c-0.6-0.2-1.1-0.6-1.4-1.2c-0.5-0.7-0.6-1.5-0.1-2.3c0.5-0.8,1.1-1.3,2-1.6c1.2-0.3,2.1-0.5,2.8-0.6
		c0.6-0.1,1.5-0.3,2.7-0.7c0.1-0.5,0.2-1,0.2-1.3c0-0.3,0-0.8,0.1-1.3c0.1-0.5,0.1-1,0.2-1.5c0.1-0.5,0.2-0.9,0.3-1.4
		c0.2-0.5,0.4-0.9,0.7-1.2c0.3-0.3,0.6-0.5,1.1-0.8c0.4-0.3,1-0.4,1.8-0.4c0.8,0,1.4,0.3,1.9,0.8c0.3,0.3,0.5,0.6,0.6,1
		c0.2,0.3,0.3,0.7,0.4,1.3c0,0.1,0,0.3,0,0.8c0,0.5,0,1,0,1.5c0,0.5,0,1,0,1.5c0,0.4-0.1,0.7-0.1,0.8c0.3,0,0.6,0,1.1,0
		c0.5,0,0.9,0,1.4,0.1c0.5,0.1,0.9,0.1,1.4,0.2C481.1,426.2,481.4,426.2,481.7,426.3z"/>
</g>
<path id="XMLID_3_" class="st2" d="M187.5,195h254.4c5,0,6.9-6.5,2.7-9.2L370,168v-57c0,0-35-56-112,0v56l-73.3,18.8
	C180.6,188.6,182.6,195,187.5,195z"/>
<path id="XMLID_4_" class="st2" d="M258,164c0,0,52,34,112,1"/>
<path id="XMLID_2_" class="st2" d="M326,195"/>
<path id="XMLID_6_" class="st2" d="M258,152.1c0,0,65,34.1,112,0"/>
<path id="XMLID_5_" class="st3" d="M126,36"/>
<g id="XMLID_8_">
</g>
<g id="XMLID_21_">
</g>
<g id="XMLID_22_">
</g>
<g id="XMLID_23_">
</g>
<g id="XMLID_24_">
</g>
<g id="XMLID_25_">
</g>
</svg>
