<svg xmlns="http://www.w3.org/2000/svg" height="937.5pt" version="1.1" viewBox="0 0 937.5 937.5" width="937.5pt">
<g id="surface1">
<path d="M 468.75 0 C 209.867188 0 0 209.867188 0 468.75 C 0 727.632812 209.867188 937.5 468.75 937.5 C 727.632812 937.5 937.5 727.632812 937.5 468.75 C 937.207031 209.992188 727.507812 0.292969 468.75 0 Z M 682.59375 714.9375 C 705.785156 640.253906 717.894531 562.574219 718.546875 484.375 L 905.859375 484.375 C 902.320312 585.65625 863.578125 682.53125 796.292969 758.328125 C 760.082031 739.773438 721.960938 725.226562 682.59375 714.9375 Z M 141.207031 758.328125 C 73.921875 682.53125 35.179688 585.65625 31.640625 484.375 L 218.953125 484.375 C 219.601562 562.574219 231.699219 640.253906 254.886719 714.9375 C 215.527344 725.21875 177.402344 739.769531 141.207031 758.328125 Z M 254.90625 222.5625 C 231.714844 297.246094 219.605469 374.925781 218.953125 453.125 L 31.640625 453.125 C 35.179688 351.84375 73.921875 254.96875 141.207031 179.171875 C 177.417969 197.726562 215.539062 212.273438 254.90625 222.5625 Z M 453.125 453.125 L 250.203125 453.125 C 250.953125 377.445312 262.871094 302.296875 285.554688 230.097656 C 340.605469 242.28125 396.753906 248.804688 453.125 249.566406 Z M 453.125 484.375 L 453.125 687.933594 C 396.753906 688.695312 340.601562 695.21875 285.546875 707.402344 C 262.867188 635.199219 250.953125 560.054688 250.203125 484.375 Z M 484.375 484.375 L 687.296875 484.375 C 686.546875 560.054688 674.628906 635.203125 651.945312 707.402344 C 596.894531 695.21875 540.746094 688.695312 484.375 687.933594 Z M 484.375 453.125 L 484.375 249.566406 C 540.746094 248.804688 596.898438 242.28125 651.953125 230.097656 C 674.632812 302.300781 686.546875 377.445312 687.296875 453.125 Z M 484.375 218.316406 L 484.375 32.480469 C 548.066406 41.53125 604.277344 105.292969 641.328125 200.410156 C 589.726562 211.554688 537.15625 217.554688 484.375 218.316406 Z M 453.125 32.480469 L 453.125 218.316406 C 400.34375 217.554688 347.773438 211.554688 296.171875 200.410156 C 333.222656 105.292969 389.433594 41.53125 453.125 32.480469 Z M 453.125 719.183594 L 453.125 905.019531 C 389.433594 895.96875 333.222656 832.207031 296.171875 737.089844 C 347.773438 725.945312 400.34375 719.945312 453.125 719.183594 Z M 484.375 905.019531 L 484.375 719.183594 C 537.15625 719.945312 589.726562 725.945312 641.328125 737.089844 C 604.277344 832.207031 548.066406 895.96875 484.375 905.019531 Z M 718.546875 453.125 C 717.898438 374.925781 705.800781 297.246094 682.613281 222.5625 C 721.976562 212.28125 760.101562 197.730469 796.3125 179.171875 C 863.585938 254.96875 902.335938 351.84375 905.859375 453.125 Z M 773.808594 155.578125 C 741.265625 171.453125 707.203125 184.023438 672.144531 193.078125 C 652.703125 136.875 620.1875 86.109375 577.265625 44.929688 C 651.328125 63.992188 719.101562 102.144531 773.808594 155.578125 Z M 265.355469 193.078125 C 230.292969 184.023438 196.234375 171.453125 163.691406 155.578125 C 218.398438 102.125 286.164062 63.964844 360.234375 44.890625 C 317.3125 86.054688 284.796875 136.835938 265.355469 193.027344 Z M 163.691406 781.921875 C 196.234375 766.046875 230.292969 753.476562 265.355469 744.421875 C 284.796875 800.625 317.3125 851.390625 360.234375 892.570312 C 286.171875 873.507812 218.398438 835.355469 163.691406 781.921875 Z M 672.144531 744.421875 C 707.207031 753.476562 741.265625 766.046875 773.808594 781.921875 C 719.101562 835.375 651.335938 873.535156 577.265625 892.609375 C 620.1875 851.445312 652.703125 800.664062 672.144531 744.472656 Z M 672.144531 744.421875 " style=" stroke:none;fill-rule:nonzero;fill:rgb(0%,0%,0%);fill-opacity:1;" />
</g>
</svg>