<?xml version="1.0" encoding="utf-8"?>
<!-- Generator: Adobe Illustrator 19.0.0, SVG Export Plug-In . SVG Version: 6.00 Build 0)  -->
<svg version="1.1" id="레이어_1" xmlns="http://www.w3.org/2000/svg" xmlns:xlink="http://www.w3.org/1999/xlink" x="0px"
	 y="0px" viewBox="0 0 600 580" style="enable-background:new 0 0 600 580;" xml:space="preserve">
<style type="text/css">
	.st0{opacity:0.5;}
	.st1{fill:none;}
	.st2{fill:none;stroke:#000000;}
	.st3{fill:none;stroke:#000000;stroke-width:5;stroke-miterlimit:10;}
</style>
<g id="XMLID_9_" class="st0">
	<path id="XMLID_41_" d="M249.3,446.6c0.9-29.9,1-59.6,0.3-89.3c-0.7-29.6-1-59.9-1-90.6c0-14.9,0-30.1,0-45.5s-0.2-30.8-0.7-46.2
		c-0.5-13.5-0.6-26.6-0.3-39.2c0.2-12.6,0.8-25.7,1.8-39.2c0.5-4.7,2.6-8.5,6.3-11.5c3.7-3,8-4.9,13-5.6c4.9-0.7,9.8-0.2,14.7,1.4
		c4.9,1.6,8.5,4.8,10.9,9.5c5.1,8.9,8.4,18.2,9.8,28c1.4,9.8,2.6,19.8,3.5,30.1c3.7,32.7,6,64,6.7,94.1c0.7,30.1,1.8,61.5,3.1,94.1
		c0,0.9,0,2.5,0,4.5c0,2.1,0.5,3.2,1.4,3.2c3.3,0,7.6-0.1,13-0.3c5.4-0.2,11.1-0.5,17.1-0.7c6.1-0.2,12.1-0.5,18.2-0.7
		c6.1-0.2,11.7-0.3,16.8-0.3c5.1,0,10.4,0,15.8,0c5.4,0,10.6,0.5,15.8,1.4c10.3,2.3,17,8.6,20.3,18.9c1.9,5.1,1.8,9.7-0.4,13.6
		c-2.1,4-5,7.8-8.8,11.6c-5.6,4.7-13.2,7.9-22.8,9.8c-9.6,1.9-19.7,3-30.5,3.5c-10.7,0.5-21.1,0.5-31.1,0c-10-0.5-18.3-0.7-24.9-0.7
		c-0.5,0-0.9,2.2-1.4,6.7c-0.5,4.4-0.8,9.4-1.1,15c-0.2,5.6-0.3,10.8-0.3,15.8c0,4.9,0,8,0,9.5c-0.5,9.8-1.2,18.5-2.1,26.3
		c-0.9,7.7-4.2,15.8-9.8,24.1c-7,10.3-15.3,14.5-24.9,12.6c-9.6-1.9-16.7-7.5-21.3-16.8c-4.7-8.4-7.1-16-7.4-22.8
		C248.7,464,248.8,456,249.3,446.6z M422.2,200.2c7.5,6.5,8.9,15.6,4.2,27.3c-1.4,3.3-4,5.8-7.7,7.7c-3.7,1.9-7.8,3.3-12.3,4.2
		c-4.4,0.9-8.9,1.8-13.3,2.4c-4.4,0.7-8,1.3-10.8,1.8c-8.4,1.4-17,2.1-25.9,2.1c-8.9,0-17.3-2.1-25.2-6.3c-4.7-2.3-7.8-6.9-9.4-13.7
		c-1.6-6.8-2-12.7-1.1-17.8c0.5-5.1,3.7-8.9,9.8-11.2c3.7-1.9,7.9-2.9,12.6-3.1c4.7-0.2,8.9-0.4,12.6-0.4c3.3,0,7.9-0.1,14-0.4
		c6.1-0.2,12.4-0.4,18.9-0.4c6.5,0,12.8,0.6,18.9,1.8C413.5,195.5,418.4,197.4,422.2,200.2z"/>
</g>
<g id="XMLID_3_">
	<path id="XMLID_25_" class="st1" d="M464.1,238"/>
</g>
<g id="XMLID_8_">
	<path id="XMLID_17_" class="st1" d="M338.7,150.6"/>
</g>
<g id="XMLID_1_">
	<path id="XMLID_39_" d="M272.4,64.4c-0.5,0.2-0.8,0.1-1.1-0.1c-0.3-0.2-0.5-0.6-0.6-1c-0.1-0.5-0.3-0.9-0.3-1.5
		c0-0.5-0.1-1-0.1-1.4c-0.1-1-0.2-1.9-0.2-2.8c0-0.9,0-1.8,0-2.6c-0.1-1-0.1-2,0-3l0-5.1c0-0.6,0.1-1.2,0.1-1.9
		c0-0.6,0.1-1.3,0.4-1.9c0.2-0.6,0.5-0.9,1-1c0.5-0.1,0.9,0.1,1.4,0.5c0.3,0.4,0.6,1,0.8,1.9c0.2,0.8,0.3,1.7,0.4,2.6
		c0.1,0.9,0.1,1.8,0.1,2.8c0,0.9,0,1.6,0,2.3v0c0,1.3,0,2.7-0.1,4.1c-0.1,1.4,0,2.9,0.1,4.5c0.1,0.8,0,1.5-0.4,2.2
		C273.6,63.6,273.1,64.1,272.4,64.4z"/>
</g>
<circle id="XMLID_4_" class="st2" cx="271.5" cy="53.9" r="18.5"/>
<g id="XMLID_7_">
	<path id="XMLID_28_" d="M379.3,165.2c0.7,0.5,1,1,1,1.6c-0.1,0.3-0.3,0.6-0.6,0.9c-0.3,0.3-0.7,0.4-1.1,0.5
		c-0.8,0.1-1.6,0.1-2.3,0.2c-0.7,0.1-1.4,0.1-2.1,0.2c-1,0.1-2,0.2-3,0.3c-1,0.1-2.1,0.1-3.3,0.1c-0.7,0-1.3-0.1-1.9-0.3
		c-0.6-0.2-1-0.5-1.3-1.1c-0.2-0.5-0.2-0.9,0-1.2c0.2-0.4,0.5-0.8,0.9-1.4c0.1-0.1,0.3-0.4,0.5-0.8c0.2-0.4,0.5-0.8,0.9-1.3
		c0.3-0.5,0.7-1,1.1-1.6c0.4-0.6,0.8-1.2,1.2-1.7c2.1-2.9,3.1-5,2.9-6.4c-0.1-0.4-0.4-0.7-0.9-0.9c-0.5-0.2-1.2-0.3-2-0.3
		s-1.5,0.1-2.3,0.3c-0.7,0.2-1.5,0.3-2.3,0.3c-0.5-0.1-0.7-0.3-0.8-0.7c-0.1-0.4-0.1-0.8,0-1.1c0.1-0.4,0.3-0.6,0.6-0.8
		c0.3-0.2,0.6-0.4,0.9-0.6c0.7-0.3,1.5-0.5,2.5-0.6c1-0.1,1.9-0.1,2.9,0c1,0.1,1.8,0.3,2.7,0.6c0.8,0.3,1.5,0.7,2.1,1.2
		c0.3,0.3,0.5,0.7,0.6,1.2c0.1,0.5,0.1,1,0,1.6c-0.1,0.5-0.2,1.1-0.3,1.6c-0.2,0.5-0.3,0.9-0.4,1.2c-0.2,0.5-0.4,1-0.6,1.5
		c-0.2,0.5-0.5,1.2-0.9,1.9c-0.4,0.7-0.9,1.6-1.6,2.5c-0.6,1-1.4,2.2-2.4,3.6l6.2-0.3c0.6,0,1.1-0.1,1.7-0.1
		C378.4,164.9,378.9,165,379.3,165.2z"/>
</g>
<circle id="XMLID_5_" class="st2" cx="370.5" cy="158.9" r="18.5"/>
<path id="XMLID_13_" class="st3" d="M355.8,166.5"/>
<path id="XMLID_6_" class="st3" d="M365.5,143.6"/>
<g id="XMLID_18_">
	<g id="XMLID_49_">
		<line id="XMLID_52_" class="st3" x1="283.2" y1="135.7" x2="283.2" y2="468.6"/>
		<g id="XMLID_50_">
			<path id="XMLID_51_" d="M283.2,483.7c-2.6-7.1-7.1-15.9-11.9-21.4l11.9,4.3l11.9-4.3C290.3,467.7,285.8,476.6,283.2,483.7z"/>
		</g>
	</g>
</g>
<g id="XMLID_21_">
	<g id="XMLID_31_">
		<line id="XMLID_34_" class="st3" x1="309.3" y1="368.7" x2="384.3" y2="368.7"/>
		<g id="XMLID_32_">
			<path id="XMLID_33_" d="M399.4,368.7c-7.1,2.6-15.9,7.1-21.4,11.9l4.3-11.9l-4.3-11.9C383.5,361.6,392.3,366.1,399.4,368.7z"/>
		</g>
	</g>
</g>
<g id="XMLID_10_">
	<g id="XMLID_11_">
		<line id="XMLID_15_" class="st3" x1="320.5" y1="219.4" x2="395.5" y2="219.4"/>
		<g id="XMLID_12_">
			<path id="XMLID_14_" d="M410.6,219.4c-7.1,2.6-15.9,7.1-21.4,11.9l4.3-11.9l-4.3-11.9C394.6,212.3,403.5,216.8,410.6,219.4z"/>
		</g>
	</g>
</g>
<g id="XMLID_22_">
	<path id="XMLID_26_" d="M368.3,310.2c0.6,0.2,1.2,0.5,1.7,0.9c0.5,0.3,0.9,0.8,1.3,1.3c0.3,0.4,0.5,1,0.5,1.8
		c0,0.7-0.1,1.5-0.5,2.2c-0.4,0.9-0.8,1.6-1.4,2.3c-0.5,0.6-1,1.1-1.2,1.3c-0.2,0.1-0.5,0.4-0.9,0.8c-0.5,0.4-1,0.8-1.6,1.2
		c-0.6,0.4-1.3,0.8-2,1c-0.7,0.3-1.4,0.5-2,0.5c-0.6,0-1.1-0.3-1.3-0.8c-0.2-0.4-0.1-0.8,0.3-1.3c0.4-0.5,0.7-0.9,1-1.1
		c0.4-0.2,0.9-0.6,1.6-1c0.7-0.5,1.3-1,1.9-1.5c0.6-0.5,1-1.1,1.4-1.7c0.4-0.6,0.4-1.2,0.1-1.8c-0.3-0.5-0.8-0.8-1.4-1
		c-0.7-0.2-1.3-0.3-1.8-0.4c-0.2,0-0.5-0.1-0.8-0.1c-0.3-0.1-0.7-0.1-1-0.3c-0.3-0.1-0.6-0.3-0.9-0.4c-0.3-0.2-0.4-0.4-0.5-0.6
		c-0.2-0.4-0.1-1.1,0.4-1.9c0.5-0.8,1-1.6,1.5-2.3c0.5-0.7,0.9-1.5,1.3-2.4c0.3-0.6,0.5-1.1,0.6-1.5c0.1-0.4,0.2-0.9,0.1-1.6
		c-0.1-0.6-0.4-0.8-0.9-0.8c-0.3,0-0.6,0-0.9,0.1c-0.3,0.1-0.6,0.2-0.9,0.3c-0.8,0.3-1.4,0.5-1.9,0.7c-0.4,0.2-0.9,0.3-1.5,0.3
		c-0.4,0-0.7-0.2-1-0.5c-0.2-0.3-0.3-0.7-0.3-1c0.1-0.3,0.2-0.6,0.4-0.9c0.2-0.2,0.6-0.5,1.2-0.8c0.9-0.4,2-0.8,3.1-1.1
		c1.1-0.3,2.3-0.5,3.5-0.6c0.4,0,0.8,0.1,1.3,0.3c0.5,0.2,0.9,0.5,1.1,0.9c0.3,0.5,0.5,1.2,0.5,1.9c0,0.7,0,1.5-0.2,2.3
		c-0.2,0.8-0.4,1.6-0.7,2.4c-0.3,0.8-0.6,1.5-0.9,2.2c-0.2,0.4-0.4,0.8-0.7,1.1s-0.3,0.6-0.3,0.9c0,0.3,0.3,0.5,0.9,0.5
		C367.3,309.8,367.8,310,368.3,310.2z"/>
</g>
<circle id="XMLID_20_" class="st2" cx="365.5" cy="309.7" r="18.5"/>
<path id="XMLID_19_" class="st3" d="M350.8,317.3"/>
<g id="XMLID_23_">
</g>
<g id="XMLID_44_">
</g>
<g id="XMLID_45_">
</g>
<g id="XMLID_46_">
</g>
<g id="XMLID_47_">
</g>
<g id="XMLID_53_">
</g>
<g id="XMLID_54_">
</g>
</svg>
