<?xml version="1.0" encoding="utf-8"?>
<!-- Generator: Adobe Illustrator 19.0.0, SVG Export Plug-In . SVG Version: 6.00 Build 0)  -->
<svg version="1.1" id="레이어_1" xmlns="http://www.w3.org/2000/svg" xmlns:xlink="http://www.w3.org/1999/xlink" x="0px"
	 y="0px" viewBox="0 0 600 580" style="enable-background:new 0 0 600 580;" xml:space="preserve">
<style type="text/css">
	.st0{opacity:0.5;}
	.st1{fill:none;}
	.st2{fill:none;stroke:#000000;}
	.st3{fill:none;stroke:#000000;stroke-width:5;stroke-miterlimit:10;}
</style>
<g id="XMLID_9_" class="st0">
	<path id="XMLID_63_" d="M413.3,117.7c0.9,7,1.4,12.3,1.4,15.8s0,7.8,0,13l-4.1,202.3c0,11.2-0.3,22.5-1,34
		c-0.7,11.4-1.3,22.5-1.7,33.3c-0.5,8.9-1.4,17.3-2.8,25.2c-1.4,7.9-4.6,15.4-9.7,22.4c-3.7,5.1-9,7.2-15.9,6.3
		c-6.9-0.9-12.2-4-15.9-9.1c-6.1-7.5-9-17.1-8.8-29c0.2-11.9,0.4-22,0.4-30.5c0-4.7-0.1-9.3-0.4-14c-0.2-4.7-0.3-9.6-0.3-14.7
		c0-2.3-0.5-4-1.4-4.9c-0.9-0.5-2.2-0.7-3.8-0.7c-1.6,0-2.9,0-3.8,0c-7,0.5-12.7,0.8-17.2,1c-4.4,0.2-8.6,0.4-12.6,0.4
		c-4,0-8-0.1-12.3-0.4c-4.2-0.2-9.6-0.3-16.1-0.3c-5.1,0-7.9,0.7-8.4,2.1c-0.9,1.4-1.5,3-1.8,4.9c-0.2,1.9-0.4,3.7-0.4,5.6
		c0,6.1-0.2,12-0.7,17.9c-0.5,5.8-0.7,11.8-0.7,17.8c-0.5,6.5-0.7,12.7-0.7,18.5c0,5.8-0.5,12-1.4,18.6c-0.9,5.1-2.7,9.9-5.3,14.3
		c-2.6,4.4-6.6,7.6-12.3,9.5c-6.5,1.9-12.1,1.8-16.8-0.4c-4.7-2.1-8.4-5.3-11.2-9.4c-2.8-4.2-5-9.1-6.6-14.7
		c-1.6-5.6-2.7-11-3.1-16.1c-1.4-16.8-2-33.6-1.8-50.4c0.2-16.8-0.1-33.6-1-50.4c-0.5-7.9-0.7-18.2-0.7-30.8s-0.2-25.9-0.7-39.9
		c0-25.2-0.6-48.8-1.8-70.7c-1.2-21.9-1.8-45.7-1.8-71.4c0-3.7,0.5-7.9,1.4-12.6c0.9-4.7,3.3-8.6,7-11.9c6.1-4.7,12.6-6.8,19.6-6.3
		c6.5,0,11.8,1.9,15.8,5.6c4,3.7,7,8.3,9.1,13.6c2.1,5.4,3.5,11.1,4.2,17.1c0.7,6.1,1,11.4,1,16.1c0,2.3,0.1,7.1,0.4,14.4
		c0.2,7.2,0.6,15.9,1,25.9c0.5,10,0.9,20.8,1.4,32.2c0.5,11.4,0.8,22,1,31.8c0.2,9.8,0.6,18.3,1,25.6c0.5,7.2,0.7,11.5,0.7,12.9
		c0.5,2.8,0.8,7.1,1,13c0.2,5.8,1.3,9.7,3.2,11.5c0.9,2.3,4.8,3.7,11.5,4.2c6.8,0.5,14.1,0.6,22,0.3c7.9-0.2,15.6-0.7,23.1-1.4
		c7.5-0.7,12.4-1.3,14.7-1.8c1.4,0,2.6-0.7,3.5-2.1c0.9-1.4,1.6-4.3,2.1-8.8c0.5-4.4,0.9-11,1.4-19.6c0.5-8.6,1.2-20.2,2.1-34.6
		c-3.7,0-9,0.1-15.8,0.4c-6.8,0.2-13.8,0-21-0.7c-7.2-0.7-14.1-2.2-20.7-4.5c-6.5-2.3-11.2-6.3-14-11.9c-0.9-2.3-1.4-4.8-1.4-7.3
		c0-2.6,0.2-5,0.7-7.4c0.9-6.1,4.3-10.4,10.1-13c5.8-2.6,12.5-4.2,20-4.9c7.5-0.7,15.3-0.9,23.5-0.7c8.2,0.2,15,0.1,20.6-0.3
		c0-14.5,0.6-27.4,1.7-38.9c1.1-11.4,1.7-21.4,1.7-29.8c0.5-4.7,1.3-9.1,2.4-13.3c1.1-4.2,4.3-7.7,9.3-10.5c2.8-1.9,6.2-3,10.4-3.5
		c4.1-0.5,8.1-0.2,11.7,0.7c3.7,0.9,7,2.7,10,5.3C411.2,110.2,412.9,113.5,413.3,117.7z"/>
</g>
<g id="XMLID_3_">
	<path id="XMLID_25_" class="st1" d="M320.8,187.8"/>
</g>
<g id="XMLID_8_">
	<path id="XMLID_17_" class="st1" d="M345.9,137.5"/>
</g>
<g id="XMLID_1_">
	<path id="XMLID_61_" d="M245,78.9c-0.5,0.2-0.8,0.1-1.1-0.1c-0.3-0.2-0.5-0.6-0.6-1c-0.1-0.5-0.3-0.9-0.3-1.5c0-0.5-0.1-1-0.1-1.4
		c-0.1-1-0.2-1.9-0.2-2.8c0-0.9,0-1.8,0-2.6c-0.1-1-0.1-2,0-3l0-5.1c0-0.6,0.1-1.2,0.1-1.9c0-0.6,0.1-1.3,0.4-1.9
		c0.2-0.6,0.5-0.9,1-1c0.5-0.1,0.9,0.1,1.4,0.5c0.3,0.4,0.6,1,0.8,1.9c0.2,0.8,0.3,1.7,0.4,2.6c0.1,0.9,0.1,1.8,0.1,2.8
		c0,0.9,0,1.6,0,2.3v0c0,1.3,0,2.7-0.1,4.1c-0.1,1.4,0,2.9,0.1,4.5c0.1,0.8,0,1.5-0.4,2.2C246.1,78.1,245.6,78.6,245,78.9z"/>
</g>
<circle id="XMLID_4_" class="st2" cx="244" cy="68.4" r="18.5"/>
<g id="XMLID_7_">
	<path id="XMLID_59_" d="M324.6,184.3c0.7,0.5,1,1,1,1.6c-0.1,0.3-0.3,0.6-0.6,0.9c-0.3,0.3-0.7,0.4-1.1,0.5
		c-0.8,0.1-1.6,0.1-2.3,0.2c-0.7,0.1-1.4,0.1-2.1,0.2c-1,0.1-2,0.2-3,0.3c-1,0.1-2.1,0.1-3.3,0.1c-0.7,0-1.3-0.1-1.9-0.3
		c-0.6-0.2-1-0.5-1.3-1.1c-0.2-0.5-0.2-0.9,0-1.2c0.2-0.4,0.5-0.8,0.9-1.4c0.1-0.1,0.3-0.4,0.5-0.8c0.2-0.4,0.5-0.8,0.9-1.3
		c0.3-0.5,0.7-1,1.1-1.6c0.4-0.6,0.8-1.2,1.2-1.7c2.1-2.9,3.1-5,2.9-6.4c-0.1-0.4-0.4-0.7-0.9-0.9c-0.5-0.2-1.2-0.3-2-0.3
		s-1.5,0.1-2.3,0.3c-0.7,0.2-1.5,0.3-2.3,0.3c-0.5-0.1-0.7-0.3-0.8-0.7c-0.1-0.4-0.1-0.8,0-1.1c0.1-0.4,0.3-0.6,0.6-0.8
		c0.3-0.2,0.6-0.4,0.9-0.6c0.7-0.3,1.5-0.5,2.5-0.6c1-0.1,1.9-0.1,2.9,0c1,0.1,1.8,0.3,2.7,0.6c0.8,0.3,1.5,0.7,2.1,1.2
		c0.3,0.3,0.5,0.7,0.6,1.2c0.1,0.5,0.1,1,0,1.6c-0.1,0.5-0.2,1.1-0.3,1.6c-0.2,0.5-0.3,0.9-0.4,1.2c-0.2,0.5-0.4,1-0.6,1.5
		c-0.2,0.5-0.5,1.2-0.9,1.9c-0.4,0.7-0.9,1.6-1.6,2.5c-0.6,1-1.4,2.2-2.4,3.6l6.2-0.3c0.6,0,1.1-0.1,1.7-0.1
		C323.6,184,324.1,184.1,324.6,184.3z"/>
</g>
<circle id="XMLID_5_" class="st2" cx="315.8" cy="178" r="18.5"/>
<path id="XMLID_13_" class="st3" d="M301.1,185.6"/>
<path id="XMLID_6_" class="st3" d="M372.7,130.5"/>
<g id="XMLID_18_">
	<g id="XMLID_51_">
		<line id="XMLID_54_" class="st3" x1="244" y1="115.7" x2="244" y2="448.5"/>
		<g id="XMLID_52_">
			<path id="XMLID_53_" d="M244,463.6c-2.6-7.1-7.1-15.9-11.9-21.4l11.9,4.3l11.9-4.3C251.2,447.7,246.7,456.5,244,463.6z"/>
		</g>
	</g>
</g>
<g id="XMLID_21_">
	<g id="XMLID_41_">
		<line id="XMLID_49_" class="st3" x1="276.2" y1="335.4" x2="340.3" y2="335.4"/>
		<g id="XMLID_42_">
			<path id="XMLID_43_" d="M355.4,335.4c-7.1,2.6-15.9,7.1-21.4,11.9l4.3-11.9l-4.3-11.9C339.5,328.3,348.3,332.8,355.4,335.4z"/>
		</g>
	</g>
</g>
<g id="XMLID_10_">
	<g id="XMLID_45_">
		<line id="XMLID_48_" class="st3" x1="386.8" y1="119.3" x2="386.8" y2="452.2"/>
		<g id="XMLID_46_">
			<path id="XMLID_47_" d="M386.8,467.3c-2.6-7.1-7.1-15.9-11.9-21.4l11.9,4.3l11.9-4.3C393.9,451.4,389.4,460.2,386.8,467.3z"/>
		</g>
	</g>
</g>
<g id="XMLID_15_">
	<path id="XMLID_20_" class="st1" d="M396.2,78.2"/>
</g>
<g id="XMLID_14_">
	<path id="XMLID_57_" d="M401.4,69.7c0.3,0,0.6,0.1,1,0.3c0.4,0.1,0.6,0.4,0.6,0.8c0,0.5-0.1,0.8-0.3,1.1c-0.2,0.3-0.6,0.5-1.1,0.8
		c-0.9,0.2-1.5,0.3-1.9,0.4c-0.4,0.1-0.7,0.1-1,0.2c-0.2,0-0.4,0.1-0.6,0.1c-0.2,0-0.4,0-0.8,0.1c0,0.3,0,0.7,0,1.4
		c0,0.7,0,1.3,0,1.9c0,0.5,0,0.9,0,1.4c0,0.5,0,0.9-0.1,1.3c-0.1,0.4-0.2,0.7-0.5,1c-0.2,0.3-0.6,0.4-1,0.4c-0.6,0-1-0.2-1.3-0.5
		c-0.3-0.3-0.5-0.8-0.6-1.5c-0.1-0.6-0.2-1.4-0.2-2.4s-0.1-1.9-0.1-2.7c0,0-0.2,0-0.7,0c-0.5,0-1.1,0.1-1.9,0.1s-1.6,0-2.5,0
		c-0.9,0-1.7-0.1-2.5-0.2c-0.6-0.1-1.1-0.4-1.4-0.8c-0.7-1.1-0.8-3.1-0.3-6c0.3-1.4,0.6-2.6,0.9-3.7c0.4-1.1,0.6-1.8,0.7-2
		c0-0.1,0.1-0.3,0.3-0.6c0.2-0.3,0.4-0.4,0.6-0.4c0.7,0,1.2,0.2,1.5,0.6c0.3,0.4,0.4,0.9,0.4,1.5c0,0.6-0.1,1.2-0.2,1.9
		c-0.2,0.7-0.3,1.3-0.3,1.9c-0.1,1.1-0.2,2-0.2,2.7c0,0.7,0,1.2,0.1,1.5c0.1,0.2,0.2,0.3,0.4,0.3c0.2,0.1,0.6,0.1,1.2,0.1
		c0.6,0,1.2,0,1.8-0.1c0.6,0,1.1-0.1,1.5-0.1c0.5-0.1,0.7-0.1,0.7-0.2v-2.1c0-0.9,0-1.8,0.1-2.7c0-0.9,0-1.8,0-2.7
		c0-0.8,0-1.5,0-2.2c0-0.7,0.2-1.3,0.5-2c0.1-0.3,0.4-0.5,0.8-0.6c0.4,0,0.7,0.1,0.9,0.4c0.3,0.4,0.5,0.9,0.7,1.5
		c0.2,0.6,0.3,1.3,0.4,2c0.1,0.7,0.2,1.4,0.2,2.2c0,0.8,0,1.5,0,2.1v2.3c0,0.6,0,1.2,0,1.9c0.1,0,0.3,0,0.7-0.1
		c0.4,0,0.8-0.1,1.2-0.1c0.5,0,0.9-0.1,1.3-0.1C401,69.7,401.3,69.7,401.4,69.7z"/>
</g>
<circle id="XMLID_12_" class="st2" cx="391.2" cy="68.4" r="18.5"/>
<path id="XMLID_11_" class="st3" d="M376.5,76"/>
<g id="XMLID_22_">
	<g id="XMLID_30_">
		<line id="XMLID_33_" class="st3" x1="278.9" y1="218" x2="343" y2="218"/>
		<g id="XMLID_31_">
			<path id="XMLID_32_" d="M358.1,218c-7.1,2.6-15.9,7.1-21.4,11.9L341,218l-4.3-11.9C342.2,210.9,351,215.4,358.1,218z"/>
		</g>
	</g>
</g>
<g id="XMLID_28_">
	<path id="XMLID_35_" class="st1" d="M323.5,403.5"/>
</g>
<g id="XMLID_27_">
	<path id="XMLID_55_" d="M321.3,394.2c0.6,0.2,1.2,0.5,1.7,0.9c0.5,0.3,0.9,0.8,1.3,1.3c0.3,0.4,0.5,1,0.5,1.8
		c0,0.7-0.1,1.5-0.5,2.2c-0.4,0.9-0.8,1.6-1.4,2.3c-0.5,0.6-1,1.1-1.2,1.3c-0.2,0.1-0.5,0.4-0.9,0.8c-0.5,0.4-1,0.8-1.6,1.2
		c-0.6,0.4-1.3,0.8-2,1c-0.7,0.3-1.4,0.5-2,0.5c-0.6,0-1.1-0.3-1.3-0.8c-0.2-0.4-0.1-0.8,0.3-1.3c0.4-0.5,0.7-0.9,1-1.1
		c0.4-0.2,0.9-0.6,1.6-1s1.3-1,1.9-1.5c0.6-0.5,1.1-1.1,1.4-1.7s0.4-1.2,0.1-1.8c-0.3-0.5-0.8-0.8-1.5-1s-1.3-0.3-1.8-0.4
		c-0.2,0-0.5-0.1-0.8-0.1c-0.3-0.1-0.7-0.1-1-0.3c-0.3-0.1-0.6-0.3-0.8-0.4c-0.3-0.2-0.4-0.4-0.5-0.6c-0.2-0.4,0-1.1,0.5-1.9
		c0.5-0.8,1-1.6,1.5-2.3c0.5-0.7,0.9-1.5,1.3-2.4c0.3-0.6,0.5-1.1,0.6-1.5c0.1-0.4,0.2-0.9,0.1-1.6c-0.1-0.6-0.4-0.8-0.9-0.8
		c-0.3,0-0.6,0-0.9,0.1c-0.3,0.1-0.6,0.2-0.9,0.3c-0.8,0.3-1.4,0.5-1.8,0.7c-0.4,0.2-0.9,0.3-1.5,0.3c-0.4,0-0.7-0.2-1-0.5
		c-0.2-0.3-0.3-0.7-0.3-1c0.1-0.3,0.2-0.6,0.4-0.9c0.2-0.2,0.6-0.5,1.2-0.8c0.9-0.4,2-0.8,3.1-1.1c1.1-0.3,2.3-0.5,3.5-0.6
		c0.4,0,0.8,0.1,1.3,0.3c0.5,0.2,0.9,0.5,1.1,0.9c0.3,0.5,0.5,1.2,0.5,1.9c0,0.7,0,1.5-0.2,2.3c-0.2,0.8-0.4,1.6-0.7,2.4
		c-0.3,0.8-0.6,1.5-1,2.2c-0.2,0.4-0.4,0.8-0.7,1.1s-0.3,0.6-0.3,0.9c0,0.3,0.3,0.5,0.9,0.5C320.3,393.8,320.8,394,321.3,394.2z"/>
</g>
<circle id="XMLID_26_" class="st2" cx="318.5" cy="393.7" r="18.5"/>
<path id="XMLID_23_" class="st3" d="M303.8,401.3"/>
<g id="XMLID_39_">
</g>
<g id="XMLID_65_">
</g>
<g id="XMLID_66_">
</g>
<g id="XMLID_67_">
</g>
<g id="XMLID_68_">
</g>
<g id="XMLID_69_">
</g>
<g id="XMLID_70_">
</g>
</svg>
