<?xml version="1.0" encoding="utf-8"?>
<!-- Generator: Adobe Illustrator 19.0.0, SVG Export Plug-In . SVG Version: 6.00 Build 0)  -->
<svg version="1.1" id="레이어_1" xmlns="http://www.w3.org/2000/svg" xmlns:xlink="http://www.w3.org/1999/xlink" x="0px"
	 y="0px" viewBox="0 0 600 580" style="enable-background:new 0 0 600 580;" xml:space="preserve">
<style type="text/css">
	.st0{opacity:0.5;}
	.st1{fill:none;}
	.st2{fill:none;stroke:#000000;}
	.st3{fill:none;stroke:#000000;stroke-width:5;stroke-miterlimit:10;}
</style>
<g id="XMLID_9_" class="st0">
	<path id="XMLID_32_" d="M225.2,220.9c7.9-5.1,16.5-7.9,25.6-8.4c9.1-0.5,16.9-0.7,23.4-0.7c5.1,0,11,0.8,17.5,2.4
		c6.5,1.6,10.5,5.3,11.9,10.9c1.4,8.4,1.3,15.1-0.3,20c-1.6,4.9-4.3,8.8-8,11.5c-3.7,2.8-8.4,4.7-14,5.6c-5.6,0.9-11.4,1.4-17.5,1.4
		c-2.8,0-6.3-0.1-10.5-0.4c-4.2-0.2-8.4-0.9-12.6-2.1c-4.2-1.2-8-2.7-11.5-4.6c-3.5-1.9-6-4.4-7.4-7.7c-3.7-6.5-5-12.1-3.9-16.8
		C219,227.4,221.5,223.7,225.2,220.9z M376.4,449.1c0.5,6.1,0,12.5-1.4,19.3c-1.4,6.8-3.8,12.4-7.3,16.8c-3.5,4.4-8,7.3-13.5,8.8
		c-5.5,1.4-12,0-19.4-4.2c-6.5-4.2-10.6-9.3-12.4-15.4c-1.8-6.1-3-13.1-3.5-21c0-1.4-0.1-5.8-0.4-13.3c-0.2-7.5-0.7-15.4-1.4-23.8
		c-0.7-8.4-1.5-16.1-2.5-23.1c-0.9-7-2.1-10.5-3.5-10.5c-5.1,0-11.1,0-17.8,0c-6.8,0-13.8,0-21,0c-7.2,0-14.4-0.5-21.4-1.4
		c-7-0.9-13.1-2.6-18.2-4.9c-5.6-1.9-9.5-4.9-11.6-9.1c-2.1-4.2-3-8.5-2.8-13c0.2-4.4,1.6-8.8,4.2-13c2.6-4.2,5.9-7,10.1-8.4
		c3.3-1.4,9.4-2.3,18.5-2.8c9.1-0.5,18.3-0.8,27.6-1c9.3-0.2,17.7-0.9,25.2-2.1c7.5-1.2,11.2-3.2,11.2-6c0.5-18.2,0.8-32.2,1-42
		c0.2-9.8,0.3-18.7,0.3-26.6c0-7.9-0.1-16.6-0.3-25.9c-0.2-9.3-0.6-22.9-1-40.6c0-10.7,0.6-23.8,1.7-39.2c1.1-15.4,4-28.9,8.7-40.6
		c1.8-4.7,5.1-7.9,9.7-9.8c4.6-1.9,9.6-2.5,14.9-1.8c5.3,0.7,10,2.6,14.2,5.6c4.2,3,6.9,7.1,8.3,12.3c2.8,13.5,4.3,26.5,4.5,38.8
		c0.2,12.4,0.3,25.3,0.3,38.9c0,43.9,0.3,87,1,129.5C379.6,362,378.8,405.2,376.4,449.1z"/>
</g>
<g id="XMLID_3_">
	<path id="XMLID_25_" class="st1" d="M455.1,233.4"/>
</g>
<g id="XMLID_8_">
	<path id="XMLID_17_" class="st1" d="M329.7,146.1"/>
</g>
<g id="XMLID_1_">
	<path id="XMLID_30_" d="M262.4,196c-0.5,0.2-0.8,0.1-1.1-0.1c-0.3-0.2-0.5-0.6-0.6-1c-0.1-0.5-0.3-0.9-0.3-1.5c0-0.5-0.1-1-0.1-1.4
		c-0.1-1-0.2-1.9-0.2-2.8c0-0.9,0-1.8,0-2.6c-0.1-1-0.1-2,0-3l0-5.1c0-0.6,0.1-1.2,0.1-1.9c0-0.6,0.1-1.3,0.4-1.9
		c0.2-0.6,0.5-0.9,1-1c0.5-0.1,0.9,0.1,1.4,0.5c0.3,0.4,0.6,1,0.8,1.9c0.2,0.8,0.3,1.7,0.4,2.6c0.1,0.9,0.1,1.8,0.1,2.8
		c0,0.9,0,1.6,0,2.3v0c0,1.3,0,2.7-0.1,4.1c-0.1,1.4,0,2.9,0.1,4.5c0.1,0.8,0,1.5-0.4,2.2C263.6,195.2,263.1,195.7,262.4,196z"/>
</g>
<circle id="XMLID_4_" class="st2" cx="261.5" cy="185.4" r="18.5"/>
<g id="XMLID_7_">
	<path id="XMLID_27_" d="M288.1,307c0.7,0.5,1,1,1,1.6c-0.1,0.3-0.3,0.6-0.6,0.9s-0.7,0.4-1.1,0.5c-0.8,0.1-1.6,0.1-2.3,0.2
		c-0.7,0.1-1.4,0.1-2.1,0.2c-1,0.1-2.1,0.2-3.1,0.3s-2.1,0.1-3.3,0.1c-0.7,0-1.3-0.1-1.9-0.3c-0.6-0.2-1-0.5-1.3-1.1
		c-0.2-0.5-0.2-0.9,0-1.2c0.2-0.4,0.5-0.8,0.9-1.4c0.1-0.1,0.3-0.4,0.5-0.8c0.2-0.4,0.5-0.8,0.9-1.3s0.7-1,1.1-1.6
		c0.4-0.6,0.8-1.2,1.2-1.7c2.1-2.9,3.1-5,2.9-6.4c-0.1-0.4-0.4-0.7-0.9-0.9c-0.5-0.2-1.2-0.3-2-0.3c-0.8,0-1.5,0.1-2.3,0.3
		c-0.7,0.2-1.5,0.3-2.3,0.3c-0.5-0.1-0.7-0.3-0.8-0.7c-0.1-0.4-0.1-0.8,0-1.1c0.1-0.4,0.3-0.7,0.6-0.8c0.3-0.2,0.6-0.4,0.9-0.6
		c0.7-0.3,1.5-0.5,2.5-0.6c1-0.1,1.9-0.1,2.9,0c1,0.1,1.9,0.3,2.7,0.6c0.9,0.3,1.5,0.7,2.1,1.2c0.3,0.3,0.5,0.7,0.6,1.2
		c0.1,0.5,0.1,1,0,1.6c-0.1,0.5-0.2,1.1-0.3,1.6s-0.3,0.9-0.4,1.2c-0.2,0.5-0.4,1-0.6,1.5c-0.2,0.5-0.5,1.2-0.9,1.9
		c-0.4,0.7-0.9,1.6-1.6,2.5c-0.6,1-1.4,2.2-2.4,3.5l6.2-0.3c0.6,0,1.1-0.1,1.7-0.1C287.1,306.7,287.6,306.8,288.1,307z"/>
</g>
<circle id="XMLID_5_" class="st2" cx="279.3" cy="300.7" r="18.5"/>
<path id="XMLID_13_" class="st3" d="M264.5,308.3"/>
<path id="XMLID_6_" class="st3" d="M356.5,139.1"/>
<g id="XMLID_18_">
	<g id="XMLID_45_">
		<line id="XMLID_48_" class="st3" x1="349" y1="117.7" x2="349" y2="450.5"/>
		<g id="XMLID_46_">
			<path id="XMLID_47_" d="M349,465.6c-2.6-7.1-7.1-15.9-11.9-21.4l11.9,4.3l11.9-4.3C356.2,449.7,351.7,458.5,349,465.6z"/>
		</g>
	</g>
</g>
<g id="XMLID_21_">
	<g id="XMLID_39_">
		<line id="XMLID_42_" class="st3" x1="227.7" y1="236.6" x2="291.8" y2="236.6"/>
		<g id="XMLID_40_">
			<path id="XMLID_41_" d="M306.8,236.6c-7.1,2.6-15.9,7.1-21.4,11.9l4.3-11.9l-4.3-11.9C290.9,229.5,299.7,234,306.8,236.6z"/>
		</g>
	</g>
</g>
<g id="XMLID_10_">
	<g id="XMLID_11_">
		<line id="XMLID_15_" class="st3" x1="239.7" y1="355.4" x2="303.8" y2="355.4"/>
		<g id="XMLID_12_">
			<path id="XMLID_14_" d="M318.8,355.4c-7.1,2.6-15.9,7.1-21.4,11.9l4.3-11.9l-4.3-11.9C302.9,348.2,311.7,352.7,318.8,355.4z"/>
		</g>
	</g>
</g>
<g id="XMLID_20_">
	<path id="XMLID_23_" d="M347.4,69.1c0.6,0.2,1.2,0.5,1.7,0.9c0.5,0.3,0.9,0.8,1.3,1.4c0.3,0.4,0.5,1,0.5,1.8c0,0.7-0.1,1.5-0.5,2.2
		c-0.4,0.9-0.8,1.6-1.4,2.3c-0.5,0.6-1,1.1-1.2,1.4c-0.2,0.1-0.5,0.4-0.9,0.8c-0.5,0.4-1,0.8-1.6,1.2c-0.6,0.4-1.3,0.8-2,1
		c-0.7,0.3-1.4,0.5-2,0.5c-0.6,0-1.1-0.3-1.3-0.9c-0.2-0.4-0.1-0.8,0.3-1.3c0.4-0.5,0.7-0.9,1-1.1c0.4-0.2,0.9-0.6,1.6-1.1
		c0.7-0.5,1.3-1,1.9-1.5c0.6-0.5,1-1.1,1.4-1.7c0.4-0.6,0.4-1.2,0.1-1.8c-0.3-0.5-0.8-0.8-1.4-1c-0.7-0.2-1.3-0.3-1.8-0.4
		c-0.2,0-0.5-0.1-0.8-0.1c-0.3-0.1-0.7-0.1-1-0.3c-0.3-0.1-0.6-0.3-0.9-0.4c-0.3-0.2-0.4-0.4-0.5-0.6c-0.2-0.4-0.1-1.1,0.4-1.9
		c0.5-0.8,1-1.6,1.5-2.4c0.5-0.7,0.9-1.5,1.3-2.4c0.3-0.6,0.5-1.1,0.6-1.5c0.1-0.4,0.2-0.9,0.1-1.6c-0.1-0.6-0.4-0.8-0.9-0.8
		c-0.3,0-0.6,0-0.9,0.1c-0.3,0.1-0.6,0.2-0.9,0.3c-0.8,0.3-1.4,0.5-1.9,0.7c-0.4,0.2-0.9,0.3-1.5,0.3c-0.4,0-0.7-0.2-1-0.5
		c-0.2-0.3-0.3-0.7-0.3-1c0.1-0.3,0.2-0.6,0.4-0.9c0.2-0.2,0.6-0.5,1.2-0.8c0.9-0.4,2-0.8,3.1-1.1c1.1-0.4,2.3-0.5,3.5-0.6
		c0.4,0,0.8,0.1,1.3,0.3c0.5,0.2,0.9,0.5,1.1,0.9c0.3,0.5,0.5,1.2,0.5,1.9c0,0.7,0,1.5-0.2,2.3c-0.2,0.8-0.4,1.6-0.7,2.4
		c-0.3,0.8-0.6,1.5-0.9,2.2c-0.2,0.4-0.4,0.8-0.7,1.1c-0.3,0.3-0.3,0.6-0.3,0.9c0,0.3,0.3,0.5,0.9,0.5
		C346.4,68.8,346.9,68.9,347.4,69.1z"/>
</g>
<circle id="XMLID_19_" class="st2" cx="344.6" cy="68.7" r="18.5"/>
<g id="XMLID_22_">
</g>
<g id="XMLID_43_">
</g>
<g id="XMLID_49_">
</g>
<g id="XMLID_50_">
</g>
<g id="XMLID_51_">
</g>
<g id="XMLID_52_">
</g>
<g id="XMLID_53_">
</g>
</svg>
