<?xml version="1.0" encoding="utf-8"?>
<!-- Generator: Adobe Illustrator 19.0.0, SVG Export Plug-In . SVG Version: 6.00 Build 0)  -->
<svg version="1.1" id="레이어_1" xmlns="http://www.w3.org/2000/svg" xmlns:xlink="http://www.w3.org/1999/xlink" x="0px"
	 y="0px" viewBox="0 0 600 580" style="enable-background:new 0 0 600 580;" xml:space="preserve">
<style type="text/css">
	.st0{opacity:0.5;}
	.st1{fill:none;}
	.st2{fill:none;stroke:#000000;}
	.st3{fill:none;stroke:#000000;stroke-width:5;stroke-miterlimit:10;}
</style>
<g id="XMLID_9_" class="st0">
	<path id="XMLID_43_" d="M366.9,420.5c3.7,8.4,3.9,15.4,0.4,21s-9,10-16.5,13.3c-14.9,7-32.1,12.5-51.5,16.5
		c-19.4,4-39.3,7-59.8,9.1c-20.5,2.1-41,3.3-61.3,3.5c-20.3,0.2-38.4-0.1-54.3-1c-5.6-0.5-11.6-1.2-17.9-2.1c-6.3-0.9-12-3.3-17.1-7
		c-4.7-3.3-7.8-7.4-9.5-12.3c-1.6-4.9-2.1-9.8-1.4-14.7c0.7-4.9,2.8-9.2,6.3-13c3.5-3.7,8.1-6.1,13.6-7c12.6-2.3,25.2-2.8,37.8-1.4
		c12.6,1.4,25.2,0.7,37.8-2.1c0.5,0,1.1-1.8,1.8-5.3c0.7-3.5,1.2-7.3,1.4-11.5c0.2-4.2,0.5-8.4,0.7-12.6c0.2-4.2,0.4-7,0.4-8.4
		c0.5-6.5,1.9-14,4.2-22.4c2.3-8.4,7.5-13.8,15.4-16.1c8.4-1.9,14.9-1.6,19.6,0.7c4.7,2.3,8.2,6,10.5,10.8
		c2.3,4.9,3.9,10.5,4.6,16.8c0.7,6.3,1.3,12.3,1.8,17.9c0.5,4.2,1.2,8.2,2.1,11.9c0.9,3.7,2.1,7.5,3.5,11.2c0.5,0.9,2.6,1.4,6.3,1.4
		c3.7,0,7.9-0.1,12.6-0.4c4.7-0.2,9.1-0.7,13.3-1.4c4.2-0.7,7-1.3,8.4-1.8c5.6-1.4,12.7-3,21.3-4.9c8.6-1.9,17.3-3.1,25.9-3.8
		c8.6-0.7,16.7,0,24.2,2.1C359,409.6,364.1,414,366.9,420.5z M506.9,327.4c7.5,0,15.6,0.6,24.5,1.8c8.9,1.2,15.9,5.3,21,12.3
		c5.1,8.4,5.3,16.1,0.4,23.1c-4.9,7-11.3,12.1-19.3,15.4c-3.7,1.4-8.6,2.6-14.7,3.5c-6.1,0.9-12.5,1.6-19.3,2.1
		c-6.8,0.5-13.1,0.8-18.9,1c-5.8,0.2-10.4,0.4-13.6,0.4l0.7,42c0,6.5,0,14.3,0,23.4c0,9.1-0.8,18-2.5,26.6c-1.6,8.6-4.8,16-9.5,22
		c-4.7,6.1-11.9,9.1-21.7,9.1c-7.5,0-13.2-2.3-17.1-7c-4-4.7-6.9-10.3-8.8-16.8c-1.9-6.5-2.9-13.4-3.2-20.6
		c-0.2-7.2-0.3-13.4-0.3-18.6c0-14-0.1-26.6-0.4-37.8c-0.2-11.2-0.6-22-1-32.5c-0.5-10.5-0.8-21.3-1-32.5
		c-0.2-11.2-0.4-23.8-0.4-37.8c-0.5-25.7-1.8-51.1-3.8-76.3c-2.1-25.2-4.1-50.6-6-76.3c-0.5-4.7-0.8-10.4-1-17.1
		c-0.2-6.8,0.2-13.3,1.4-19.6c1.2-6.3,3.5-11.8,7-16.5c3.5-4.7,8.8-7.2,15.8-7.7c9.8-0.5,17.6,5,23.4,16.4
		c5.8,11.4,10.3,25.2,13.3,41.3c3,16.1,5.3,32.5,6.6,49.4c1.4,16.8,2.3,30.3,2.8,40.6c1.9,22.9,3.2,42.4,3.9,58.4
		c0.7,16.1,1,26,1,29.8c6.1,0,12.6-0.2,19.6-0.7C492.9,327.6,499.9,327.4,506.9,327.4z"/>
</g>
<g id="XMLID_3_">
	<path id="XMLID_25_" class="st1" d="M105.9,407.9"/>
</g>
<g id="XMLID_8_">
	<path id="XMLID_17_" class="st1" d="M290.1,117.6"/>
</g>
<g id="XMLID_1_">
	<path id="XMLID_41_" d="M202.5,323.6c-0.5,0.2-0.8,0.1-1.1-0.1c-0.3-0.2-0.5-0.6-0.6-1c-0.1-0.5-0.3-0.9-0.3-1.5
		c0-0.5-0.1-1-0.1-1.4c-0.1-1-0.2-1.9-0.2-2.8c0-0.9,0-1.8,0-2.7c-0.1-1-0.1-2,0-3l0-5.1c0-0.6,0.1-1.2,0.1-1.9
		c0-0.7,0.1-1.3,0.4-1.9c0.2-0.6,0.5-0.9,1-1c0.5-0.1,0.9,0.1,1.4,0.5c0.3,0.4,0.6,1,0.8,1.8c0.2,0.8,0.3,1.7,0.4,2.6
		c0.1,0.9,0.1,1.8,0.1,2.8c0,0.9,0,1.6,0,2.3v0c0,1.3,0,2.7-0.1,4.1c-0.1,1.4,0,2.9,0.1,4.5c0.1,0.8,0,1.5-0.4,2.2
		C203.6,322.8,203.1,323.3,202.5,323.6z"/>
</g>
<circle id="XMLID_4_" class="st2" cx="201.6" cy="313.1" r="18.5"/>
<g id="XMLID_7_">
	<path id="XMLID_39_" d="M109.7,404.3c0.7,0.5,1,1,1,1.6c-0.1,0.3-0.3,0.6-0.6,0.9c-0.3,0.3-0.7,0.4-1.1,0.5
		c-0.8,0.1-1.6,0.1-2.3,0.2c-0.7,0.1-1.4,0.1-2.1,0.2c-1,0.1-2.1,0.2-3.1,0.3c-1,0.1-2.1,0.1-3.3,0.1c-0.7,0-1.3-0.1-1.9-0.3
		c-0.6-0.2-1-0.5-1.3-1.1c-0.2-0.5-0.2-0.9,0-1.2c0.2-0.4,0.5-0.8,0.9-1.4c0.1-0.1,0.3-0.4,0.5-0.8c0.2-0.4,0.5-0.8,0.9-1.3
		s0.7-1,1.1-1.6c0.4-0.6,0.8-1.2,1.2-1.7c2.1-2.9,3.1-5,2.9-6.3c-0.1-0.4-0.4-0.7-0.9-0.9c-0.5-0.2-1.2-0.3-2-0.3
		c-0.8,0-1.5,0.1-2.3,0.3c-0.7,0.2-1.5,0.3-2.3,0.3c-0.5-0.1-0.7-0.3-0.8-0.7c-0.1-0.4-0.1-0.8,0-1.1c0.1-0.4,0.3-0.6,0.6-0.8
		s0.6-0.4,0.9-0.5c0.7-0.3,1.5-0.5,2.5-0.6c1-0.1,1.9-0.1,2.9,0c1,0.1,1.9,0.3,2.7,0.6c0.9,0.3,1.5,0.7,2.1,1.2
		c0.3,0.3,0.5,0.7,0.6,1.2c0.1,0.5,0.1,1,0,1.6c-0.1,0.5-0.2,1.1-0.3,1.6s-0.3,0.9-0.4,1.2c-0.2,0.5-0.4,1-0.6,1.5
		c-0.2,0.5-0.5,1.2-0.9,1.9s-0.9,1.6-1.6,2.5c-0.6,1-1.4,2.2-2.4,3.6l6.2-0.3c0.6,0,1.1-0.1,1.7-0.1
		C108.7,404.1,109.2,404.1,109.7,404.3z"/>
</g>
<circle id="XMLID_5_" class="st2" cx="100.9" cy="398" r="18.5"/>
<path id="XMLID_13_" class="st3" d="M86.1,405.6"/>
<path id="XMLID_6_" class="st3" d="M316.9,110.6"/>
<g id="XMLID_18_">
	<g id="XMLID_57_">
		<line id="XMLID_60_" class="st3" x1="430.7" y1="126.3" x2="430.7" y2="459.2"/>
		<g id="XMLID_58_">
			<path id="XMLID_59_" d="M430.7,474.3c-2.6-7.1-7.1-15.9-11.9-21.4l11.9,4.3l11.9-4.3C437.8,458.3,433.4,467.2,430.7,474.3z"/>
		</g>
	</g>
</g>
<g id="XMLID_21_">
	<g id="XMLID_52_">
		<line id="XMLID_61_" class="st3" x1="201.6" y1="360.4" x2="201.6" y2="413.3"/>
		<g id="XMLID_53_">
			<path id="XMLID_54_" d="M201.6,428.4c-2.6-7.1-7.1-15.9-11.9-21.4l11.9,4.3l11.9-4.3C208.7,412.5,204.2,421.3,201.6,428.4z"/>
		</g>
	</g>
</g>
<g id="XMLID_10_">
	<g id="XMLID_48_">
		<line id="XMLID_55_" class="st3" x1="442.5" y1="354.1" x2="519.1" y2="354.1"/>
		<g id="XMLID_49_">
			<path id="XMLID_50_" d="M534.2,354.1c-7.1,2.6-15.9,7.1-21.4,11.9l4.3-11.9l-4.3-11.9C518.3,347,527.1,351.5,534.2,354.1z"/>
		</g>
	</g>
</g>
<g id="XMLID_15_">
	<path id="XMLID_20_" class="st1" d="M422.3,72.1"/>
</g>
<g id="XMLID_14_">
	<path id="XMLID_32_" d="M420.1,62.8c0.6,0.2,1.2,0.5,1.7,0.9c0.5,0.3,0.9,0.8,1.3,1.4c0.3,0.4,0.5,1,0.5,1.8c0,0.7-0.1,1.5-0.5,2.2
		c-0.4,0.9-0.8,1.6-1.4,2.3c-0.5,0.6-1,1.1-1.2,1.4c-0.2,0.1-0.5,0.4-0.9,0.8c-0.5,0.4-1,0.8-1.6,1.2c-0.6,0.4-1.3,0.8-2,1
		c-0.7,0.3-1.4,0.5-2,0.5c-0.6,0-1.1-0.3-1.3-0.9c-0.2-0.4-0.1-0.8,0.3-1.3c0.4-0.5,0.7-0.9,1-1.1c0.4-0.2,0.9-0.6,1.6-1.1
		c0.7-0.5,1.3-1,1.9-1.5c0.6-0.5,1-1.1,1.4-1.7c0.4-0.6,0.4-1.2,0.1-1.8c-0.3-0.5-0.8-0.8-1.4-1c-0.7-0.2-1.3-0.3-1.8-0.4
		c-0.2,0-0.5-0.1-0.8-0.1c-0.3-0.1-0.7-0.1-1-0.3c-0.3-0.1-0.6-0.3-0.9-0.4c-0.3-0.2-0.4-0.4-0.5-0.6c-0.2-0.4-0.1-1.1,0.4-1.9
		c0.5-0.8,1-1.6,1.5-2.4c0.5-0.7,0.9-1.5,1.3-2.4c0.3-0.6,0.5-1.1,0.6-1.5c0.1-0.4,0.2-0.9,0.1-1.6c-0.1-0.6-0.4-0.8-0.9-0.8
		c-0.3,0-0.6,0-0.9,0.1c-0.3,0.1-0.6,0.2-0.9,0.3c-0.8,0.3-1.4,0.5-1.9,0.7c-0.4,0.2-0.9,0.3-1.5,0.3c-0.4,0-0.7-0.2-1-0.5
		c-0.2-0.3-0.3-0.7-0.3-1c0.1-0.3,0.2-0.6,0.4-0.9c0.2-0.2,0.6-0.5,1.2-0.8c0.9-0.4,2-0.8,3.1-1.1c1.1-0.4,2.3-0.5,3.5-0.6
		c0.4,0,0.8,0.1,1.3,0.3c0.5,0.2,0.9,0.5,1.1,0.9c0.3,0.5,0.5,1.2,0.5,1.9c0,0.7,0,1.5-0.2,2.3c-0.2,0.8-0.4,1.6-0.7,2.4
		c-0.3,0.8-0.6,1.5-0.9,2.2c-0.2,0.4-0.4,0.8-0.7,1.1c-0.3,0.3-0.3,0.6-0.3,0.9c0,0.3,0.3,0.5,0.9,0.5
		C419,62.4,419.6,62.6,420.1,62.8z"/>
</g>
<circle id="XMLID_12_" class="st2" cx="417.2" cy="62.3" r="18.5"/>
<path id="XMLID_11_" class="st3" d="M402.5,69.9"/>
<g id="XMLID_22_">
	<g id="XMLID_63_">
		<line id="XMLID_66_" class="st3" x1="113.9" y1="445.5" x2="310.1" y2="440"/>
		<g id="XMLID_64_">
			<path id="XMLID_65_" d="M325.2,439.5c-7,2.8-15.7,7.6-21,12.5l4-12l-4.6-11.8C309.1,432.9,318,437.1,325.2,439.5z"/>
		</g>
	</g>
</g>
<g id="XMLID_28_">
	<path id="XMLID_35_" class="st1" d="M500.1,304.4"/>
</g>
<g id="XMLID_27_">
	<path id="XMLID_30_" d="M505.3,295.9c0.3,0,0.6,0.1,1,0.3c0.4,0.1,0.6,0.4,0.6,0.8c0,0.5-0.1,0.8-0.3,1.1c-0.2,0.3-0.6,0.5-1.1,0.8
		c-0.9,0.2-1.5,0.3-1.9,0.4c-0.4,0.1-0.7,0.1-1,0.2c-0.2,0-0.4,0.1-0.6,0.1c-0.2,0-0.4,0-0.8,0.1c0,0.3,0,0.7,0,1.4s0,1.3,0,1.8
		c0,0.5,0,0.9,0,1.4s0,0.9-0.1,1.3s-0.2,0.7-0.5,1c-0.2,0.3-0.6,0.4-1,0.4c-0.6,0-1-0.2-1.3-0.5c-0.3-0.3-0.5-0.8-0.6-1.5
		c-0.1-0.6-0.2-1.4-0.2-2.4s-0.1-1.9-0.1-2.7c0,0-0.2,0-0.7,0c-0.5,0-1.1,0.1-1.9,0.1s-1.6,0-2.5,0c-0.9,0-1.7-0.1-2.5-0.2
		c-0.6-0.1-1.1-0.4-1.4-0.8c-0.7-1.1-0.8-3.1-0.3-6c0.3-1.4,0.6-2.6,0.9-3.7c0.4-1.1,0.6-1.8,0.7-2c0-0.1,0.1-0.3,0.3-0.6
		c0.2-0.3,0.4-0.4,0.6-0.4c0.7,0,1.2,0.2,1.5,0.6c0.3,0.4,0.4,0.9,0.4,1.5c0,0.6-0.1,1.2-0.2,1.9c-0.2,0.7-0.3,1.3-0.3,1.9
		c-0.1,1.1-0.2,2-0.2,2.7c0,0.7,0,1.2,0.1,1.5c0.1,0.2,0.2,0.3,0.4,0.3c0.2,0.1,0.6,0.1,1.2,0.1c0.6,0,1.2,0,1.8,0
		c0.6,0,1.1-0.1,1.5-0.2c0.5-0.1,0.7-0.1,0.7-0.2V294c0-0.9,0-1.8,0.1-2.7c0-0.9,0-1.8,0-2.7c0-0.8,0-1.5,0-2.2c0-0.7,0.2-1.3,0.5-2
		c0.1-0.3,0.4-0.5,0.8-0.6c0.4,0,0.7,0.1,0.9,0.4c0.3,0.4,0.5,0.9,0.7,1.5c0.2,0.6,0.3,1.3,0.4,2c0.1,0.7,0.2,1.4,0.2,2.2
		c0,0.8,0,1.5,0,2.2v2.3c0,0.6,0,1.2,0,1.9c0.1,0,0.3,0,0.7-0.1c0.4,0,0.8-0.1,1.2-0.1s0.9-0.1,1.3-0.1
		C504.8,295.9,505.1,295.9,505.3,295.9z"/>
</g>
<circle id="XMLID_26_" class="st2" cx="495.1" cy="294.6" r="18.5"/>
<path id="XMLID_23_" class="st3" d="M480.3,302.2"/>
<g id="XMLID_29_">
</g>
<g id="XMLID_46_">
</g>
<g id="XMLID_67_">
</g>
<g id="XMLID_68_">
</g>
<g id="XMLID_69_">
</g>
<g id="XMLID_70_">
</g>
<g id="XMLID_71_">
</g>
</svg>
