<?xml version="1.0" encoding="utf-8"?>
<!-- Generator: Adobe Illustrator 19.0.0, SVG Export Plug-In . SVG Version: 6.00 Build 0)  -->
<svg version="1.1" id="레이어_1" xmlns="http://www.w3.org/2000/svg" xmlns:xlink="http://www.w3.org/1999/xlink" x="0px"
	 y="0px" viewBox="0 0 600 580" style="enable-background:new 0 0 600 580;" xml:space="preserve">
<style type="text/css">
	.st0{opacity:0.5;}
	.st1{fill:none;}
	.st2{fill:none;stroke:#000000;}
	.st3{fill:none;stroke:#000000;stroke-width:5;stroke-miterlimit:10;}
</style>
<g id="XMLID_9_" class="st0">
	<path id="XMLID_78_" d="M323.9,420.7c3.7,8.4,3.6,15.4-0.3,21c-4,5.6-9.7,10-17.2,13.3c-14.9,7-30.6,12.3-46.9,15.8
		c-16.3,3.5-33,6.1-50,7.7c-17,1.6-34.2,2.3-51.5,2.1c-17.3-0.2-33.8-0.8-49.7-1.8c-5.6-0.5-11.2-1.2-16.8-2.1
		c-5.6-0.9-11-3.3-16.1-7c-4.7-3.3-7.8-7.2-9.4-11.9c-1.6-4.7-2.1-9.3-1.4-14c0.7-4.7,2.8-8.8,6.3-12.3s8-5.7,13.6-6.7
		c12.6-2.3,24.9-3.1,36.8-2.5c11.9,0.7,24.1-0.3,36.8-3.1c0.5,0,1.1-1.8,1.8-5.3c0.7-3.5,1.2-7.4,1.4-11.5c0.2-4.2,0.5-8.4,0.7-12.6
		c0.2-4.2,0.4-7,0.4-8.4c0.5-6.5,1.9-14,4.2-22.4c2.3-8.4,7.5-13.8,15.4-16.1c8.4-1.9,14.9-1.6,19.6,0.7c4.7,2.3,8.2,6,10.5,10.9
		c2.3,4.9,3.9,10.5,4.6,16.8c0.7,6.3,1.3,12.3,1.8,17.8c0.5,4.2,1.2,8.5,2.1,13c0.9,4.4,1.9,8.5,2.8,12.3c0.5,0.9,4.3,1.3,11.5,1
		c7.2-0.2,13.2-0.6,17.9-1c7.5-0.5,14.8-1.6,22.1-3.5c7.2-1.9,14.1-3.1,20.6-3.8c6.5-0.7,12.3-0.1,17.2,1.8
		C317.3,410.7,321.1,414.7,323.9,420.7z M529.7,117.6c1.4,5.1,2,10.5,1.8,16.1c-0.2,5.6-0.3,11.2-0.3,16.8
		c-0.9,17.7-1.5,38.1-1.8,61.3c-0.2,23.1-0.6,47.9-1,74.5c0,25.2-0.5,49.8-1.4,73.9c-0.9,24-1.9,45.9-2.8,65.5
		c0,2.8-0.1,6.5-0.4,11.2c-0.2,4.7-0.9,9.6-2.1,14.7c-1.2,5.1-3,10-5.3,14.7c-2.4,4.7-5.7,8.4-9.9,11.2c-5.2,3.7-11.2,5.3-18.1,4.5
		c-6.8-0.7-12.2-3.8-15.9-9.4c-3.3-5.1-4.7-11-4.2-17.5c0.5-6.5,0.7-12.4,0.7-17.5c0-4.2,0-10.6,0-19.3c0-8.6,0.1-17.7,0.3-27.3
		c0.2-9.6,0.3-18.5,0.3-26.9c0-8.4,0-14.5,0-18.2c0-0.9,0-2.2,0-3.9c0-1.6-0.5-2.9-1.4-3.8c-0.9-0.9-4.3-1.5-10.2-1.8
		c-5.8-0.2-11.9-0.3-18.2-0.3s-12.1,0.3-17.5,1c-5.4,0.7-8.3,1.8-8.8,3.1c-1.4,2.3-2.1,5.6-2.1,9.8c0,4.7-0.1,10-0.3,16.1
		c-0.2,6.1-0.4,16.1-0.4,30.1c-0.5,11.7-0.8,21.5-1,29.4c-0.2,7.9-0.8,17.7-1.8,29.4c-0.5,5.6-1.8,11.7-3.8,18.2
		c-2.1,6.5-6.4,10.5-13,11.9c-10.7,2.3-18.9,0.9-24.5-4.2c-5.6-5.1-9.6-11.9-11.9-20.3c-2.3-8.4-3.6-17.3-3.8-26.6
		c-0.2-9.3-0.3-17.3-0.3-23.8c0-6.5,0-14.7,0-24.5c0-9.8-0.1-19.8-0.3-30.1c-0.2-10.3-0.3-20-0.3-29c0-9.1,0-16,0-20.7
		c-0.5-7.9-0.7-17.1-0.7-27.6s0-21.4,0-32.6c0-8.9-0.1-16.7-0.3-23.4c-0.2-6.8-0.6-13.4-1.1-20c-0.5-6.5-0.8-13.2-1-19.9
		c-0.2-6.8-0.3-14.6-0.3-23.5c0-8.4,0.2-18,0.7-28.7c0.5-10.7,4.2-19.1,11.2-25.2c3.7-2.8,8.4-4.8,14-6c5.6-1.2,9.8-1.3,12.6-0.4
		c6.1,1.4,10.5,4.4,13.3,9.1c2.8,4.7,4.7,9.9,5.6,15.8c0.9,5.8,1.5,12,1.8,18.6c0.2,6.5,0.6,12.4,1.1,17.5c0.9,17.7,1.8,36,2.4,54.9
		c0.7,18.9,1.5,37.2,2.5,55c0,2.3,0.5,5.6,1.4,9.8c0.9,4.2,3,6.3,6.3,6.3c6.1,0,11,0,14.7,0c3.7,0,7.2,0,10.5,0
		c3.3,0,6.4-0.1,9.4-0.4c3-0.2,6.7-0.4,10.8-0.4c4.7,0,7-4.2,7-12.6c0-1.4,0.1-5.6,0.4-12.6c0.3-7,0.6-15.4,1.1-25.2
		c0.5-9.8,1.2-20.3,1.9-31.5c0.8-11.2,1.4-21.7,1.9-31.5c0.5-9.8,1-18.2,1.5-25.2s0.8-11.4,0.8-13.3c0-5.6,1-11.1,3.1-16.5
		c2.1-5.4,6.2-9.7,12.3-12.9c2.8-1.9,6.1-2.9,9.8-3.2c3.7-0.2,7.3,0.4,10.8,1.8c3.5,1.4,6.7,3.4,9.5,6
		C527.6,110.8,529.3,113.9,529.7,117.6z"/>
</g>
<g id="XMLID_3_">
	<path id="XMLID_40_" class="st1" d="M99.5,409.4"/>
</g>
<g id="XMLID_8_">
	<path id="XMLID_17_" class="st1" d="M286.1,100.7"/>
</g>
<g id="XMLID_1_">
	<path id="XMLID_76_" d="M192.2,315.9c-0.5,0.2-0.8,0.1-1.1-0.1c-0.3-0.2-0.5-0.6-0.6-1s-0.3-0.9-0.3-1.5c0-0.5-0.1-1-0.1-1.4
		c-0.1-1-0.2-1.9-0.2-2.8c0-0.9,0-1.8,0-2.6c-0.1-1-0.1-2,0-3l0-5.2c0-0.6,0.1-1.2,0.1-1.9c0-0.6,0.1-1.3,0.4-1.9
		c0.2-0.6,0.5-0.9,1-1s0.9,0.1,1.4,0.5c0.3,0.4,0.6,1,0.8,1.9c0.2,0.8,0.3,1.7,0.4,2.6c0.1,0.9,0.1,1.8,0.1,2.8s0,1.7,0,2.3v0
		c0,1.3,0,2.7-0.1,4.1c-0.1,1.4,0,2.9,0.1,4.5c0.1,0.8,0,1.5-0.4,2.2C193.3,315.1,192.8,315.6,192.2,315.9z"/>
</g>
<circle id="XMLID_4_" class="st2" cx="191.3" cy="305.4" r="18.5"/>
<g id="XMLID_7_">
	<path id="XMLID_74_" d="M103.3,405.9c0.7,0.5,1,1,1,1.6c-0.1,0.3-0.3,0.6-0.6,0.9s-0.7,0.4-1.1,0.5c-0.8,0.1-1.6,0.1-2.3,0.2
		c-0.7,0.1-1.4,0.1-2.1,0.2c-1,0.1-2.1,0.2-3.1,0.3s-2.1,0.1-3.3,0.1c-0.7,0-1.3-0.1-1.9-0.3c-0.6-0.2-1-0.5-1.3-1.1
		c-0.2-0.5-0.2-0.9,0-1.2c0.2-0.4,0.5-0.8,0.9-1.4c0.1-0.1,0.3-0.4,0.5-0.8c0.2-0.4,0.5-0.8,0.9-1.3s0.7-1,1.1-1.6
		c0.4-0.6,0.8-1.2,1.2-1.7c2.1-2.9,3.1-5,2.9-6.4c-0.1-0.4-0.4-0.7-0.9-0.9c-0.5-0.2-1.2-0.3-2-0.3c-0.8,0-1.5,0.1-2.3,0.3
		c-0.7,0.2-1.5,0.3-2.3,0.3c-0.5-0.1-0.7-0.3-0.8-0.7c-0.1-0.4-0.1-0.8,0-1.1c0.1-0.4,0.3-0.7,0.6-0.8c0.3-0.2,0.6-0.4,0.9-0.6
		c0.7-0.3,1.5-0.5,2.5-0.6c1-0.1,1.9-0.1,2.9,0c1,0.1,1.9,0.3,2.7,0.6s1.5,0.7,2.1,1.2c0.3,0.3,0.5,0.7,0.6,1.2c0.1,0.5,0.1,1,0,1.6
		c-0.1,0.5-0.2,1.1-0.3,1.6s-0.3,0.9-0.4,1.2c-0.2,0.5-0.4,1-0.6,1.5c-0.2,0.5-0.5,1.2-0.9,1.9c-0.4,0.7-0.9,1.6-1.6,2.5
		c-0.6,1-1.4,2.2-2.4,3.5l6.2-0.3c0.6,0,1.1-0.1,1.7-0.1C102.4,405.6,102.9,405.7,103.3,405.9z"/>
</g>
<circle id="XMLID_5_" class="st2" cx="94.5" cy="399.6" r="18.5"/>
<path id="XMLID_13_" class="st3" d="M79.8,407.2"/>
<path id="XMLID_6_" class="st3" d="M312.9,93.7"/>
<g id="XMLID_18_">
	<g id="XMLID_57_">
		<line id="XMLID_60_" class="st3" x1="376.7" y1="117" x2="376.7" y2="449.9"/>
		<g id="XMLID_58_">
			<path id="XMLID_59_" d="M376.7,464.9c-2.6-7.1-7.1-15.9-11.9-21.4l11.9,4.3l11.9-4.3C383.8,449,379.3,457.8,376.7,464.9z"/>
		</g>
	</g>
</g>
<g id="XMLID_21_">
	<g id="XMLID_52_">
		<line id="XMLID_61_" class="st3" x1="191.3" y1="350.9" x2="191.3" y2="416.8"/>
		<g id="XMLID_53_">
			<path id="XMLID_54_" d="M191.3,431.9c-2.6-7.1-7.1-15.9-11.9-21.4l11.9,4.3l11.9-4.3C198.4,416,193.9,424.8,191.3,431.9z"/>
		</g>
	</g>
</g>
<g id="XMLID_10_">
	<g id="XMLID_48_">
		<line id="XMLID_55_" class="st3" x1="384.7" y1="310" x2="467.8" y2="310"/>
		<g id="XMLID_49_">
			<path id="XMLID_50_" d="M482.9,310c-7.1,2.6-15.9,7.1-21.4,11.9l4.3-11.9l-4.3-11.9C467,302.8,475.8,307.3,482.9,310z"/>
		</g>
	</g>
</g>
<g id="XMLID_15_">
	<path id="XMLID_20_" class="st1" d="M381.7,78.3"/>
</g>
<g id="XMLID_14_">
	<path id="XMLID_67_" d="M379.5,69c0.6,0.2,1.2,0.5,1.7,0.9c0.5,0.3,0.9,0.8,1.3,1.4c0.3,0.4,0.5,1,0.5,1.8c0,0.7-0.1,1.5-0.5,2.2
		c-0.4,0.9-0.8,1.6-1.4,2.3c-0.5,0.6-1,1.1-1.2,1.4c-0.2,0.1-0.5,0.4-0.9,0.8c-0.5,0.4-1,0.8-1.6,1.2c-0.6,0.4-1.3,0.8-2,1
		c-0.7,0.3-1.4,0.5-2,0.5c-0.6,0-1.1-0.3-1.3-0.9c-0.2-0.4-0.1-0.8,0.3-1.3c0.4-0.5,0.7-0.9,1-1.1c0.4-0.2,0.9-0.6,1.6-1.1
		c0.7-0.5,1.3-1,1.9-1.5c0.6-0.5,1-1.1,1.4-1.7c0.4-0.6,0.4-1.2,0.1-1.8c-0.3-0.5-0.8-0.8-1.4-1c-0.7-0.2-1.3-0.3-1.8-0.4
		c-0.2,0-0.5-0.1-0.8-0.1c-0.3-0.1-0.7-0.1-1-0.3c-0.3-0.1-0.6-0.3-0.9-0.4c-0.3-0.2-0.4-0.4-0.5-0.6c-0.2-0.4-0.1-1.1,0.4-1.9
		c0.5-0.8,1-1.6,1.5-2.4c0.5-0.7,0.9-1.5,1.3-2.4c0.3-0.6,0.5-1.1,0.6-1.5c0.1-0.4,0.2-0.9,0.1-1.6c-0.1-0.6-0.4-0.8-0.9-0.8
		c-0.3,0-0.6,0-0.9,0.1c-0.3,0.1-0.6,0.2-0.9,0.3c-0.8,0.3-1.4,0.5-1.9,0.7c-0.4,0.2-0.9,0.3-1.5,0.3c-0.4,0-0.7-0.2-1-0.5
		c-0.2-0.3-0.3-0.7-0.3-1c0.1-0.3,0.2-0.6,0.4-0.9c0.2-0.2,0.6-0.5,1.2-0.8c0.9-0.4,2-0.8,3.1-1.1c1.1-0.4,2.3-0.5,3.5-0.6
		c0.4,0,0.8,0.1,1.3,0.3c0.5,0.2,0.9,0.5,1.1,0.9c0.3,0.5,0.5,1.2,0.5,1.9c0,0.7,0,1.5-0.2,2.3c-0.2,0.8-0.4,1.6-0.7,2.4
		c-0.3,0.8-0.6,1.5-0.9,2.2c-0.2,0.4-0.4,0.8-0.7,1.1c-0.3,0.3-0.3,0.6-0.3,0.9c0,0.3,0.3,0.5,0.9,0.5C378.5,68.6,379,68.8,379.5,69
		z"/>
</g>
<circle id="XMLID_12_" class="st2" cx="376.7" cy="68.5" r="18.5"/>
<path id="XMLID_11_" class="st3" d="M361.9,76.1"/>
<g id="XMLID_22_">
	<g id="XMLID_63_">
		<line id="XMLID_66_" class="st3" x1="100.9" y1="445.8" x2="297.1" y2="440.2"/>
		<g id="XMLID_64_">
			<path id="XMLID_65_" d="M312.2,439.8c-7,2.8-15.7,7.6-21,12.5l4-12l-4.6-11.8C296.1,433.1,305,437.4,312.2,439.8z"/>
		</g>
	</g>
</g>
<g id="XMLID_28_">
	<path id="XMLID_35_" class="st1" d="M446.1,270.5"/>
</g>
<g id="XMLID_27_">
	<path id="XMLID_45_" d="M451.3,262c0.3,0,0.6,0.1,1,0.3c0.4,0.1,0.6,0.4,0.6,0.8c0,0.5-0.1,0.8-0.3,1.1c-0.2,0.3-0.6,0.5-1.1,0.8
		c-0.9,0.2-1.5,0.3-1.9,0.4c-0.4,0.1-0.7,0.1-1,0.2s-0.4,0.1-0.6,0.1c-0.2,0-0.4,0-0.8,0.1c0,0.3,0,0.7,0,1.4c0,0.7,0,1.3,0,1.9
		c0,0.5,0,0.9,0,1.4c0,0.5,0,0.9-0.1,1.3c-0.1,0.4-0.2,0.7-0.5,1s-0.6,0.4-1,0.4c-0.6,0-1-0.2-1.3-0.5s-0.5-0.8-0.5-1.5
		c-0.1-0.6-0.2-1.4-0.2-2.4c-0.1-1-0.1-1.9-0.1-2.7c0,0-0.2,0-0.7,0c-0.5,0-1.1,0.1-1.8,0.1s-1.6,0-2.5,0c-0.9,0-1.7-0.1-2.5-0.2
		c-0.6-0.1-1.1-0.4-1.4-0.8c-0.7-1.1-0.8-3.1-0.3-6c0.3-1.4,0.6-2.6,0.9-3.7c0.3-1.1,0.6-1.8,0.7-2c0-0.1,0.1-0.3,0.3-0.6
		c0.2-0.3,0.4-0.4,0.7-0.4c0.7,0,1.2,0.2,1.5,0.6c0.3,0.4,0.4,0.9,0.4,1.5c0,0.6-0.1,1.2-0.2,1.9c-0.1,0.7-0.3,1.3-0.3,1.9
		c-0.1,1.1-0.2,2-0.2,2.7c0,0.7,0,1.2,0.1,1.5c0.1,0.2,0.2,0.3,0.3,0.3c0.2,0.1,0.6,0.1,1.2,0.1c0.6,0,1.2,0,1.8-0.1
		c0.6,0,1.1-0.1,1.5-0.1c0.5-0.1,0.7-0.1,0.7-0.2v-2.1c0-0.9,0-1.8,0-2.7c0-0.9,0-1.8,0-2.7c0-0.8,0-1.5,0.1-2.2
		c0-0.7,0.2-1.3,0.4-2c0.1-0.3,0.4-0.5,0.8-0.6c0.4,0,0.7,0.1,0.9,0.4c0.3,0.4,0.5,0.9,0.7,1.5c0.2,0.6,0.3,1.3,0.4,2
		c0.1,0.7,0.2,1.4,0.2,2.2c0,0.8,0,1.5,0,2.1v2.3c0,0.6,0,1.2,0,1.9c0.1,0,0.3,0,0.6-0.1c0.4,0,0.8-0.1,1.2-0.1
		c0.5,0,0.9-0.1,1.3-0.1C450.8,261.9,451.1,261.9,451.3,262z"/>
</g>
<circle id="XMLID_26_" class="st2" cx="441.1" cy="260.6" r="18.5"/>
<path id="XMLID_23_" class="st3" d="M426.3,268.3"/>
<g id="XMLID_29_">
	<g id="XMLID_69_">
		<line id="XMLID_72_" class="st3" x1="494.9" y1="121.2" x2="494.9" y2="454"/>
		<g id="XMLID_70_">
			<path id="XMLID_71_" d="M494.9,469.1c-2.6-7.1-7.1-15.9-11.9-21.4l11.9,4.3l11.9-4.3C502,453.2,497.5,462,494.9,469.1z"/>
		</g>
	</g>
</g>
<g id="XMLID_31_">
	<path id="XMLID_41_" class="st1" d="M506.4,86"/>
</g>
<g id="XMLID_30_">
	<path id="XMLID_43_" d="M502.4,74.8c1,0,2,0.2,3,0.6c1,0.4,1.7,1.1,2.1,2.1c0.5,1,0.4,2.3-0.1,3.8c-0.3,0.7-0.5,1.3-0.8,2
		c-0.3,0.6-0.6,1.2-0.9,1.8c-0.5,0.7-1,1.4-1.6,2c-0.6,0.6-1.3,1-2.1,1.1c-0.3,0-0.6,0-0.9-0.1c-0.3-0.1-0.5-0.3-0.7-0.6
		c-0.3-0.6-0.3-1.2,0-1.7c0.1-0.2,0.2-0.3,0.3-0.4c0.1-0.1,0.2-0.3,0.3-0.4c0.3-0.2,0.6-0.7,1.1-1.4c0.5-0.7,0.8-1.5,1.1-2.2
		c0.3-0.8,0.4-1.4,0.3-2c-0.1-0.6-0.5-0.9-1.4-0.9c-0.8,0-1.5,0.1-2.1,0.2c-0.7,0.1-1.4,0.1-2.1,0.1c-0.3,0-0.6-0.1-1-0.3
		c-0.3-0.2-0.5-0.4-0.7-0.6c-0.2-0.5-0.4-1.1-0.5-2s-0.1-1.8-0.1-2.7c0-0.9,0-1.9,0.1-2.8c0-0.9,0.1-1.6,0.1-2.1l-0.3-0.4
		c-0.2-0.4-0.2-0.6-0.2-0.8c0-0.1,0.1-0.3,0.2-0.6c0.1-0.3,0.3-0.5,0.6-0.7c0.3-0.1,0.6-0.3,0.9-0.3c0.3-0.1,0.7-0.1,1-0.1
		c0.3,0,0.6,0,0.9,0c1.4,0,2.9,0,4.3,0.1c0.3,0,0.6,0,1,0.1c0.4,0.1,0.8,0.1,1.2,0.2c0.4,0.1,0.8,0.2,1.1,0.3
		c0.3,0.1,0.6,0.3,0.8,0.5c0.1,0.2,0.2,0.4,0.3,0.4c0,0.1,0.1,0.2,0,0.4c-0.1,0.4-0.3,0.7-0.7,1c-0.4,0.3-0.9,0.4-1.4,0.4h-5
		c-0.5,0-0.8,0.2-0.9,0.5c-0.1,0.3-0.1,0.6-0.1,0.8c0,0.4,0,0.9,0,1.3c0,0.5,0,0.9,0,1.4c0,0.3,0,0.6,0,1.1c0,0.4,0.1,0.7,0.2,0.9
		c0.2,0.2,0.5,0.3,0.8,0.3c0.2,0,0.5,0,0.7,0C501.4,74.8,501.8,74.8,502.4,74.8z"/>
</g>
<circle id="XMLID_25_" class="st2" cx="501.4" cy="76.1" r="18.5"/>
<path id="XMLID_24_" class="st3" d="M486.7,83.7"/>
<g id="XMLID_42_">
</g>
<g id="XMLID_81_">
</g>
<g id="XMLID_82_">
</g>
<g id="XMLID_83_">
</g>
<g id="XMLID_84_">
</g>
<g id="XMLID_85_">
</g>
<g id="XMLID_86_">
</g>
</svg>
