<?xml version="1.0" encoding="utf-8"?>
<!-- Generator: Adobe Illustrator 19.0.0, SVG Export Plug-In . SVG Version: 6.00 Build 0)  -->
<svg version="1.1" id="레이어_1" xmlns="http://www.w3.org/2000/svg" xmlns:xlink="http://www.w3.org/1999/xlink" x="0px"
	 y="0px" viewBox="0 0 600 580" style="enable-background:new 0 0 600 580;" xml:space="preserve">
<style type="text/css">
	.st0{opacity:0.5;}
	.st1{fill:none;}
	.st2{fill:none;stroke:#000000;}
	.st3{fill:none;stroke:#000000;stroke-width:5;stroke-miterlimit:10;}
</style>
<g id="XMLID_9_" class="st0">
	<path id="XMLID_30_" d="M376.3,447.3c-3.5,5.6-9,10-16.4,13.3c-14.9,7-32.1,12.5-51.5,16.5c-19.4,4-39.3,7-59.8,9.1
		c-20.5,2.1-41,3.3-61.3,3.5c-20.3,0.2-38.4-0.1-54.3-1c-5.6-0.5-11.6-1.2-17.9-2.1c-6.3-0.9-12-3.3-17.1-7
		c-4.7-3.3-7.8-7.3-9.5-12.3c-1.6-4.9-2.1-9.8-1.4-14.7c0.7-4.9,2.8-9.2,6.3-13c3.5-3.7,8.1-6.1,13.6-7c12.6-2.3,25.2-2.8,37.8-1.4
		c12.6,1.4,25.2,0.7,37.8-2.1c0.5,0,1.1-1.8,1.8-5.3c0.7-3.5,1.2-7.4,1.4-11.5c0.2-4.2,0.5-8.4,0.7-12.6c0.2-4.2,0.4-7,0.4-8.4
		c0.5-6.5,1.9-14,4.2-22.4c2.3-8.4,7.5-13.8,15.4-16.1c8.4-1.9,14.9-1.6,19.6,0.7c4.7,2.3,8.2,6,10.5,10.9
		c2.3,4.9,3.9,10.5,4.6,16.8c0.7,6.3,1.3,12.3,1.8,17.8c0.5,4.2,1.2,8.2,2.1,11.9c0.9,3.7,2.1,7.5,3.5,11.2c0.5,0.9,2.6,1.4,6.3,1.4
		c3.7,0,7.9-0.1,12.6-0.3c4.7-0.2,9.1-0.7,13.3-1.4c4.2-0.7,7-1.3,8.4-1.8c5.6-1.4,12.7-3,21.4-4.9c8.6-1.9,17.3-3.2,25.9-3.9
		c8.6-0.7,16.7,0,24.2,2.1c7.5,2.1,12.6,6.4,15.4,13C379.7,434.7,379.8,441.7,376.3,447.3z M419.7,222.6c1.6,23.8,3.2,48.3,4.6,73.5
		c1.4,25.2,2.1,51.7,2.1,79.5c0,27.8-1,58.2-2.8,91.3c-0.5,5.1-0.5,10.4,0,15.8c0.5,5.4,1.8,10.4,3.9,15c2.1,4.7,5.2,8.3,9.2,10.9
		c4,2.6,9.6,3.6,16.6,3.1c7.1-0.5,12.7-5,17-13.6c4.2-8.6,7.5-18.8,9.9-30.5c2.4-11.7,3.9-23.6,4.6-35.7c0.7-12.1,1.1-21.9,1.1-29.4
		c0-1.4,0.1-10.6,0.3-27.6c0.2-17,0.1-37.8-0.4-62.3c-0.5-24.5-1.7-50.5-3.5-78.1c-1.9-27.5-5-52.5-9.2-74.9s-9.9-40-17-52.9
		c-7.1-12.8-16-16.7-26.9-11.5c-4.7,2.3-8,5.6-9.9,9.8c-1.9,4.2-3.2,8.9-3.8,14c-0.7,5.1-0.9,10.4-0.7,15.8
		c0.2,5.4,0.3,10.1,0.3,14.4C416.6,174.3,418.1,198.8,419.7,222.6z"/>
</g>
<g id="XMLID_3_">
	<path id="XMLID_40_" class="st1" d="M121,417.6"/>
</g>
<g id="XMLID_8_">
	<path id="XMLID_17_" class="st1" d="M263.7,95"/>
</g>
<g id="XMLID_1_">
	<path id="XMLID_28_" d="M212.3,336.6c-0.5,0.2-0.8,0.1-1.1-0.1c-0.3-0.2-0.5-0.6-0.6-1c-0.1-0.5-0.3-0.9-0.3-1.5
		c0-0.5-0.1-1-0.1-1.4c-0.1-1-0.2-1.9-0.2-2.8c0-0.9,0-1.8,0-2.7c-0.1-1-0.1-2,0-3l0-5.1c0-0.6,0.1-1.2,0.1-1.9
		c0-0.7,0.1-1.3,0.4-1.9c0.2-0.6,0.5-0.9,1-1c0.5-0.1,0.9,0.1,1.4,0.5c0.3,0.4,0.6,1,0.8,1.8c0.2,0.8,0.3,1.7,0.4,2.6
		c0.1,0.9,0.1,1.8,0.1,2.8c0,0.9,0,1.6,0,2.3v0c0,1.3,0,2.7-0.1,4.1c-0.1,1.4,0,2.9,0.1,4.5c0.1,0.8,0,1.5-0.4,2.2
		C213.5,335.9,213,336.3,212.3,336.6z"/>
</g>
<circle id="XMLID_4_" class="st2" cx="211.4" cy="326.1" r="18.5"/>
<g id="XMLID_7_">
	<path id="XMLID_26_" d="M124.8,414.1c0.7,0.5,1,1,1,1.6c-0.1,0.3-0.3,0.6-0.6,0.9s-0.7,0.4-1.1,0.5c-0.8,0.1-1.6,0.1-2.3,0.2
		c-0.7,0.1-1.4,0.1-2.1,0.2c-1,0.1-2.1,0.2-3.1,0.3s-2.1,0.1-3.3,0.1c-0.7,0-1.3-0.1-1.9-0.3c-0.6-0.2-1-0.5-1.3-1.1
		c-0.2-0.5-0.2-0.9,0-1.2c0.2-0.4,0.5-0.8,0.9-1.4c0.1-0.1,0.3-0.4,0.5-0.8c0.2-0.4,0.5-0.8,0.9-1.3s0.7-1,1.1-1.6
		c0.4-0.6,0.8-1.2,1.2-1.7c2.1-2.9,3.1-5,2.9-6.4c-0.1-0.4-0.4-0.7-0.9-0.9c-0.5-0.2-1.2-0.3-2-0.3c-0.8,0-1.5,0.1-2.3,0.3
		c-0.7,0.2-1.5,0.3-2.3,0.3c-0.5-0.1-0.7-0.3-0.8-0.7c-0.1-0.4-0.1-0.8,0-1.1c0.1-0.4,0.3-0.7,0.6-0.8c0.3-0.2,0.6-0.4,0.9-0.6
		c0.7-0.3,1.5-0.5,2.5-0.6c1-0.1,1.9-0.1,2.9,0c1,0.1,1.9,0.3,2.7,0.6s1.5,0.7,2.1,1.2c0.3,0.3,0.5,0.7,0.6,1.2c0.1,0.5,0.1,1,0,1.6
		c-0.1,0.5-0.2,1.1-0.3,1.6s-0.3,0.9-0.4,1.2c-0.2,0.5-0.4,1-0.6,1.5c-0.2,0.5-0.5,1.2-0.9,1.9c-0.4,0.7-0.9,1.6-1.6,2.5
		c-0.6,1-1.4,2.2-2.4,3.5l6.2-0.3c0.6,0,1.1-0.1,1.7-0.1C123.8,413.8,124.3,413.9,124.8,414.1z"/>
</g>
<circle id="XMLID_5_" class="st2" cx="115.9" cy="407.7" r="18.5"/>
<path id="XMLID_13_" class="st3" d="M101.2,415.4"/>
<path id="XMLID_6_" class="st3" d="M290.5,88"/>
<g id="XMLID_18_">
	<g id="XMLID_45_">
		<line id="XMLID_56_" class="st3" x1="446.8" y1="125.9" x2="446.8" y2="458.8"/>
		<g id="XMLID_46_">
			<path id="XMLID_53_" d="M446.8,473.9c-2.6-7.1-7.1-15.9-11.9-21.4l11.9,4.3l11.9-4.3C453.9,457.9,449.4,466.8,446.8,473.9z"/>
		</g>
	</g>
</g>
<g id="XMLID_21_">
	<g id="XMLID_75_">
		<line id="XMLID_78_" class="st3" x1="217.6" y1="367.6" x2="217.6" y2="433.6"/>
		<g id="XMLID_76_">
			<path id="XMLID_77_" d="M217.6,448.6c-2.6-7.1-7.1-15.9-11.9-21.4l11.9,4.3l11.9-4.3C224.8,432.7,220.3,441.5,217.6,448.6z"/>
		</g>
	</g>
</g>
<g id="XMLID_42_">
	<path id="XMLID_52_" class="st1" d="M460.5,304.3"/>
</g>
<g id="XMLID_33_">
	<path id="XMLID_49_" class="st1" d="M362.3,304.3"/>
</g>
<g id="XMLID_15_">
	<path id="XMLID_20_" class="st1" d="M451.8,70.9"/>
</g>
<g id="XMLID_14_">
	<path id="XMLID_24_" d="M449.6,61.5c0.6,0.2,1.2,0.5,1.7,0.9c0.5,0.3,0.9,0.8,1.3,1.4c0.3,0.4,0.5,1,0.5,1.8c0,0.7-0.1,1.5-0.5,2.2
		c-0.4,0.9-0.8,1.6-1.4,2.3c-0.5,0.6-1,1.1-1.2,1.4c-0.2,0.1-0.5,0.4-0.9,0.8c-0.5,0.4-1,0.8-1.6,1.2c-0.6,0.4-1.3,0.8-2,1
		c-0.7,0.3-1.4,0.5-2,0.5c-0.6,0-1.1-0.3-1.3-0.9c-0.2-0.4-0.1-0.8,0.3-1.3c0.4-0.5,0.7-0.9,1-1.1c0.4-0.2,0.9-0.6,1.6-1.1
		c0.7-0.5,1.3-1,1.9-1.5c0.6-0.5,1-1.1,1.4-1.7c0.4-0.6,0.4-1.2,0.1-1.8c-0.3-0.5-0.8-0.8-1.4-1c-0.7-0.2-1.3-0.3-1.8-0.4
		c-0.2,0-0.5-0.1-0.8-0.1c-0.3-0.1-0.7-0.1-1-0.3c-0.3-0.1-0.6-0.3-0.9-0.4c-0.3-0.2-0.4-0.4-0.5-0.6c-0.2-0.4-0.1-1.1,0.4-1.9
		c0.5-0.8,1-1.6,1.5-2.4c0.5-0.7,0.9-1.5,1.3-2.4c0.3-0.6,0.5-1.1,0.6-1.5c0.1-0.4,0.2-0.9,0.1-1.6c-0.1-0.6-0.4-0.8-0.9-0.8
		c-0.3,0-0.6,0-0.9,0.1c-0.3,0.1-0.6,0.2-0.9,0.3c-0.8,0.3-1.4,0.5-1.9,0.7c-0.4,0.2-0.9,0.3-1.5,0.3c-0.4,0-0.7-0.2-1-0.5
		c-0.2-0.3-0.3-0.7-0.3-1c0.1-0.3,0.2-0.6,0.4-0.9c0.2-0.2,0.6-0.5,1.2-0.8c0.9-0.4,2-0.8,3.1-1.1c1.1-0.4,2.3-0.5,3.5-0.6
		c0.4,0,0.8,0.1,1.3,0.3c0.5,0.2,0.9,0.5,1.1,0.9c0.3,0.5,0.5,1.2,0.5,1.9c0,0.7,0,1.5-0.2,2.3c-0.2,0.8-0.4,1.6-0.7,2.4
		c-0.3,0.8-0.6,1.5-0.9,2.2c-0.2,0.4-0.4,0.8-0.7,1.1c-0.3,0.3-0.3,0.6-0.3,0.9c0,0.3,0.3,0.5,0.9,0.5
		C448.6,61.2,449.1,61.3,449.6,61.5z"/>
</g>
<circle id="XMLID_12_" class="st2" cx="446.8" cy="61.1" r="18.5"/>
<path id="XMLID_11_" class="st3" d="M432.1,68.7"/>
<g id="XMLID_22_">
	<g id="XMLID_65_">
		<line id="XMLID_73_" class="st3" x1="109.1" y1="456.5" x2="305.3" y2="451"/>
		<g id="XMLID_66_">
			<path id="XMLID_67_" d="M320.4,450.5c-7,2.8-15.7,7.6-21,12.5l4-12l-4.6-11.8C304.3,443.9,313.2,448.1,320.4,450.5z"/>
		</g>
	</g>
</g>
<g id="XMLID_43_">
	<path id="XMLID_68_" class="st1" d="M472.5,463.4"/>
</g>
<g id="XMLID_10_">
	<path id="XMLID_61_" class="st1" d="M472.5,115.5"/>
</g>
<g id="XMLID_23_">
</g>
<g id="XMLID_34_">
</g>
<g id="XMLID_35_">
</g>
<g id="XMLID_41_">
</g>
<g id="XMLID_57_">
</g>
<g id="XMLID_58_">
</g>
<g id="XMLID_59_">
</g>
</svg>
