<?xml version="1.0" encoding="utf-8"?>
<!-- Generator: Adobe Illustrator 19.0.0, SVG Export Plug-In . SVG Version: 6.00 Build 0)  -->
<svg version="1.1" id="레이어_1" xmlns="http://www.w3.org/2000/svg" xmlns:xlink="http://www.w3.org/1999/xlink" x="0px"
	 y="0px" viewBox="0 0 600 580" style="enable-background:new 0 0 600 580;" xml:space="preserve">
<style type="text/css">
	.st0{opacity:0.5;}
	.st1{fill:none;}
	.st2{fill:none;stroke:#000000;}
	.st3{fill:none;stroke:#000000;stroke-width:5;stroke-miterlimit:10;}
</style>
<g id="XMLID_9_" class="st0">
	<path id="XMLID_13_" d="M440.5,297.7c4.2,0,9-0.1,14.3-0.3c5.4-0.2,10.6,0,15.8,0.7c5.1,0.7,9.8,2,14,3.8c4.2,1.9,7.5,5.1,9.8,9.8
		c5.1,10.7,1.6,19.6-10.5,26.6c-12.1,7-28.8,12.4-50,16.1c-21.2,3.7-45,6.4-71.4,8c-26.4,1.6-51.2,2.7-74.6,3.2
		c-23.3,0.5-43.2,0.5-59.5,0c-16.3-0.5-25.2-0.7-26.6-0.7c-7.5,0-16.5-0.2-27-0.7c-10.5-0.5-20.4-2.1-29.8-4.9
		c-9.3-2.8-17.5-7-24.5-12.6c-7-5.6-10.7-13.5-11.2-23.8c-0.5-7,0.2-12.1,2.1-15.4c1.9-3.3,4.5-5.6,8-7c3.5-1.4,7.5-2,11.9-1.8
		c4.4,0.2,9.2,0.6,14.4,1c25.7,2.8,50.8,4.5,75.3,5.3s48.9,0.7,73.1,0c24.3-0.7,48.4-1.8,72.4-3.2
		C390.7,300.5,415.3,299.1,440.5,297.7z"/>
</g>
<g id="XMLID_3_">
	<path id="XMLID_25_" class="st1" d="M479.3,222.1"/>
</g>
<g id="XMLID_8_">
	<path id="XMLID_17_" class="st1" d="M353.9,134.7"/>
</g>
<g id="XMLID_1_">
	<path id="XMLID_7_" d="M300.9,282c-0.5,0.2-0.8,0.1-1.1-0.1c-0.3-0.2-0.5-0.6-0.6-1c-0.1-0.5-0.3-0.9-0.3-1.5c0-0.5-0.1-1-0.1-1.4
		c-0.1-1-0.2-1.9-0.2-2.8c0-0.9,0-1.8,0-2.6c-0.1-1-0.1-2,0-3l0-5.1c0-0.6,0.1-1.2,0.1-1.9c0-0.6,0.1-1.3,0.4-1.9
		c0.2-0.6,0.5-0.9,1-1c0.5-0.1,0.9,0.1,1.3,0.5c0.3,0.4,0.6,1,0.8,1.9c0.2,0.8,0.3,1.7,0.4,2.6c0.1,0.9,0.1,1.8,0.1,2.8
		c0,0.9,0,1.6,0,2.3v0c0,1.3,0,2.7,0,4.1c-0.1,1.4,0,2.9,0.1,4.5c0.1,0.8,0,1.5-0.3,2.2C302.1,281.2,301.6,281.7,300.9,282z"/>
</g>
<circle id="XMLID_4_" class="st2" cx="300" cy="271.5" r="18.5"/>
<path id="XMLID_6_" class="st3" d="M380.7,127.7"/>
<g id="XMLID_11_">
	<path id="XMLID_28_" class="st1" d="M298.4,467.7"/>
</g>
<g id="XMLID_10_">
	<path id="XMLID_23_" class="st1" d="M298.4,119.8"/>
</g>
<g id="XMLID_21_">
	<g id="XMLID_41_">
		<line id="XMLID_44_" class="st3" x1="138.9" y1="328.4" x2="439.4" y2="328.4"/>
		<g id="XMLID_42_">
			<path id="XMLID_43_" d="M454.4,328.4c-7.1,2.6-15.9,7.1-21.4,11.9l4.3-11.9l-4.3-11.9C438.5,321.3,447.3,325.8,454.4,328.4z"/>
		</g>
	</g>
</g>
<g id="XMLID_5_">
</g>
<g id="XMLID_15_">
</g>
<g id="XMLID_18_">
</g>
<g id="XMLID_19_">
</g>
<g id="XMLID_29_">
</g>
<g id="XMLID_30_">
</g>
<g id="XMLID_31_">
</g>
</svg>
