<?xml version="1.0" encoding="utf-8"?>
<!-- Generator: Adobe Illustrator 19.0.0, SVG Export Plug-In . SVG Version: 6.00 Build 0)  -->
<svg version="1.1" id="레이어_1" xmlns="http://www.w3.org/2000/svg" xmlns:xlink="http://www.w3.org/1999/xlink" x="0px"
	 y="0px" viewBox="0 0 600 580" style="enable-background:new 0 0 600 580;" xml:space="preserve">
<style type="text/css">
	.st0{opacity:0.5;}
	.st1{fill:none;}
	.st2{fill:none;stroke:#000000;}
	.st3{fill:none;stroke:#000000;stroke-width:5;stroke-miterlimit:10;}
</style>
<g id="XMLID_9_" class="st0">
	<path id="XMLID_32_" d="M381.4,311.3c3.7,0.5,7.6,1.3,11.5,2.5c4,1.2,7.4,3.4,10.2,6.7c4.7,4.7,6.7,10,6,16.1
		c-0.7,6.1-3.6,11-8.8,14.7c-2.8,2.3-5.7,4.2-8.8,5.6c-3,1.4-7,2.5-11.9,3.2c-4.9,0.7-11.3,1-19.3,1c-7.9,0-18.2,0-30.8,0
		c-1.4,13.5-2.8,26.4-4.2,38.5c-0.9,10.3-1.9,20.3-2.8,30.1c-0.9,9.8-1.6,16.6-2.1,20.3c-0.9,7.9-2.8,15.5-5.6,22.8
		c-2.8,7.2-7,13.6-12.6,19.3c-6.1,6.1-12.3,8.9-18.6,8.4c-6.3-0.5-11.8-4.7-16.4-12.6c-2.3-3.7-3.6-7.4-3.9-10.9
		c-0.2-3.5-0.6-7.3-1.1-11.5c-0.5-10.3-0.2-19.3,0.7-27c0.9-7.7,1.4-16.7,1.4-26.9c0.9-26.6,1.3-55.4,1.1-86.5
		c-0.2-31-0.8-64.8-1.8-101.1c-0.5-12.1-1.1-25.1-1.8-38.9c-0.7-13.8-1.1-27-1.1-39.5c0-6.5-0.1-13.5-0.4-21
		c-0.2-7.5,0.8-14.5,3.2-21c1.9-5.6,5.7-10.6,11.5-15.1c5.8-4.4,12-5.3,18.5-2.4c5.1,2.3,9.5,6.3,13,11.9s6.4,11.7,8.8,18.2
		c2.3,6.5,4,13.3,4.9,20.3c0.9,7,1.4,13.3,1.4,18.9c0,1.9,0.1,6.9,0.4,15c0.2,8.2,0.7,17.9,1.4,29.1c0.7,11.2,1.3,23.2,1.8,36
		c0.5,12.8,1,24.5,1.8,35s1.3,19.3,1.8,26.2c0.5,7,0.9,10.5,1.4,10.5c7,0.9,14.3,1.5,22,1.8C360,309.1,369.7,309.9,381.4,311.3z"/>
</g>
<g id="XMLID_14_">
	<path id="XMLID_28_" class="st1" d="M559.4,286.4"/>
</g>
<g id="XMLID_3_">
	<path id="XMLID_25_" class="st1" d="M467.8,221"/>
</g>
<g id="XMLID_10_">
	<path id="XMLID_20_" class="st1" d="M541,286.4"/>
</g>
<g id="XMLID_8_">
	<path id="XMLID_17_" class="st1" d="M342.4,133.6"/>
</g>
<g id="XMLID_1_">
	<path id="XMLID_30_" d="M287.8,65.9c-0.5,0.2-0.8,0.1-1.1-0.1c-0.3-0.2-0.5-0.6-0.6-1c-0.1-0.5-0.3-0.9-0.3-1.5
		c0-0.5-0.1-1-0.1-1.4c-0.1-1-0.2-1.9-0.2-2.8c0-0.9,0-1.8,0-2.6c-0.1-1-0.1-2,0-3l0-5.1c0-0.6,0.1-1.2,0.1-1.9
		c0-0.6,0.1-1.3,0.4-1.9c0.2-0.6,0.5-0.9,1-1c0.5-0.1,0.9,0.1,1.4,0.5c0.3,0.4,0.6,1,0.8,1.9c0.2,0.8,0.3,1.7,0.4,2.6
		c0.1,0.9,0.1,1.8,0.1,2.8c0,0.9,0,1.6,0,2.3v0c0,1.3,0,2.7-0.1,4.1c-0.1,1.4,0,2.9,0.1,4.5c0.1,0.8,0,1.5-0.4,2.2
		C288.9,65.1,288.5,65.6,287.8,65.9z"/>
</g>
<circle id="XMLID_4_" class="st2" cx="286.9" cy="55.4" r="18.5"/>
<g id="XMLID_7_">
	<path id="XMLID_22_" d="M383,285.1c0.7,0.5,1,1,1,1.6c-0.1,0.3-0.3,0.6-0.6,0.9c-0.3,0.3-0.7,0.4-1.1,0.5c-0.8,0.1-1.6,0.1-2.3,0.2
		c-0.7,0.1-1.4,0.1-2.1,0.2c-1,0.1-2,0.2-3,0.3c-1,0.1-2.1,0.1-3.3,0.1c-0.7,0-1.3-0.1-1.9-0.3c-0.6-0.2-1-0.5-1.3-1.1
		c-0.2-0.5-0.2-0.9,0-1.2c0.2-0.4,0.5-0.8,0.9-1.4c0.1-0.1,0.3-0.4,0.5-0.8c0.2-0.4,0.5-0.8,0.9-1.3c0.3-0.5,0.7-1,1.1-1.6
		c0.4-0.6,0.8-1.2,1.2-1.7c2.1-2.9,3.1-5,2.9-6.4c-0.1-0.4-0.4-0.7-0.9-0.9c-0.5-0.2-1.2-0.3-2-0.3s-1.5,0.1-2.3,0.3
		c-0.7,0.2-1.5,0.3-2.3,0.3c-0.5-0.1-0.7-0.3-0.8-0.7c-0.1-0.4-0.1-0.8,0-1.1c0.1-0.4,0.3-0.6,0.6-0.8c0.3-0.2,0.6-0.4,0.9-0.6
		c0.7-0.3,1.5-0.5,2.5-0.6c1-0.1,1.9-0.1,2.9,0c1,0.1,1.8,0.3,2.7,0.6c0.8,0.3,1.5,0.7,2.1,1.2c0.3,0.3,0.5,0.7,0.6,1.2
		c0.1,0.5,0.1,1,0,1.6c-0.1,0.5-0.2,1.1-0.3,1.6c-0.2,0.5-0.3,0.9-0.4,1.2c-0.2,0.5-0.4,1-0.6,1.5c-0.2,0.5-0.5,1.2-0.9,1.9
		c-0.4,0.7-0.9,1.6-1.6,2.5c-0.6,1-1.4,2.2-2.4,3.6l6.2-0.3c0.6,0,1.1-0.1,1.7-0.1C382,284.8,382.5,284.9,383,285.1z"/>
</g>
<circle id="XMLID_5_" class="st2" cx="374.2" cy="278.8" r="18.5"/>
<path id="XMLID_13_" class="st3" d="M359.4,286.4"/>
<path id="XMLID_15_" class="st3" d="M499.9,121.8"/>
<path id="XMLID_6_" class="st3" d="M369.2,126.6"/>
<path id="XMLID_11_" class="st3" d="M519.9,112.8"/>
<g id="XMLID_18_">
	<g id="XMLID_49_">
		<line id="XMLID_52_" class="st3" x1="286.9" y1="118.7" x2="286.9" y2="451.6"/>
		<g id="XMLID_50_">
			<path id="XMLID_51_" d="M286.9,466.6c-2.6-7.1-7.1-15.9-11.9-21.4l11.9,4.3l11.9-4.3C294,450.7,289.5,459.5,286.9,466.6z"/>
		</g>
	</g>
</g>
<g id="XMLID_21_">
	<g id="XMLID_44_">
		<line id="XMLID_47_" class="st3" x1="305.1" y1="338.9" x2="369.2" y2="338.9"/>
		<g id="XMLID_45_">
			<path id="XMLID_46_" d="M384.3,338.9c-7.1,2.6-15.9,7.1-21.4,11.9l4.3-11.9l-4.3-11.9C368.4,331.7,377.2,336.2,384.3,338.9z"/>
		</g>
	</g>
</g>
<g id="XMLID_12_">
</g>
<g id="XMLID_34_">
</g>
<g id="XMLID_35_">
</g>
<g id="XMLID_39_">
</g>
<g id="XMLID_40_">
</g>
<g id="XMLID_41_">
</g>
<g id="XMLID_42_">
</g>
</svg>
