<?xml version="1.0" encoding="utf-8"?>
<!-- Generator: Adobe Illustrator 19.0.0, SVG Export Plug-In . SVG Version: 6.00 Build 0)  -->
<svg version="1.1" id="레이어_1" xmlns="http://www.w3.org/2000/svg" xmlns:xlink="http://www.w3.org/1999/xlink" x="0px"
	 y="0px" viewBox="0 0 600 580" style="enable-background:new 0 0 600 580;" xml:space="preserve">
<style type="text/css">
	.st0{opacity:0.5;}
	.st1{fill:none;}
	.st2{fill:none;stroke:#000000;}
	.st3{fill:none;stroke:#000000;stroke-width:5;stroke-miterlimit:10;}
</style>
<g id="XMLID_9_" class="st0">
	<path id="XMLID_31_" d="M301.2,475.4c-1.6,8.4-6.2,14.7-13.7,18.9c-7,4.2-13.7,5.1-20,2.8c-6.3-2.3-11.3-7.2-15-14.7
		c-1.9-3.7-3.3-11.9-4.2-24.5c-0.9-12.6-1.5-26.1-1.8-40.6c-0.2-14.5-0.4-28.2-0.4-41.3c0-13.1,0-21.9,0-26.6c0-1.4-0.1-4-0.4-7.7
		c-0.2-3.7-1.5-5.8-3.8-6.3c-4.7,0-10,0.3-16.1,1c-6.1,0.7-12.1,0.9-18.2,0.7c-6.1-0.2-11.8-1.2-17.1-2.8c-5.4-1.6-9.7-4.6-13-8.8
		c-2.8-3.7-4.4-8.9-4.9-15.4c-0.5-6.5,0.9-11.9,4.2-16.1c3.7-5.1,9.2-8.2,16.4-9.1c7.2-0.9,13.7-1.9,19.3-2.8c4.2-0.5,7.4-0.8,9.5-1
		c2.1-0.2,4.1-0.5,6-0.7c1.9-0.2,3.8-0.5,5.9-0.7c2.1-0.2,5.3-0.4,9.5-0.4c2.3-0.5,3.5-1.6,3.5-3.5c0-1.9,0-3.5,0-4.9
		c-0.9-21-1.5-40.7-1.8-59.1c-0.2-18.4-0.6-37.5-1.1-57.1c0-5.1,0.7-10.1,2.1-15s4.4-9,9.1-12.3c6.5-3.7,13.4-4.2,20.6-1.4
		c7.2,2.8,12.7,7,16.5,12.6c6.5,10.7,10.5,23.7,11.9,38.9c1.4,15.2,2.6,28.8,3.5,41c2.3,38.3,3.3,77,2.8,116.2
		c-0.5,39.2-2.3,77.7-5.6,115.5C304.1,458.6,302.8,467,301.2,475.4z M411.4,293.7c0-21.2-0.5-42.6-1.4-64.1
		c-0.9-16.3-1.5-32-1.8-46.9c-0.2-14.9-3.4-29.9-9.4-44.8c-2.3-5.6-6-10.1-10.8-13.6c-4.9-3.5-10-5.6-15.4-6.3
		c-5.4-0.7-10.4,0.4-15.1,3.1c-4.7,2.8-7.7,7.9-9.1,15.4c-3.7,22.4-5.1,44.8-4.2,67.2c0.9,22.4,1.9,44.8,2.8,67.2
		c0.9,22.9,1.5,45.7,1.8,68.6c0.2,22.9,0.1,45.7-0.3,68.6c0,9.3-0.1,18.4-0.3,27.3c-0.2,8.9-0.6,18-1.1,27.3
		c0,5.1,0.2,10.3,0.7,15.4c0.5,5.1,1.8,9.8,3.8,14s4.9,7.6,8.4,10.2c3.5,2.6,8.5,3.8,15,3.8c6.1,0,11.4-2,16.1-6
		c4.7-4,8.3-8.8,10.9-14.3c2.6-5.6,4.2-11.4,4.9-17.5c0.7-6.1,0.4-11.2-1-15.4c1.4-16.3,2.4-32.2,3.2-47.6
		c0.7-15.4,1.3-31.3,1.8-47.6C411.2,336.3,411.4,315,411.4,293.7z"/>
</g>
<g id="XMLID_3_">
	<path id="XMLID_25_" class="st1" d="M272,108.5"/>
</g>
<g id="XMLID_8_">
	<path id="XMLID_17_" class="st1" d="M334.6,149.3"/>
</g>
<g id="XMLID_1_">
	<path id="XMLID_29_" d="M139.5,315.6c-0.5,0.2-0.8,0.1-1.1-0.1c-0.3-0.2-0.5-0.6-0.6-1c-0.1-0.5-0.3-0.9-0.3-1.5
		c0-0.5-0.1-1-0.1-1.4c-0.1-1-0.2-1.9-0.2-2.8c0-0.9,0-1.8,0-2.7c-0.1-1-0.1-2,0-3l0-5.1c0-0.6,0.1-1.2,0.1-1.9
		c0-0.7,0.1-1.3,0.4-1.9c0.2-0.6,0.5-0.9,1-1c0.5-0.1,0.9,0.1,1.4,0.5c0.3,0.4,0.6,1,0.8,1.8c0.2,0.8,0.3,1.7,0.4,2.6
		c0.1,0.9,0.1,1.8,0.1,2.8c0,0.9,0,1.6,0,2.3v0c0,1.3,0,2.7-0.1,4.1c-0.1,1.4,0,2.9,0.1,4.5c0.1,0.8,0,1.5-0.4,2.2
		C140.7,314.8,140.2,315.3,139.5,315.6z"/>
</g>
<circle id="XMLID_4_" class="st2" cx="138.6" cy="305" r="18.5"/>
<g id="XMLID_7_">
	<path id="XMLID_27_" d="M275.8,104.9c0.7,0.5,1,1,1,1.6c-0.1,0.3-0.3,0.6-0.6,0.9c-0.3,0.3-0.7,0.4-1.1,0.5
		c-0.8,0.1-1.6,0.1-2.3,0.2c-0.7,0.1-1.4,0.1-2.1,0.2c-1,0.1-2.1,0.2-3.1,0.3c-1,0.1-2.1,0.1-3.3,0.1c-0.7,0-1.3-0.1-1.9-0.3
		c-0.6-0.2-1-0.5-1.3-1.1c-0.2-0.5-0.2-0.9,0-1.2c0.2-0.4,0.5-0.8,0.9-1.4c0.1-0.1,0.3-0.4,0.5-0.8c0.2-0.4,0.5-0.8,0.9-1.3
		s0.7-1,1.1-1.6c0.4-0.6,0.8-1.2,1.2-1.7c2.1-2.9,3.1-5,2.9-6.4c-0.1-0.4-0.4-0.7-0.9-0.9c-0.5-0.2-1.2-0.3-2-0.3
		c-0.8,0-1.5,0.1-2.3,0.3c-0.7,0.2-1.5,0.3-2.3,0.3c-0.5-0.1-0.7-0.3-0.8-0.7c-0.1-0.4-0.1-0.8,0-1.1c0.1-0.4,0.3-0.6,0.6-0.8
		c0.3-0.2,0.6-0.4,0.9-0.6c0.7-0.3,1.5-0.5,2.5-0.6c1-0.1,1.9-0.1,2.9,0c1,0.1,1.9,0.3,2.7,0.6c0.9,0.3,1.5,0.7,2.1,1.2
		c0.3,0.3,0.5,0.7,0.6,1.2c0.1,0.5,0.1,1,0,1.6c-0.1,0.5-0.2,1.1-0.3,1.6s-0.3,0.9-0.4,1.2c-0.2,0.5-0.4,1-0.6,1.5
		c-0.2,0.5-0.5,1.2-0.9,1.9c-0.4,0.7-0.9,1.6-1.6,2.5c-0.6,1-1.4,2.2-2.4,3.6l6.2-0.3c0.6,0,1.1-0.1,1.7-0.1
		C274.8,104.7,275.4,104.7,275.8,104.9z"/>
</g>
<circle id="XMLID_5_" class="st2" cx="267" cy="98.6" r="18.5"/>
<path id="XMLID_13_" class="st3" d="M252.3,106.2"/>
<path id="XMLID_6_" class="st3" d="M361.4,142.3"/>
<g id="XMLID_18_">
	<g id="XMLID_41_">
		<line id="XMLID_49_" class="st3" x1="272.8" y1="134.4" x2="272.8" y2="467.2"/>
		<g id="XMLID_42_">
			<path id="XMLID_43_" d="M272.8,482.3c-2.6-7.1-7.1-15.9-11.9-21.4l11.9,4.3l11.9-4.3C279.9,466.4,275.4,475.2,272.8,482.3z"/>
		</g>
	</g>
</g>
<g id="XMLID_21_">
	<g id="XMLID_51_">
		<line id="XMLID_54_" class="st3" x1="193.6" y1="310.4" x2="257.7" y2="310.4"/>
		<g id="XMLID_52_">
			<path id="XMLID_53_" d="M272.8,310.4c-7.1,2.6-15.9,7.1-21.4,11.9l4.3-11.9l-4.3-11.9C256.8,303.3,265.7,307.8,272.8,310.4z"/>
		</g>
	</g>
</g>
<g id="XMLID_10_">
	<g id="XMLID_45_">
		<line id="XMLID_48_" class="st3" x1="375.4" y1="131.1" x2="375.4" y2="463.9"/>
		<g id="XMLID_46_">
			<path id="XMLID_47_" d="M375.4,479c-2.6-7.1-7.1-15.9-11.9-21.4l11.9,4.3l11.9-4.3C382.6,463.1,378.1,471.9,375.4,479z"/>
		</g>
	</g>
</g>
<g id="XMLID_15_">
	<path id="XMLID_20_" class="st1" d="M380.5,105.5"/>
</g>
<g id="XMLID_14_">
	<path id="XMLID_23_" d="M378.3,96.1c0.6,0.2,1.2,0.5,1.7,0.9c0.5,0.3,0.9,0.8,1.3,1.4c0.3,0.4,0.5,1,0.5,1.8c0,0.7-0.1,1.5-0.5,2.2
		c-0.4,0.9-0.8,1.6-1.4,2.3c-0.5,0.6-1,1.1-1.2,1.4c-0.2,0.1-0.5,0.4-0.9,0.8c-0.5,0.4-1,0.8-1.6,1.2c-0.6,0.4-1.3,0.8-2,1
		c-0.7,0.3-1.4,0.5-2,0.5c-0.6,0-1.1-0.3-1.3-0.9c-0.2-0.4-0.1-0.8,0.3-1.3c0.4-0.5,0.7-0.9,1-1.1c0.4-0.2,0.9-0.6,1.6-1.1
		c0.7-0.5,1.3-1,1.9-1.5c0.6-0.5,1.1-1.1,1.4-1.7c0.3-0.6,0.4-1.2,0.1-1.8c-0.3-0.5-0.8-0.8-1.5-1c-0.7-0.2-1.3-0.3-1.8-0.4
		c-0.2,0-0.5-0.1-0.8-0.1c-0.3-0.1-0.7-0.1-1-0.3c-0.3-0.1-0.6-0.3-0.8-0.4c-0.3-0.2-0.4-0.4-0.5-0.6c-0.2-0.4,0-1.1,0.5-1.9
		c0.5-0.8,1-1.6,1.5-2.4c0.5-0.7,0.9-1.5,1.3-2.4c0.3-0.6,0.5-1.1,0.6-1.5c0.1-0.4,0.2-0.9,0.1-1.6c-0.1-0.6-0.4-0.8-0.9-0.8
		c-0.3,0-0.6,0-0.9,0.1c-0.3,0.1-0.6,0.2-0.9,0.3c-0.8,0.3-1.4,0.5-1.8,0.7c-0.4,0.2-0.9,0.3-1.5,0.3c-0.4,0-0.7-0.2-1-0.5
		c-0.2-0.3-0.3-0.7-0.3-1c0.1-0.3,0.2-0.6,0.4-0.9c0.2-0.2,0.6-0.5,1.2-0.8c0.9-0.4,2-0.8,3.1-1.1s2.3-0.5,3.5-0.6
		c0.4,0,0.8,0.1,1.3,0.3c0.5,0.2,0.9,0.5,1.1,0.9c0.3,0.5,0.5,1.2,0.5,1.9c0,0.7,0,1.5-0.2,2.3c-0.2,0.8-0.4,1.6-0.7,2.4
		c-0.3,0.8-0.6,1.5-1,2.2c-0.2,0.4-0.4,0.8-0.7,1.1c-0.3,0.3-0.3,0.6-0.3,0.9c0,0.3,0.3,0.5,0.9,0.5
		C377.2,95.8,377.8,95.9,378.3,96.1z"/>
</g>
<circle id="XMLID_12_" class="st2" cx="375.4" cy="95.6" r="18.5"/>
<path id="XMLID_11_" class="st3" d="M360.7,103.2"/>
<g id="XMLID_22_">
</g>
<g id="XMLID_34_">
</g>
<g id="XMLID_35_">
</g>
<g id="XMLID_39_">
</g>
<g id="XMLID_55_">
</g>
<g id="XMLID_56_">
</g>
<g id="XMLID_57_">
</g>
</svg>
