<?xml version="1.0" encoding="utf-8"?>
<!-- Generator: Adobe Illustrator 19.0.0, SVG Export Plug-In . SVG Version: 6.00 Build 0)  -->
<svg version="1.1" id="레이어_1" xmlns="http://www.w3.org/2000/svg" xmlns:xlink="http://www.w3.org/1999/xlink" x="0px"
	 y="0px" viewBox="0 0 600 580" style="enable-background:new 0 0 600 580;" xml:space="preserve">
<style type="text/css">
	.st0{opacity:0.5;}
	.st1{fill:none;}
	.st2{fill:none;stroke:#000000;}
	.st3{fill:none;stroke:#000000;stroke-width:5;stroke-miterlimit:10;}
</style>
<g id="XMLID_9_" class="st0">
	<path id="XMLID_63_" d="M194.7,232.8c3.3-2.3,8.6-4.8,16.1-7.4c7.5-2.6,15-4.1,22.8-4.5c7.7-0.5,14.6,0.4,20.6,2.4
		c6.1,2.1,9.8,6.7,11.2,13.7c0.9,5.1,0.8,10.8-0.4,17.1c-1.2,6.3-4.3,11.1-9.5,14.4c-3.3,2.3-8,3.7-14.3,4.2
		c-6.3,0.5-12.7,0.5-19.3,0c-6.5-0.5-12.7-1.5-18.6-3.1c-5.8-1.6-9.7-3.6-11.5-6c-3.7-6.5-5-12.7-3.9-18.5
		C189.2,239.2,191.5,235.1,194.7,232.8z M331.9,456.8c0,6.1-0.6,12.1-1.8,18.2c-1.2,6.1-2.9,11.7-5.2,16.8
		c-2.8,6.1-7.4,10-13.7,11.9c-6.3,1.9-12.3,0.9-17.9-2.8c-6.5-4.2-11.2-9.9-14-17.2c-2.8-7.2-4.4-14.6-4.9-22
		c0-1.4,0.1-6.2,0.3-14.4c0.2-8.2,0.4-17,0.4-26.6c0-9.6-0.2-18.1-0.7-25.5c-0.5-7.5-1.2-11.2-2.1-11.2c-5.6,0-12.6,0.3-21,1
		s-16.8,0.7-25.2,0s-16-2.8-22.8-6.3c-6.8-3.5-11.1-9.2-12.9-17.2c-2.3-7.5-1.6-13.8,2.1-18.9c4.7-6.1,10.4-10.4,17.2-13
		c6.8-2.6,18.3-3.8,34.6-3.8c1.4,0,3.6,0,6.6,0c3,0,6-0.1,8.8-0.4c2.8-0.2,5.4-0.6,7.7-1c2.3-0.5,3.5-1.2,3.5-2.1
		c0.5-18.2,0.8-31.3,1-39.2c0.2-7.9,0.4-14.7,0.4-20.3s0-12.3,0-20c0-7.7,0-20.4,0-38.1c0-10.3,0.5-22.2,1.4-35.7
		c0.9-13.5,3.7-25.7,8.4-36.4c1.9-4.7,5.4-8,10.5-10.1c5.1-2.1,10.4-2.8,15.8-2.1c5.4,0.7,10.3,2.5,14.7,5.3
		c4.4,2.8,6.9,6.8,7.4,11.9c0.9,13.5,1.9,25.2,2.8,35c0.9,9.8,1.4,21.9,1.4,36.4c0,7.9,0.2,16.8,0.7,26.6c0.5,9.8,0.7,22.4,0.7,37.8
		c0,8.4-0.1,18-0.3,28.7c-0.2,10.7-0.5,21.6-0.7,32.6c-0.2,11-0.5,21.3-0.7,31.1c-0.2,9.8-0.3,18-0.3,24.5c0,2.8-0.1,7.4-0.4,13.7
		c-0.2,6.3-0.5,12.8-0.7,19.6c-0.2,6.8-0.5,13.3-0.7,19.6C332,449.5,331.9,454,331.9,456.8z M431.3,155.1c2.3,30.8,4.1,61,5.3,90.7
		c1.2,29.6,2.2,59.4,3.2,89.2c0.9,18.2,1,36.4,0.3,54.6c-0.7,18.2-1,36.6-1,55.3c0,3.7-0.4,9.7-1,17.8c-0.7,8.2-2.1,16.5-4.2,24.8
		c-2.1,8.4-5.3,15.6-9.5,21.7c-4.2,6.1-10,8.9-17.5,8.4c-7.9-0.5-14-3.4-18.2-8.8c-4.2-5.4-7.2-12-9.1-20
		c-1.9-7.9-2.9-16.3-3.2-25.2c-0.2-8.9-0.3-17-0.3-24.5c0.5-38.7,0.7-77.3,0.7-115.8s-0.9-78.3-2.8-119.4c0-4.7-0.2-11.8-0.7-21.3
		c-0.5-9.6-0.5-19.4,0-29.4c0.5-10,1.5-19.4,3.1-28c1.6-8.6,4.3-14.3,8-17.1c4.2-3.3,9.5-5.5,15.8-6.6c6.3-1.2,11.8-0.1,16.5,3.1
		c6.5,5.1,10.5,12.8,11.9,23.1C429.9,138.1,430.9,147.2,431.3,155.1z"/>
</g>
<g id="XMLID_3_">
	<path id="XMLID_25_" class="st1" d="M165.4,364.4"/>
</g>
<g id="XMLID_8_">
	<path id="XMLID_17_" class="st1" d="M305.5,140.6"/>
</g>
<g id="XMLID_1_">
	<path id="XMLID_61_" d="M155,258.9c-0.5,0.2-0.8,0.1-1.1-0.1c-0.3-0.2-0.5-0.6-0.6-1c-0.1-0.5-0.3-0.9-0.3-1.5c0-0.5-0.1-1-0.1-1.4
		c-0.1-1-0.2-1.9-0.2-2.8c0-0.9,0-1.8,0-2.6c-0.1-1-0.1-2,0-3l0-5.1c0-0.6,0.1-1.2,0.1-1.9c0-0.6,0.1-1.3,0.4-1.9
		c0.2-0.6,0.5-0.9,1-1c0.5-0.1,0.9,0.1,1.4,0.5c0.3,0.4,0.6,1,0.8,1.9c0.2,0.8,0.3,1.7,0.4,2.6c0.1,0.9,0.1,1.8,0.1,2.8
		c0,0.9,0,1.6,0,2.3v0c0,1.3,0,2.7-0.1,4.1c-0.1,1.4,0,2.9,0.1,4.5c0.1,0.8,0,1.5-0.4,2.2C156.2,258.1,155.7,258.6,155,258.9z"/>
</g>
<circle id="XMLID_4_" class="st2" cx="154.1" cy="248.3" r="18.5"/>
<g id="XMLID_7_">
	<path id="XMLID_44_" d="M169.2,360.9c0.7,0.5,1,1,1,1.6c-0.1,0.3-0.3,0.6-0.6,0.9s-0.7,0.4-1.1,0.5c-0.8,0.1-1.6,0.1-2.3,0.2
		c-0.7,0.1-1.4,0.1-2.1,0.2c-1,0.1-2.1,0.2-3.1,0.3s-2.1,0.1-3.3,0.1c-0.7,0-1.3-0.1-1.9-0.3c-0.6-0.2-1-0.5-1.3-1.1
		c-0.2-0.5-0.2-0.9,0-1.2c0.2-0.4,0.5-0.8,0.9-1.4c0.1-0.1,0.3-0.4,0.5-0.8c0.2-0.4,0.5-0.8,0.9-1.3s0.7-1,1.1-1.6
		c0.4-0.6,0.8-1.2,1.2-1.7c2.1-2.9,3.1-5,2.9-6.4c-0.1-0.4-0.4-0.7-0.9-0.9c-0.5-0.2-1.2-0.3-2-0.3c-0.8,0-1.5,0.1-2.3,0.3
		c-0.7,0.2-1.5,0.3-2.3,0.3c-0.5-0.1-0.7-0.3-0.8-0.7c-0.1-0.4-0.1-0.8,0-1.1c0.1-0.4,0.3-0.7,0.6-0.8c0.3-0.2,0.6-0.4,0.9-0.6
		c0.7-0.3,1.5-0.5,2.5-0.6c1-0.1,1.9-0.1,2.9,0c1,0.1,1.9,0.3,2.7,0.6s1.5,0.7,2.1,1.2c0.3,0.3,0.5,0.7,0.6,1.2c0.1,0.5,0.1,1,0,1.6
		c-0.1,0.5-0.2,1.1-0.3,1.6s-0.3,0.9-0.4,1.2c-0.2,0.5-0.4,1-0.6,1.5c-0.2,0.5-0.5,1.2-0.9,1.9c-0.4,0.7-0.9,1.6-1.6,2.5
		c-0.6,1-1.4,2.2-2.4,3.5l6.2-0.3c0.6,0,1.1-0.1,1.7-0.1C168.2,360.6,168.8,360.7,169.2,360.9z"/>
</g>
<circle id="XMLID_5_" class="st2" cx="160.4" cy="354.6" r="18.5"/>
<path id="XMLID_13_" class="st3" d="M145.7,362.2"/>
<path id="XMLID_6_" class="st3" d="M332.3,133.6"/>
<g id="XMLID_18_">
	<g id="XMLID_57_">
		<line id="XMLID_60_" class="st3" x1="305.5" y1="126.4" x2="305.5" y2="459.3"/>
		<g id="XMLID_58_">
			<path id="XMLID_59_" d="M305.5,474.4c-2.6-7.1-7.1-15.9-11.9-21.4l11.9,4.3l11.9-4.3C312.6,458.4,308.1,467.3,305.5,474.4z"/>
		</g>
	</g>
</g>
<g id="XMLID_21_">
	<g id="XMLID_51_">
		<line id="XMLID_54_" class="st3" x1="189.4" y1="248.3" x2="253.4" y2="248.3"/>
		<g id="XMLID_52_">
			<path id="XMLID_53_" d="M268.5,248.3c-7.1,2.6-15.9,7.1-21.4,11.9l4.3-11.9l-4.3-11.9C252.6,241.2,261.4,245.7,268.5,248.3z"/>
		</g>
	</g>
</g>
<g id="XMLID_10_">
	<g id="XMLID_47_">
		<line id="XMLID_55_" class="st3" x1="401.9" y1="121.8" x2="401.9" y2="470.8"/>
		<g id="XMLID_48_">
			<path id="XMLID_49_" d="M401.9,485.8c-2.6-7.1-7.1-15.9-11.9-21.4l11.9,4.3l11.9-4.3C409,469.9,404.5,478.7,401.9,485.8z"/>
		</g>
	</g>
</g>
<g id="XMLID_15_">
	<path id="XMLID_20_" class="st1" d="M314.4,96.8"/>
</g>
<g id="XMLID_14_">
	<path id="XMLID_42_" d="M312.2,87.5c0.6,0.2,1.2,0.5,1.7,0.9c0.5,0.3,0.9,0.8,1.3,1.4c0.3,0.4,0.5,1,0.5,1.8c0,0.7-0.1,1.5-0.5,2.2
		c-0.4,0.9-0.8,1.6-1.4,2.3c-0.5,0.6-1,1.1-1.2,1.4c-0.2,0.1-0.5,0.4-0.9,0.8c-0.5,0.4-1,0.8-1.6,1.2c-0.6,0.4-1.3,0.8-2,1
		c-0.7,0.3-1.4,0.5-2,0.5c-0.6,0-1.1-0.3-1.3-0.9c-0.2-0.4-0.1-0.8,0.3-1.3c0.4-0.5,0.7-0.9,1-1.1c0.4-0.2,0.9-0.6,1.6-1.1
		c0.7-0.5,1.3-1,1.9-1.5c0.6-0.5,1.1-1.1,1.4-1.7c0.3-0.6,0.4-1.2,0.1-1.8c-0.3-0.5-0.8-0.8-1.5-1c-0.7-0.2-1.3-0.3-1.8-0.4
		c-0.2,0-0.5-0.1-0.8-0.1c-0.3-0.1-0.7-0.1-1-0.3c-0.3-0.1-0.6-0.3-0.8-0.4c-0.3-0.2-0.4-0.4-0.5-0.6c-0.2-0.4,0-1.1,0.5-1.9
		c0.5-0.8,1-1.6,1.5-2.4c0.5-0.7,0.9-1.5,1.3-2.4c0.3-0.6,0.5-1.1,0.6-1.5c0.1-0.4,0.2-0.9,0.1-1.6c-0.1-0.6-0.4-0.8-0.9-0.8
		c-0.3,0-0.6,0-0.9,0.1c-0.3,0.1-0.6,0.2-0.9,0.3c-0.8,0.3-1.4,0.5-1.8,0.7c-0.4,0.2-0.9,0.3-1.5,0.3c-0.4,0-0.7-0.2-1-0.5
		c-0.2-0.3-0.3-0.7-0.3-1c0.1-0.3,0.2-0.6,0.4-0.9c0.2-0.2,0.6-0.5,1.2-0.8c0.9-0.4,2-0.8,3.1-1.1s2.3-0.5,3.5-0.6
		c0.4,0,0.8,0.1,1.3,0.3c0.5,0.2,0.9,0.5,1.1,0.9c0.3,0.5,0.5,1.2,0.5,1.9c0,0.7,0,1.5-0.2,2.3c-0.2,0.8-0.4,1.6-0.7,2.4
		c-0.3,0.8-0.6,1.5-1,2.2c-0.2,0.4-0.4,0.8-0.7,1.1c-0.3,0.3-0.3,0.6-0.3,0.9c0,0.3,0.3,0.5,0.9,0.5
		C311.1,87.1,311.7,87.3,312.2,87.5z"/>
</g>
<circle id="XMLID_12_" class="st2" cx="309.3" cy="87" r="18.5"/>
<path id="XMLID_11_" class="st3" d="M294.6,94.6"/>
<g id="XMLID_22_">
	<g id="XMLID_30_">
		<line id="XMLID_33_" class="st3" x1="189.4" y1="354.6" x2="253.4" y2="354.6"/>
		<g id="XMLID_31_">
			<path id="XMLID_32_" d="M268.5,354.6c-7.1,2.6-15.9,7.1-21.4,11.9l4.3-11.9l-4.3-11.9C252.6,347.5,261.4,352,268.5,354.6z"/>
		</g>
	</g>
</g>
<g id="XMLID_28_">
	<path id="XMLID_35_" class="st1" d="M406.9,86"/>
</g>
<g id="XMLID_27_">
	<path id="XMLID_40_" d="M412.1,77.5c0.3,0,0.6,0.1,1,0.3c0.4,0.1,0.6,0.4,0.6,0.8c0,0.5-0.1,0.8-0.3,1.1c-0.2,0.3-0.6,0.5-1.1,0.8
		c-0.9,0.2-1.5,0.3-1.9,0.4c-0.4,0.1-0.7,0.1-1,0.2c-0.2,0-0.4,0.1-0.6,0.1c-0.2,0-0.4,0-0.8,0.1c0,0.3,0,0.7,0,1.4
		c0,0.7,0,1.3,0,1.9c0,0.5,0,0.9,0,1.4c0,0.5,0,0.9-0.1,1.3c-0.1,0.4-0.2,0.7-0.5,1c-0.2,0.3-0.6,0.4-1,0.4c-0.6,0-1-0.2-1.3-0.5
		c-0.3-0.3-0.5-0.8-0.6-1.5c-0.1-0.6-0.2-1.4-0.2-2.4s-0.1-1.9-0.1-2.7c0,0-0.2,0-0.7,0c-0.5,0-1.1,0.1-1.9,0.1s-1.6,0-2.5,0
		c-0.9,0-1.7-0.1-2.5-0.2c-0.6-0.1-1.1-0.4-1.4-0.8c-0.7-1.1-0.8-3.1-0.3-6c0.3-1.4,0.6-2.6,0.9-3.7c0.4-1.1,0.6-1.8,0.7-2
		c0-0.1,0.1-0.3,0.3-0.6c0.2-0.3,0.4-0.4,0.6-0.4c0.7,0,1.2,0.2,1.5,0.6c0.3,0.4,0.4,0.9,0.4,1.5c0,0.6-0.1,1.2-0.2,1.9
		c-0.2,0.7-0.3,1.3-0.3,1.9c-0.1,1.1-0.2,2-0.2,2.7c0,0.7,0,1.2,0.1,1.5c0.1,0.2,0.2,0.3,0.4,0.3c0.2,0.1,0.6,0.1,1.2,0.1
		c0.6,0,1.2,0,1.8-0.1c0.6,0,1.1-0.1,1.5-0.1c0.5-0.1,0.7-0.1,0.7-0.2v-2.1c0-0.9,0-1.8,0.1-2.7c0-0.9,0-1.8,0-2.7
		c0-0.8,0-1.5,0-2.2c0-0.7,0.2-1.3,0.5-2c0.1-0.3,0.4-0.5,0.8-0.6c0.4,0,0.7,0.1,0.9,0.4c0.3,0.4,0.5,0.9,0.7,1.5
		c0.2,0.6,0.3,1.3,0.4,2c0.1,0.7,0.2,1.4,0.2,2.2c0,0.8,0,1.5,0,2.1v2.3c0,0.6,0,1.2,0,1.9c0.1,0,0.3,0,0.7-0.1
		c0.4,0,0.8-0.1,1.2-0.1c0.5,0,0.9-0.1,1.3-0.1C411.6,77.4,411.9,77.4,412.1,77.5z"/>
</g>
<circle id="XMLID_26_" class="st2" cx="401.9" cy="76.1" r="18.5"/>
<path id="XMLID_23_" class="st3" d="M387.2,83.8"/>
<g id="XMLID_39_">
</g>
<g id="XMLID_67_">
</g>
<g id="XMLID_68_">
</g>
<g id="XMLID_69_">
</g>
<g id="XMLID_70_">
</g>
<g id="XMLID_71_">
</g>
<g id="XMLID_72_">
</g>
</svg>
