<?xml version="1.0" encoding="utf-8"?>
<!-- Generator: Adobe Illustrator 19.0.0, SVG Export Plug-In . SVG Version: 6.00 Build 0)  -->
<svg version="1.1" id="레이어_1" xmlns="http://www.w3.org/2000/svg" xmlns:xlink="http://www.w3.org/1999/xlink" x="0px"
	 y="0px" viewBox="0 0 600 580" style="enable-background:new 0 0 600 580;" xml:space="preserve">
<style type="text/css">
	.st0{opacity:0.5;}
	.st1{fill:none;}
	.st2{fill:none;stroke:#000000;}
	.st3{fill:none;stroke:#000000;stroke-width:5;stroke-miterlimit:10;}
</style>
<g id="XMLID_9_" class="st0">
	<path id="XMLID_19_" d="M513,308.9c1.9,4.2,2.2,9.2,1.1,15.1c-1.2,5.8-3.6,10.1-7.3,12.9c-5.6,4.7-13.5,8.6-23.8,11.9
		c-10.3,3.3-21.3,6-33.3,8c-11.9,2.1-24.2,3.7-36.8,4.9c-12.6,1.2-24.3,2.1-35,2.8c-10.7,0.7-19.8,1-27.3,1c-7.5,0-12.1,0-14,0
		c-24.3,0-48.8-0.1-73.5-0.3c-24.7-0.2-49-1.5-72.8-3.9c-6.1-0.5-12.6-1.2-19.6-2.1c-7-0.9-13.5-2.5-19.6-4.5
		c-6.1-2.1-11.4-5.3-16.1-9.5c-4.7-4.2-7.7-9.8-9.1-16.8c-2.3-12.1,0.1-21,7.4-26.6c7.2-5.6,17.4-6.8,30.4-3.5
		c6.5,1.9,14.4,3.3,23.5,4.2c9.1,0.9,18.5,1.6,28.4,2.1c9.8,0.5,19.3,0.6,28.4,0.3c9.1-0.2,17.1-0.8,24.1-1.8
		c2.3-0.5,4.2-0.9,5.6-1.4c1.4-0.5,2.6-2.8,3.5-7c0.9-8.9,1.9-15.5,2.8-19.9c0.9-4.4,2.1-10.9,3.5-19.3c1.4-7.9,2.6-16.2,3.5-24.9
		c0.9-8.6,4.7-15.5,11.2-20.6c5.1-4.2,11.3-6.8,18.5-7.7c7.2-0.9,13,1.6,17.2,7.7c4.2,5.6,6.5,13.5,7,23.8
		c0.5,10.3,0.7,18.7,0.7,25.2c0,1.4,0,3.9,0,7.4s0.1,7.2,0.4,11.2c0.2,4,0.5,7.8,0.7,11.6c0.2,3.7,0.6,6.5,1.1,8.4
		c0.9,2.3,4.8,3.8,11.5,4.5c6.8,0.7,15.2,0.9,25.2,0.7c10-0.2,20.9-0.8,32.5-1.8c11.7-0.9,22.9-1.9,33.6-2.8
		c10.7-0.9,20.2-1.6,28.4-2.1c8.2-0.5,13.6-0.5,16.4,0C500.6,297.7,507.9,301.9,513,308.9z"/>
</g>
<g id="XMLID_3_">
	<path id="XMLID_25_" class="st1" d="M471,229.4"/>
</g>
<g id="XMLID_8_">
	<path id="XMLID_17_" class="st1" d="M345.6,142.1"/>
</g>
<g id="XMLID_1_">
	<path id="XMLID_14_" d="M318.6,178.4c-0.5,0.2-0.8,0.1-1.1-0.1c-0.3-0.2-0.5-0.6-0.6-1c-0.1-0.5-0.3-0.9-0.3-1.5
		c0-0.5-0.1-1-0.1-1.4c-0.1-1-0.2-1.9-0.2-2.8c0-0.9,0-1.8,0-2.6c-0.1-1-0.1-2,0-3l0-5.1c0-0.6,0.1-1.2,0.1-1.9
		c0-0.6,0.1-1.3,0.3-1.9c0.2-0.6,0.5-0.9,1-1c0.5-0.1,1,0.1,1.4,0.5c0.3,0.4,0.6,1,0.8,1.9c0.2,0.8,0.3,1.7,0.4,2.6
		c0.1,0.9,0.1,1.8,0.1,2.8c0,0.9,0,1.6,0,2.3v0c0,1.3,0,2.7-0.1,4.1c-0.1,1.4,0,2.9,0.1,4.5c0.1,0.8,0,1.5-0.4,2.2
		C319.7,177.6,319.2,178.1,318.6,178.4z"/>
</g>
<circle id="XMLID_4_" class="st2" cx="317.6" cy="167.9" r="18.5"/>
<g id="XMLID_7_">
	<path id="XMLID_11_" d="M323,405.7c0.7,0.5,1,1,1,1.6c-0.1,0.3-0.3,0.6-0.6,0.9s-0.7,0.4-1.1,0.5c-0.8,0.1-1.6,0.1-2.3,0.2
		s-1.4,0.1-2.1,0.2c-1,0.1-2,0.2-3,0.3s-2.1,0.1-3.3,0.1c-0.7,0-1.3-0.1-1.9-0.3c-0.6-0.2-1-0.5-1.3-1.1c-0.2-0.5-0.2-0.9,0-1.2
		s0.5-0.8,0.9-1.4c0.1-0.1,0.3-0.4,0.5-0.8c0.2-0.4,0.5-0.8,0.9-1.3c0.3-0.5,0.7-1,1.1-1.6c0.4-0.6,0.8-1.2,1.2-1.7
		c2.1-2.9,3.1-5,2.9-6.4c-0.1-0.4-0.4-0.7-0.9-0.9c-0.5-0.2-1.2-0.3-2-0.3s-1.5,0.1-2.3,0.3c-0.7,0.2-1.5,0.3-2.3,0.3
		c-0.5-0.1-0.7-0.3-0.8-0.7c-0.1-0.4-0.1-0.8,0-1.1c0.1-0.4,0.3-0.7,0.6-0.8c0.3-0.2,0.6-0.4,0.9-0.6c0.7-0.3,1.5-0.5,2.5-0.6
		c1-0.1,1.9-0.1,2.9,0s1.8,0.3,2.7,0.6c0.8,0.3,1.5,0.7,2.1,1.2c0.3,0.3,0.5,0.7,0.6,1.2c0.1,0.5,0.1,1,0,1.6
		c-0.1,0.5-0.2,1.1-0.3,1.6c-0.2,0.5-0.3,0.9-0.4,1.2c-0.2,0.5-0.4,1-0.6,1.5c-0.2,0.5-0.5,1.2-0.9,1.9c-0.4,0.7-0.9,1.6-1.6,2.5
		s-1.4,2.2-2.4,3.5l6.2-0.3c0.6,0,1.1-0.1,1.7-0.1C322,405.4,322.5,405.5,323,405.7z"/>
</g>
<circle id="XMLID_5_" class="st2" cx="314.2" cy="399.4" r="18.5"/>
<path id="XMLID_13_" class="st3" d="M299.4,407"/>
<path id="XMLID_6_" class="st3" d="M372.4,135.1"/>
<g id="XMLID_18_">
	<g id="XMLID_39_">
		<line id="XMLID_42_" class="st3" x1="314.2" y1="223.7" x2="314.2" y2="290.6"/>
		<g id="XMLID_40_">
			<path id="XMLID_41_" d="M314.2,305.7c-2.6-7.1-7.1-15.9-11.9-21.4l11.9,4.3l11.9-4.3C321.3,289.8,316.8,298.6,314.2,305.7z"/>
		</g>
	</g>
</g>
<g id="XMLID_21_">
	<g id="XMLID_31_">
		<line id="XMLID_34_" class="st3" x1="157.9" y1="326.4" x2="462.3" y2="326.4"/>
		<g id="XMLID_32_">
			<path id="XMLID_33_" d="M477.4,326.4c-7.1,2.6-15.9,7.1-21.4,11.9l4.3-11.9l-4.3-11.9C461.5,319.2,470.3,323.7,477.4,326.4z"/>
		</g>
	</g>
</g>
<g id="XMLID_10_">
</g>
<g id="XMLID_22_">
</g>
<g id="XMLID_23_">
</g>
<g id="XMLID_26_">
</g>
<g id="XMLID_27_">
</g>
<g id="XMLID_28_">
</g>
<g id="XMLID_29_">
</g>
</svg>
