<?xml version="1.0" encoding="utf-8"?>
<!-- Generator: Adobe Illustrator 19.0.0, SVG Export Plug-In . SVG Version: 6.00 Build 0)  -->
<svg version="1.1" id="레이어_1" xmlns="http://www.w3.org/2000/svg" xmlns:xlink="http://www.w3.org/1999/xlink" x="0px"
	 y="0px" viewBox="0 0 600 580" style="enable-background:new 0 0 600 580;" xml:space="preserve">
<style type="text/css">
	.st0{opacity:0.5;}
	.st1{fill:none;}
	.st2{fill:none;stroke:#000000;}
	.st3{fill:none;stroke:#000000;stroke-width:5;stroke-miterlimit:10;}
</style>
<g id="XMLID_9_" class="st0">
	<path id="XMLID_43_" d="M388.2,319.7c4.2,8.4,4.8,15.4,1.8,21c-3,5.6-7.6,10.3-13.6,14c-6.1,3.7-12.8,6.8-20.3,9.1
		c-7.5,2.3-14,4.2-19.6,5.6c-13.1,2.8-25.2,4.5-36.4,5.3c-11.2,0.7-23.6,1.5-37.1,2.5v1.4l-2.8,72.8c0,3.7-0.1,8-0.4,12.9
		c-0.2,4.9-0.8,9.9-1.7,15.1c-0.9,5.1-2.2,9.9-3.8,14.3c-1.6,4.4-3.8,7.8-6.6,10.2c-6,5.1-12.8,7-20.4,5.6
		c-7.6-1.4-13.3-5.4-17-11.9c-4.6-7.9-7.2-16.6-7.6-25.9c-0.5-9.3-0.7-18.4-0.7-27.3c-0.5-7.5-0.8-13.7-1-18.6
		c-0.2-4.9-0.4-9.4-0.4-13.6s0-8.8,0-13.7c0-4.9,0-11.3,0-19.3c0,0.5-6,0.7-17.9,0.7s-25.2-0.9-39.9-2.8c-14.7-1.9-28.4-5-41-9.5
		c-12.6-4.4-19.6-10.8-21-19.3c-1.4-8.4-0.6-14.7,2.5-18.9c3-4.2,7.4-7.2,13-9.1c5.6-1.9,11.7-2.7,18.2-2.5c6.5,0.2,12.6,0.6,18.2,1
		c14.5,1.9,29.9,2.8,46.2,2.8c16.3,0,32.8-0.6,49.4-1.8c16.6-1.2,33.2-2.6,49.7-4.2c16.5-1.6,32-3.2,46.5-4.5c1.4,0,4.2-0.2,8.4-0.7
		c4.2-0.5,8.6-0.9,13.3-1.4c4.7-0.5,9.1-0.8,13.3-1c4.2-0.2,7-0.1,8.4,0.3c3.7,0.9,7.5,2,11.2,3.2
		C382.8,312.8,385.8,315.5,388.2,319.7z M496.8,491.2c-0.9,5.1-2.2,10.2-3.8,15c-1.6,4.9-3.8,9.2-6.6,13c-2.8,3.7-6.2,6.4-10.4,8
		c-4.2,1.6-9.2,1.5-15.2-0.3c-5.1-1.9-9.2-5.4-12.5-10.5c-3.2-5.1-5.8-11-7.6-17.5c-1.8-6.5-3-13.1-3.5-19.6
		c-0.5-6.5-0.7-12.4-0.7-17.5c0-0.9,0-2.6,0-4.9c0-2.3-0.1-4.5-0.4-6.7c-0.2-2.1-0.5-3.8-0.7-5.3c-0.2-1.4-0.6-2.1-1-2.1
		c-5.1,0.5-11.8,1-20,1.8c-8.2,0.7-16.7,0.9-25.5,0.7c-8.9-0.2-17.3-0.9-25.2-2.1c-7.9-1.2-14.5-3.4-19.6-6.6
		c-5.6-3.3-9.1-8.3-10.5-15c-1.4-6.8-0.9-13,1.4-18.6c1.9-4.2,5.5-7.3,10.8-9.4c5.4-2.1,11.2-3.7,17.5-4.9
		c6.3-1.2,12.6-1.8,18.9-1.8c6.3,0,11.3,0,15,0c15.4-0.9,25.8-1.4,31.1-1.4c5.4,0,8.1-3,8.1-9.1c2.3-18.7,3.3-37.6,2.8-56.7
		c-0.5-19.1-0.7-38-0.7-56.7c0-26.6,0-52.6,0-78c0-25.4,0.9-51.5,2.8-78.1c0.5-7,1.4-14.3,2.8-22c1.4-7.7,5.3-13.4,11.8-17.1
		c7.4-4.2,15.1-4.7,23.2-1.4c8.1,3.3,12.8,7.9,14.2,14c4.6,21,7.6,42.8,9,65.4c1.4,22.6,2.1,45.5,2.1,68.6s-0.2,46.2-0.7,69.3
		c-0.5,23.1-0.5,45.4,0,66.8c0.5,25.2,0.4,48.8-0.3,70.7C502.6,443.1,500.4,466.4,496.8,491.2z"/>
</g>
<g id="XMLID_3_">
	<path id="XMLID_25_" class="st1" d="M184.5,439.4"/>
</g>
<g id="XMLID_8_">
	<path id="XMLID_17_" class="st1" d="M272.4,82.2"/>
</g>
<g id="XMLID_1_">
	<path id="XMLID_41_" d="M128.9,302c-0.5,0.2-0.8,0.1-1.1-0.1c-0.3-0.2-0.5-0.6-0.6-1c-0.1-0.5-0.3-0.9-0.3-1.5c0-0.5-0.1-1-0.1-1.4
		c-0.1-1-0.2-1.9-0.2-2.8c0-0.9,0-1.8,0-2.7c-0.1-1-0.1-1.9,0-2.9l0-5.1c0-0.6,0.1-1.2,0.1-1.9c0-0.6,0.1-1.3,0.4-1.9
		c0.2-0.6,0.5-0.9,1-1c0.5-0.1,0.9,0.1,1.4,0.5c0.3,0.4,0.6,1,0.8,1.9c0.2,0.8,0.3,1.7,0.4,2.6c0.1,0.9,0.1,1.8,0.1,2.8
		c0,0.9,0,1.6,0,2.3v0c0,1.3,0,2.7-0.1,4.1c-0.1,1.4,0,2.9,0.1,4.5c0.1,0.8,0,1.5-0.4,2.2C130,301.2,129.5,301.7,128.9,302z"/>
</g>
<circle id="XMLID_4_" class="st2" cx="127.9" cy="291.5" r="18.5"/>
<g id="XMLID_7_">
	<path id="XMLID_39_" d="M188.3,435.9c0.7,0.5,1,1,1,1.6c-0.1,0.3-0.3,0.6-0.6,0.9s-0.7,0.4-1.1,0.5c-0.8,0.1-1.6,0.1-2.3,0.2
		c-0.7,0.1-1.4,0.1-2.1,0.2c-1,0.1-2.1,0.2-3.1,0.3s-2.1,0.1-3.3,0.1c-0.7,0-1.3-0.1-1.9-0.3c-0.6-0.2-1-0.5-1.3-1.1
		c-0.2-0.5-0.2-0.9,0-1.2c0.2-0.4,0.5-0.8,0.9-1.4c0.1-0.1,0.3-0.4,0.5-0.8c0.2-0.4,0.5-0.8,0.9-1.3s0.7-1,1.1-1.6
		c0.4-0.6,0.8-1.2,1.2-1.7c2.1-2.9,3.1-5,2.9-6.4c-0.1-0.4-0.4-0.7-0.9-0.9c-0.5-0.2-1.2-0.3-2-0.3c-0.8,0-1.5,0.1-2.3,0.3
		c-0.7,0.2-1.5,0.3-2.3,0.3c-0.5-0.1-0.7-0.3-0.8-0.7c-0.1-0.4-0.1-0.8,0-1.1c0.1-0.4,0.3-0.7,0.6-0.8c0.3-0.2,0.6-0.4,0.9-0.6
		c0.7-0.3,1.5-0.5,2.5-0.6c1-0.1,1.9-0.1,2.9,0c1,0.1,1.9,0.3,2.7,0.6s1.5,0.7,2.1,1.2c0.3,0.3,0.5,0.7,0.6,1.2c0.1,0.5,0.1,1,0,1.6
		c-0.1,0.5-0.2,1.1-0.3,1.6s-0.3,0.9-0.4,1.2c-0.2,0.5-0.4,1-0.6,1.5c-0.2,0.5-0.5,1.2-0.9,1.9c-0.4,0.7-0.9,1.6-1.6,2.5
		c-0.6,1-1.4,2.2-2.4,3.5l6.2-0.3c0.6,0,1.1-0.1,1.7-0.1C187.3,435.6,187.8,435.7,188.3,435.9z"/>
</g>
<circle id="XMLID_5_" class="st2" cx="179.5" cy="429.6" r="18.5"/>
<path id="XMLID_13_" class="st3" d="M164.8,437.2"/>
<path id="XMLID_6_" class="st3" d="M299.2,75.2"/>
<g id="XMLID_18_">
	<g id="XMLID_57_">
		<line id="XMLID_60_" class="st3" x1="468.2" y1="91.2" x2="468.2" y2="480"/>
		<g id="XMLID_58_">
			<path id="XMLID_59_" d="M468.2,495.1c-2.6-7.1-7.1-15.9-11.9-21.4l11.9,4.3l11.9-4.3C475.3,479.2,470.8,488,468.2,495.1z"/>
		</g>
	</g>
</g>
<g id="XMLID_21_">
	<g id="XMLID_52_">
		<line id="XMLID_61_" class="st3" x1="231.9" y1="358.2" x2="231.9" y2="472.4"/>
		<g id="XMLID_53_">
			<path id="XMLID_54_" d="M231.9,487.5c-2.6-7.1-7.1-15.9-11.9-21.4l11.9,4.3l11.9-4.3C239.1,471.6,234.6,480.4,231.9,487.5z"/>
		</g>
	</g>
</g>
<g id="XMLID_10_">
	<g id="XMLID_48_">
		<line id="XMLID_55_" class="st3" x1="358" y1="411.1" x2="434.6" y2="411.1"/>
		<g id="XMLID_49_">
			<path id="XMLID_50_" d="M449.7,411.1c-7.1,2.6-15.9,7.1-21.4,11.9l4.3-11.9l-4.3-11.9C433.8,404,442.6,408.5,449.7,411.1z"/>
		</g>
	</g>
</g>
<g id="XMLID_15_">
	<path id="XMLID_20_" class="st1" d="M394.1,478.8"/>
</g>
<g id="XMLID_14_">
	<path id="XMLID_32_" d="M391.9,469.5c0.6,0.2,1.2,0.5,1.7,0.8c0.5,0.3,0.9,0.8,1.3,1.4c0.3,0.4,0.5,1,0.5,1.8
		c0,0.7-0.1,1.5-0.5,2.2c-0.4,0.9-0.8,1.6-1.4,2.3c-0.5,0.6-1,1.1-1.2,1.4c-0.2,0.1-0.5,0.4-0.9,0.8c-0.5,0.4-1,0.8-1.6,1.2
		c-0.6,0.4-1.3,0.8-2,1s-1.4,0.5-2,0.5c-0.6,0-1.1-0.3-1.3-0.9c-0.2-0.4-0.1-0.8,0.3-1.3c0.4-0.5,0.7-0.9,1-1.1
		c0.4-0.2,0.9-0.6,1.6-1.1c0.7-0.5,1.3-1,1.9-1.5c0.6-0.5,1-1.1,1.4-1.7c0.4-0.6,0.4-1.2,0.1-1.8c-0.3-0.5-0.8-0.8-1.4-1
		c-0.7-0.2-1.3-0.3-1.8-0.4c-0.2,0-0.5-0.1-0.8-0.1c-0.3,0-0.7-0.1-1-0.3c-0.3-0.1-0.6-0.3-0.9-0.4s-0.4-0.4-0.5-0.7
		c-0.2-0.4-0.1-1.1,0.4-1.9c0.5-0.8,1-1.6,1.5-2.4c0.5-0.7,0.9-1.5,1.3-2.3c0.3-0.6,0.5-1.1,0.6-1.5c0.1-0.4,0.2-0.9,0.1-1.6
		c-0.1-0.6-0.4-0.8-0.9-0.8c-0.3,0-0.6,0-0.9,0.1c-0.3,0.1-0.6,0.2-0.9,0.3c-0.8,0.3-1.4,0.5-1.9,0.7c-0.4,0.2-0.9,0.3-1.5,0.3
		c-0.4,0-0.7-0.2-1-0.5c-0.2-0.3-0.3-0.7-0.3-1c0.1-0.3,0.2-0.6,0.4-0.8c0.2-0.2,0.6-0.5,1.2-0.8c0.9-0.4,2-0.8,3.1-1.1
		c1.1-0.4,2.3-0.5,3.5-0.6c0.4,0,0.8,0.1,1.3,0.3c0.5,0.2,0.9,0.5,1.1,0.9c0.3,0.5,0.5,1.2,0.5,1.9s0,1.5-0.2,2.3s-0.4,1.6-0.7,2.4
		c-0.3,0.8-0.6,1.5-0.9,2.2c-0.2,0.4-0.4,0.8-0.7,1.1c-0.3,0.3-0.3,0.6-0.3,0.9c0,0.3,0.3,0.5,0.9,0.5
		C390.9,469.1,391.4,469.3,391.9,469.5z"/>
</g>
<circle id="XMLID_12_" class="st2" cx="389.1" cy="469" r="18.5"/>
<path id="XMLID_11_" class="st3" d="M374.4,476.6"/>
<g id="XMLID_22_">
	<g id="XMLID_63_">
		<line id="XMLID_66_" class="st3" x1="109.4" y1="346.2" x2="339.4" y2="346.2"/>
		<g id="XMLID_64_">
			<path id="XMLID_65_" d="M354.4,346.2c-7.1,2.6-15.9,7.1-21.4,11.9l4.3-11.9l-4.3-11.9C338.5,339.1,347.3,343.6,354.4,346.2z"/>
		</g>
	</g>
</g>
<g id="XMLID_28_">
	<path id="XMLID_35_" class="st1" d="M473.2,46.5"/>
</g>
<g id="XMLID_27_">
	<path id="XMLID_30_" d="M478.4,38c0.3,0,0.6,0.1,1,0.3c0.4,0.1,0.6,0.4,0.6,0.8c0,0.5-0.1,0.8-0.3,1.1c-0.2,0.3-0.6,0.5-1.1,0.8
		c-0.9,0.2-1.5,0.3-1.9,0.4c-0.4,0.1-0.7,0.1-1,0.2s-0.4,0.1-0.6,0.1c-0.2,0-0.4,0-0.8,0.1c0,0.3,0,0.7,0,1.4s0,1.3,0,1.8
		c0,0.5,0,0.9,0,1.4s0,0.9-0.1,1.3c-0.1,0.4-0.2,0.7-0.5,1s-0.6,0.4-1,0.4c-0.6,0-1-0.2-1.3-0.5s-0.5-0.8-0.5-1.5
		c-0.1-0.6-0.2-1.4-0.2-2.4c-0.1-1-0.1-1.9-0.1-2.7c0,0-0.2,0-0.7,0c-0.5,0-1.1,0.1-1.8,0.1s-1.6,0-2.5,0c-0.9,0-1.7-0.1-2.5-0.2
		c-0.6-0.1-1.1-0.4-1.4-0.8c-0.7-1.1-0.8-3.1-0.3-6c0.3-1.4,0.6-2.6,0.9-3.7c0.3-1.1,0.6-1.8,0.7-2c0-0.1,0.1-0.3,0.3-0.6
		c0.2-0.3,0.4-0.4,0.7-0.4c0.7,0,1.2,0.2,1.5,0.6c0.3,0.4,0.4,0.9,0.4,1.5c0,0.6-0.1,1.2-0.2,1.9c-0.1,0.7-0.3,1.3-0.3,1.9
		c-0.1,1.1-0.2,2-0.2,2.7c0,0.7,0,1.2,0.1,1.5c0.1,0.2,0.2,0.3,0.3,0.3c0.2,0.1,0.6,0.1,1.2,0.1c0.6,0,1.2,0,1.8,0
		c0.6,0,1.1-0.1,1.5-0.2c0.5-0.1,0.7-0.1,0.7-0.2v-2.1c0-0.9,0-1.8,0-2.7c0-0.9,0-1.8,0-2.7c0-0.8,0-1.5,0.1-2.2
		c0-0.7,0.2-1.3,0.4-2c0.1-0.3,0.4-0.5,0.8-0.6c0.4,0,0.7,0.1,0.9,0.4c0.3,0.4,0.5,0.9,0.7,1.5c0.2,0.6,0.3,1.3,0.4,2
		c0.1,0.7,0.2,1.4,0.2,2.2c0,0.8,0,1.5,0,2.2v2.3c0,0.6,0,1.2,0,1.9c0.1,0,0.3,0,0.6-0.1c0.4,0,0.8-0.1,1.2-0.1s0.9-0.1,1.3-0.1
		C477.9,38,478.2,38,478.4,38z"/>
</g>
<circle id="XMLID_26_" class="st2" cx="468.2" cy="36.7" r="18.5"/>
<path id="XMLID_23_" class="st3" d="M453.5,44.3"/>
<g id="XMLID_29_">
</g>
<g id="XMLID_46_">
</g>
<g id="XMLID_67_">
</g>
<g id="XMLID_68_">
</g>
<g id="XMLID_69_">
</g>
<g id="XMLID_70_">
</g>
<g id="XMLID_71_">
</g>
</svg>
