<?xml version="1.0" encoding="utf-8"?>
<!-- Generator: Adobe Illustrator 19.0.0, SVG Export Plug-In . SVG Version: 6.00 Build 0)  -->
<svg version="1.1" id="레이어_1" xmlns="http://www.w3.org/2000/svg" xmlns:xlink="http://www.w3.org/1999/xlink" x="0px"
	 y="0px" viewBox="0 0 600 580" style="enable-background:new 0 0 600 580;" xml:space="preserve">
<style type="text/css">
	.st0{opacity:0.5;}
	.st1{fill:none;}
	.st2{fill:none;stroke:#000000;}
	.st3{fill:none;stroke:#000000;stroke-width:5;stroke-miterlimit:10;}
</style>
<g id="XMLID_9_" class="st0">
	<path id="XMLID_46_" d="M509,210.9c3.3,8.3,2.8,15.2-1.4,20.8c-4.2,5.5-10.7,10.3-19.6,14.2c-8.9,3.9-19.5,6.9-31.9,9
		c-12.4,2.1-25,3.8-37.8,5.2c-12.8,1.4-25.3,2.3-37.5,2.8c-12.1,0.5-22.4,0.7-30.8,0.7l-102.2,1.4c0,10.3-0.6,20.9-1.8,31.9
		c-1.2,11-2.2,21.9-3.1,32.9c-0.9,11-1.3,21.8-1.1,32.5c0.2,10.7,2,21.2,5.3,31.5c0.9,2.3,2.5,5,4.6,8.1c2.1,3,4.5,4.5,7.3,4.5
		c0,4.7-1,9.8-3.1,15.4c-2.1,5.6-5.1,10.6-9.1,15.1c-4,4.4-8.4,8-13.3,10.8s-9.9,3.7-15,2.8c-9.3-1.4-16.6-5.7-21.7-13
		c-5.1-7.2-8.4-15.3-9.8-24.1c-1.4-9.8-1.8-19.6-1.1-29.4c0.7-9.8,1.5-19.4,2.5-28.7c0-1.4,0.4-5.8,1-13.3
		c0.7-7.5,1.4-16.1,2.1-25.9c0.7-9.8,1.5-19.6,2.5-29.4c0.9-9.8,1.6-17.5,2.1-23.1c-8.9,0-18.2-0.1-28-0.3c-9.8-0.2-19.1-1.5-28-3.8
		c-8.9-2.3-16.4-6-22.8-11.1c-6.3-5.1-10.4-12.2-12.3-21.5c-2.3-12.5,0.4-20.5,8.1-24.2c7.7-3.7,16.9-4.9,27.6-3.5
		c10.7,1.4,21.2,2.6,31.5,3.5c10.3,0.9,23,1.6,38.1,2.1c15.2,0.5,34.2,0.4,57.1-0.4c22.9-0.7,52.5-1.7,88.9-3.1
		c5.1,0,12.3-0.1,21.4-0.4c9.1-0.2,18.5-0.6,28.3-1c9.8-0.5,19.3-0.9,28.4-1.4c9.1-0.5,16.2-0.9,21.3-1.4c8.9-0.9,18.5-0.9,29,0
		S503.4,202.6,509,210.9z M376,278.2c8.9-6.5,15.6-8.6,20.3-6.3c4.7,2.3,8.2,8.4,10.5,18.2c1.9,8.9,4,21.9,6.3,39.2
		c2.3,17.3,3.2,34.8,2.5,52.5c-0.7,17.7-3.7,33.7-9.1,48c-5.4,14.2-14.8,23-28.4,26.3c-5.1,1.4-9.3,0.9-12.6-1.4
		c-3.3-2.3-5.8-5.7-7.7-10.2c-1.9-4.4-3-9.8-3.5-16.1c-0.5-6.3-0.7-13-0.7-20c0.5-7,1-16.2,1.8-27.6c0.7-11.4,1.5-23,2.5-34.7
		c0.9-11.7,1.9-22.2,2.8-31.5c0.9-9.3,1.6-15.2,2.1-17.5c0.9-3.7,2.7-7.2,5.3-10.5C370.5,283.3,373.2,280.5,376,278.2z"/>
</g>
<g id="XMLID_3_">
	<path id="XMLID_25_" class="st1" d="M468.9,229.4"/>
</g>
<g id="XMLID_8_">
	<path id="XMLID_17_" class="st1" d="M343.5,142.1"/>
</g>
<g id="XMLID_1_">
	<path id="XMLID_44_" d="M307.4,180.1c-0.5,0.2-0.8,0.1-1.1-0.1c-0.3-0.2-0.5-0.6-0.6-1c-0.1-0.5-0.3-0.9-0.3-1.5
		c0-0.5-0.1-1-0.1-1.4c-0.1-1-0.2-1.9-0.2-2.8c0-0.9,0-1.8,0-2.6c-0.1-1-0.1-2,0-3l0-5.1c0-0.6,0.1-1.2,0.1-1.9
		c0-0.6,0.1-1.3,0.3-1.9c0.2-0.6,0.5-0.9,1-1c0.5-0.1,1,0.1,1.4,0.5c0.3,0.4,0.6,1,0.8,1.9c0.2,0.8,0.3,1.7,0.4,2.6
		c0.1,0.9,0.1,1.8,0.1,2.8c0,0.9,0,1.6,0,2.3v0c0,1.3,0,2.7-0.1,4.1c-0.1,1.4,0,2.9,0.1,4.5c0.1,0.8,0,1.5-0.4,2.2
		C308.6,179.3,308.1,179.8,307.4,180.1z"/>
</g>
<circle id="XMLID_4_" class="st2" cx="306.5" cy="169.6" r="18.5"/>
<g id="XMLID_7_">
	<path id="XMLID_28_" d="M231.3,486.1c0.7,0.5,1,1,1,1.6c-0.1,0.3-0.3,0.6-0.6,0.9c-0.3,0.3-0.7,0.4-1.1,0.5
		c-0.8,0.1-1.6,0.1-2.3,0.2c-0.7,0.1-1.4,0.1-2.1,0.2c-1,0.1-2.1,0.2-3.1,0.3c-1,0.1-2.1,0.1-3.3,0.1c-0.7,0-1.3-0.1-1.9-0.3
		c-0.6-0.2-1-0.5-1.3-1.1c-0.2-0.5-0.2-0.9,0-1.2c0.2-0.4,0.5-0.8,0.9-1.4c0.1-0.1,0.3-0.4,0.5-0.8c0.2-0.4,0.5-0.8,0.9-1.3
		s0.7-1,1.1-1.6c0.4-0.6,0.8-1.2,1.2-1.7c2.1-2.9,3.1-5,2.9-6.3c-0.1-0.4-0.4-0.7-0.9-0.9c-0.5-0.2-1.2-0.3-2-0.3
		c-0.8,0-1.5,0.1-2.3,0.3c-0.7,0.2-1.5,0.3-2.3,0.3c-0.5-0.1-0.7-0.3-0.8-0.7c-0.1-0.4-0.1-0.8,0-1.1c0.1-0.4,0.3-0.6,0.6-0.8
		s0.6-0.4,0.9-0.5c0.7-0.3,1.5-0.5,2.5-0.6c1-0.1,1.9-0.1,2.9,0c1,0.1,1.9,0.3,2.7,0.6c0.9,0.3,1.5,0.7,2.1,1.2
		c0.3,0.3,0.5,0.7,0.6,1.2c0.1,0.5,0.1,1,0,1.6c-0.1,0.5-0.2,1.1-0.3,1.6s-0.3,0.9-0.4,1.2c-0.2,0.5-0.4,1-0.6,1.5
		c-0.2,0.5-0.5,1.2-0.9,1.9s-0.9,1.6-1.6,2.5c-0.6,1-1.4,2.2-2.4,3.6l6.2-0.3c0.6,0,1.1-0.1,1.7-0.1
		C230.3,485.9,230.9,485.9,231.3,486.1z"/>
</g>
<circle id="XMLID_5_" class="st2" cx="222.5" cy="479.8" r="18.5"/>
<path id="XMLID_13_" class="st3" d="M207.8,487.4"/>
<path id="XMLID_6_" class="st3" d="M370.3,135.1"/>
<g id="XMLID_18_">
	<g id="XMLID_39_">
		<line id="XMLID_42_" class="st3" x1="222.5" y1="245.1" x2="222.5" y2="417.6"/>
		<g id="XMLID_40_">
			<path id="XMLID_41_" d="M222.5,432.7c-2.6-7.1-7.1-15.9-11.9-21.4l11.9,4.3l11.9-4.3C229.6,416.8,225.1,425.6,222.5,432.7z"/>
		</g>
	</g>
</g>
<g id="XMLID_21_">
	<g id="XMLID_31_">
		<line id="XMLID_34_" class="st3" x1="138.2" y1="229.4" x2="453.8" y2="225.2"/>
		<g id="XMLID_32_">
			<path id="XMLID_33_" d="M468.9,225c-7.1,2.7-15.8,7.3-21.2,12.2l4.1-11.9l-4.5-11.8C452.9,218.1,461.7,222.4,468.9,225z"/>
		</g>
	</g>
</g>
<g id="XMLID_10_">
	<g id="XMLID_11_">
		<line id="XMLID_15_" class="st3" x1="382.9" y1="239.2" x2="382.9" y2="411.7"/>
		<g id="XMLID_12_">
			<path id="XMLID_14_" d="M382.9,426.8c-2.6-7.1-7.1-15.9-11.9-21.4l11.9,4.3l11.9-4.3C390,410.9,385.5,419.7,382.9,426.8z"/>
		</g>
	</g>
</g>
<g id="XMLID_20_">
	<path id="XMLID_26_" d="M385.7,480.3c0.6,0.2,1.2,0.5,1.7,0.8c0.5,0.3,0.9,0.8,1.3,1.4c0.3,0.4,0.5,1,0.5,1.8
		c0,0.7-0.1,1.5-0.5,2.2c-0.4,0.9-0.8,1.6-1.4,2.3c-0.5,0.6-1,1.1-1.2,1.4c-0.2,0.1-0.5,0.4-0.9,0.8c-0.5,0.4-1,0.8-1.6,1.2
		c-0.6,0.4-1.3,0.8-2,1s-1.4,0.5-2,0.5c-0.6,0-1.1-0.3-1.3-0.9c-0.2-0.4-0.1-0.8,0.3-1.3c0.4-0.5,0.7-0.9,1-1.1
		c0.4-0.2,0.9-0.6,1.6-1.1c0.7-0.5,1.3-1,1.9-1.5c0.6-0.5,1-1.1,1.4-1.7c0.4-0.6,0.4-1.2,0.1-1.8c-0.3-0.5-0.8-0.8-1.4-1
		c-0.7-0.2-1.3-0.3-1.8-0.4c-0.2,0-0.5-0.1-0.8-0.1c-0.3,0-0.7-0.1-1-0.3c-0.3-0.1-0.6-0.3-0.9-0.4s-0.4-0.4-0.5-0.7
		c-0.2-0.4-0.1-1.1,0.4-1.9c0.5-0.8,1-1.6,1.5-2.4c0.5-0.7,0.9-1.5,1.3-2.3c0.3-0.6,0.5-1.1,0.6-1.5c0.1-0.4,0.2-0.9,0.1-1.6
		c-0.1-0.6-0.4-0.8-0.9-0.8c-0.3,0-0.6,0-0.9,0.1c-0.3,0.1-0.6,0.2-0.9,0.3c-0.8,0.3-1.4,0.5-1.9,0.7c-0.4,0.2-0.9,0.3-1.5,0.3
		c-0.4,0-0.7-0.2-1-0.5c-0.2-0.3-0.3-0.7-0.3-1c0.1-0.3,0.2-0.6,0.4-0.8c0.2-0.2,0.6-0.5,1.2-0.8c0.9-0.4,2-0.8,3.1-1.1
		c1.1-0.4,2.3-0.5,3.5-0.6c0.4,0,0.8,0.1,1.3,0.3c0.5,0.2,0.9,0.5,1.1,0.9c0.3,0.5,0.5,1.2,0.5,1.9s0,1.5-0.2,2.3s-0.4,1.6-0.7,2.4
		c-0.3,0.8-0.6,1.5-0.9,2.2c-0.2,0.4-0.4,0.8-0.7,1.1c-0.3,0.3-0.3,0.6-0.3,0.9c0,0.3,0.3,0.5,0.9,0.5
		C384.7,480,385.2,480.1,385.7,480.3z"/>
</g>
<circle id="XMLID_19_" class="st2" cx="382.9" cy="479.8" r="18.5"/>
<g id="XMLID_22_">
</g>
<g id="XMLID_23_">
</g>
<g id="XMLID_49_">
</g>
<g id="XMLID_50_">
</g>
<g id="XMLID_51_">
</g>
<g id="XMLID_52_">
</g>
<g id="XMLID_53_">
</g>
<g id="XMLID_54_">
</g>
</svg>
