<?xml version="1.0" encoding="utf-8"?>
<!-- Generator: Adobe Illustrator 19.0.0, SVG Export Plug-In . SVG Version: 6.00 Build 0)  -->
<svg version="1.1" id="레이어_1" xmlns="http://www.w3.org/2000/svg" xmlns:xlink="http://www.w3.org/1999/xlink" x="0px"
	 y="0px" viewBox="0 0 600 580" style="enable-background:new 0 0 600 580;" xml:space="preserve">
<style type="text/css">
	.st0{opacity:0.5;}
	.st1{fill:none;stroke:#000000;stroke-width:5;stroke-miterlimit:10;}
	.st2{fill:none;stroke:#000000;}
</style>
<g id="XMLID_6_" class="st0">
	<path id="XMLID_9_" d="M354.8,170c10.7,1.4,21.4,3.5,31.9,6.3c10.5,2.8,19.7,8.6,27.6,17.5c10.3,12.1,16.8,25.9,19.6,41.3
		c2.8,15.4,4,30.6,3.5,45.5c0,7-0.2,12.8-0.7,17.5c-0.5,4.7-1,9.1-1.8,13.3c-0.7,4.2-1.4,8.6-2.1,13.3c-0.7,4.7-1.3,10.3-1.8,16.8
		c-0.9,9.3-2.3,19.6-4.2,30.8c-1.9,11.2-5.4,20.8-10.5,28.7c-4.7,6.5-10.2,10.7-16.5,12.6c-6.3,1.9-12.7-0.2-19.3-6.3
		c-6.1-6.1-9.6-13.1-10.5-21c-0.9-7.9-1.4-15.9-1.4-23.8c0-8.4,0.6-19.3,1.8-32.5c1.2-13.3,1.8-24.2,1.8-32.5c0-6.1,0-12.7,0-19.9
		c0-7.2-0.7-14.2-2.1-21c-1.4-6.8-4.1-12.5-8-17.2c-4-4.7-10.2-7.5-18.6-8.4c-6.5-0.5-14.6-0.9-24.1-1.4c-9.6-0.5-19.3-0.7-29.1-0.7
		c-9.8,0-19,0.1-27.7,0.4c-8.6,0.2-15.3,0.4-19.9,0.4c-10.7,0.5-20.2-1.3-28.4-5.3c-8.2-4-12.7-10.4-13.6-19.3c-0.9-8.4,1-15,5.9-20
		c4.9-4.9,11.1-8.6,18.6-11.2c7.5-2.6,15.3-4.1,23.4-4.6c8.2-0.5,15.3-0.7,21.4-0.7c5.1,0,11.6-0.1,19.3-0.4
		c7.7-0.2,15.5-0.2,23.5,0c7.9,0.2,15.6,0.5,23.1,0.7C343.3,169.2,349.6,169.5,354.8,170z"/>
</g>
<g id="XMLID_3_">
	<g id="XMLID_23_">
		<path id="XMLID_26_" class="st1" d="M228.3,201.2c0,0,238.5-70.3,172.9,172.5"/>
		<g id="XMLID_24_">
			<path id="XMLID_25_" d="M397,388.2c-0.6-7.5-2.5-17.2-5.6-23.8l10.3,7.4l12.6-0.9C408.2,374.8,401.5,382.1,397,388.2z"/>
		</g>
	</g>
</g>
<g id="XMLID_2_">
	<path id="XMLID_7_" d="M168.5,212.9c-0.5,0.2-0.8,0.1-1.1-0.1c-0.3-0.2-0.5-0.6-0.6-1c-0.1-0.5-0.3-0.9-0.3-1.5
		c0-0.5-0.1-1-0.1-1.4c-0.1-1-0.2-1.9-0.2-2.8c0-0.9,0-1.8,0-2.6c-0.1-1-0.1-2,0-3l0-5.1c0-0.6,0.1-1.2,0.1-1.9
		c0-0.6,0.1-1.3,0.4-1.9c0.2-0.6,0.5-0.9,1-1c0.5-0.1,0.9,0.1,1.4,0.5c0.3,0.4,0.6,1,0.8,1.9c0.2,0.8,0.3,1.7,0.4,2.6
		c0.1,0.9,0.1,1.8,0.1,2.8c0,0.9,0,1.6,0,2.3v0c0,1.3,0,2.7-0.1,4.1c-0.1,1.4,0,2.9,0.1,4.5c0.1,0.8,0,1.5-0.4,2.2
		C169.7,212.1,169.2,212.6,168.5,212.9z"/>
</g>
<circle id="XMLID_4_" class="st2" cx="167.6" cy="202.4" r="18.5"/>
<g id="XMLID_5_">
</g>
<g id="XMLID_11_">
</g>
<g id="XMLID_12_">
</g>
<g id="XMLID_13_">
</g>
<g id="XMLID_14_">
</g>
<g id="XMLID_15_">
</g>
<g id="XMLID_16_">
</g>
</svg>
