<?xml version="1.0" encoding="utf-8"?>
<!-- Generator: Adobe Illustrator 19.0.0, SVG Export Plug-In . SVG Version: 6.00 Build 0)  -->
<svg version="1.1" id="레이어_1" xmlns="http://www.w3.org/2000/svg" xmlns:xlink="http://www.w3.org/1999/xlink" x="0px"
	 y="0px" viewBox="0 0 600 580" style="enable-background:new 0 0 600 580;" xml:space="preserve">
<style type="text/css">
	.st0{opacity:0.5;}
	.st1{fill:none;stroke:#000000;}
	.st2{fill:none;stroke:#000000;stroke-width:5;stroke-miterlimit:10;}
</style>
<g id="XMLID_6_" class="st0">
	<path id="XMLID_8_" d="M270.3,214.9c0.9,13.5,1.2,28.8,0.7,45.9c-0.5,17,0.2,32.6,2.1,46.6c0.5,6.5,2.3,12.7,5.6,18.5
		c3.3,5.8,8.2,10.4,14.7,13.6c5.6,2.8,12.5,4.6,20.7,5.3c8.2,0.7,16.7,1.1,25.5,1.1c8.9,0,17.5-0.3,25.9-1.1
		c8.4-0.7,15.4-1.3,21-1.8c4.7-0.5,10.3-1.2,16.8-2.1c6.5-0.9,13.1-1.4,19.6-1.4c6.5,0,12.5,0.9,17.9,2.8c5.4,1.9,9,5.8,10.8,11.9
		c2.8,9.3,1.6,17.1-3.5,23.4c-5.1,6.3-12.6,11.3-22.4,15.1c-9.8,3.7-21,6.5-33.6,8.4c-12.6,1.9-25.1,3-37.5,3.5
		c-12.4,0.5-23.7,0.6-34,0.4c-10.3-0.2-17.7-0.6-22.4-1.1c-7-0.5-14.4-1.6-22-3.5c-7.7-1.9-15.1-4.5-22.1-8s-13.3-7.9-18.9-13.3
		c-5.6-5.4-9.8-11.8-12.6-19.3c-3.3-9.3-6.3-22.3-9.1-38.8c-2.8-16.6-4.5-33.6-5.3-51.1c-0.7-17.5,0-34.2,2.1-50
		c2.1-15.9,6.4-28,13-36.4c3.7-4.2,9.2-6.8,16.4-7.7c7.2-0.9,14.1,1.2,20.7,6.3c4.7,3.7,7.2,8.9,7.7,15.4
		C268.6,203.9,269.3,209.7,270.3,214.9z"/>
</g>
<g id="XMLID_2_">
	<path id="XMLID_5_" d="M243.3,155.5c-0.5,0.2-0.8,0.1-1.1-0.1c-0.3-0.2-0.5-0.6-0.6-1c-0.1-0.5-0.3-0.9-0.3-1.5
		c0-0.5-0.1-1-0.1-1.4c-0.1-1-0.2-1.9-0.2-2.8c0-0.9,0-1.8,0-2.6c-0.1-1-0.1-2,0-3l0-5.1c0-0.6,0.1-1.2,0.1-1.9
		c0-0.6,0.1-1.3,0.4-1.9c0.2-0.6,0.5-0.9,1-1c0.5-0.1,0.9,0.1,1.4,0.5c0.3,0.4,0.6,1,0.8,1.9c0.2,0.8,0.3,1.7,0.4,2.6
		c0.1,0.9,0.1,1.8,0.1,2.8c0,0.9,0,1.6,0,2.3v0c0,1.3,0,2.7-0.1,4.1c-0.1,1.4,0,2.9,0.1,4.5c0.1,0.8,0,1.5-0.4,2.2
		C244.4,154.7,243.9,155.2,243.3,155.5z"/>
</g>
<circle id="XMLID_4_" class="st1" cx="242.3" cy="145" r="18.5"/>
<g id="XMLID_1_">
	<g id="XMLID_15_">
		<path id="XMLID_18_" class="st2" d="M242.9,197.3c0,0-69.5,231.2,176.4,166.5"/>
		<g id="XMLID_16_">
			<path id="XMLID_17_" d="M433.9,359.8c-6.1,4.4-13.4,11.1-17.4,17.1l1-12.6l-7.3-10.3C416.7,357.1,426.4,359.1,433.9,359.8z"/>
		</g>
	</g>
</g>
<g id="XMLID_3_">
</g>
<g id="XMLID_10_">
</g>
<g id="XMLID_11_">
</g>
<g id="XMLID_12_">
</g>
<g id="XMLID_13_">
</g>
<g id="XMLID_19_">
</g>
<g id="XMLID_20_">
</g>
</svg>
