<?xml version="1.0" encoding="utf-8"?>
<!-- Generator: Adobe Illustrator 19.0.0, SVG Export Plug-In . SVG Version: 6.00 Build 0)  -->
<svg version="1.1" id="레이어_1" xmlns="http://www.w3.org/2000/svg" xmlns:xlink="http://www.w3.org/1999/xlink" x="0px"
	 y="0px" viewBox="0 0 600 580" style="enable-background:new 0 0 600 580;" xml:space="preserve">
<style type="text/css">
	.st0{opacity:0.5;}
	.st1{fill:none;stroke:#000000;stroke-width:5;stroke-miterlimit:10;}
	.st2{fill:none;stroke:#000000;}
</style>
<g id="XMLID_6_" class="st0">
	<path id="XMLID_23_" d="M400.5,345.2c4.2-0.5,9.3-1.2,15.4-2.1c6.1-0.9,11.9-1.2,17.5-0.7c5.6,0.5,10.7,1.8,15.4,3.8
		c4.7,2.1,7.9,6.2,9.8,12.3c3.3,11.2,0.2,21-9.1,29.4c-5.6,4.2-15.2,7.6-28.7,10.2c-13.5,2.6-28.1,4.7-43.8,6.3
		c-15.6,1.6-30.7,2.8-45.1,3.5c-14.5,0.7-25.2,1-32.2,1c-16.3,0.5-32.5-2.9-48.6-10.2c-16.1-7.2-27.4-19-34-35.3
		c-2.8-7.5-5-16.7-6.6-27.7c-1.6-11-2.9-22.4-3.9-34.3c-0.9-11.9-1.4-23.5-1.4-34.6c0-11.2,0.5-20.5,1.4-28c0.5-2.8,0.8-5.7,1.1-8.8
		c0.2-3,0.6-6.2,1-9.5c-4.2-2.3-7.9-4.9-11.2-7.7c-3.3-2.8-5.6-6.8-7-11.9c-2.3-5.1-2.3-10.1,0-15c2.3-4.9,5.6-8.3,9.8-10.1
		c5.1-2.3,12.7-4.2,22.8-5.6c10-1.4,21.4-2.5,33.9-3.1c12.6-0.7,25.9-1.1,39.9-1.1c14,0,27.4,0.1,40.3,0.4c12.8,0.2,24.5,0.6,35,1
		c10.5,0.5,18.8,0.9,24.8,1.4c6.5,0.9,13,2.7,19.3,5.3c6.3,2.6,10.6,7.1,13,13.6c3.3,10.7,1,18.5-6.7,23.5
		c-7.7,4.9-16.4,8.3-26.3,10.2c-8.9,1.4-18.9,2.4-30.1,3.1s-22.5,1.2-34,1.4c-11.4,0.2-22.9,0.3-34.3,0.3c-11.4,0-21.8-0.2-31.1-0.7
		c-0.5,3.7-0.7,10-0.7,18.9c0,8.9,0,18,0,27.3c0,9.3,0.1,18,0.4,25.9c0.2,7.9,0.6,12.8,1,14.7c0.9,7,2.3,13.1,4.2,18.2
		c1.9,5.1,4.7,9.3,8.4,12.6c3.7,3.3,8.9,5.6,15.4,7c6.5,1.4,15.2,1.6,25.9,0.7c4.7-0.5,10.5-0.9,17.5-1.4c7-0.5,14.3-0.9,22-1.4
		c7.7-0.5,15-0.9,22-1.4C390,346.1,395.9,345.7,400.5,345.2z"/>
</g>
<g id="XMLID_2_">
	<g id="XMLID_19_">
		<line id="XMLID_22_" class="st1" x1="209.3" y1="192.3" x2="391.4" y2="192.3"/>
		<g id="XMLID_20_">
			<path id="XMLID_21_" d="M406.5,192.3c-7.1,2.6-15.9,7.1-21.4,11.9l4.3-11.9l-4.3-11.9C390.6,185.2,399.4,189.7,406.5,192.3z"/>
		</g>
	</g>
</g>
<g id="XMLID_3_">
	<g id="XMLID_14_">
		<path id="XMLID_17_" class="st1" d="M233.6,213.2c0,0-79.7,221.8,184,156.6"/>
		<g id="XMLID_15_">
			<path id="XMLID_16_" d="M432.2,365.9c-6.2,4.3-13.7,10.8-17.8,16.7l1.3-12.6l-7.1-10.5C415.1,362.9,424.7,365.1,432.2,365.9z"/>
		</g>
	</g>
</g>
<g id="XMLID_1_">
	<path id="XMLID_11_" d="M156.7,202.9c-0.5,0.2-0.8,0.1-1.1-0.1c-0.3-0.2-0.5-0.6-0.6-1c-0.1-0.5-0.3-0.9-0.3-1.5
		c0-0.5-0.1-1-0.1-1.4c-0.1-1-0.2-1.9-0.2-2.8c0-0.9,0-1.8,0-2.6c-0.1-1-0.1-2,0-3l0-5.1c0-0.6,0.1-1.2,0.1-1.9
		c0-0.6,0.1-1.3,0.4-1.9c0.2-0.6,0.5-0.9,1-1c0.5-0.1,0.9,0.1,1.4,0.5c0.3,0.4,0.6,1,0.8,1.9c0.2,0.8,0.3,1.7,0.4,2.6
		c0.1,0.9,0.1,1.8,0.1,2.8c0,0.9,0,1.6,0,2.3v0c0,1.3,0,2.7-0.1,4.1c-0.1,1.4,0,2.9,0.1,4.5c0.1,0.8,0,1.5-0.4,2.2
		C157.9,202.1,157.4,202.6,156.7,202.9z"/>
</g>
<circle id="XMLID_4_" class="st2" cx="155.8" cy="192.3" r="18.5"/>
<g id="XMLID_7_">
	<path id="XMLID_9_" d="M205.2,396.6c0.7,0.5,1,1,1,1.6c-0.1,0.3-0.3,0.6-0.6,0.9s-0.7,0.4-1.1,0.5c-0.8,0.1-1.6,0.1-2.3,0.2
		c-0.7,0.1-1.4,0.1-2.1,0.2c-1,0.1-2.1,0.2-3.1,0.3s-2.1,0.1-3.3,0.1c-0.7,0-1.3-0.1-1.9-0.3c-0.6-0.2-1-0.5-1.3-1.1
		c-0.2-0.5-0.2-0.9,0-1.2c0.2-0.4,0.5-0.8,0.9-1.4c0.1-0.1,0.3-0.4,0.5-0.8c0.2-0.4,0.5-0.8,0.9-1.3s0.7-1,1.1-1.6
		c0.4-0.6,0.8-1.2,1.2-1.7c2.1-2.9,3.1-5,2.9-6.4c-0.1-0.4-0.4-0.7-0.9-0.9c-0.5-0.2-1.2-0.3-2-0.3c-0.8,0-1.5,0.1-2.3,0.3
		c-0.7,0.2-1.5,0.3-2.3,0.3c-0.5-0.1-0.7-0.3-0.8-0.7c-0.1-0.4-0.1-0.8,0-1.1c0.1-0.4,0.3-0.7,0.6-0.8c0.3-0.2,0.6-0.4,0.9-0.6
		c0.7-0.3,1.5-0.5,2.5-0.6c1-0.1,1.9-0.1,2.9,0c1,0.1,1.9,0.3,2.7,0.6s1.5,0.7,2.1,1.2c0.3,0.3,0.5,0.7,0.6,1.2c0.1,0.5,0.1,1,0,1.6
		c-0.1,0.5-0.2,1.1-0.3,1.6s-0.3,0.9-0.4,1.2c-0.2,0.5-0.4,1-0.6,1.5c-0.2,0.5-0.5,1.2-0.9,1.9c-0.4,0.7-0.9,1.6-1.6,2.5
		c-0.6,1-1.4,2.2-2.4,3.5l6.2-0.3c0.6,0,1.1-0.1,1.7-0.1C204.2,396.3,204.7,396.4,205.2,396.6z"/>
</g>
<circle id="XMLID_5_" class="st2" cx="196.3" cy="390.2" r="18.5"/>
<g id="XMLID_8_">
</g>
<g id="XMLID_25_">
</g>
<g id="XMLID_26_">
</g>
<g id="XMLID_27_">
</g>
<g id="XMLID_28_">
</g>
<g id="XMLID_29_">
</g>
<g id="XMLID_30_">
</g>
</svg>
