<?xml version="1.0" encoding="utf-8"?>
<!-- Generator: Adobe Illustrator 19.0.0, SVG Export Plug-In . SVG Version: 6.00 Build 0)  -->
<svg version="1.1" id="레이어_1" xmlns="http://www.w3.org/2000/svg" xmlns:xlink="http://www.w3.org/1999/xlink" x="0px"
	 y="0px" viewBox="0 0 600 580" style="enable-background:new 0 0 600 580;" xml:space="preserve">
<style type="text/css">
	.st0{opacity:0.5;}
	.st1{fill:none;stroke:#000000;stroke-width:5;stroke-miterlimit:10;}
	.st2{fill:none;}
	.st3{fill:none;stroke:#000000;}
</style>
<g id="XMLID_9_" class="st0">
	<path id="XMLID_57_" d="M428.8,151.8c5.6,0.9,9.7,3.6,12.3,8.1c2.6,4.4,4.5,9.7,5.9,15.8c1.9,8.9,2.8,20.9,2.8,36
		c0,15.2-0.5,31-1.4,47.6c-0.9,16.6-2.1,32.7-3.5,48.3c-1.4,15.6-2.8,28.3-4.2,38.2c-1.9,13.5-5.7,24.5-11.5,32.9
		c-5.8,8.4-13,15.2-21.3,20.3c-8.4,5.1-17.9,8.9-28.4,11.2c-10.5,2.3-21.3,4.2-32.5,5.6c-6.5,0-14.6-0.4-24.2-1.1
		c-9.6-0.7-19.3-2.1-29.1-4.2c-9.8-2.1-19.1-5-28-8.8c-8.9-3.7-15.9-8.9-21-15.4c-12.1-14.5-20.1-28.8-23.8-43
		c-3.7-14.2-6.8-30.9-9.1-50c-4.2,0-9-0.4-14.4-1.1c-5.4-0.7-9.2-3.6-11.5-8.8c-1.9-3.7-2.7-8.2-2.5-13.3c0.2-5.1,1.5-9.6,3.9-13.3
		c2.8-4.2,5.7-6.5,8.8-7c3-0.5,6.9-1.2,11.6-2.1c-0.9-10.7-1.4-20.9-1.4-30.5c0-9.6,0.5-20,1.4-31.1c0.5-7.5,1.9-13.5,4.2-18.2
		c2.3-4.7,7-7.9,14-9.8c10.7-1.9,18.4-0.8,23.1,3.1c4.7,4,8.2,11.1,10.5,21.4c0.5,3.3,0.9,6.5,1.4,9.8c0.5,3.3,0.9,7,1.4,11.2
		c0.5,4.2,0.8,9.4,1.1,15.8c0.2,6.3,0.6,14.1,1,23.4c-1.4,0,2-0.2,10.1-0.7c8.2-0.5,17.4-0.8,27.7-1.1c10.3-0.2,19.5-0.5,27.6-0.7
		c8.2-0.2,11.6-0.4,10.2-0.4c2.8,0,6.5-0.2,11.2-0.7c4.7-0.5,9.2-0.3,13.6,0.4c4.4,0.7,8.3,2.1,11.6,4.2c3.3,2.1,4.9,5.5,4.9,10.1
		c0.5,6.1-0.9,12-4.2,17.9c-3.3,5.8-8.2,10.1-14.7,12.9c-3.7,1.4-8.9,2.6-15.4,3.5c-6.5,0.9-13.5,1.6-21,2.1
		c-7.5,0.5-14.6,0.8-21.4,1.1c-6.8,0.2-12,0.6-15.8,1c-3.3,0-6.5,0.1-9.8,0.3c-3.3,0.2-6.5,0.4-9.8,0.4c0,6.5,1.5,14.8,4.6,24.8
		c3,10,8,19.1,15,27.3c7,8.2,16.5,14.1,28.4,17.9c11.9,3.7,26.7,2.6,44.5-3.5c6.5-1.9,11.5-6.3,15-13.3s6.1-14.8,7.7-23.4
		c1.6-8.6,2.7-17.5,3.1-26.6c0.5-9.1,0.9-17.1,1.4-24.1c0.5-15.4,1.3-29.5,2.5-42.4c1.2-12.8,2.2-26.7,3.1-41.6
		c0-2.8,0.2-6.4,0.7-10.9c0.5-4.4,1.8-8.6,3.9-12.6c2.1-4,5.5-7.4,10.1-10.1C413.9,151.8,420.4,150.9,428.8,151.8z"/>
</g>
<g id="XMLID_6_">
	<g id="XMLID_33_">
		<line id="XMLID_39_" class="st1" x1="255.1" y1="265.3" x2="353.9" y2="265.3"/>
		<g id="XMLID_34_">
			<path id="XMLID_35_" d="M369,265.3c-7.1,2.6-15.9,7.1-21.4,11.9l4.3-11.9l-4.3-11.9C353.1,258.1,361.9,262.6,369,265.3z"/>
		</g>
	</g>
</g>
<g id="XMLID_10_">
	<path id="XMLID_25_" class="st2" d="M418.8,383.3"/>
</g>
<g id="XMLID_8_">
	<path id="XMLID_17_" class="st2" d="M220.2,230.5"/>
</g>
<g id="XMLID_1_">
	<path id="XMLID_55_" d="M233.8,145.9c-0.5,0.2-0.8,0.1-1.1-0.1c-0.3-0.2-0.5-0.6-0.6-1c-0.1-0.5-0.3-0.9-0.3-1.5
		c0-0.5-0.1-1-0.1-1.4c-0.1-1-0.2-1.9-0.2-2.8c0-0.9,0-1.8,0-2.6c-0.1-1-0.1-2,0-3l0-5.1c0-0.6,0.1-1.2,0.1-1.9
		c0-0.6,0.1-1.3,0.4-1.9c0.2-0.6,0.5-0.9,1-1c0.5-0.1,0.9,0.1,1.4,0.5c0.3,0.4,0.6,1,0.8,1.9c0.2,0.8,0.3,1.7,0.4,2.6
		c0.1,0.9,0.1,1.8,0.1,2.8c0,0.9,0,1.6,0,2.3v0c0,1.3,0,2.7-0.1,4.1c-0.1,1.4,0,2.9,0.1,4.5c0.1,0.8,0,1.5-0.4,2.2
		C235,145.1,234.5,145.6,233.8,145.9z"/>
</g>
<circle id="XMLID_4_" class="st3" cx="232.9" cy="135.4" r="18.5"/>
<g id="XMLID_7_">
	<path id="XMLID_30_" d="M432.6,137c0.7,0.5,1,1,1,1.6c-0.1,0.3-0.3,0.6-0.6,0.9c-0.3,0.3-0.7,0.4-1.1,0.5c-0.8,0.1-1.6,0.1-2.3,0.2
		c-0.7,0.1-1.4,0.1-2.1,0.2c-1,0.1-2,0.2-3,0.3c-1,0.1-2.1,0.1-3.3,0.1c-0.7,0-1.3-0.1-1.9-0.3c-0.6-0.2-1-0.5-1.3-1.1
		c-0.2-0.5-0.2-0.9,0-1.2c0.2-0.4,0.5-0.8,0.9-1.4c0.1-0.1,0.3-0.4,0.5-0.8c0.2-0.4,0.5-0.8,0.9-1.3c0.3-0.5,0.7-1,1.1-1.6
		c0.4-0.6,0.8-1.2,1.2-1.7c2.1-2.9,3.1-5,2.9-6.4c-0.1-0.4-0.4-0.7-0.9-0.9c-0.5-0.2-1.2-0.3-2-0.3s-1.5,0.1-2.3,0.3
		c-0.7,0.2-1.5,0.3-2.3,0.3c-0.5-0.1-0.7-0.3-0.8-0.7c-0.1-0.4-0.1-0.8,0-1.1c0.1-0.4,0.3-0.6,0.6-0.8c0.3-0.2,0.6-0.4,0.9-0.6
		c0.7-0.3,1.5-0.5,2.5-0.6c1-0.1,1.9-0.1,2.9,0c1,0.1,1.8,0.3,2.7,0.6c0.8,0.3,1.5,0.7,2.1,1.2c0.3,0.3,0.5,0.7,0.6,1.2
		c0.1,0.5,0.1,1,0,1.6c-0.1,0.5-0.2,1.1-0.3,1.6c-0.2,0.5-0.3,0.9-0.4,1.2c-0.2,0.5-0.4,1-0.6,1.5c-0.2,0.5-0.5,1.2-0.9,1.9
		c-0.4,0.7-0.9,1.6-1.6,2.5c-0.6,1-1.4,2.2-2.4,3.6l6.2-0.3c0.6,0,1.1-0.1,1.7-0.1C431.6,136.7,432.1,136.8,432.6,137z"/>
</g>
<circle id="XMLID_5_" class="st3" cx="423.8" cy="130.7" r="18.5"/>
<g id="XMLID_11_">
	<g id="XMLID_41_">
		<line id="XMLID_44_" class="st1" x1="232.9" y1="181.2" x2="245.1" y2="362.7"/>
		<g id="XMLID_42_">
			<path id="XMLID_43_" d="M246.1,377.8c-3.1-6.9-8.2-15.4-13.3-20.5l12.2,3.5l11.6-5.1C252.2,361.4,248.3,370.5,246.1,377.8z"/>
		</g>
	</g>
</g>
<g id="XMLID_12_">
	<g id="XMLID_46_">
		<line id="XMLID_49_" class="st1" x1="428.8" y1="181.2" x2="419.6" y2="359.2"/>
		<g id="XMLID_47_">
			<path id="XMLID_48_" d="M418.8,374.3c-2.3-7.2-6.3-16.3-10.8-22l11.7,4.9l12.1-3.7C426.8,358.8,421.8,367.3,418.8,374.3z"/>
		</g>
	</g>
</g>
<g id="XMLID_13_">
	<g id="XMLID_51_">
		<line id="XMLID_54_" class="st1" x1="258.6" y1="383.3" x2="385.9" y2="383.3"/>
		<g id="XMLID_52_">
			<path id="XMLID_53_" d="M401,383.3c-7.1,2.6-15.9,7.1-21.4,11.9l4.3-11.9l-4.3-11.9C385.1,376.2,393.9,380.6,401,383.3z"/>
		</g>
	</g>
</g>
<g id="XMLID_14_">
	<path id="XMLID_28_" d="M321.3,220.8c0.6,0.2,1.2,0.5,1.7,0.9c0.5,0.3,0.9,0.8,1.3,1.4c0.3,0.4,0.5,1,0.5,1.8
		c0,0.7-0.1,1.5-0.5,2.2c-0.4,0.9-0.8,1.6-1.4,2.3c-0.5,0.6-1,1.1-1.2,1.4c-0.2,0.1-0.5,0.4-0.9,0.8c-0.5,0.4-1,0.8-1.6,1.2
		c-0.6,0.4-1.3,0.8-2,1c-0.7,0.3-1.4,0.5-2,0.5c-0.6,0-1.1-0.3-1.3-0.9c-0.2-0.4-0.1-0.8,0.3-1.3c0.4-0.5,0.7-0.9,1-1.1
		c0.4-0.2,0.9-0.6,1.6-1.1c0.7-0.5,1.3-1,1.9-1.5c0.6-0.5,1.1-1.1,1.4-1.7c0.3-0.6,0.4-1.2,0.1-1.8c-0.3-0.5-0.8-0.8-1.5-1
		c-0.7-0.2-1.3-0.3-1.8-0.4c-0.2,0-0.5-0.1-0.8-0.1c-0.3-0.1-0.7-0.1-1-0.3c-0.3-0.1-0.6-0.3-0.8-0.4c-0.3-0.2-0.4-0.4-0.5-0.6
		c-0.2-0.4,0-1.1,0.5-1.9c0.5-0.8,1-1.6,1.5-2.4c0.5-0.7,0.9-1.5,1.3-2.4c0.3-0.6,0.5-1.1,0.6-1.5c0.1-0.4,0.2-0.9,0.1-1.6
		c-0.1-0.6-0.4-0.8-0.9-0.8c-0.3,0-0.6,0-0.9,0.1c-0.3,0.1-0.6,0.2-0.9,0.3c-0.8,0.3-1.4,0.5-1.8,0.7c-0.4,0.2-0.9,0.3-1.5,0.3
		c-0.4,0-0.7-0.2-1-0.5c-0.2-0.3-0.3-0.7-0.3-1c0.1-0.3,0.2-0.6,0.4-0.9c0.2-0.2,0.6-0.5,1.2-0.8c0.9-0.4,2-0.8,3.1-1.1
		s2.3-0.5,3.5-0.6c0.4,0,0.8,0.1,1.3,0.3c0.5,0.2,0.9,0.5,1.1,0.9c0.3,0.5,0.5,1.2,0.5,1.9c0,0.7,0,1.5-0.2,2.3
		c-0.2,0.8-0.4,1.6-0.7,2.4c-0.3,0.8-0.6,1.5-1,2.2c-0.2,0.4-0.4,0.8-0.7,1.1c-0.3,0.3-0.3,0.6-0.3,0.9c0,0.3,0.3,0.5,0.9,0.5
		C320.3,220.5,320.8,220.6,321.3,220.8z"/>
</g>
<circle id="XMLID_3_" class="st3" cx="318.5" cy="220.4" r="18.5"/>
<g id="XMLID_19_">
	<path id="XMLID_26_" d="M347.2,443.7c0.3,0,0.6,0.1,1,0.3c0.4,0.1,0.6,0.4,0.6,0.8c0,0.5-0.1,0.8-0.3,1.1s-0.6,0.5-1.1,0.8
		c-0.9,0.2-1.5,0.3-1.9,0.4c-0.4,0.1-0.7,0.1-1,0.2s-0.4,0.1-0.6,0.1c-0.2,0-0.4,0-0.8,0.1c0,0.3,0,0.7,0,1.4s0,1.3,0,1.8
		c0,0.5,0,0.9,0,1.4s0,0.9-0.1,1.3c-0.1,0.4-0.2,0.7-0.5,1c-0.2,0.3-0.6,0.4-1,0.4c-0.6,0-1-0.2-1.3-0.5s-0.5-0.8-0.5-1.5
		c-0.1-0.6-0.2-1.4-0.2-2.4c-0.1-1-0.1-1.9-0.1-2.7c0,0-0.2,0-0.7,0c-0.5,0-1.1,0.1-1.9,0.1s-1.6,0-2.4,0c-0.9,0-1.7-0.1-2.5-0.2
		c-0.6-0.1-1.1-0.4-1.4-0.8c-0.7-1.1-0.8-3.1-0.3-6c0.3-1.4,0.6-2.6,0.9-3.7c0.3-1.1,0.6-1.8,0.7-2c0-0.1,0.1-0.3,0.3-0.6
		c0.2-0.3,0.4-0.4,0.7-0.4c0.7,0,1.2,0.2,1.5,0.6c0.3,0.4,0.4,0.9,0.4,1.5c0,0.6-0.1,1.2-0.2,1.9c-0.1,0.7-0.3,1.3-0.3,1.9
		c-0.1,1.1-0.2,2-0.2,2.7c0,0.7,0,1.2,0.1,1.5c0.1,0.2,0.2,0.3,0.4,0.3c0.2,0.1,0.6,0.1,1.2,0.1c0.6,0,1.2,0,1.8,0
		c0.6,0,1.1-0.1,1.5-0.2c0.5-0.1,0.7-0.1,0.7-0.2v-2.1c0-0.9,0-1.8,0-2.7c0-0.9,0-1.8,0-2.7c0-0.8,0-1.5,0.1-2.2
		c0-0.7,0.2-1.3,0.4-2c0.1-0.3,0.4-0.5,0.8-0.6c0.4,0,0.7,0.1,0.9,0.4c0.3,0.4,0.5,0.9,0.7,1.5c0.2,0.6,0.3,1.3,0.4,2
		c0.1,0.7,0.2,1.4,0.2,2.2c0,0.8,0,1.5,0,2.2v2.3c0,0.6,0,1.2,0,1.9c0.1,0,0.3,0,0.7-0.1c0.4,0,0.8-0.1,1.2-0.1
		c0.5,0,0.9-0.1,1.3-0.1C346.7,443.6,347,443.6,347.2,443.7z"/>
</g>
<circle id="XMLID_18_" class="st3" cx="337" cy="442.3" r="18.5"/>
<g id="XMLID_20_">
</g>
<g id="XMLID_21_">
</g>
<g id="XMLID_22_">
</g>
<g id="XMLID_59_">
</g>
<g id="XMLID_60_">
</g>
<g id="XMLID_61_">
</g>
<g id="XMLID_62_">
</g>
<g id="XMLID_63_">
</g>
<g id="XMLID_64_">
</g>
</svg>
