<?xml version="1.0" encoding="utf-8"?>
<!-- Generator: Adobe Illustrator 19.0.0, SVG Export Plug-In . SVG Version: 6.00 Build 0)  -->
<svg version="1.1" id="레이어_1" xmlns="http://www.w3.org/2000/svg" xmlns:xlink="http://www.w3.org/1999/xlink" x="0px"
	 y="0px" viewBox="0 0 600 580" style="enable-background:new 0 0 600 580;" xml:space="preserve">
<style type="text/css">
	.st0{opacity:0.5;}
	.st1{fill:none;stroke:#000000;stroke-width:5;stroke-miterlimit:10;}
	.st2{fill:none;}
	.st3{fill:none;stroke:#000000;}
</style>
<g id="XMLID_9_" class="st0">
	<path id="XMLID_100_" d="M315.9,207.9c0.5,6.5,0.9,11.1,1.4,13.6c0.5,2.6,0.7,4.8,0.7,6.6c0,1.9,0.1,4,0.3,6.3
		c0.2,2.3,0.3,6.5,0.3,12.6c0.5,18.7,0.3,36.4-0.3,53.2s-2.4,34.3-5.3,52.5c-1.9,11.7-5.8,22.2-11.9,31.5
		c-6.1,9.3-13.6,16.9-22.8,22.8c-9.1,5.8-19.1,9.7-30.1,11.5c-11,1.9-22.3,1.4-33.9-1.4c-13.5-3.3-24.2-8.3-31.9-15
		c-7.7-6.8-13.8-14.5-18.2-23.1c-4.4-8.6-7.6-18.3-9.4-29c-1.9-10.7-3.5-21.9-4.9-33.6c-3.7,0-7.1-0.9-10.1-2.8
		c-3-1.9-5.3-4.7-6.6-8.4c-2.3-7.5-2.3-14.2,0-20.3c2.3-6.1,6.8-9.8,13.3-11.2c0-4.7-0.1-8.4-0.3-11.2c-0.2-2.8-0.4-5.5-0.4-8.1
		c0-2.6,0.1-5.3,0.4-8c0.2-2.8,0.3-6.5,0.3-11.2c0-4.2,0.2-8.8,0.7-13.6c0.5-4.9,1.3-9.6,2.5-14c1.2-4.4,3-8.3,5.6-11.5
		c2.6-3.3,6-5.4,10.2-6.3c7.9-1.4,14.6-0.3,19.9,3.2c5.4,3.5,8.5,10.6,9.5,21.3c0.9,9.3,1.6,17.7,2.1,25.2c0.5,7.5,1.2,16.8,2.1,28
		c4.7,0,9.9-0.4,15.8-1c5.8-0.7,11.4-0.9,16.8-0.7c5.4,0.2,10.3,1.5,14.7,3.9c4.4,2.3,7.6,6.3,9.5,11.9c1.9,6.1,1.9,11.7,0,16.8
		c-1.9,5.1-6.3,8.6-13.3,10.5c-1.9,0.5-4.7,0.9-8.4,1.4c-3.7,0.5-7.7,0.8-11.9,1c-4.2,0.2-8.2,0.5-11.9,0.7
		c-3.7,0.2-6.5,0.3-8.4,0.3c1.4,9.8,2.6,17,3.5,21.7c0.9,4.7,2.8,11,5.6,18.9c1.9,5.1,5.4,8.9,10.5,11.2c5.1,2.3,10.4,3.1,15.8,2.4
		c5.4-0.7,10.3-2.7,14.7-5.9c4.4-3.3,7.4-7.7,8.8-13.3c1.9-10.3,3.1-19.5,3.9-27.6c0.7-8.2,1-16.2,1-24.2c0-7.9-0.2-16.1-0.7-24.5
		c-0.5-8.4-0.7-17.5-0.7-27.3c0-8.4-0.1-16.7-0.4-24.9c-0.2-8.2,0.5-15.4,2.1-21.7c1.6-6.3,4.8-11.2,9.5-14.7
		c4.7-3.5,11.9-4.8,21.7-3.9c5.6,0.9,9.9,4.5,13,10.9C312.9,195.6,314.9,201.8,315.9,207.9z M489.5,201.6c1.4,14,2.4,26.6,3.2,37.8
		c0.7,11.2,1.2,22.3,1.4,33.3c0.2,11-0.1,22.5-1,34.6c-0.9,12.1-2.6,26.4-4.9,42.7c-3.7,25.2-14.2,42.8-31.5,52.8
		c-17.3,10-38,13.2-62.3,9.5c-12.6-1.9-23.1-6.7-31.5-14.4c-8.4-7.7-15-17.1-19.9-28.3s-8.4-23.6-10.5-37.1
		c-2.1-13.5-3.4-27.4-3.8-41.6c-0.5-14.2-0.3-28.1,0.3-41.7c0.7-13.5,1.5-25.7,2.4-36.4c0.9-7.5,2.6-13.4,4.9-17.9
		c2.3-4.4,7-7.3,14-8.8c6.1-0.9,10.7-1,14-0.3c3.3,0.7,5.8,2.3,7.7,4.9c1.9,2.6,3.1,5.9,3.8,10.1c0.7,4.2,1.5,9.3,2.4,15.4
		c0.9,3.3,1.6,8.1,2.1,14.4c0.5,6.3,1.2,16.2,2.1,29.8c10.7-0.5,20.4-0.9,29-1.4c8.6-0.5,17.6-1.2,27-2.1c0.5-6.1,0.5-13.8,0-23.1
		c-0.5-9.3-0.1-18.4,1-27.3c1.2-8.9,3.8-16.1,8.1-21.7c4.2-5.6,11.2-7.7,21-6.3c5.6,0.9,10.3,3.6,14,8
		C486.2,191,488.5,196,489.5,201.6z M440.5,328.3c0-3.3,0.1-5.7,0.3-7.4c0.2-1.6,0.3-3.1,0.3-4.5c0-1.4,0-2.9,0-4.5c0-1.6,0-4.3,0-8
		c-9.3,0.9-18.4,1.5-27.3,1.8c-8.9,0.2-18.2,0.3-28,0.3c0,5.1,0,10.7,0,16.8c0,6.1,0.6,11.8,1.8,17.2c1.2,5.4,3.3,10.2,6.3,14.3
		c3,4.2,7.6,7,13.7,8.4c7.5,1.9,13.4,1.5,17.8-1c4.4-2.6,7.7-6,9.8-10.2s3.5-8.6,4.2-13.3C440.1,333.4,440.5,330.2,440.5,328.3z"/>
</g>
<g id="XMLID_6_">
	<g id="XMLID_28_">
		<line id="XMLID_31_" class="st1" x1="171.8" y1="209.7" x2="184.4" y2="355.1"/>
		<g id="XMLID_29_">
			<path id="XMLID_30_" d="M185.7,370.1c-3.2-6.8-8.5-15.2-13.7-20.3l12.2,3.3l11.5-5.3C191.4,353.6,187.7,362.8,185.7,370.1z"/>
		</g>
	</g>
</g>
<g id="XMLID_10_">
	<path id="XMLID_20_" class="st2" d="M415.8,366.6"/>
</g>
<g id="XMLID_8_">
	<path id="XMLID_17_" class="st2" d="M217.2,213.8"/>
</g>
<g id="XMLID_1_">
	<path id="XMLID_98_" d="M161.2,171.2c-0.5,0.2-0.8,0.1-1.1-0.1c-0.3-0.2-0.5-0.6-0.6-1c-0.1-0.5-0.3-0.9-0.3-1.5
		c0-0.5-0.1-1-0.1-1.4c-0.1-1-0.2-1.9-0.2-2.8c0-0.9,0-1.8,0-2.6c-0.1-1-0.1-2,0-3l0-5.1c0-0.6,0.1-1.2,0.1-1.9
		c0-0.6,0.1-1.3,0.4-1.9c0.2-0.6,0.5-0.9,1-1c0.5-0.1,0.9,0.1,1.4,0.5c0.3,0.4,0.6,1,0.8,1.9c0.2,0.8,0.3,1.7,0.4,2.6
		c0.1,0.9,0.1,1.8,0.1,2.8c0,0.9,0,1.6,0,2.3v0c0,1.3,0,2.7-0.1,4.1c-0.1,1.4,0,2.9,0.1,4.5c0.1,0.8,0,1.5-0.4,2.2
		C162.3,170.4,161.8,170.9,161.2,171.2z"/>
</g>
<circle id="XMLID_4_" class="st3" cx="160.3" cy="160.6" r="18.5"/>
<g id="XMLID_7_">
	<path id="XMLID_96_" d="M302.9,162.3c0.7,0.5,1,1,1,1.6c-0.1,0.3-0.3,0.6-0.6,0.9c-0.3,0.3-0.7,0.4-1.1,0.5
		c-0.8,0.1-1.6,0.1-2.3,0.2c-0.7,0.1-1.4,0.1-2.1,0.2c-1,0.1-2.1,0.2-3.1,0.3c-1,0.1-2.1,0.1-3.3,0.1c-0.7,0-1.3-0.1-1.9-0.3
		c-0.6-0.2-1-0.5-1.3-1.1c-0.2-0.5-0.2-0.9,0-1.2c0.2-0.4,0.5-0.8,0.9-1.4c0.1-0.1,0.3-0.4,0.5-0.8c0.2-0.4,0.5-0.8,0.9-1.3
		s0.7-1,1.1-1.6c0.4-0.6,0.8-1.2,1.2-1.7c2.1-2.9,3.1-5,2.9-6.3c-0.1-0.4-0.4-0.7-0.9-0.9c-0.5-0.2-1.2-0.3-2-0.3
		c-0.8,0-1.5,0.1-2.3,0.3c-0.7,0.2-1.5,0.3-2.3,0.3c-0.5-0.1-0.7-0.3-0.8-0.7c-0.1-0.4-0.1-0.8,0-1.1c0.1-0.4,0.3-0.6,0.6-0.8
		s0.6-0.4,0.9-0.5c0.7-0.3,1.5-0.5,2.5-0.6c1-0.1,1.9-0.1,2.9,0c1,0.1,1.9,0.3,2.7,0.6c0.9,0.3,1.5,0.7,2.1,1.2
		c0.3,0.3,0.5,0.7,0.6,1.2c0.1,0.5,0.1,1,0,1.6c-0.1,0.5-0.2,1.1-0.3,1.6s-0.3,0.9-0.4,1.2c-0.2,0.5-0.4,1-0.6,1.5
		c-0.2,0.5-0.5,1.2-0.9,1.9s-0.9,1.6-1.6,2.5c-0.6,1-1.4,2.2-2.4,3.6l6.2-0.3c0.6,0,1.1-0.1,1.7-0.1
		C301.9,162,302.4,162.1,302.9,162.3z"/>
</g>
<circle id="XMLID_5_" class="st3" cx="294" cy="156" r="18.5"/>
<g id="XMLID_11_">
	<g id="XMLID_51_">
		<line id="XMLID_54_" class="st1" x1="294" y1="209.7" x2="287.1" y2="346.7"/>
		<g id="XMLID_52_">
			<path id="XMLID_53_" d="M286.4,361.8c-2.3-7.2-6.3-16.2-10.8-21.9l11.7,4.9l12.1-3.7C294.3,346.2,289.4,354.8,286.4,361.8z"/>
		</g>
	</g>
</g>
<g id="XMLID_12_">
	<g id="XMLID_46_">
		<line id="XMLID_49_" class="st1" x1="185.7" y1="285.7" x2="253.3" y2="283.2"/>
		<g id="XMLID_47_">
			<path id="XMLID_48_" d="M268.3,282.6c-7,2.9-15.6,7.7-20.9,12.7l3.8-12l-4.7-11.7C252.2,276.1,261.1,280.2,268.3,282.6z"/>
		</g>
	</g>
</g>
<g id="XMLID_13_">
	<g id="XMLID_41_">
		<path id="XMLID_44_" class="st1" d="M201,383.3c1.5,0,38.7-2.1,60.3-3.3"/>
		<g id="XMLID_42_">
			<path id="XMLID_43_" d="M276.3,379.1c-6.9,3-15.5,8-20.7,13.1l3.6-12.1l-5-11.6C260,372.9,269.1,376.9,276.3,379.1z"/>
		</g>
	</g>
</g>
<g id="XMLID_63_">
	<g id="XMLID_65_">
		<line id="XMLID_68_" class="st1" x1="354.7" y1="213.8" x2="367.3" y2="359.2"/>
		<g id="XMLID_66_">
			<path id="XMLID_67_" d="M368.6,374.2c-3.2-6.8-8.5-15.2-13.7-20.3l12.2,3.3l11.5-5.3C374.3,357.8,370.6,366.9,368.6,374.2z"/>
		</g>
	</g>
</g>
<g id="XMLID_60_">
	<path id="XMLID_62_" class="st2" d="M400.1,217.9"/>
</g>
<g id="XMLID_39_">
	<g id="XMLID_56_">
		<line id="XMLID_59_" class="st1" x1="476.9" y1="213.8" x2="470.1" y2="350.8"/>
		<g id="XMLID_57_">
			<path id="XMLID_58_" d="M469.3,365.9c-2.3-7.2-6.3-16.2-10.8-21.9l11.7,4.9l12.1-3.7C477.2,350.4,472.3,358.9,469.3,365.9z"/>
		</g>
	</g>
</g>
<g id="XMLID_25_">
	<g id="XMLID_32_">
		<line id="XMLID_35_" class="st1" x1="368.6" y1="289.8" x2="436.2" y2="287.3"/>
		<g id="XMLID_33_">
			<path id="XMLID_34_" d="M451.2,286.7c-7,2.9-15.6,7.7-20.9,12.7l3.8-12l-4.7-11.7C435.1,280.2,444.1,284.4,451.2,286.7z"/>
		</g>
	</g>
</g>
<g id="XMLID_3_">
	<g id="XMLID_21_">
		<path id="XMLID_24_" class="st1" d="M383.9,387.4c1.5,0,38.7-2.1,60.3-3.3"/>
		<g id="XMLID_22_">
			<path id="XMLID_23_" d="M459.2,383.3c-6.9,3-15.5,8-20.7,13.1l3.6-12.1l-5-11.6C442.9,377,452,381,459.2,383.3z"/>
		</g>
	</g>
</g>
<g id="XMLID_70_">
	<path id="XMLID_94_" d="M229.8,242.1c0.6,0.2,1.2,0.5,1.7,0.9c0.5,0.3,0.9,0.8,1.3,1.4c0.3,0.4,0.5,1,0.5,1.8
		c0,0.7-0.1,1.5-0.5,2.2c-0.4,0.9-0.8,1.6-1.4,2.3c-0.5,0.6-1,1.1-1.2,1.4c-0.2,0.1-0.5,0.4-0.9,0.8c-0.5,0.4-1,0.8-1.6,1.2
		c-0.6,0.4-1.3,0.8-2,1c-0.7,0.3-1.4,0.5-2,0.5c-0.6,0-1.1-0.3-1.3-0.9c-0.2-0.4-0.1-0.8,0.3-1.3c0.4-0.5,0.7-0.9,1-1.1
		c0.4-0.2,0.9-0.6,1.6-1.1c0.7-0.5,1.3-1,1.9-1.5c0.6-0.5,1.1-1.1,1.4-1.7c0.4-0.6,0.4-1.2,0.1-1.8c-0.3-0.5-0.8-0.8-1.4-1
		c-0.7-0.2-1.3-0.3-1.8-0.4c-0.2,0-0.5-0.1-0.8-0.1c-0.3-0.1-0.7-0.1-1-0.3c-0.3-0.1-0.6-0.3-0.9-0.4c-0.3-0.2-0.4-0.4-0.5-0.6
		c-0.2-0.4-0.1-1.1,0.4-1.9c0.5-0.8,1-1.6,1.5-2.4c0.5-0.7,0.9-1.5,1.3-2.4c0.3-0.6,0.5-1.1,0.6-1.5c0.1-0.4,0.2-0.9,0.1-1.6
		c-0.1-0.6-0.4-0.8-0.9-0.8c-0.3,0-0.6,0-0.9,0.1c-0.3,0.1-0.6,0.2-0.9,0.3c-0.8,0.3-1.4,0.5-1.9,0.7c-0.4,0.2-0.9,0.3-1.5,0.3
		c-0.4,0-0.7-0.2-1-0.5c-0.2-0.3-0.3-0.7-0.3-1c0.1-0.3,0.2-0.6,0.4-0.9c0.2-0.2,0.6-0.5,1.2-0.8c0.9-0.4,2-0.8,3.1-1.1
		c1.1-0.4,2.3-0.5,3.5-0.6c0.4,0,0.8,0.1,1.3,0.3c0.5,0.2,0.9,0.5,1.1,0.9c0.3,0.5,0.5,1.2,0.5,1.9c0,0.7,0,1.5-0.2,2.3
		c-0.2,0.8-0.4,1.6-0.7,2.4c-0.3,0.8-0.6,1.5-0.9,2.2c-0.2,0.4-0.4,0.8-0.7,1.1c-0.3,0.3-0.3,0.6-0.3,0.9c0,0.3,0.3,0.5,0.9,0.5
		C228.8,241.8,229.3,241.9,229.8,242.1z"/>
</g>
<circle id="XMLID_69_" class="st3" cx="227" cy="241.7" r="18.5"/>
<g id="XMLID_72_">
	<path id="XMLID_92_" d="M245.9,451.3c0.3,0,0.6,0.1,1,0.3c0.4,0.1,0.6,0.4,0.6,0.8c0,0.5-0.1,0.8-0.3,1.1c-0.2,0.3-0.6,0.5-1.1,0.8
		c-0.9,0.2-1.5,0.3-1.9,0.4c-0.4,0.1-0.7,0.1-1,0.2c-0.2,0-0.4,0.1-0.6,0.1c-0.2,0-0.4,0-0.8,0.1c0,0.3,0,0.7,0,1.4
		c0,0.7,0,1.3,0,1.9c0,0.5,0,0.9,0,1.4c0,0.5,0,0.9-0.1,1.3c-0.1,0.4-0.2,0.7-0.5,1c-0.2,0.3-0.6,0.4-1,0.4c-0.6,0-1-0.2-1.3-0.5
		c-0.3-0.3-0.5-0.8-0.6-1.5c-0.1-0.6-0.2-1.4-0.2-2.4c-0.1-1-0.1-1.9-0.1-2.7c0,0-0.2,0-0.7,0c-0.5,0-1.1,0.1-1.9,0.1s-1.6,0-2.5,0
		c-0.9,0-1.7-0.1-2.5-0.2c-0.6-0.1-1.1-0.4-1.4-0.8c-0.7-1.1-0.8-3.1-0.3-6c0.3-1.4,0.6-2.6,0.9-3.7c0.4-1.1,0.6-1.8,0.7-2
		c0-0.1,0.1-0.3,0.3-0.5c0.2-0.3,0.4-0.5,0.6-0.5c0.7,0,1.2,0.2,1.5,0.6c0.3,0.4,0.4,0.9,0.4,1.5s-0.1,1.2-0.2,1.9s-0.3,1.3-0.3,1.9
		c-0.1,1.1-0.2,2-0.2,2.7c0,0.7,0,1.2,0.1,1.5c0.1,0.2,0.2,0.3,0.4,0.3c0.2,0.1,0.6,0.1,1.2,0.1c0.6,0,1.2,0,1.8-0.1
		c0.6,0,1.1-0.1,1.5-0.1c0.5-0.1,0.7-0.1,0.7-0.2v-2.1c0-0.9,0-1.8,0.1-2.7c0-0.9,0-1.8,0-2.7c0-0.8,0-1.5,0.1-2.2
		c0-0.7,0.2-1.3,0.4-2c0.1-0.3,0.4-0.5,0.8-0.5c0.4,0,0.7,0.1,0.9,0.3c0.3,0.4,0.5,0.9,0.7,1.5c0.2,0.6,0.3,1.3,0.4,2
		s0.2,1.4,0.2,2.2c0,0.8,0,1.5,0,2.1v2.3c0,0.6,0,1.2,0,1.8c0.1,0,0.3,0,0.6,0c0.4,0,0.8-0.1,1.2-0.1c0.5,0,0.9-0.1,1.3-0.1
		C245.5,451.2,245.8,451.2,245.9,451.3z"/>
</g>
<circle id="XMLID_71_" class="st3" cx="235.7" cy="449.9" r="18.5"/>
<g id="XMLID_74_">
	<path id="XMLID_90_" d="M362.6,154.6c1,0,2,0.2,3,0.6c1,0.4,1.7,1.1,2.1,2.1c0.5,1,0.4,2.3-0.2,3.8c-0.3,0.7-0.5,1.3-0.8,2
		c-0.3,0.6-0.6,1.2-1,1.8c-0.5,0.7-1,1.4-1.6,2c-0.6,0.6-1.3,1-2.1,1.1c-0.3,0-0.6,0-0.9-0.1s-0.5-0.3-0.7-0.6
		c-0.3-0.6-0.3-1.2,0-1.7c0.1-0.2,0.2-0.3,0.3-0.4c0.1-0.1,0.2-0.3,0.3-0.4c0.3-0.2,0.6-0.7,1.1-1.4c0.5-0.7,0.8-1.5,1.1-2.2
		s0.4-1.4,0.3-2c-0.1-0.6-0.5-0.9-1.4-0.9c-0.8,0-1.5,0.1-2.1,0.2s-1.4,0.1-2.1,0.1c-0.3,0-0.6-0.1-1-0.3c-0.3-0.2-0.5-0.4-0.6-0.6
		c-0.2-0.5-0.4-1.1-0.5-2c-0.1-0.9-0.1-1.8-0.1-2.7c0-0.9,0-1.9,0.1-2.8c0-0.9,0-1.6,0-2.1l-0.3-0.4c-0.2-0.4-0.2-0.6-0.2-0.8
		s0.1-0.3,0.2-0.6c0.1-0.3,0.3-0.5,0.6-0.7s0.6-0.3,0.9-0.3c0.3-0.1,0.7-0.1,1-0.1c0.3,0,0.6,0,0.9,0c1.4,0,2.8,0,4.3,0.1
		c0.3,0,0.6,0,1,0.1c0.4,0.1,0.8,0.1,1.2,0.2c0.4,0.1,0.8,0.2,1.1,0.3c0.4,0.1,0.6,0.3,0.8,0.5c0.1,0.2,0.2,0.4,0.3,0.4
		c0,0.1,0.1,0.2,0,0.4c-0.1,0.4-0.3,0.7-0.7,1c-0.4,0.3-0.9,0.4-1.4,0.4h-5c-0.5,0-0.8,0.2-0.9,0.5c-0.1,0.3-0.1,0.6-0.1,0.8
		c0,0.4,0,0.9-0.1,1.3c0,0.5,0,0.9,0,1.4c0,0.3,0,0.6,0,1.1c0,0.4,0.1,0.7,0.2,0.9c0.2,0.2,0.5,0.3,0.8,0.3c0.2,0,0.5,0,0.7,0
		C361.6,154.6,362,154.6,362.6,154.6z"/>
</g>
<circle id="XMLID_73_" class="st3" cx="361.7" cy="156" r="18.5"/>
<g id="XMLID_76_">
	<path id="XMLID_87_" d="M471.7,149.4c0.8,0.2,1.5,0.6,2.1,1.1c0.6,0.5,1.2,1.2,1.7,2.2c0.7,1.4,0.9,2.7,0.6,3.9
		c-0.2,1.2-0.7,2.2-1.4,3.1c-0.7,0.9-1.5,1.6-2.5,2.1s-1.8,0.8-2.5,0.8c-1.2,0-2.2-0.2-3-0.5c-0.8-0.3-1.5-0.8-2-1.3
		c-0.5-0.5-1-1.1-1.3-1.7c-0.3-0.6-0.6-1.3-0.8-1.9c-0.5-1.4-0.6-2.9-0.5-4.5c0.1-1.6,0.5-3.2,1.1-4.8c0.6-1.5,1.4-2.9,2.4-4.2
		c1-1.3,2.2-2.2,3.5-2.9c0.4-0.2,0.8-0.2,1.3-0.1c0.5,0.1,0.8,0.4,1,0.8c0.1,0.2,0.1,0.4,0.2,0.5c0,0.2,0,0.4,0,0.6
		c-0.1,0.2-0.5,0.6-1,1.1s-0.9,0.9-1.3,1.3c-0.3,0.4-0.6,0.7-0.8,1c-0.2,0.3-0.4,0.7-0.6,1.1c-0.2,0.4-0.4,0.8-0.5,1.3
		c-0.2,0.5-0.4,1.1-0.6,1.7l1-0.5c0.5-0.2,1.2-0.4,2-0.4C470.5,149.3,471.2,149.3,471.7,149.4z M471.1,158.5c0.5-0.4,0.9-0.9,1-1.4
		s0.2-1,0.2-1.6c-0.1-0.7-0.3-1.3-0.6-1.8c-0.3-0.5-0.8-0.8-1.3-1c-0.5-0.2-1-0.2-1.6,0c-0.6,0.2-1.2,0.5-1.7,1
		c-0.2,0.2-0.3,0.5-0.5,0.9c-0.1,0.4-0.1,0.8-0.1,1.1c0,0.4,0,0.8,0.1,1.2c0.1,0.4,0.3,0.7,0.5,0.9c0.4,0.5,1,0.9,1.8,1.2
		S470.4,159,471.1,158.5z"/>
</g>
<circle id="XMLID_75_" class="st3" cx="469.3" cy="151.3" r="18.5"/>
<g id="XMLID_78_">
	<path id="XMLID_85_" d="M413.3,225.7c0.8,0,1.4,0.1,1.9,0.2c0.5,0.2,0.9,0.5,1.2,0.9c0.5,0.7,0.7,1.6,0.8,2.9
		c0.1,1.2,0.1,2.5-0.1,3.8c-0.1,1.3-0.3,2.6-0.6,3.9s-0.4,2.3-0.5,3.1c-0.3,1.3-0.5,2.5-0.7,3.5c-0.2,1.1-0.5,2.2-0.7,3.3
		c-0.2,0.6-0.5,0.9-0.9,1.1c-0.5,0.2-0.9,0.2-1.3,0.1c-0.4-0.1-0.6-0.4-0.8-0.7c-0.2-0.3-0.3-0.7-0.3-1.1c0-0.1,0-0.3,0-0.5
		s0-0.5,0-0.8c0-0.3,0-0.5,0-0.8c0-0.2,0-0.3,0-0.4c0-0.5,0.1-1.1,0.2-1.6c0.1-0.5,0.2-1.1,0.3-1.7c0.1-0.6,0.2-1.4,0.3-2.2
		c0.1-0.8,0.3-1.8,0.4-3c0.1-0.6,0.1-1.1,0.2-1.5c0.1-0.4,0.1-0.7,0.2-1.1c0-0.3,0.1-0.6,0.1-0.9c0-0.3,0-0.7,0-1.2
		c0-0.1,0-0.2,0-0.4c0-0.2-0.1-0.3-0.2-0.5c-0.2-0.4-0.5-0.6-1-0.6c-1.1-0.1-2.3,0-3.5,0.1c-1.2,0.1-2.4,0.3-3.6,0.3
		c-0.3,0-0.6-0.1-0.8-0.2c-0.2-0.1-0.4-0.3-0.5-0.5c-0.1-0.2-0.2-0.4-0.3-0.6c0-0.2,0-0.3,0-0.4c0-0.5,0.2-0.8,0.4-1.1
		c0.2-0.3,0.5-0.4,0.8-0.6c1-0.4,1.9-0.7,2.8-0.8c0.9-0.1,2-0.2,3.1-0.3c0.2,0,0.4,0,0.5,0c0.1,0,0.2,0,0.4,0c0.2,0,0.4,0,0.8,0
		C412.1,225.7,412.6,225.7,413.3,225.7z"/>
</g>
<circle id="XMLID_77_" class="st3" cx="409.9" cy="236.4" r="18.5"/>
<g id="XMLID_80_">
	<path id="XMLID_82_" d="M417.4,462.8c-0.7,0.1-1.3,0-1.9-0.5c-0.6-0.4-1.1-0.8-1.3-1.1c-0.3-0.5-0.5-0.9-0.7-1.4
		c-0.1-0.5-0.2-1.2-0.1-2.1c0.1-0.8,0.2-1.6,0.4-2.4c0.2-0.8,0.4-1.5,0.7-2.1c0.3-0.8,0.7-1.4,1.1-2c0.4-0.6,0.7-1.1,1-1.4
		c0.4-0.5,0.3-1-0.3-1.4c-0.2-0.2-0.5-0.4-0.8-0.7c-0.3-0.3-0.6-0.6-0.7-0.8c-0.3-0.4-0.6-0.9-0.9-1.5s-0.5-1.2-0.8-1.9
		c-0.2-0.6-0.3-1.3-0.4-1.9c-0.1-0.7,0-1.2,0.1-1.8c0.2-0.6,0.6-1.2,1.1-1.6c0.5-0.4,1.1-0.7,1.8-1c0.7-0.2,1.4-0.4,2.1-0.5
		c0.7-0.1,1.4-0.1,2-0.2c0.3,0,0.6,0,1,0.1c0.4,0,0.8,0.1,1.1,0.2s0.7,0.2,1,0.3c0.3,0.1,0.5,0.2,0.7,0.3c0.4,0.3,0.6,0.6,0.5,1.1
		c-0.1,0.5-0.3,0.8-0.6,0.9c-0.3,0.1-0.7,0.2-1.1,0.1c-0.4-0.1-1,0-1.8,0c-0.7,0.1-1.3,0.3-1.9,0.4c-0.6,0.1-1.1,0.3-1.4,0.4
		c-0.5,0.3-0.8,0.7-1,1.3c-0.2,1,0.3,2.3,1.5,3.8c0.1,0.2,0.3,0.3,0.4,0.3c0.1,0,0.2,0,0.3,0c0.3,0,0.7-0.3,1.1-1
		c0.4-0.7,0.8-1.4,1.1-2.1c0.1-0.2,0.2-0.5,0.3-0.8s0.4-0.6,0.6-0.9s0.5-0.5,0.7-0.7c0.3-0.2,0.5-0.2,0.8-0.2
		c0.3,0.1,0.5,0.3,0.7,0.4c0.2,0.2,0.3,0.4,0.4,0.6c0.1,0.5,0.1,1-0.1,1.6c-0.2,0.6-0.4,1.2-0.8,1.8c-0.3,0.6-0.7,1.2-1.1,1.8
		c-0.4,0.6-0.7,1.2-1,1.7c-0.1,0.2,0,0.3,0.1,0.5c0.1,0.2,0.3,0.3,0.5,0.5c0.2,0.2,0.5,0.4,0.8,0.6c0.3,0.2,0.6,0.5,0.8,0.8
		c0.9,1.1,1.4,2.2,1.5,3.4c0.1,1.2,0,2.4-0.5,3.8c-0.6,1.4-1.5,2.6-2.7,3.6S419.1,462.7,417.4,462.8z M418.7,452.3
		c-0.2,0.2-0.4,0.5-0.6,0.9s-0.4,0.8-0.5,1.3c-0.2,0.4-0.3,0.9-0.4,1.3c-0.1,0.5-0.2,0.8-0.2,1.1c-0.1,0.4-0.1,0.9-0.1,1.3
		c0,0.5,0.3,0.7,0.7,0.8c0.7,0.1,1.3,0,1.9-0.4c0.5-0.4,1-0.9,1.3-1.5c0.3-0.6,0.5-1.2,0.6-1.8c0.1-0.6,0.1-1.1,0-1.5
		c-0.1-0.4-0.3-0.8-0.5-1.1c-0.2-0.3-0.4-0.6-0.6-0.8c-0.2-0.2-0.5-0.3-0.8-0.3C419.2,451.9,418.9,452.1,418.7,452.3z"/>
</g>
<circle id="XMLID_79_" class="st3" cx="418.6" cy="449.9" r="18.5"/>
<g id="XMLID_81_">
</g>
<g id="XMLID_104_">
</g>
<g id="XMLID_105_">
</g>
<g id="XMLID_106_">
</g>
<g id="XMLID_107_">
</g>
<g id="XMLID_108_">
</g>
<g id="XMLID_109_">
</g>
</svg>
