<?xml version="1.0" encoding="utf-8"?>
<!-- Generator: Adobe Illustrator 19.0.0, SVG Export Plug-In . SVG Version: 6.00 Build 0)  -->
<svg version="1.1" id="레이어_1" xmlns="http://www.w3.org/2000/svg" xmlns:xlink="http://www.w3.org/1999/xlink" x="0px"
	 y="0px" viewBox="0 0 600 580" style="enable-background:new 0 0 600 580;" xml:space="preserve">
<style type="text/css">
	.st0{opacity:0.5;}
	.st1{fill:none;}
	.st2{fill:none;stroke:#000000;}
	.st3{fill:none;stroke:#000000;stroke-width:5;stroke-miterlimit:10;}
</style>
<g id="XMLID_9_" class="st0">
	<path id="XMLID_14_" d="M396.5,256.2c4.7,11.2,7.7,24.3,9.1,39.2c1.4,14.9,0.8,30-1.8,45.1c-2.6,15.2-7.5,29.4-14.7,42.7
		c-7.2,13.3-17.2,24.2-29.8,32.5c-7.5,5.1-16,8.6-25.6,10.5c-9.6,1.9-19.3,2.5-29.1,1.8c-9.8-0.7-19.3-2.7-28.3-6
		c-9.1-3.3-17.1-7.5-24.1-12.6c-10.7-8.4-18.7-18.2-23.8-29.4c-5.1-11.2-8-23-8.8-35.3c-0.7-12.4,0.5-24.7,3.5-37.1
		c3-12.4,7.4-24.2,13-35.4c2.8-6.1,7-13,12.6-20.6c5.6-7.7,12-15.3,19.3-22.8c7.2-7.5,15.4-14.4,24.5-20.7
		c9.1-6.3,18.8-10.8,29.1-13.7c6.5-1.4,12.6-2,18.2-1.8c5.6,0.2,11,2.9,16.1,8.1c2.8,3.7,4.3,6.9,4.5,9.4c0.2,2.6-0.3,5.3-1.8,8.1
		c8.4,3.7,16.1,9.3,23.1,16.8C388.8,242.6,393.7,249.6,396.5,256.2z M351,308.7c0.5-11.2-1.9-21-7-29.4
		c-5.1-8.4-12.6-12.1-22.4-11.2c-7.9,0.9-15.3,5-22.1,12.3c-6.8,7.2-12.1,15.6-16.1,25.2c-4,9.6-6.4,19.3-7.4,29
		c-0.9,9.8,0.2,17.5,3.5,23.1c3.7,6.5,10,11.7,18.9,15.4c8.9,3.7,17.3,2.3,25.2-4.2c4.2-3.3,8.1-7.4,11.6-12.3
		c3.5-4.9,6.3-10.2,8.4-15.8c2.1-5.6,3.8-11.2,5.3-16.8C350.3,318.5,351,313.3,351,308.7z"/>
</g>
<g id="XMLID_11_">
	<path id="XMLID_27_" class="st1" d="M372.8,211.4"/>
</g>
<g id="XMLID_3_">
	<path id="XMLID_21_" class="st1" d="M270.4,249.7"/>
</g>
<g id="XMLID_10_">
	<path id="XMLID_25_" class="st1" d="M398.5,385"/>
</g>
<g id="XMLID_8_">
	<path id="XMLID_17_" class="st1" d="M203.9,231.2"/>
</g>
<g id="XMLID_1_">
	<path id="XMLID_7_" d="M217.9,260.3c-0.5,0.2-0.8,0.1-1.1-0.1c-0.3-0.2-0.5-0.6-0.6-1c-0.1-0.5-0.3-0.9-0.3-1.5
		c0-0.5-0.1-1-0.1-1.4c-0.1-1-0.2-1.9-0.2-2.8c0-0.9,0-1.8,0-2.6c-0.1-1-0.1-2,0-3l0-5.1c0-0.6,0.1-1.2,0.1-1.9
		c0-0.6,0.1-1.3,0.4-1.9c0.2-0.6,0.5-0.9,1-1c0.5-0.1,0.9,0.1,1.4,0.5c0.3,0.4,0.6,1,0.8,1.9c0.2,0.8,0.3,1.7,0.4,2.6
		c0.1,0.9,0.1,1.8,0.1,2.8c0,0.9,0,1.6,0,2.3v0c0,1.3,0,2.7-0.1,4.1c-0.1,1.4,0,2.9,0.1,4.5c0.1,0.8,0,1.5-0.4,2.2
		C219,259.5,218.5,260,217.9,260.3z"/>
</g>
<circle id="XMLID_4_" class="st2" cx="216.9" cy="249.7" r="18.5"/>
<path id="XMLID_6_" class="st3" d="M334.8,225.2"/>
<g id="XMLID_12_">
	<g id="XMLID_42_">
		<path id="XMLID_45_" class="st3" d="M334.8,229.9c2.7,0-68.3-0.5-80,86.4c-11.7,86.8,48.7,89.6,48.7,89.6s52.8,16,81.3-72.2
			c19.4-60-3.7-83.1-20.4-91.7"/>
		<g id="XMLID_43_">
			<path id="XMLID_44_" d="M350.1,237.1c7.6-0.1,17.4-1.3,24.1-3.9l-8.1,9.7l0,12.6C362.7,249.2,355.9,242,350.1,237.1z"/>
		</g>
	</g>
</g>
<g id="XMLID_5_">
</g>
<g id="XMLID_29_">
</g>
<g id="XMLID_30_">
</g>
<g id="XMLID_31_">
</g>
<g id="XMLID_32_">
</g>
<g id="XMLID_33_">
</g>
<g id="XMLID_34_">
</g>
</svg>
