<?xml version="1.0" encoding="utf-8"?>
<!-- Generator: Adobe Illustrator 19.0.0, SVG Export Plug-In . SVG Version: 6.00 Build 0)  -->
<svg version="1.1" id="레이어_1" xmlns="http://www.w3.org/2000/svg" xmlns:xlink="http://www.w3.org/1999/xlink" x="0px"
	 y="0px" viewBox="0 0 600 580" style="enable-background:new 0 0 600 580;" xml:space="preserve">
<style type="text/css">
	.st0{opacity:0.51;}
	.st1{fill:#E60012;}
	.st2{fill:#FFFFFF;stroke:#000000;stroke-width:5;stroke-linecap:round;stroke-miterlimit:10;}
	.st3{fill:#FFFFFF;stroke:#000000;stroke-miterlimit:10;}
</style>
<g id="XMLID_1_" class="st0">
	<path id="XMLID_20_" class="st1" d="M275.5,237.5c4.7,11.2,7.7,24.3,9.1,39.2c1.4,14.9,0.8,30-1.8,45.2
		c-2.6,15.2-7.5,29.4-14.7,42.7c-7.2,13.3-17.2,24.1-29.8,32.5c-7.5,5.1-16,8.6-25.5,10.5c-9.6,1.9-19.3,2.5-29.1,1.8
		c-9.8-0.7-19.3-2.7-28.4-6c-9.1-3.3-17.1-7.5-24.1-12.6c-10.7-8.4-18.7-18.2-23.8-29.4c-5.1-11.2-8-23-8.8-35.3
		c-0.7-12.4,0.5-24.7,3.5-37.1c3-12.4,7.4-24.1,13-35.4c2.8-6.1,7-13,12.6-20.6c5.6-7.7,12-15.3,19.3-22.8
		c7.2-7.5,15.4-14.4,24.5-20.6c9.1-6.3,18.8-10.9,29.1-13.7c6.5-1.4,12.6-2,18.2-1.8c5.6,0.2,11,2.9,16.1,8.1
		c2.8,3.7,4.3,6.9,4.6,9.4c0.2,2.6-0.3,5.3-1.8,8.1c8.4,3.7,16.1,9.3,23.1,16.8C267.8,224,272.7,231,275.5,237.5z M230,290
		c0.5-11.2-1.9-21-7-29.4c-5.1-8.4-12.6-12.1-22.4-11.2c-7.9,0.9-15.3,5-22.1,12.3c-6.8,7.2-12.1,15.6-16.1,25.2
		c-4,9.6-6.4,19.3-7.4,29.1c-0.9,9.8,0.2,17.5,3.5,23.1c3.7,6.5,10,11.7,18.9,15.4c8.9,3.7,17.3,2.3,25.2-4.2
		c4.2-3.3,8-7.3,11.5-12.3c3.5-4.9,6.3-10.1,8.4-15.8c2.1-5.6,3.8-11.2,5.3-16.8S230,294.7,230,290z"/>
</g>
<g id="XMLID_2_" class="st0">
	<path id="XMLID_17_" class="st1" d="M511.5,243.5c4.7,11.2,7.7,24.3,9.1,39.2c1.4,14.9,0.8,30-1.8,45.2
		c-2.6,15.2-7.5,29.4-14.7,42.7c-7.2,13.3-17.2,24.1-29.8,32.5c-7.5,5.1-16,8.6-25.5,10.5c-9.6,1.9-19.3,2.5-29.1,1.8
		c-9.8-0.7-19.3-2.7-28.4-6c-9.1-3.3-17.1-7.5-24.1-12.6c-10.7-8.4-18.7-18.2-23.8-29.4c-5.1-11.2-8-23-8.8-35.3
		c-0.7-12.4,0.5-24.7,3.5-37.1c3-12.4,7.4-24.1,13-35.4c2.8-6.1,7-13,12.6-20.6c5.6-7.7,12-15.3,19.3-22.8
		c7.2-7.5,15.4-14.4,24.5-20.6c9.1-6.3,18.8-10.9,29.1-13.7c6.5-1.4,12.6-2,18.2-1.8c5.6,0.2,11,2.9,16.1,8.1
		c2.8,3.7,4.3,6.9,4.6,9.4c0.2,2.6-0.3,5.3-1.8,8.1c8.4,3.7,16.1,9.3,23.1,16.8C503.8,230,508.7,237,511.5,243.5z M466,296
		c0.5-11.2-1.9-21-7-29.4c-5.1-8.4-12.6-12.1-22.4-11.2c-7.9,0.9-15.3,5-22.1,12.3c-6.8,7.2-12.1,15.6-16.1,25.2
		c-4,9.6-6.4,19.3-7.3,29c-0.9,9.8,0.2,17.5,3.5,23.1c3.7,6.5,10,11.7,18.9,15.4c8.9,3.7,17.3,2.3,25.2-4.2c4.2-3.3,8-7.3,11.5-12.3
		c3.5-4.9,6.3-10.1,8.4-15.8c2.1-5.6,3.8-11.2,5.3-16.8S466,300.7,466,296z"/>
</g>
<path id="XMLID_4_" class="st2" d="M132.3,131c0,0,146.7-142,150.7,22"/>
<path id="XMLID_3_" class="st2" d="M389.3,140.1c0,0,146.7-142,150.7,22"/>
<path id="XMLID_5_" class="st3" d="M207.7,460"/>
<path id="XMLID_6_" class="st2" d="M358.6,467.4c0,0-104.9,175.1-151.3,17.8"/>
<g id="XMLID_7_">
	<path id="XMLID_9_" d="M452.8,502.7c0.5-0.1,1-0.2,1.5-0.3c0.5,0,0.9,0,1.3,0.1c1.5,0.2,2.1,1,1.7,2.3c-0.1,0.4-0.5,0.8-1,1.2
		c-0.5,0.4-1,0.8-1.5,1.1c-0.8,0.5-1.8,0.9-2.9,1.3c-1.1,0.4-2.3,0.8-3.6,1.1c-1.3,0.3-2.5,0.4-3.9,0.4c-1.3,0-2.5-0.2-3.6-0.6
		c-2.4-0.9-4.3-2.2-5.8-3.9c-1.4-1.7-2.4-3.8-2.8-6.1c-0.9-0.3-1.8-0.7-2.7-1.1c-0.8-0.4-1.5-1-2.1-1.9c-1-1.3-1.3-2.4-0.8-3.2
		c0.5-0.8,1.9-0.9,4.2-0.3c0.9,0.1,1.5,0.1,1.7-0.1c0.5-2.3,1.2-4.4,2.2-6.2c1-1.8,2.2-3.2,3.6-4.3c1.4-1.1,3.1-1.7,5.1-2
		c1.9-0.3,4.1,0,6.4,0.7c2.2,1,3.6,2.3,4.2,3.9s0.7,3.1,0.2,4.8c-0.5,1.6-1.4,3.1-2.8,4.6c-1.3,1.5-2.8,2.7-4.4,3.5
		c-1.1,0.5-2.3,1-3.3,1.5c-1.1,0.4-2.3,0.7-3.5,0.9c0.4,0.7,0.9,1.4,1.4,1.9c0.5,0.5,1.2,0.9,1.9,1.2c1.5,0.6,3.1,0.8,4.8,0.7
		C449.9,503.7,451.4,503.3,452.8,502.7z M442,487.5c-0.5,0.3-1.1,0.7-1.6,1.3c-0.5,0.6-1,1.2-1.4,1.8c-0.4,0.6-0.6,1.2-0.7,1.8
		c-0.1,0.6,0.1,1,0.5,1.2c0.7,0.4,1.5,0.5,2.6,0.3c1.1-0.2,2.1-0.6,3.1-1.2c1-0.6,1.8-1.3,2.5-2.1c0.7-0.8,1-1.7,1-2.7
		c-0.1-0.7-0.3-1.1-0.8-1.4c-0.4-0.3-0.9-0.4-1.5-0.4c-0.6,0-1.2,0.2-1.9,0.5C443.2,486.9,442.6,487.2,442,487.5z"/>
	<path id="XMLID_12_" d="M483.5,486.2c0.7,0.1,1.3,0.5,1.7,1.1c0.4,0.6,0.6,1.2,0.7,1.9c0.1,0.7,0.1,1.5,0.1,2.2
		c-0.1,0.7-0.2,1.4-0.3,1.9c-0.5,2.5-1.1,5-1.9,7.5c-0.8,2.5-1.7,4.9-2.6,7.3c-0.9,2.4-1.7,4.9-2.4,7.4c-0.8,2.5-1.4,5-1.8,7.5
		c-0.1,0.7-0.2,1.5-0.2,2.2c0,0.7-0.1,1.4-0.3,2c-0.2,0.6-0.5,1.1-0.9,1.6c-0.4,0.4-1.1,0.7-2.1,0.8c-1.3,0.1-2.3-0.3-2.9-1.2
		c-0.6-0.8-1-1.9-1.1-3.3c-0.1-1.3-0.1-2.8,0.2-4.5c0.3-1.6,0.6-3.2,1-4.8c0.4-1.5,0.8-2.9,1.1-4.2c0.4-1.3,0.7-2.2,0.9-2.8
		c0.3-0.7,0.5-1.5,0.6-2.2c0.1-0.7,0.3-1.5,0.4-2.4c-0.7,0.4-1.5,0.8-2.2,1.3s-1.4,0.9-2.1,1.2c-1.1,0.3-2.3,0.4-3.7,0.1
		c-1.4-0.2-2.4-0.8-3-1.5c-0.6-0.8-1.1-1.8-1.6-2.9c-0.5-1.1-0.9-2.3-1.2-3.6c-0.3-1.2-0.6-2.4-0.8-3.6c-0.2-1.2-0.3-2.2-0.4-3.2
		c-0.1-1.1-0.1-1.9,0-2.5c0-0.6,0.1-1.3,0.3-2.2c0.1-0.9,0.5-1.7,1.3-2.5c0.7-0.8,1.5-1.2,2.5-1.2c1.3-0.1,2,0.4,2.3,1.3
		c0.2,0.9,0.4,2.3,0.5,4c0,0.6,0,1.3,0.1,2.2c0.1,0.9,0.2,1.7,0.3,2.6c0.1,0.9,0.3,1.7,0.5,2.5c0.2,0.8,0.5,1.4,1,1.9
		c0.5,0.6,1.1,0.9,1.9,1c0.8,0,1.7-0.2,2.6-0.8c0.9-0.6,1.8-1.5,2.8-2.7c0.9-1.2,1.8-2.7,2.6-4.6c0.3-0.7,0.6-1.3,1-2
		c0.4-0.7,0.8-1.3,1.3-1.8s1.1-0.9,1.7-1.2C481.9,486.1,482.6,486.1,483.5,486.2z"/>
	<path id="XMLID_14_" class="st1" d="M512.9,502.7c0.5-0.1,1-0.2,1.5-0.3c0.5,0,0.9,0,1.3,0.1c1.5,0.2,2.1,1,1.7,2.3
		c-0.1,0.4-0.5,0.8-1,1.2c-0.5,0.4-1,0.8-1.5,1.1c-0.8,0.5-1.8,0.9-2.9,1.3c-1.1,0.4-2.3,0.8-3.6,1.1c-1.3,0.3-2.5,0.4-3.9,0.4
		c-1.3,0-2.5-0.2-3.6-0.6c-2.4-0.9-4.3-2.2-5.8-3.9c-1.4-1.7-2.4-3.8-2.8-6.1c-0.9-0.3-1.8-0.7-2.7-1.1c-0.8-0.4-1.5-1-2.1-1.9
		c-1-1.3-1.3-2.4-0.8-3.2c0.5-0.8,1.9-0.9,4.2-0.3c0.9,0.1,1.5,0.1,1.7-0.1c0.5-2.3,1.2-4.4,2.2-6.2c1-1.8,2.2-3.2,3.6-4.3
		c1.4-1.1,3.1-1.7,5.1-2c1.9-0.3,4.1,0,6.4,0.7c2.2,1,3.6,2.3,4.2,3.9s0.7,3.1,0.2,4.8c-0.5,1.6-1.4,3.1-2.8,4.6
		c-1.3,1.5-2.8,2.7-4.4,3.5c-1.1,0.5-2.3,1-3.3,1.5c-1.1,0.4-2.3,0.7-3.5,0.9c0.4,0.7,0.9,1.4,1.4,1.9c0.5,0.5,1.2,0.9,1.9,1.2
		c1.5,0.6,3.1,0.8,4.8,0.7C510,503.7,511.5,503.3,512.9,502.7z M502.1,487.5c-0.5,0.3-1.1,0.7-1.6,1.3c-0.5,0.6-1,1.2-1.4,1.8
		c-0.4,0.6-0.6,1.2-0.7,1.8c-0.1,0.6,0.1,1,0.5,1.2c0.7,0.4,1.5,0.5,2.6,0.3c1.1-0.2,2.1-0.6,3.1-1.2c1-0.6,1.8-1.3,2.5-2.1
		c0.7-0.8,1-1.7,1-2.7c-0.1-0.7-0.3-1.1-0.8-1.4c-0.4-0.3-0.9-0.4-1.5-0.4c-0.6,0-1.2,0.2-1.9,0.5
		C503.3,486.9,502.7,487.2,502.1,487.5z"/>
</g>
<g id="XMLID_8_">
</g>
<g id="XMLID_23_">
</g>
<g id="XMLID_24_">
</g>
<g id="XMLID_25_">
</g>
<g id="XMLID_26_">
</g>
<g id="XMLID_27_">
</g>
</svg>
