<?xml version="1.0" encoding="utf-8"?>
<!-- Generator: Adobe Illustrator 19.0.0, SVG Export Plug-In . SVG Version: 6.00 Build 0)  -->
<svg version="1.1" id="레이어_1" xmlns="http://www.w3.org/2000/svg" xmlns:xlink="http://www.w3.org/1999/xlink" x="0px"
	 y="0px" viewBox="0 0 600 580" style="enable-background:new 0 0 600 580;" xml:space="preserve">
<style type="text/css">
	.st0{opacity:0.49;}
	.st1{fill:#E60012;}
	.st2{fill:none;stroke:#000000;stroke-width:5;stroke-linecap:round;stroke-miterlimit:10;}
</style>
<g id="XMLID_1_" class="st0">
	<path id="XMLID_31_" class="st1" d="M171.9,410.9c-7.9-2.3-12.3-7.2-13-14.7c-0.7-7.5,1.1-14.2,5.3-20.3
		c4.2-6.1,9.3-10.6,15.4-13.7c6.1-3,12.4-6.7,18.9-10.8c8.4-5.6,16.3-10.9,23.8-15.8c7.5-4.9,14.5-9.9,21-15.1
		c6.5-5.1,13-10.7,19.3-16.8c6.3-6.1,12.7-13.1,19.3-21c0.9-0.9,3.6-4.6,8-10.9c4.4-6.3,8.5-12.7,12.3-19.3
		c-16.8,0.5-32.8,1.8-47.9,3.9c-15.2,2.1-30.2,3.6-45.1,4.5c-4.2,0-8.6-0.2-13.3-0.7c-4.7-0.5-8.9-1.5-12.6-3.2
		c-3.7-1.6-6.8-4.1-9.1-7.3c-2.3-3.3-3.5-7.5-3.5-12.6c0.9-10.7,5.4-18.2,13.3-22.4c7.9-4.2,16.3-7,25.2-8.4
		c14-1.9,27.5-3.4,40.6-4.5c13.1-1.2,27.3-2.5,42.7-3.9c5.6-0.5,12-0.9,19.3-1.4c7.2-0.5,14.5-0.2,21.7,0.7
		c7.2,0.9,13.8,2.9,19.6,5.9c5.8,3,10.2,7.8,13,14.4c2.8,6.5,4,13.2,3.5,20c-0.5,6.8-1.9,13.4-4.2,19.9
		c-4.7,11.7-10.4,22.8-17.1,33.3c-6.8,10.5-14.1,21.1-22.1,31.9c10.7,7.5,22.8,14.9,36.1,22.4c13.3,7.5,24.6,15.9,33.9,25.2
		c8.9,8.4,12.6,17,11.2,25.9c-0.5,3.7-1.6,7.1-3.5,10.1c-1.9,3-4.7,5.3-8.4,6.7c-7.9,2.3-16.7,1.9-26.3-1.4
		c-9.6-3.3-19.3-7.8-29.1-13.6c-9.8-5.8-19.4-12.1-28.7-18.9c-9.3-6.8-17.3-12.5-23.8-17.1c-7.9,5.6-16.5,11.8-25.6,18.5
		c-9.1,6.8-18.7,13-28.7,18.5c-10,5.6-20.3,9.8-30.8,12.6C191.8,414.4,181.7,414.1,171.9,410.9z"/>
</g>
<g id="XMLID_4_">
	<path id="XMLID_8_" class="st1" d="M364.7,447.2c0.1,0.9,0.3,1.8,0.3,2.5c0.1,0.8,0.2,1.6,0.2,2.4c0,0.8,0.1,1.7,0.1,2.6
		c0,0.9,0.1,2,0.1,3.2c-0.2,4.9-0.5,9.3-1,13c-0.5,3.7-1.1,6.6-1.9,8.7c-1.2,3.5-2.9,6.1-5,7.8c-2.4,2.2-5.3,3.3-8.7,3.4
		c-1.5,0-2.8-0.5-3.8-1.5c-0.8-0.9-1-2-0.6-3.1c0.2-0.5,0.7-1.1,1.5-1.6c0.8-0.6,1.7-1,2.6-1.2c1.6-0.3,2.9-1,4-2s2-2.6,2.7-4.9
		c0.5-1.3,0.8-2.8,1.1-4.5c0.3-1.7,0.5-3.4,0.6-5.1c0.1-1.7,0.2-3.4,0.3-5.1c0.1-1.7,0.1-3.2,0.1-4.6c0-1.9-0.1-3.6-0.2-5.1
		s-0.2-3.3-0.2-5.1c0-0.7,0.1-1.4,0.3-2.1c0.2-0.7,0.5-1.3,1-1.8c0.7-0.7,1.6-1.1,2.7-1.1c1.1,0,2,0.5,2.6,1.5
		c0.3,0.4,0.5,1,0.7,1.7S364.6,446.6,364.7,447.2z"/>
	<path id="XMLID_10_" d="M386.6,455.6c0.9,1.1,1.8,2.3,2.5,3.7c0.7,1.4,1.3,2.9,1.7,4.4c0.4,1.5,0.7,3,0.8,4.5c0.1,1.5,0.1,3,0,4.4
		c-0.1,1.4-0.5,2.9-1.2,4.4c-0.7,1.5-1.5,2.9-2.5,4.1c-1,1.2-2.3,2.1-3.7,2.8c-1.4,0.6-3,0.8-4.6,0.4c-1.4-0.3-2.6-0.9-3.5-1.8
		c-0.9-0.9-1.7-1.9-2.3-3.1c-0.6-1.2-1-2.4-1.2-3.8c-0.2-1.4-0.3-2.7-0.3-4c0.1-2.9,0.8-5.6,2-8.3c1.2-2.7,3.1-4.7,5.8-6
		c0.1-0.6,0.5-1.1,1-1.6c0.5-0.5,1.1-0.8,1.8-1c0.7-0.2,1.3-0.3,2-0.2C385.5,454.6,386.1,455,386.6,455.6z M381,477.7
		c0.9-0.1,1.5-0.4,2-1c0.5-0.6,0.9-1.3,1.2-2.1c0.3-0.8,0.4-1.6,0.5-2.5c0-0.9,0-1.7-0.1-2.4c-0.1-2.2-0.6-4.4-1.7-6.7l-0.7,0.5
		c-0.6,0.3-1.1,0.7-1.5,1.3c-0.4,0.6-0.7,1.4-1,2.2c-0.2,0.8-0.4,1.6-0.5,2.4c-0.1,0.8-0.1,1.5-0.1,2.1c0,0.8,0,1.6,0.1,2.4
		c0.1,0.8,0.3,1.6,0.7,2.3c0.2,0.4,0.4,0.8,0.7,1C381,477.5,381.1,477.7,381,477.7L381,477.7L381,477.7z"/>
	<path id="XMLID_13_" d="M412.3,505.5c-0.4,0.3-1,0.4-1.8,0.5c-0.8,0.1-1.7,0-2.6-0.1c-0.9-0.1-1.7-0.4-2.5-0.7
		c-0.8-0.3-1.3-0.8-1.4-1.4c-0.5-1.3-0.5-2.3,0.1-2.9c0.6-0.6,1.6-0.9,2.9-1c0.9,0,1.7-0.4,2.3-1.3c0.6-0.9,1.1-2,1.5-3.3
		c0.4-1.4,0.6-2.9,0.8-4.5c0.2-1.6,0.3-3.2,0.3-4.8c0-1.6,0-3-0.1-4.3c-0.1-1.3-0.1-2.3-0.2-3c-1.2,0.7-2.5,1.3-3.9,1.8
		c-1.4,0.5-2.8,0.4-4.2-0.5c-1.7-0.9-2.9-2.1-3.7-3.5c-0.8-1.4-1.3-3.1-1.5-5c-0.2-1.3-0.2-2.6,0-4.1c0.2-1.5,0.7-2.9,1.3-4.2
		c0.6-1.3,1.4-2.5,2.3-3.6c1-1.1,2.1-1.9,3.4-2.5c1.1-0.5,2.5-0.8,4.1-0.8c1.6,0,3,0.5,4,1.5c0.1,0.1,0.3,0.1,0.5,0
		c0.2,0,0.4-0.1,0.6-0.2c0.7-0.3,1.3-0.3,1.8,0s0.9,0.7,1.2,1.3c0.3,0.6,0.5,1.2,0.8,1.9c0.2,0.7,0.4,1.2,0.5,1.6
		c0.7,2.6,1.1,5.3,1.4,8.3c0.3,2.9,0.4,5.8,0.3,8.7c-0.1,2.9-0.3,5.8-0.7,8.6c-0.4,2.9-0.8,5.6-1.5,8.2c-0.4,1.8-1,3.6-2,5.3
		C415.5,503.3,414.2,504.6,412.3,505.5z M408.9,472.1c0.6-0.5,1.2-1.1,1.7-1.7c0.9-1.5,1.5-2.8,1.5-4c0.1-1.2-0.7-2.3-2.3-3.2
		c-1-0.5-1.9-0.6-2.5-0.2c-0.7,0.4-1.3,1-1.8,1.9c-0.5,0.9-0.8,1.8-1,2.8c-0.2,1-0.3,1.8-0.2,2.5c0,0.3,0,0.6,0,1.1
		c0,0.5,0.1,0.9,0.3,1.4c0.1,0.4,0.3,0.8,0.6,1c0.3,0.2,0.6,0.3,1.1,0C407.2,473.2,408.1,472.7,408.9,472.1z"/>
	<path id="XMLID_17_" d="M440.2,505.5c-0.4,0.3-1,0.4-1.8,0.5c-0.8,0.1-1.7,0-2.6-0.1c-0.9-0.1-1.7-0.4-2.5-0.7
		c-0.8-0.3-1.3-0.8-1.4-1.4c-0.5-1.3-0.5-2.3,0.1-2.9c0.6-0.6,1.6-0.9,2.9-1c0.9,0,1.7-0.4,2.3-1.3c0.6-0.9,1.1-2,1.5-3.3
		c0.4-1.4,0.6-2.9,0.8-4.5c0.2-1.6,0.3-3.2,0.3-4.8c0-1.6,0-3-0.1-4.3c-0.1-1.3-0.1-2.3-0.2-3c-1.2,0.7-2.5,1.3-3.9,1.8
		c-1.4,0.5-2.8,0.4-4.2-0.5c-1.7-0.9-2.9-2.1-3.7-3.5c-0.8-1.4-1.3-3.1-1.5-5c-0.2-1.3-0.2-2.6,0-4.1c0.2-1.5,0.7-2.9,1.3-4.2
		c0.6-1.3,1.4-2.5,2.3-3.6c1-1.1,2.1-1.9,3.4-2.5c1.1-0.5,2.5-0.8,4.1-0.8c1.6,0,3,0.5,4,1.5c0.1,0.1,0.3,0.1,0.5,0
		c0.2,0,0.4-0.1,0.6-0.2c0.7-0.3,1.3-0.3,1.8,0s0.9,0.7,1.2,1.3c0.3,0.6,0.5,1.2,0.8,1.9c0.2,0.7,0.4,1.2,0.5,1.6
		c0.7,2.6,1.1,5.3,1.4,8.3c0.3,2.9,0.4,5.8,0.3,8.7c-0.1,2.9-0.3,5.8-0.7,8.6c-0.4,2.9-0.8,5.6-1.5,8.2c-0.4,1.8-1,3.6-2,5.3
		C443.4,503.3,442.1,504.6,440.2,505.5z M436.8,472.1c0.6-0.5,1.2-1.1,1.7-1.7c0.9-1.5,1.5-2.8,1.5-4c0.1-1.2-0.7-2.3-2.3-3.2
		c-1-0.5-1.9-0.6-2.5-0.2c-0.7,0.4-1.3,1-1.8,1.9c-0.5,0.9-0.8,1.8-1,2.8c-0.2,1-0.3,1.8-0.2,2.5c0,0.3,0,0.6,0,1.1
		c0,0.5,0.1,0.9,0.3,1.4c0.1,0.4,0.3,0.8,0.6,1c0.3,0.2,0.6,0.3,1.1,0C435.1,473.2,436,472.7,436.8,472.1z"/>
	<path id="XMLID_23_" d="M460.9,459.6c0,3.6-0.1,7.3-0.3,11.2c-0.2,3.9,0,7.9,0.6,12c-0.1,1.3-0.7,2.2-1.8,2.5
		c-1.1,0.3-2.1,0.1-3.1-0.6c-1.1-0.9-1.9-2.4-2.3-4.7c-0.4-2.2-0.7-4.6-0.8-7.3c-0.1-2.6-0.1-5.1,0-7.6c0.1-2.5,0.3-4.5,0.4-5.9
		c0.2-1.1,0.7-1.9,1.4-2.4c0.8-0.5,1.5-0.8,2.4-0.8c0.8,0,1.6,0.3,2.3,0.9C460.4,457.6,460.8,458.5,460.9,459.6z M455.9,452.8
		c-0.9-0.5-1.5-1.3-2-2.1c-0.5-0.9-0.7-1.9-0.7-3c0-0.9,0.3-1.7,1-2.4c0.7-0.7,1.5-1.1,2.3-1.2c0.6-0.1,1.2,0.1,1.8,0.6
		c0.6,0.5,1.2,1,1.6,1.6c0.5,0.6,0.9,1.3,1.2,2c0.3,0.7,0.5,1.1,0.5,1.4c0,0.7-0.2,1.3-0.6,1.8c-0.4,0.6-0.9,1-1.4,1.4
		c-0.6,0.3-1.2,0.5-1.8,0.5C457.1,453.4,456.5,453.2,455.9,452.8z"/>
	<path id="XMLID_26_" d="M492.1,477.2c0.9,0.7,1.3,1.5,1.4,2.5c0.1,1-0.1,1.8-0.6,2.5c-0.5,0.7-1.2,1.3-2,1.5
		c-0.8,0.3-1.7,0.1-2.5-0.5c-1.1-0.9-2-1.9-2.7-3c-0.7-1.1-1.3-2.3-1.8-3.7c-0.2-0.5-0.4-1.1-0.6-1.8c-0.2-0.8-0.4-1.5-0.6-2.3
		c-0.2-0.8-0.5-1.6-0.8-2.3c-0.3-0.7-0.6-1.3-1-1.7c-0.2,0.1-0.4,0.3-0.6,0.4c-0.2,0.1-0.3,0.3-0.4,0.5c-0.5,0.5-0.9,1.4-1.2,2.5
		c-0.3,1.1-0.5,2.1-0.7,2.8c-0.4,1.3-0.8,2.6-1.1,3.9c-0.3,1.2-0.7,2.5-1,3.8c-0.1,0.7-0.5,1.2-1,1.7c-0.6,0.5-1.2,0.8-1.9,0.9
		c-0.7,0.1-1.4,0.1-2-0.2c-0.7-0.3-1.1-0.8-1.4-1.5c-0.7-1.7-1.3-3.5-1.6-5.5c-0.3-2-0.5-4.1-0.5-6.3c0-2.1,0.2-4.2,0.5-6.3
		c0.3-2,0.8-3.9,1.4-5.7c0.4-1,1-1.7,1.9-2c0.9-0.4,1.7-0.5,2.6-0.3c0.9,0.2,1.5,0.6,2,1.3s0.5,1.6,0.1,2.7c-0.1,0.5-0.3,1-0.4,1.5
		c-0.2,0.5-0.3,1-0.4,1.5c0.9-0.9,1.8-1.7,2.9-2.3c1-0.6,2.1-0.8,3.3-0.7c1.8,0.3,3.2,1,4.3,2.1c1,1.1,1.9,2.5,2.7,4.1
		c0.4,0.9,0.8,2,1.1,3.3c0.4,1.4,0.8,2.5,1.2,3.5c0.1,0.3,0.3,0.9,0.6,1.5C491.5,476.5,491.8,477,492.1,477.2z"/>
	<path id="XMLID_28_" d="M511.5,505.5c-0.4,0.3-1,0.4-1.8,0.5c-0.8,0.1-1.7,0-2.6-0.1c-0.9-0.1-1.7-0.4-2.5-0.7
		c-0.8-0.3-1.3-0.8-1.4-1.4c-0.5-1.3-0.5-2.3,0.1-2.9c0.6-0.6,1.6-0.9,2.9-1c0.9,0,1.7-0.4,2.3-1.3c0.6-0.9,1.1-2,1.5-3.3
		c0.4-1.4,0.6-2.9,0.8-4.5c0.2-1.6,0.3-3.2,0.3-4.8c0-1.6,0-3-0.1-4.3c-0.1-1.3-0.1-2.3-0.2-3c-1.2,0.7-2.5,1.3-3.9,1.8
		c-1.4,0.5-2.8,0.4-4.2-0.5c-1.7-0.9-2.9-2.1-3.7-3.5c-0.8-1.4-1.3-3.1-1.5-5c-0.2-1.3-0.2-2.6,0-4.1c0.2-1.5,0.7-2.9,1.3-4.2
		c0.6-1.3,1.4-2.5,2.3-3.6c1-1.1,2.1-1.9,3.4-2.5c1.1-0.5,2.5-0.8,4.1-0.8c1.6,0,3,0.5,4,1.5c0.1,0.1,0.3,0.1,0.5,0
		c0.2,0,0.4-0.1,0.6-0.2c0.7-0.3,1.3-0.3,1.8,0s0.9,0.7,1.2,1.3c0.3,0.6,0.5,1.2,0.8,1.9c0.2,0.7,0.4,1.2,0.5,1.6
		c0.7,2.6,1.1,5.3,1.4,8.3c0.3,2.9,0.4,5.8,0.3,8.7c-0.1,2.9-0.3,5.8-0.7,8.6c-0.4,2.9-0.8,5.6-1.5,8.2c-0.4,1.8-1,3.6-2,5.3
		C514.7,503.3,513.4,504.6,511.5,505.5z M508.1,472.1c0.6-0.5,1.2-1.1,1.7-1.7c0.9-1.5,1.5-2.8,1.5-4c0.1-1.2-0.7-2.3-2.3-3.2
		c-1-0.5-1.9-0.6-2.5-0.2c-0.7,0.4-1.3,1-1.8,1.9c-0.5,0.9-0.8,1.8-1,2.8c-0.2,1-0.3,1.8-0.2,2.5c0,0.3,0,0.6,0,1.1
		c0,0.5,0.1,0.9,0.3,1.4c0.1,0.4,0.3,0.8,0.6,1c0.3,0.2,0.6,0.3,1.1,0C506.4,473.2,507.3,472.7,508.1,472.1z"/>
</g>
<polyline id="XMLID_5_" class="st2" points="362,426 362,373 269,330 356,206 384,261 429,237 "/>
<polyline id="XMLID_2_" class="st2" points="269,330 255,386 188,374 "/>
<polyline id="XMLID_3_" class="st2" points="356,206 252,211 217,246 "/>
<g id="XMLID_6_">
	<path id="XMLID_19_" d="M379,139.1c14.3,0,26,11.7,26,26s-11.7,26-26,26s-26-11.7-26-26S364.7,139.1,379,139.1 M379,134.1
		c-17.1,0-31,13.9-31,31s13.9,31,31,31s31-13.9,31-31S396.1,134.1,379,134.1L379,134.1z"/>
</g>
<g id="XMLID_7_">
</g>
<g id="XMLID_33_">
</g>
<g id="XMLID_34_">
</g>
<g id="XMLID_35_">
</g>
<g id="XMLID_36_">
</g>
<g id="XMLID_37_">
</g>
</svg>
