<?xml version="1.0" encoding="utf-8"?>
<!-- Generator: Adobe Illustrator 19.0.0, SVG Export Plug-In . SVG Version: 6.00 Build 0)  -->
<svg version="1.1" id="레이어_1" xmlns="http://www.w3.org/2000/svg" xmlns:xlink="http://www.w3.org/1999/xlink" x="0px"
	 y="0px" viewBox="0 0 600 580" style="enable-background:new 0 0 600 580;" xml:space="preserve">
<style type="text/css">
	.st0{opacity:0.5;}
	.st1{fill:none;stroke:#000000;stroke-width:5;stroke-miterlimit:10;}
	.st2{fill:none;}
	.st3{fill:none;stroke:#000000;}
</style>
<g id="XMLID_9_" class="st0">
	<path id="XMLID_49_" d="M213.6,444.6c-7.9-2.3-12.3-7.4-13-15.1c-0.7-7.7,1-14.3,5.3-19.9c3.7-5.1,7.7-8.9,11.9-11.2
		c4.2-2.3,9.1-5.4,14.7-9.1c18.7-7.9,35.5-18.3,50.4-31.1c14.9-12.8,28.5-26.7,40.6-41.7c0.9-1.4,3.6-5.3,8.1-11.5
		c4.4-6.3,8.5-12.7,12.3-19.3c-16.8,0.9-32.9,2.3-48.3,4.2c-15.4,1.9-30.3,3.3-44.8,4.2c-4.2,0-8.6-0.1-13.3-0.4
		c-4.7-0.2-9-1.3-13-3.1c-4-1.9-7.1-4.3-9.4-7.4c-2.3-3-3.3-7.4-2.8-13c0.5-8.9,4.8-15.8,13-20.6c8.2-4.9,17.5-8.6,28-11.2
		c10.5-2.6,21.2-4.2,32.2-4.9c11-0.7,19.7-1.5,26.3-2.4c3.7-0.5,7.3-0.7,10.8-0.7s7.1-0.2,10.9-0.7c5.6,0,12.1-0.1,19.6-0.4
		c7.5-0.2,14.8,0.4,22,1.8c7.2,1.4,13.8,3.6,19.6,6.6c5.8,3,10.1,7.6,12.9,13.6c2.8,6.1,4,12.6,3.5,19.6c-0.5,7-1.9,13.5-4.2,19.6
		c-4.2,12.1-10.4,23.3-18.6,33.6c-8.2,10.3-15.5,20.8-22,31.5c0.5,0.5,1.9,1.4,4.2,2.8c2.3,1.4,4.7,2.8,7,4.2
		c9.3,6.1,19.7,12.1,31.2,18.2c11.4,6.1,21.1,13.1,29,21c3.7,3.7,6.6,8.3,8.8,13.6c2.1,5.4,2.9,10.2,2.5,14.4
		c-0.9,8.4-3.9,13.8-8.8,16.1c-4.9,2.3-10.5,2.9-16.8,1.8c-6.3-1.2-12.7-3.3-19.3-6.3c-6.5-3-11.9-5.7-16.1-8
		c-8.9-4.7-18.5-10.6-29-17.9c-10.5-7.2-21.1-13.6-31.9-19.3c-4.2,3.3-7.5,5.8-9.8,7.7c-2.3,1.9-4.5,3.7-6.6,5.6
		c-2.1,1.9-3.4,3-3.9,3.5c-9.3,6.5-19.1,12.3-29.4,17.1c-10.3,4.9-21.5,9.2-33.6,13c-5.1,1.4-10.1,2.5-15,3.2
		C223.7,447,218.7,446.5,213.6,444.6z M322.8,219.9c-6.5,1.4-13.4,0.6-20.7-2.4c-7.2-3-14.2-7.2-21-12.6
		c-6.8-5.4-12.5-11.6-17.1-18.6c-4.7-7-7.5-13.8-8.4-20.3c-0.9-3.3-0.6-7.7,1-13.3c1.6-5.6,3.6-9.6,6-11.9
		c6.5-6.5,12.5-8.8,17.8-6.6c5.4,2.1,10.6,4.8,15.8,8.1c3.3,2.8,8.2,7.2,14.7,13.3c6.5,6.1,12.6,12.8,18.2,20.3
		c5.6,7.5,9.5,14.8,11.5,22.1c2.1,7.2,0.3,13.2-5.3,17.9c-1.4,1.4-3.5,2.3-6.3,2.8C326.3,219,324.2,219.4,322.8,219.9z"/>
</g>
<g id="XMLID_6_">
	<g id="XMLID_56_">
		<line id="XMLID_59_" class="st1" x1="273.9" y1="148.2" x2="315.5" y2="197.1"/>
		<g id="XMLID_57_">
			<path id="XMLID_58_" d="M325.3,208.6c-6.6-3.7-15.7-7.5-22.9-8.6l11.8-4.4l6.3-11C320.4,191.9,322.7,201.5,325.3,208.6z"/>
		</g>
	</g>
</g>
<g id="XMLID_10_">
	<path id="XMLID_41_" class="st2" d="M412.6,412.7"/>
</g>
<g id="XMLID_8_">
	<path id="XMLID_35_" class="st2" d="M214,260"/>
</g>
<g id="XMLID_1_">
	<path id="XMLID_42_" d="M239.8,140.3c-0.5,0.2-0.8,0.1-1.1-0.1c-0.3-0.2-0.5-0.6-0.6-1c-0.1-0.5-0.3-0.9-0.3-1.5
		c0-0.5-0.1-1-0.1-1.4c-0.1-1-0.2-1.9-0.2-2.8c0-0.9,0-1.8,0-2.6c-0.1-1-0.1-2,0-3l0-5.1c0-0.6,0.1-1.2,0.1-1.9
		c0-0.6,0.1-1.3,0.4-1.9c0.2-0.6,0.5-0.9,1-1c0.5-0.1,0.9,0.1,1.4,0.5c0.3,0.4,0.6,1,0.8,1.9c0.2,0.8,0.3,1.7,0.4,2.6
		c0.1,0.9,0.1,1.8,0.1,2.8c0,0.9,0,1.6,0,2.3v0c0,1.3,0,2.7-0.1,4.1c-0.1,1.4,0,2.9,0.1,4.5c0.1,0.8,0,1.5-0.4,2.2
		C240.9,139.5,240.4,140,239.8,140.3z"/>
</g>
<circle id="XMLID_4_" class="st3" cx="238.8" cy="129.7" r="18.5"/>
<g id="XMLID_11_">
	<g id="XMLID_45_">
		<line id="XMLID_48_" class="st1" x1="333.6" y1="364.4" x2="413" y2="421.1"/>
		<g id="XMLID_46_">
			<path id="XMLID_47_" d="M425.3,429.8c-7.3-2-17.1-3.4-24.3-2.7l10.4-7.2l3.4-12.2C416.5,414.8,421,423.6,425.3,429.8z"/>
		</g>
	</g>
</g>
<path id="XMLID_14_" class="st1" d="M365.7,265.2C403.5,310.7,319,386,225.3,429.8"/>
<path id="XMLID_3_" class="st1" d="M235,270.1c6.3-0.6,107.1-33.3,130.7-4.8"/>
<g id="XMLID_7_">
	<path id="XMLID_17_" d="M192.4,281.4c0.7,0.5,1,1,1,1.6c-0.1,0.3-0.3,0.6-0.6,0.9c-0.3,0.3-0.7,0.4-1.1,0.5
		c-0.8,0.1-1.6,0.1-2.3,0.2c-0.7,0.1-1.4,0.1-2.1,0.2c-1,0.1-2.1,0.2-3.1,0.3c-1,0.1-2.1,0.1-3.3,0.1c-0.7,0-1.3-0.1-1.9-0.3
		c-0.6-0.2-1-0.5-1.3-1.1c-0.2-0.5-0.2-0.9,0-1.2c0.2-0.4,0.5-0.8,0.9-1.4c0.1-0.1,0.3-0.4,0.5-0.8c0.2-0.4,0.5-0.8,0.9-1.3
		s0.7-1,1.1-1.6c0.4-0.6,0.8-1.2,1.2-1.7c2.1-2.9,3.1-5,2.9-6.4c-0.1-0.4-0.4-0.7-0.9-0.9c-0.5-0.2-1.2-0.3-2-0.3
		c-0.8,0-1.5,0.1-2.3,0.3c-0.7,0.2-1.5,0.3-2.3,0.3c-0.5-0.1-0.7-0.3-0.8-0.7c-0.1-0.4-0.1-0.8,0-1.1c0.1-0.4,0.3-0.6,0.6-0.8
		c0.3-0.2,0.6-0.4,0.9-0.6c0.7-0.3,1.5-0.5,2.5-0.6c1-0.1,1.9-0.1,2.9,0c1,0.1,1.9,0.3,2.7,0.6c0.9,0.3,1.5,0.7,2.1,1.2
		c0.3,0.3,0.5,0.7,0.6,1.2c0.1,0.5,0.1,1,0,1.6c-0.1,0.5-0.2,1.1-0.3,1.6s-0.3,0.9-0.4,1.2c-0.2,0.5-0.4,1-0.6,1.5
		c-0.2,0.5-0.5,1.2-0.9,1.9c-0.4,0.7-0.9,1.6-1.6,2.5c-0.6,1-1.4,2.2-2.4,3.6l6.2-0.3c0.6,0,1.1-0.1,1.7-0.1
		C191.4,281.1,191.9,281.2,192.4,281.4z"/>
</g>
<path id="XMLID_5_" class="st3" d="M202.1,275.1c0,10.2-8.3,18.5-18.5,18.5c-10.2,0-18.5-8.3-18.5-18.5c0-10.2,8.3-18.5,18.5-18.5
	C193.8,256.6,202.1,264.9,202.1,275.1"/>
<g id="XMLID_23_">
	<path id="XMLID_13_" d="M428.1,357.6c0.6,0.2,1.2,0.5,1.7,0.8c0.5,0.3,0.9,0.8,1.3,1.4c0.3,0.4,0.5,1,0.5,1.8s-0.1,1.5-0.5,2.2
		c-0.4,0.9-0.8,1.6-1.4,2.3c-0.5,0.6-1,1.1-1.2,1.4c-0.2,0.1-0.5,0.4-0.9,0.8c-0.5,0.4-1,0.8-1.6,1.2c-0.6,0.4-1.3,0.8-2,1
		s-1.4,0.5-2,0.5c-0.6,0-1.1-0.3-1.3-0.9c-0.2-0.4-0.1-0.8,0.3-1.3c0.4-0.5,0.7-0.9,1-1.1c0.4-0.2,0.9-0.6,1.6-1.1
		c0.7-0.5,1.3-1,1.9-1.5s1.1-1.1,1.4-1.7c0.3-0.6,0.4-1.2,0.1-1.8c-0.3-0.5-0.8-0.8-1.5-1c-0.7-0.2-1.3-0.3-1.8-0.4
		c-0.2,0-0.5-0.1-0.8-0.1c-0.3,0-0.7-0.1-1-0.3c-0.3-0.1-0.6-0.3-0.8-0.4s-0.4-0.4-0.5-0.7c-0.2-0.4,0-1.1,0.5-1.9
		c0.5-0.8,1-1.6,1.5-2.4c0.5-0.7,0.9-1.5,1.3-2.3c0.3-0.6,0.5-1.1,0.6-1.5c0.1-0.4,0.2-0.9,0.1-1.6c-0.1-0.6-0.4-0.8-0.9-0.8
		c-0.3,0-0.6,0-0.9,0.1c-0.3,0.1-0.6,0.2-0.9,0.3c-0.8,0.3-1.4,0.5-1.8,0.7c-0.4,0.2-0.9,0.3-1.5,0.3c-0.4,0-0.7-0.2-1-0.5
		c-0.2-0.3-0.3-0.7-0.3-1c0.1-0.3,0.2-0.6,0.4-0.8s0.6-0.5,1.2-0.8c0.9-0.4,2-0.8,3.1-1.1c1.1-0.4,2.3-0.5,3.5-0.6
		c0.4,0,0.8,0.1,1.3,0.3c0.5,0.2,0.9,0.5,1.1,0.9c0.3,0.5,0.5,1.2,0.5,1.9c0,0.7,0,1.5-0.2,2.3c-0.2,0.8-0.4,1.6-0.7,2.4
		s-0.6,1.5-1,2.2c-0.2,0.4-0.4,0.8-0.7,1.1c-0.3,0.3-0.3,0.6-0.3,0.9c0,0.3,0.3,0.5,0.9,0.5C427.1,357.2,427.6,357.4,428.1,357.6z"
		/>
</g>
<path id="XMLID_22_" class="st3" d="M443.8,357.1c0,10.2-8.3,18.5-18.5,18.5c-10.2,0-18.5-8.3-18.5-18.5c0-10.2,8.3-18.5,18.5-18.5
	C435.5,338.6,443.8,346.9,443.8,357.1"/>
<g id="XMLID_24_">
</g>
<g id="XMLID_12_">
</g>
<g id="XMLID_52_">
</g>
<g id="XMLID_53_">
</g>
<g id="XMLID_54_">
</g>
<g id="XMLID_60_">
</g>
<g id="XMLID_61_">
</g>
<g id="XMLID_62_">
</g>
</svg>
