<?xml version="1.0" encoding="utf-8"?>
<!-- Generator: Adobe Illustrator 19.0.0, SVG Export Plug-In . SVG Version: 6.00 Build 0)  -->
<svg version="1.1" id="레이어_1" xmlns="http://www.w3.org/2000/svg" xmlns:xlink="http://www.w3.org/1999/xlink" x="0px"
	 y="0px" viewBox="0 0 600 580" style="enable-background:new 0 0 600 580;" xml:space="preserve">
<style type="text/css">
	.st0{opacity:0.5;}
	.st1{fill:none;stroke:#000000;stroke-width:5;stroke-miterlimit:10;}
	.st2{fill:none;}
	.st3{fill:none;stroke:#000000;}
</style>
<g id="XMLID_9_" class="st0">
	<path id="XMLID_22_" d="M365.4,191.7c10.7,1.4,21.2,3.5,31.5,6.3c10.3,2.8,19.4,8.6,27.3,17.5c8.9,10.7,14.9,22.5,18.2,35.3
		c3.3,12.8,5,26.1,5.3,39.9c0.2,13.8-0.5,27.5-2.1,41.3c-1.6,13.8-3.1,26.7-4.5,38.8c-0.9,9.3-2.2,19.5-3.8,30.5
		c-1.6,11-5.3,20.4-10.9,28.3c-4.7,6.5-10.1,10.9-16.4,13c-6.3,2.1-12.7,0.1-19.3-6c-6.1-6.5-9.6-13.6-10.5-21.3
		c-0.9-7.7-1.2-15.5-0.7-23.5c0-4.2,0.1-9.2,0.3-15c0.2-5.8,0.6-12,1-18.5c-6.1,0-13.2,0.2-21.3,0.7c-8.2,0.5-16.6,0.8-25.2,1
		c-8.6,0.2-17.1,0.5-25.5,0.7c-8.4,0.2-15.6,0.1-21.7-0.4c-7,0-14.5-0.3-22.4-1c-7.9-0.7-15.2-2.9-21.7-6.6
		c-12.1-7.8-15.4-17.7-9.8-29.7c3.7-7.4,10.1-11.4,19.3-12.1c9.1-0.7,16.9-1,23.5-1c16.3,0.9,34.1,0.8,53.2-0.4
		c19.1-1.2,36.9-2.2,53.2-3.1c0-5.6-0.2-11.5-0.7-17.6c-0.5-6.1-1.6-11.7-3.5-16.9c-1.9-5.2-4.7-9.4-8.4-12.7
		c-3.7-3.3-9.1-5.4-16.1-6.3c-6.5-0.5-14.1-0.9-22.8-1.4c-8.6-0.5-17.3-0.8-25.9-1.1c-8.6-0.2-16.7-0.4-24.2-0.4
		c-7.5,0-13.5,0.2-18.2,0.7c-9.8,1.4-19,0.6-27.6-2.5c-8.6-3.1-13.4-9-14.4-18c-0.9-8.9,1.1-16,6-21.1c4.9-5.2,11.1-9.2,18.5-12
		c7.5-2.8,15.3-4.7,23.5-5.6c8.2-0.9,15.3-1.4,21.4-1.4c10.3-0.5,22.9-0.6,37.8-0.4C342.5,190.2,355.1,190.8,365.4,191.7z"/>
</g>
<g id="XMLID_6_">
	<g id="XMLID_28_">
		<line id="XMLID_31_" class="st1" x1="255.6" y1="333.3" x2="363.7" y2="333.3"/>
		<g id="XMLID_29_">
			<path id="XMLID_30_" d="M378.8,333.3c-7.1,2.6-15.9,7.1-21.4,11.9l4.3-11.9l-4.3-11.9C362.8,326.2,371.7,330.7,378.8,333.3z"/>
		</g>
	</g>
</g>
<g id="XMLID_10_">
	<path id="XMLID_20_" class="st2" d="M423,377.7"/>
</g>
<g id="XMLID_8_">
	<path id="XMLID_17_" class="st2" d="M224.4,224.9"/>
</g>
<g id="XMLID_1_">
	<path id="XMLID_14_" d="M188,228.5c-0.5,0.2-0.8,0.1-1.1-0.1c-0.3-0.2-0.5-0.6-0.6-1c-0.1-0.5-0.3-0.9-0.3-1.5c0-0.5-0.1-1-0.1-1.4
		c-0.1-1-0.2-1.9-0.2-2.8c0-0.9,0-1.8,0-2.6c-0.1-1-0.1-2,0-3l0-5.1c0-0.6,0.1-1.2,0.1-1.9c0-0.6,0.1-1.3,0.4-1.9
		c0.2-0.6,0.5-0.9,1-1c0.5-0.1,0.9,0.1,1.4,0.5c0.3,0.4,0.6,1,0.8,1.9c0.2,0.8,0.3,1.7,0.4,2.6c0.1,0.9,0.1,1.8,0.1,2.8
		c0,0.9,0,1.6,0,2.3v0c0,1.3,0,2.7-0.1,4.1c-0.1,1.4,0,2.9,0.1,4.5c0.1,0.8,0,1.5-0.4,2.2C189.2,227.7,188.7,228.2,188,228.5z"/>
</g>
<circle id="XMLID_4_" class="st3" cx="187.1" cy="217.9" r="18.5"/>
<g id="XMLID_7_">
	<path id="XMLID_12_" d="M211.6,345.5c0.7,0.5,1,1,1,1.6c-0.1,0.3-0.3,0.6-0.6,0.9s-0.7,0.4-1.1,0.5c-0.8,0.1-1.6,0.1-2.3,0.2
		c-0.7,0.1-1.4,0.1-2.1,0.2c-1,0.1-2.1,0.2-3.1,0.3s-2.1,0.1-3.3,0.1c-0.7,0-1.3-0.1-1.9-0.3c-0.6-0.2-1-0.5-1.3-1.1
		c-0.2-0.5-0.2-0.9,0-1.2c0.2-0.4,0.5-0.8,0.9-1.4c0.1-0.1,0.3-0.4,0.5-0.8c0.2-0.4,0.5-0.8,0.9-1.3s0.7-1,1.1-1.6
		c0.4-0.6,0.8-1.2,1.2-1.7c2.1-2.9,3.1-5,2.9-6.4c-0.1-0.4-0.4-0.7-0.9-0.9c-0.5-0.2-1.2-0.3-2-0.3c-0.8,0-1.5,0.1-2.3,0.3
		c-0.7,0.2-1.5,0.3-2.3,0.3c-0.5-0.1-0.7-0.3-0.8-0.7c-0.1-0.4-0.1-0.8,0-1.1c0.1-0.4,0.3-0.7,0.6-0.8c0.3-0.2,0.6-0.4,0.9-0.6
		c0.7-0.3,1.5-0.5,2.5-0.6c1-0.1,1.9-0.1,2.9,0c1,0.1,1.9,0.3,2.7,0.6s1.5,0.7,2.1,1.2c0.3,0.3,0.5,0.7,0.6,1.2c0.1,0.5,0.1,1,0,1.6
		c-0.1,0.5-0.2,1.1-0.3,1.6s-0.3,0.9-0.4,1.2c-0.2,0.5-0.4,1-0.6,1.5c-0.2,0.5-0.5,1.2-0.9,1.9c-0.4,0.7-0.9,1.6-1.6,2.5
		c-0.6,1-1.4,2.2-2.4,3.5l6.2-0.3c0.6,0,1.1-0.1,1.7-0.1C210.7,345.3,211.2,345.3,211.6,345.5z"/>
</g>
<circle id="XMLID_5_" class="st3" cx="202.8" cy="339.2" r="18.5"/>
<g id="XMLID_3_">
	<g id="XMLID_39_">
		<path id="XMLID_42_" class="st1" d="M245.4,222.6c0,0,122.3-16.7,150,11.4c27,27.4,15.5,128.5,10,166.9"/>
		<g id="XMLID_40_">
			<path id="XMLID_41_" d="M403.1,415.8c-1.6-7.4-4.7-16.8-8.6-22.9l11.1,6l12.4-2.5C412.4,401.1,406.7,409.2,403.1,415.8z"/>
		</g>
	</g>
</g>
<g id="XMLID_11_">
</g>
<g id="XMLID_24_">
</g>
<g id="XMLID_25_">
</g>
<g id="XMLID_26_">
</g>
<g id="XMLID_32_">
</g>
<g id="XMLID_33_">
</g>
<g id="XMLID_34_">
</g>
</svg>
