<?xml version="1.0" encoding="utf-8"?>
<!-- Generator: Adobe Illustrator 19.0.0, SVG Export Plug-In . SVG Version: 6.00 Build 0)  -->
<svg version="1.1" id="레이어_1" xmlns="http://www.w3.org/2000/svg" xmlns:xlink="http://www.w3.org/1999/xlink" x="0px"
	 y="0px" viewBox="0 0 600 580" style="enable-background:new 0 0 600 580;" xml:space="preserve">
<style type="text/css">
	.st0{opacity:0.48;}
	.st1{fill:#E60012;}
	.st2{fill:none;stroke:#000000;stroke-width:5;stroke-miterlimit:10;}
</style>
<g id="XMLID_1_" class="st0">
	<path id="XMLID_15_" class="st1" d="M328,174.4c10.7,1.4,21.2,3.5,31.5,6.3c10.3,2.8,19.4,8.6,27.3,17.5
		c8.9,10.7,14.9,22.5,18.2,35.4c3.3,12.8,5,26.1,5.3,39.9c0.2,13.8-0.5,27.5-2.1,41.3c-1.6,13.8-3.1,26.7-4.5,38.9
		c-0.9,9.3-2.2,19.5-3.8,30.5c-1.6,11-5.3,20.4-10.9,28.3c-4.7,6.5-10.1,10.8-16.4,13c-6.3,2.1-12.7,0.1-19.3-6
		c-6.1-6.5-9.6-13.7-10.5-21.3c-0.9-7.7-1.2-15.5-0.7-23.5c0-4.2,0.1-9.2,0.3-15c0.2-5.8,0.6-12,1-18.6c-6.1,0-13.2,0.2-21.3,0.7
		c-8.2,0.5-16.6,0.8-25.2,1c-8.6,0.2-17.1,0.5-25.5,0.7c-8.4,0.2-15.6,0.1-21.7-0.3c-7,0-14.5-0.3-22.4-1
		c-7.9-0.7-15.2-2.9-21.7-6.6c-12.1-7.8-15.4-17.7-9.8-29.7c3.7-7.4,10.1-11.4,19.3-12.1c9.1-0.7,16.9-1,23.5-1
		c16.3,0.9,34.1,0.8,53.2-0.3c19.1-1.2,36.9-2.2,53.2-3.2c0-5.6-0.2-11.5-0.7-17.6c-0.5-6.1-1.6-11.7-3.5-16.9
		c-1.9-5.2-4.7-9.4-8.4-12.7c-3.7-3.3-9.1-5.4-16.1-6.3c-6.5-0.5-14.1-0.9-22.8-1.4c-8.6-0.5-17.3-0.8-25.9-1.1
		c-8.6-0.2-16.7-0.4-24.1-0.4c-7.5,0-13.5,0.2-18.2,0.7c-9.8,1.4-19,0.6-27.6-2.5c-8.6-3.1-13.4-9-14.4-18c-0.9-8.9,1.1-16,6-21.1
		s11.1-9.2,18.5-12c7.5-2.8,15.3-4.7,23.5-5.6c8.2-0.9,15.3-1.4,21.4-1.4c10.3-0.5,22.9-0.6,37.8-0.4
		C305.2,172.8,317.8,173.4,328,174.4z"/>
</g>
<path id="XMLID_2_" class="st2" d="M416,413c47-86,40-144,40-144s-17-144-153-136c-104,6.1-150.1,57.8-166,81.8
	c-3.8,5.8-0.7,13.6,6.1,15.2l151.9,35.6c3.9,0.9,4.2,6.5,0.3,7.7l-109.8,35.2c-3.8,1.2-5.4,5.8-3.1,9.1
	c13,18.9,55.6,70.9,127.7,69.3c0,0,58,17,37,77"/>
<g id="XMLID_3_">
	<path id="XMLID_5_" class="st1" d="M398.6,472.6c-0.3,0.5-0.8,0.9-1.5,1.3c-0.7,0.4-1.5,0.8-2.3,1s-1.6,0.5-2.5,0.8
		c-0.8,0.2-1.5,0.3-2.1,0.3c-1.1,0-2.3-0.1-3.5-0.3c-1.2-0.2-2.4-0.6-3.5-1.2c-1.1-0.5-2.1-1.2-2.9-2.1c-0.8-0.9-1.4-1.9-1.7-3.2
		c-0.3-1.4-0.4-2.9-0.4-4.5c0-1.6,0.1-3.1,0.5-4.7c0.3-1.5,0.8-3,1.4-4.3c0.7-1.3,1.6-2.5,2.8-3.4c1-0.8,2.1-1.4,3.3-1.7
		c1.2-0.3,2.5-0.5,3.8-0.4c1.3,0.1,2.5,0.4,3.7,0.9s2.2,1.2,3.1,2.1c1.1,1.1,1.2,2.3,0.5,3.6c-0.4,0.7-1,1-1.9,0.8
		c-0.9-0.2-1.6-0.3-2.2-0.5c-0.9-0.1-1.9-0.2-2.8-0.1c-0.9,0-1.8,0.3-2.6,0.8c-1.4,0.9-2.3,2.1-2.6,3.7c-0.4,1.6-0.4,3.1-0.2,4.5
		c0.2,1,0.6,1.8,1.3,2.3c0.7,0.6,1.4,1,2.3,1.2c0.9,0.2,1.8,0.3,2.7,0.2c0.9-0.1,1.8-0.4,2.5-0.8c1.4-0.7,2.6-1,3.7-0.7
		c1,0.3,1.6,0.9,1.8,2C399.3,471.2,399.1,471.9,398.6,472.6z"/>
	<path id="XMLID_7_" d="M429.3,452.1c-0.1,1.1-0.5,1.9-1.2,2.4c-0.7,0.4-1.6,0.8-2.5,1.1c-0.9,0.3-1.8,0.8-2.8,1.5
		c-1,0.7-1.9,1.4-2.5,2c-0.6,0.7-1.1,1.2-1.6,1.7c-0.5,0.5-0.9,0.9-1.3,1.4c-0.4,0.4-0.9,0.9-1.3,1.4c-0.4,0.5-0.9,1.2-1.5,2
		c-0.3,0.5-0.7,1.1-1,1.9c-0.3,0.8-0.6,1.5-0.8,2.3c-0.3,0.8-0.5,1.6-0.7,2.4s-0.4,1.5-0.5,2.1c-0.1,0.5-0.3,0.9-0.5,1.3
		c-0.2,0.4-0.6,0.5-1.2,0.5c-0.6-0.1-1.2-0.2-1.8-0.3c-0.6-0.1-1.1-0.4-1.6-0.8s-0.9-1-1.2-1.7c-0.3-0.7-0.5-1.7-0.5-3
		c0-1.1,0-2.3,0-3.6c0-1.3-0.1-2.7-0.2-4.1c-0.1-1.4-0.1-2.8-0.1-4.1c0-1.3,0-2.5,0-3.6c0.1-0.9,0.1-1.9,0.2-2.8
		c0.1-0.9,0.2-1.9,0.3-2.8c0.1-0.7,0.1-1.4,0.2-2c0.1-0.6,0.3-1.2,0.7-1.9c0.1-0.1,0.4-0.4,0.7-0.7c0.3-0.3,0.7-0.5,1.1-0.5
		c0.5-0.1,1,0,1.5,0.3c0.5,0.3,0.8,0.6,0.9,0.9c0.1,0.4,0.2,1,0.3,1.8c0.1,0.8,0.3,1.5,0.4,2.3c0.1,0.8,0.3,1.6,0.4,2.4
		c0.1,0.8,0.1,1.4,0.1,1.9c0.1,0.5,0.1,1.2,0.2,2c0.1,0.9,0.2,1.8,0.3,2.6c1.1-0.9,2.1-2,3.1-3.1c1-1.1,2.2-2.1,3.5-3
		c1-0.7,2-1.3,3.1-1.8c1.1-0.5,2.3-0.9,3.5-1.2c1.1-0.3,2.2-0.2,3,0.2C429,449.8,429.4,450.7,429.3,452.1z"/>
	<path id="XMLID_9_" d="M450.7,468.1c0.4,0.1,0.7,0.2,1,0.5c0.3,0.2,0.5,0.5,0.7,0.8c0.2,0.3,0.3,0.7,0.4,1.2c0,0.9-0.1,1.6-0.4,2.1
		c-0.2,0.5-0.5,1-0.8,1.4c-0.3,0.4-0.7,0.6-1.1,0.8c-0.4,0.2-0.8,0.4-1.1,0.6c-1.7,0.8-3.5,1.3-5.2,1.6c-1.7,0.3-3.4,0.4-4.9,0.3
		c-1.5-0.1-2.9-0.5-4.2-1.1c-1.2-0.6-2.3-1.5-3-2.6c-1.3-1.9-1.8-3.7-1.5-5.4c0.3-1.7,1-3.5,2.1-5.2c0.9-1.3,1.9-2.4,3.2-3.3
		c1.2-0.9,2.6-1.6,4.2-2.2c0.5-0.1,1.1-0.3,1.8-0.6c0.6-0.3,1.2-0.5,1.8-0.7c0.1,0,0-0.4-0.1-1.2c-0.1-0.8-0.4-1.5-0.8-2.1
		c-0.4-0.6-1-1-1.9-1.2c-0.8-0.2-1.9,0.3-3.2,1.5c-0.5,0.3-1.1,0.7-1.6,1c-0.5,0.4-1.1,0.5-1.8,0.3c-0.7-0.1-1.2-0.5-1.5-1.1
		c-0.3-0.6-0.3-1.3,0-1.9c1-2.3,2.3-3.8,4-4.6c1.7-0.8,3.7-1.3,6-1.4c1.1,0,2,0.2,2.8,0.6c0.8,0.4,1.4,0.9,1.9,1.5
		c0.5,0.6,0.9,1.3,1.3,2c0.3,0.7,0.6,1.3,0.8,1.8c0.5,1.7,0.9,3.6,1.1,5.6s0.3,4,0.3,6c0,0.7,0,1.6-0.1,2.5
		C450.5,466.7,450.6,467.5,450.7,468.1z M439.3,471.6c0.5,0.1,1,0.2,1.6,0.2c0.6,0,1.2-0.1,1.7-0.3c0.5-0.1,0.9-0.3,1.3-0.7
		c0.4-0.3,0.5-0.6,0.5-1c0.1-1.1,0.2-2,0.2-2.5c0-0.6,0-1.4,0-2.5c0-0.7-0.2-1.1-0.5-1.4c-0.4-0.2-0.8-0.3-1.3-0.3
		c-0.5,0-1,0.1-1.5,0.3c-0.5,0.2-1,0.5-1.4,0.8c-0.7,0.4-1.3,0.9-1.6,1.4c-0.3,0.5-0.7,1.2-1,2.1c-0.5,1.3-0.4,2.3,0.2,2.9
		C438.1,471.1,438.7,471.5,439.3,471.6z"/>
	<path id="XMLID_12_" d="M478.7,461.7c0.5,1.1,0.8,2.2,1,3.3c0.2,1.1,0,2.3-0.5,3.4c-0.9,2-2.2,3.5-3.8,4.4c-1.6,1-3.5,2-6,3.1
		c-0.5,0.2-1.2,0.4-2.1,0.5c-0.9,0.2-1.8,0.3-2.8,0.3c-1,0-1.9-0.1-2.8-0.3c-0.9-0.2-1.6-0.5-2.1-1c-0.9-0.8-1.5-2-1.9-3.6
		c-0.4-1.6-0.7-3.2-0.8-4.9c-0.1-1.7-0.2-3.4-0.1-5.1c0.1-1.6,0.1-2.9,0.2-3.8c0.1-1.1,0.2-2.3,0.1-3.4c-0.1-1.1,0-2.3,0.1-3.4
		c0.1-1.1,0.1-2.1,0-3c-0.1-0.8,0-1.8,0.1-3c0.1-0.7,0.1-1.3,0.2-1.8s0.1-1,0.2-1.4c0-0.4,0.1-0.9,0.2-1.3c0.1-0.5,0.1-1.1,0.2-1.9
		c0.1-0.7,0.3-1.3,0.6-2c0.2-0.6,0.5-1.2,0.9-1.6c0.9-0.9,2.1-1.3,3.4-1c0.8,0.2,1.3,0.6,1.7,1.3c0.3,0.7,0.4,2.1,0.4,4.2
		c0,0.9,0,1.7,0.1,2.5c0,0.8,0,1.7-0.1,2.5c-0.1,1-0.1,1.9-0.1,2.8c0,0.9,0,1.7,0,2.5c0,0.8-0.1,1.7-0.1,2.5c0,0.9-0.1,1.9-0.3,3
		c0.7-0.5,1.5-0.8,2.2-0.9c0.7-0.2,1.5-0.3,2.3-0.4c0.9-0.1,1.8,0,2.7,0.1c0.9,0.1,1.7,0.5,2.5,1c1.1,0.7,2,1.7,2.6,2.8
		C477.5,459.4,478.2,460.6,478.7,461.7z M471.5,467.9c0.1-0.1,0.2-0.2,0.5-0.3c0.2-0.1,0.5-0.3,0.6-0.6c0.2-0.3,0.4-0.6,0.5-1
		c0.1-0.4,0.1-1,0-1.7c-0.1-0.2-0.2-0.6-0.4-1.1c-0.2-0.5-0.5-1-0.9-1.5c-0.3-0.5-0.7-0.9-1.2-1.3c-0.5-0.3-1-0.4-1.5-0.3
		c-1.7,0.5-2.8,1.2-3.4,2.1c-0.6,0.9-1,1.8-1.2,2.7c-0.1,0.5-0.2,1.1-0.3,2c0,0.9,0,1.5,0.3,2c0.4,0.8,0.9,1.2,1.6,1.3
		c0.7,0.1,1.4,0,2.1-0.3c0.7-0.3,1.4-0.6,2-1.1C470.8,468.4,471.2,468.1,471.5,467.9z"/>
</g>
<g id="XMLID_4_">
</g>
<g id="XMLID_17_">
</g>
<g id="XMLID_18_">
</g>
<g id="XMLID_19_">
</g>
<g id="XMLID_20_">
</g>
<g id="XMLID_21_">
</g>
</svg>
