<?xml version="1.0" encoding="utf-8"?>
<!-- Generator: Adobe Illustrator 19.0.0, SVG Export Plug-In . SVG Version: 6.00 Build 0)  -->
<svg version="1.1" id="레이어_1" xmlns="http://www.w3.org/2000/svg" xmlns:xlink="http://www.w3.org/1999/xlink" x="0px"
	 y="0px" viewBox="0 0 600 580" style="enable-background:new 0 0 600 580;" xml:space="preserve">
<style type="text/css">
	.st0{opacity:0.5;}
	.st1{fill:none;stroke:#000000;stroke-width:5;stroke-miterlimit:10;}
	.st2{fill:none;}
	.st3{fill:none;stroke:#000000;}
</style>
<g id="XMLID_9_" class="st0">
	<path id="XMLID_45_" d="M373.8,365.8c4.2-0.5,9.3-1.1,15.4-2.1c6.1-0.9,11.9-1.4,17.5-1.4s10.7,1.1,15.4,3.1
		c4.7,2.1,7.9,6.1,9.8,12.2c2.3,5.6,2.6,11.2,0.7,17c-1.9,5.8-5.1,10.5-9.8,14.2c-6.5,6-14.5,10-23.8,11.8
		c-9.3,1.9-18.2,3.7-26.6,5.6c-12.6,2.3-25.9,4.1-39.9,5.2c-14,1.2-27.3,2-39.9,2.4c-8.4,0-16.9-0.6-25.6-1.8
		c-8.6-1.2-16.8-3.3-24.5-6.3c-7.7-3-14.6-7.4-20.6-13c-6.1-5.6-10.7-12.8-14-21.7c-5.1-14-7.9-28-8.4-42c-0.5-14-1.2-28.7-2.1-44.1
		c0-12.1,0.5-24.3,1.4-36.4c0.9-12.1,1.6-25,2.1-38.5c-8.9-3.7-14.9-10-18.2-18.9c-1.9-5.6-1.9-11.2,0-16.8
		c1.9-5.6,5.1-9.8,9.8-12.6c4.7-3.7,9.8-6.2,15.4-7.4c5.6-1.2,11.4-1.8,17.5-1.8c6.1,0,12.3,0.4,18.5,1c6.3,0.7,13,1.1,20,1.1
		c19.1,0.5,36.1,0.3,50.7-0.4c14.7-0.7,31.6-0.8,50.8-0.4c6.5,0.5,13,2.5,19.3,6c6.3,3.5,10.6,8.8,13,15.8c2.8,9.3,1.8,16.7-3.2,22
		c-4.9,5.4-11.6,9.5-20,12.3c-8.4,2.8-17.6,4.7-27.6,5.6c-10,0.9-18.6,1.4-25.6,1.4c-11.2,0-21.7,0.2-31.5,0.7
		c-9.8,0.5-20.8,0.5-32.9,0c0,0.5,0,1,0,1.8c0,0.7,0,2.3,0,4.9c0,2.6,0.1,6.5,0.4,11.9c0.2,5.4,0.4,12.5,0.4,21.4
		c4.2,0,8.4,0.1,12.6,0.4c4.2,0.2,8.4,0.3,12.6,0.3c13.5,0.5,26.9,0.6,40.2,0.4c13.3-0.2,26.7-1,40.3-2.4c2.8,0,6.5,0.1,11.2,0.4
		c4.7,0.2,9.2,0.9,13.7,2.1c4.4,1.2,8.3,3.1,11.6,5.7c3.3,2.6,4.9,6.3,4.9,11c0,12.3-6.5,21-19.6,26.2c-7.5,3.3-16.8,5.8-28,7.4
		c-11.2,1.7-22.8,2.6-34.6,2.8c-11.9,0.2-23.6,0.1-35-0.4c-11.4-0.5-21.4-0.9-29.8-1.4c0,7,1.3,14.3,3.8,21.9
		c2.6,7.6,7.8,13.3,15.8,17c5.1,2.3,10.6,3.7,16.5,4.2c5.8,0.5,12,0.5,18.5,0c9.3-0.9,19.5-2.2,30.4-3.8
		C353.6,368,364,366.7,373.8,365.8z"/>
</g>
<g id="XMLID_6_">
	<g id="XMLID_31_">
		<line id="XMLID_34_" class="st1" x1="226.8" y1="199.3" x2="368.9" y2="199.3"/>
		<g id="XMLID_32_">
			<path id="XMLID_33_" d="M383.9,199.3c-7.1,2.6-15.9,7.1-21.4,11.9l4.3-11.9l-4.3-11.9C368,192.2,376.8,196.6,383.9,199.3z"/>
		</g>
	</g>
</g>
<g id="XMLID_10_">
	<path id="XMLID_25_" class="st2" d="M409.6,377"/>
</g>
<g id="XMLID_8_">
	<path id="XMLID_17_" class="st2" d="M226.8,250"/>
</g>
<g id="XMLID_1_">
	<path id="XMLID_43_" d="M294.2,159.9c-0.5,0.2-0.8,0.1-1.1-0.1c-0.3-0.2-0.5-0.6-0.6-1c-0.1-0.5-0.3-0.9-0.3-1.5
		c0-0.5-0.1-1-0.1-1.4c-0.1-1-0.2-1.9-0.2-2.8c0-0.9,0-1.8,0-2.6c-0.1-1-0.1-2,0-3l0-5.1c0-0.6,0.1-1.2,0.1-1.9
		c0-0.6,0.1-1.3,0.4-1.9c0.2-0.6,0.5-0.9,1-1c0.5-0.1,0.9,0.1,1.4,0.5c0.3,0.4,0.6,1,0.8,1.9c0.2,0.8,0.3,1.7,0.4,2.6
		c0.1,0.9,0.1,1.8,0.1,2.8c0,0.9,0,1.6,0,2.3v0c0,1.3,0,2.7-0.1,4.1c-0.1,1.4,0,2.9,0.1,4.5c0.1,0.8,0,1.5-0.4,2.2
		C295.4,159.1,294.9,159.6,294.2,159.9z"/>
</g>
<circle id="XMLID_4_" class="st3" cx="293.3" cy="149.3" r="18.5"/>
<g id="XMLID_7_">
	<path id="XMLID_27_" d="M182.6,407.6c0.7,0.5,1,1,1,1.6c-0.1,0.3-0.3,0.6-0.6,0.9s-0.7,0.4-1.1,0.5c-0.8,0.1-1.6,0.1-2.3,0.2
		c-0.7,0.1-1.4,0.1-2.1,0.2c-1,0.1-2.1,0.2-3.1,0.3s-2.1,0.1-3.3,0.1c-0.7,0-1.3-0.1-1.9-0.3c-0.6-0.2-1-0.5-1.3-1.1
		c-0.2-0.5-0.2-0.9,0-1.2c0.2-0.4,0.5-0.8,0.9-1.4c0.1-0.1,0.3-0.4,0.5-0.8c0.2-0.4,0.5-0.8,0.9-1.3s0.7-1,1.1-1.6
		c0.4-0.6,0.8-1.2,1.2-1.7c2.1-2.9,3.1-5,2.9-6.4c-0.1-0.4-0.4-0.7-0.9-0.9c-0.5-0.2-1.2-0.3-2-0.3c-0.8,0-1.5,0.1-2.3,0.3
		c-0.7,0.2-1.5,0.3-2.3,0.3c-0.5-0.1-0.7-0.3-0.8-0.7c-0.1-0.4-0.1-0.8,0-1.1c0.1-0.4,0.3-0.7,0.6-0.8c0.3-0.2,0.6-0.4,0.9-0.6
		c0.7-0.3,1.5-0.5,2.5-0.6c1-0.1,1.9-0.1,2.9,0c1,0.1,1.9,0.3,2.7,0.6s1.5,0.7,2.1,1.2c0.3,0.3,0.5,0.7,0.6,1.2c0.1,0.5,0.1,1,0,1.6
		c-0.1,0.5-0.2,1.1-0.3,1.6s-0.3,0.9-0.4,1.2c-0.2,0.5-0.4,1-0.6,1.5c-0.2,0.5-0.5,1.2-0.9,1.9c-0.4,0.7-0.9,1.6-1.6,2.5
		c-0.6,1-1.4,2.2-2.4,3.5l6.2-0.3c0.6,0,1.1-0.1,1.7-0.1C181.6,407.3,182.1,407.4,182.6,407.6z"/>
</g>
<circle id="XMLID_5_" class="st3" cx="173.8" cy="401.3" r="18.5"/>
<g id="XMLID_3_">
	<g id="XMLID_39_">
		<path id="XMLID_42_" class="st1" d="M229.6,213.2c0,0-19.1,146.2,13.2,178.5c23.7,23.7,107.7,12.6,142.1,6.9"/>
		<g id="XMLID_40_">
			<path id="XMLID_41_" d="M399.7,395.8c-6.5,3.8-14.4,9.8-19,15.4l2.2-12.5l-6.3-11C382.8,391.5,392.2,394.4,399.7,395.8z"/>
		</g>
	</g>
</g>
<g id="XMLID_11_">
	<g id="XMLID_12_">
		<line id="XMLID_18_" class="st1" x1="233.2" y1="302.1" x2="375.3" y2="302.1"/>
		<g id="XMLID_13_">
			<path id="XMLID_14_" d="M390.4,302.1c-7.1,2.6-15.9,7.1-21.4,11.9l4.3-11.9l-4.3-11.9C374.5,294.9,383.3,299.4,390.4,302.1z"/>
		</g>
	</g>
</g>
<g id="XMLID_20_">
	<path id="XMLID_22_" d="M434.5,298.7c0.6,0.2,1.2,0.5,1.7,0.8c0.5,0.3,0.9,0.8,1.3,1.4c0.3,0.4,0.5,1,0.5,1.8s-0.1,1.5-0.5,2.2
		c-0.4,0.9-0.8,1.6-1.4,2.3c-0.5,0.6-1,1.1-1.2,1.4c-0.2,0.1-0.5,0.4-0.9,0.8c-0.5,0.4-1,0.8-1.6,1.2c-0.6,0.4-1.3,0.8-2,1
		s-1.4,0.5-2,0.5c-0.6,0-1.1-0.3-1.3-0.9c-0.2-0.4-0.1-0.8,0.3-1.3c0.4-0.5,0.7-0.9,1-1.1c0.4-0.2,0.9-0.6,1.6-1.1
		c0.7-0.5,1.3-1,1.9-1.5s1.1-1.1,1.4-1.7c0.3-0.6,0.4-1.2,0.1-1.8c-0.3-0.5-0.8-0.8-1.5-1c-0.7-0.2-1.3-0.3-1.8-0.4
		c-0.2,0-0.5-0.1-0.8-0.1c-0.3,0-0.7-0.1-1-0.3c-0.3-0.1-0.6-0.3-0.8-0.4s-0.4-0.4-0.5-0.7c-0.2-0.4,0-1.1,0.5-1.9
		c0.5-0.8,1-1.6,1.5-2.4c0.5-0.7,0.9-1.5,1.3-2.3c0.3-0.6,0.5-1.1,0.6-1.5c0.1-0.4,0.2-0.9,0.1-1.6c-0.1-0.6-0.4-0.8-0.9-0.8
		c-0.3,0-0.6,0-0.9,0.1c-0.3,0.1-0.6,0.2-0.9,0.3c-0.8,0.3-1.4,0.5-1.8,0.7c-0.4,0.2-0.9,0.3-1.5,0.3c-0.4,0-0.7-0.2-1-0.5
		c-0.2-0.3-0.3-0.7-0.3-1c0.1-0.3,0.2-0.6,0.4-0.9c0.2-0.2,0.6-0.5,1.2-0.8c0.9-0.4,2-0.8,3.1-1.1s2.3-0.5,3.5-0.6
		c0.4,0,0.8,0.1,1.3,0.3c0.5,0.2,0.9,0.5,1.1,0.9c0.3,0.5,0.5,1.2,0.5,1.9c0,0.7,0,1.5-0.2,2.3c-0.2,0.8-0.4,1.6-0.7,2.4
		s-0.6,1.5-1,2.2c-0.2,0.4-0.4,0.8-0.7,1.1c-0.3,0.3-0.3,0.6-0.3,0.9c0,0.3,0.3,0.5,0.9,0.5C433.5,298.4,434,298.5,434.5,298.7z"/>
</g>
<circle id="XMLID_19_" class="st3" cx="431.7" cy="298.3" r="18.5"/>
<g id="XMLID_21_">
</g>
<g id="XMLID_47_">
</g>
<g id="XMLID_48_">
</g>
<g id="XMLID_49_">
</g>
<g id="XMLID_50_">
</g>
<g id="XMLID_51_">
</g>
<g id="XMLID_52_">
</g>
</svg>
