<?xml version="1.0" encoding="utf-8"?>
<!-- Generator: Adobe Illustrator 19.0.0, SVG Export Plug-In . SVG Version: 6.00 Build 0)  -->
<svg version="1.1" id="레이어_1" xmlns="http://www.w3.org/2000/svg" xmlns:xlink="http://www.w3.org/1999/xlink" x="0px"
	 y="0px" viewBox="0 0 600 580" style="enable-background:new 0 0 600 580;" xml:space="preserve">
<style type="text/css">
	.st0{opacity:0.5;}
	.st1{fill:#E60012;}
	.st2{fill:none;stroke:#000000;stroke-width:5;stroke-miterlimit:10;}
	.st3{stroke:#000000;stroke-width:5;stroke-miterlimit:10;}
</style>
<g id="XMLID_1_" class="st0">
	<path id="XMLID_21_" class="st1" d="M218,491.8c-11.2,0-22.1-2-32.6-6c-10.5-4-17.1-12-19.9-24.2c-0.9-4.7-0.9-9,0-13
		c0.9-4,3.7-7.3,8.4-10.1c6.1-2.8,12.1-4.1,18.2-3.9c6.1,0.2,12.4,0.8,18.9,1.8c6.5,0.9,13.4,1.4,20.6,1.4c7.2,0,14.1-0.2,20.6-0.7
		c14-0.5,27.4-0.8,40.3-1c12.8-0.2,25.5-0.6,38.1-1c0.5-5.1,0.6-11.3,0.3-18.5c-0.2-7.2-0.1-13.7,0.4-19.3c0-2.8,0.2-7.4,0.7-13.7
		c0.5-6.3,1.2-13,2.1-20c0.9-7,2-13.4,3.1-19.3c1.2-5.8,2.5-9.9,3.9-12.3c7-9.3,15.2-11.7,24.5-7c6.1,2.8,10.5,8.4,13.3,16.8
		c2.8,7.5,4.2,15.4,4.2,23.8c0,8.4,0,16.6,0,24.5c0.5,7,0.9,14,1.4,21c0.5,7,1.2,14,2.1,21c4.2-0.5,8.5-0.8,12.9-1.1
		c4.4-0.2,9-0.6,13.7-1c2.8,0,6.2-0.1,10.2-0.3c4-0.2,7.9,0,11.9,0.7c4,0.7,7.7,2,11.2,3.8c3.5,1.9,6.2,4.4,8,7.7
		c4.2,8.4,3.6,15.2-1.8,20.3c-5.4,5.1-11.1,8.9-17.1,11.2c-9.3,3.3-18.9,6.1-28.7,8.4c-9.8,2.3-19.6,4-29.4,4.9
		c-23.3,2.3-46.7,3.7-70,4.2c-14.5,0.9-29.3,1.5-44.4,1.8C248,493,232.9,492.7,218,491.8z M194.2,309.8c-5.1-1.9-9.4-4.4-12.9-7.7
		c-3.5-3.3-5.7-6.9-6.7-10.9c-0.9-4-0.6-7.8,1.1-11.5c1.6-3.7,5-7.5,10.1-11.2c7.5-5.6,14.5-8.4,21-8.4c6.5,0,14-0.2,22.4-0.7
		c9.3,0,18.8-0.1,28.4-0.3c9.6-0.2,19-0.1,28.4,0.3c4.7,0,10.3,0.1,16.8,0.4c6.5,0.2,13.3,0.5,20.3,0.7c7,0.2,13.9,0.5,20.6,0.7
		c6.8,0.2,12.5,0.6,17.2,1.1c7.5,0.5,15.2,0.8,23.1,1c7.9,0.2,15.2,2.2,21.7,6c13.1,6.5,16.6,16.6,10.5,30.1
		c-3.3,6.1-8.2,10-14.7,11.9c-6.5,1.9-12.6,3-18.2,3.5c-6.1,0.9-11.8,1.5-17.2,1.8c-5.4,0.2-11.1,0.6-17.2,1c-7,0.5-15,0.7-24.1,0.7
		s-18.3-0.1-27.6-0.3c-9.3-0.2-18.4-0.5-27.3-0.7c-8.9-0.2-16.8-0.3-23.8-0.3c-9.8-0.5-18.3-0.9-25.6-1.4
		c-7.2-0.5-15.5-2.3-24.9-5.6H194.2z M271.9,393.8c0,0.9-0.1,2.7-0.4,5.3c-0.2,2.6-0.6,5.6-1,9.1c-0.5,3.5-1.3,6.9-2.5,10.2
		c-1.2,3.3-2.9,6.1-5.3,8.4c-4.7,3.7-10.6,5.1-17.9,4.2c-7.2-0.9-12.7-3.5-16.4-7.7c-4.2-4.7-6.9-11.3-8.1-20
		c-1.2-8.6-1.4-17.6-0.7-26.9c0.7-9.3,2-18.1,3.8-26.3c1.9-8.2,4-14.1,6.3-17.9c2.3-3.7,6.2-6.4,11.5-8c5.4-1.6,10.4-2,15.1-1
		c4.2,0.9,7.1,2.6,8.8,4.9c1.6,2.3,2.7,5.4,3.1,9.1l1.4,18.2c0.5,5.1,0.9,11.1,1.4,17.8C271.6,379.9,271.9,386.8,271.9,393.8z"/>
</g>
<ellipse id="XMLID_2_" class="st2" cx="293" cy="368" rx="184" ry="103"/>
<ellipse id="XMLID_3_" class="st2" cx="244" cy="375" rx="36" ry="64"/>
<ellipse id="XMLID_4_" class="st2" cx="354.9" cy="375" rx="36" ry="64"/>
<ellipse id="XMLID_5_" class="st2" cx="293" cy="265" rx="246" ry="206"/>
<circle id="XMLID_6_" class="st3" cx="196.2" cy="175.5" r="24.5"/>
<circle id="XMLID_7_" class="st3" cx="390.9" cy="175.5" r="24.5"/>
<path id="XMLID_8_" class="st2" d="M97.7,139.7L80.9,80.2c-1.1-4.1,2.9-7.6,6.8-5.9l58.6,25.4"/>
<path id="XMLID_9_" class="st2" d="M445,103l57.4-22c4.1-1.6,8,2.5,6.4,6.5l-20.6,52.1"/>
<g id="XMLID_10_">
	<path id="XMLID_12_" class="st1" d="M487.1,432.1c0.9,0.4,1.6,1,2.1,1.7c0.5,0.7,0.9,1.6,1.2,2.5c0.6,1.9,0.6,3.7,0,5.4
		c-0.6,1.6-1.4,3.2-2.3,4.8c-0.5,0.7-1,1.4-1.5,2.1c-0.5,0.7-1.1,1.3-1.7,1.8c-1.2,1.1-2.6,1.9-4.2,2.4c-1.6,0.5-3.1,0.7-4.7,0.7
		c-0.6,0-0.9,0.4-0.9,1.1c0.1,1.1,0.1,2.2,0.1,3c0,0.9,0,1.8,0,2.6c0,0.8,0,1.7,0,2.5c0,0.9,0.1,1.9,0.2,3.1c0.1,0.7,0.1,1.5,0,2.4
		c-0.2,0.9-0.4,1.7-0.5,2.4c-0.3,1-0.8,1.8-1.5,2.4c-0.6,0.5-1.4,0.5-2.3,0c-0.9-0.5-1.6-1.1-2.2-1.9c-0.2-0.3-0.4-0.7-0.5-1.3
		c-0.1-0.6-0.2-1.1-0.3-1.8c-0.1-0.6-0.1-1.2-0.2-1.7c-0.1-0.5-0.1-1-0.1-1.3c0-0.9,0-1.6-0.1-2.3c0-0.6,0-1.2,0-1.8
		c0-0.6,0-1.2,0-1.8c0-0.6,0-1.4,0-2.3c0-3.8,0.2-7.5,0.5-11c0.3-3.6,1-7.2,2.2-11c0.2-0.7,0.4-1.4,0.8-2c0.3-0.6,0.8-1.2,1.5-1.7
		c1.8-1,3.2-0.7,4.1,0.9c1.7-0.5,3.5-0.9,5.2-1C483.7,431.1,485.4,431.4,487.1,432.1z M483,440.3c0.3-1.3,0.5-2.3,0.5-2.9
		c0-0.6-0.3-1-1.1-1.1c-1.3-0.1-2.5,0.1-3.6,0.6c-1,0.5-2,1.2-3,2.1c-0.1,0.1-0.2,0.5-0.3,1.2c-0.1,0.7-0.1,1.4-0.2,2.3
		c0,0.8,0,1.6,0,2.3c0,0.7,0.1,1.1,0.3,1.3c0.6,0.4,1.3,0.4,2.1,0c0.8-0.4,1.5-0.9,2.3-1.6c0.8-0.7,1.4-1.5,2-2.3
		C482.5,441.4,482.9,440.8,483,440.3z"/>
	<path id="XMLID_15_" d="M502.8,435.6c0,3.6-0.1,7.3-0.3,11.2c-0.2,3.9,0,7.9,0.6,12c-0.1,1.3-0.7,2.2-1.8,2.5
		c-1.1,0.3-2.1,0.1-3.1-0.6c-1.1-0.9-1.9-2.4-2.3-4.7c-0.4-2.2-0.7-4.6-0.8-7.3c-0.1-2.6-0.1-5.1,0-7.6c0.1-2.5,0.3-4.5,0.4-5.9
		c0.2-1.1,0.7-1.9,1.4-2.4c0.8-0.5,1.5-0.8,2.4-0.8c0.8,0,1.6,0.3,2.3,0.9C502.3,433.6,502.7,434.5,502.8,435.6z M497.8,428.8
		c-0.9-0.5-1.5-1.3-2-2.1c-0.5-0.9-0.7-1.9-0.7-3c0-0.9,0.3-1.7,1-2.4c0.7-0.7,1.5-1.1,2.3-1.2c0.6-0.1,1.2,0.1,1.8,0.6
		c0.6,0.5,1.2,1,1.6,1.6c0.5,0.6,0.9,1.3,1.2,2c0.3,0.7,0.5,1.1,0.5,1.4c0,0.7-0.2,1.3-0.6,1.8c-0.4,0.6-0.9,1-1.4,1.4
		c-0.6,0.3-1.2,0.5-1.8,0.5C499,429.4,498.4,429.2,497.8,428.8z"/>
	<path id="XMLID_18_" d="M526,481.5c-0.4,0.3-1,0.4-1.8,0.5c-0.8,0.1-1.7,0-2.6-0.1c-0.9-0.1-1.7-0.4-2.5-0.7
		c-0.8-0.3-1.3-0.8-1.4-1.4c-0.5-1.3-0.5-2.3,0.1-2.9c0.6-0.6,1.6-0.9,2.9-1c0.9,0,1.7-0.4,2.3-1.3c0.6-0.9,1.1-2,1.5-3.3
		c0.4-1.4,0.6-2.9,0.8-4.5c0.2-1.6,0.3-3.2,0.3-4.8c0-1.6,0-3-0.1-4.3c-0.1-1.3-0.1-2.3-0.2-3c-1.2,0.7-2.5,1.3-3.9,1.8
		c-1.4,0.5-2.8,0.4-4.2-0.5c-1.7-0.9-2.9-2.1-3.7-3.5c-0.8-1.4-1.3-3.1-1.5-5c-0.2-1.3-0.2-2.6,0-4.1c0.2-1.5,0.7-2.9,1.3-4.2
		c0.6-1.3,1.4-2.5,2.3-3.6c1-1.1,2.1-1.9,3.4-2.5c1.1-0.5,2.5-0.8,4.1-0.8c1.6,0,3,0.5,4,1.5c0.1,0.1,0.3,0.1,0.5,0
		c0.2,0,0.4-0.1,0.6-0.2c0.7-0.3,1.3-0.3,1.8,0s0.9,0.7,1.2,1.3c0.3,0.6,0.5,1.2,0.8,1.9c0.2,0.7,0.4,1.2,0.5,1.6
		c0.7,2.6,1.1,5.3,1.4,8.3c0.3,2.9,0.4,5.8,0.3,8.7c-0.1,2.9-0.3,5.8-0.7,8.6c-0.4,2.9-0.8,5.6-1.5,8.2c-0.4,1.8-1,3.6-2,5.3
		C529.2,479.3,527.9,480.6,526,481.5z M522.6,448.1c0.6-0.5,1.2-1.1,1.7-1.7c0.9-1.5,1.5-2.8,1.5-4c0.1-1.2-0.7-2.3-2.3-3.2
		c-1-0.5-1.9-0.6-2.5-0.2c-0.7,0.4-1.3,1-1.8,1.9c-0.5,0.9-0.8,1.8-1,2.8c-0.2,1-0.3,1.8-0.2,2.5c0,0.3,0,0.6,0,1.1
		c0,0.5,0.1,0.9,0.3,1.4c0.1,0.4,0.3,0.8,0.6,1c0.3,0.2,0.6,0.3,1.1,0C520.9,449.2,521.8,448.7,522.6,448.1z"/>
</g>
<g id="XMLID_11_">
</g>
<g id="XMLID_25_">
</g>
<g id="XMLID_26_">
</g>
<g id="XMLID_27_">
</g>
<g id="XMLID_28_">
</g>
<g id="XMLID_29_">
</g>
</svg>
