<?xml version="1.0" encoding="utf-8"?>
<!-- Generator: Adobe Illustrator 19.0.0, SVG Export Plug-In . SVG Version: 6.00 Build 0)  -->
<svg version="1.1" id="레이어_1" xmlns="http://www.w3.org/2000/svg" xmlns:xlink="http://www.w3.org/1999/xlink" x="0px"
	 y="0px" viewBox="0 0 600 580" style="enable-background:new 0 0 600 580;" xml:space="preserve">
<style type="text/css">
	.st0{opacity:0.5;}
	.st1{fill:none;stroke:#000000;stroke-width:5;stroke-miterlimit:10;}
	.st2{fill:none;}
	.st3{fill:none;stroke:#000000;}
</style>
<g id="XMLID_9_" class="st0">
	<path id="XMLID_55_" d="M291.1,359.8c4.2,0,8.4-0.2,12.6-0.7c4.2-0.5,8.2-0.5,11.9,0c3.7,0.5,7.2,1.8,10.5,3.9
		c3.3,2.1,5.6,5.5,7,10.1c2.8,9.8,1.5,17.5-3.8,23.1c-5.4,5.6-12.5,9.8-21.4,12.6c-8.9,2.8-18.4,4.4-28.7,4.9
		c-10.3,0.5-18.7,0.7-25.2,0.7c-16.8-0.5-31-4.2-42.7-11.2c-11.7-7-20.8-18.7-27.3-35c-2.8-7.5-5-16.1-6.6-25.9
		c-1.6-9.8-2.9-19.7-3.9-29.8c-0.9-10-1.4-20-1.4-29.7c0-9.8,0.5-18.4,1.4-25.9c0.5-2.8,0.8-5.7,1-8.8c0.2-3,0.6-6.2,1.1-9.5
		c-4.2-2.3-7.7-4.7-10.5-7c-2.8-2.3-4.9-6.1-6.3-11.2c-2.3-5.1-2.4-10.4-0.4-15.8c2.1-5.4,5.3-8.8,9.5-10.2
		c8.4-2.8,17.3-3.6,26.6-2.4c9.3,1.2,19.1,1.8,29.4,1.8c8.4,0,18.3-0.5,29.8-1.4c11.4-0.9,21.6-1.6,30.5-2.1
		c6.5-0.5,12.6,0.7,18.2,3.5c5.6,2.8,9.1,7.5,10.5,14c0.9,4.7,0.5,8.8-1.4,12.3c-1.9,3.5-4.7,6.5-8.4,9.1c-3.7,2.6-8.2,4.5-13.3,5.9
		c-5.1,1.4-10.5,2.6-16.1,3.5c-13.1,1.9-28,2.8-44.8,2.8c-0.5,3.7-0.7,9.3-0.7,16.8c0,7.5,0,15.2,0,23.1c0,7.9,0.1,15.3,0.3,22
		c0.2,6.8,0.6,11.1,1.1,13c1.4,9.3,4.2,16.8,8.4,22.4c4.2,5.6,9.1,10,14.7,13.3c5.6,3.3,11.7,5.4,18.2,6.3
		C277.4,359.4,284.1,359.8,291.1,359.8z M447.9,345.8c4.2-0.5,8.6-0.9,13.3-1.4c4.7-0.5,9.3-0.5,14,0c4.7,0.5,8.9,1.8,12.6,3.8
		c3.7,2.1,6.3,5.5,7.7,10.2c2.8,9.8,1.1,17.5-5.3,23.1c-6.3,5.6-14.5,9.8-24.5,12.6c-10,2.8-20.6,4.6-31.8,5.3
		c-11.2,0.7-20.1,1.1-26.6,1.1c-16.8-0.5-31-4.2-42.7-11.2c-11.7-7-20.8-18.7-27.3-35c-2.8-7.5-5-16.1-6.7-25.9
		c-1.6-9.8-2.9-19.7-3.8-29.8c-0.9-10-1.4-19.9-1.4-29.7s0.5-18.4,1.4-25.9c0.5-2.8,0.8-5.7,1-8.8c0.2-3,0.6-6.2,1-9.5
		c-3.7-3.3-6.2-7.2-7.3-11.9c-1.2-4.7-1.2-9.2,0-13.6c1.2-4.4,3.1-8.5,6-12.3c2.8-3.7,6.1-6.3,9.8-7.7c7.9-2.8,14.3-3.5,19.3-2.1
		c4.9,1.4,11.8,2.1,20.7,2.1c4.2,0,9.6,0,16.1,0c6.5,0,13.4-0.1,20.7-0.4c7.2-0.2,14.2-0.5,21-0.7c6.8-0.2,12.3-0.4,16.4-0.4
		c6.5-0.5,12.6,0.6,18.2,3.1c5.6,2.6,9.1,7.1,10.5,13.6c0.9,4.7,0.2,8.8-2.1,12.3c-2.3,3.5-5.7,6.4-10.1,8.8
		c-4.4,2.3-9.7,4.2-15.8,5.6c-6.1,1.4-12.1,2.6-18.2,3.5c-15.4,1.9-32.7,2.8-51.8,2.8c-0.5,3.7-0.7,9.3-0.7,16.8
		c0,7.5,0,15.2,0,23.1c0,7.9,0.1,15.3,0.3,22c0.2,6.8,0.6,11.1,1.1,13c1.4,9.3,3.2,16.9,5.3,22.8c2.1,5.8,5.5,10.5,10.2,14
		c4.7,3.5,10.8,5.7,18.5,6.6C424.5,346.8,434.9,346.8,447.9,345.8z"/>
</g>
<g id="XMLID_6_">
	<g id="XMLID_27_">
		<line id="XMLID_30_" class="st1" x1="196.4" y1="211.1" x2="276.9" y2="211.1"/>
		<g id="XMLID_28_">
			<path id="XMLID_29_" d="M291.9,211.1c-7.1,2.6-15.9,7.1-21.4,11.9l4.3-11.9l-4.3-11.9C276,204,284.8,208.5,291.9,211.1z"/>
		</g>
	</g>
</g>
<g id="XMLID_8_">
	<path id="XMLID_16_" class="st2" d="M310.7,384.7"/>
</g>
<g id="XMLID_1_">
	<path id="XMLID_53_" d="M240.7,174.1c-0.5,0.2-0.8,0.1-1.1-0.1c-0.3-0.2-0.5-0.6-0.6-1c-0.1-0.5-0.3-0.9-0.3-1.5
		c0-0.5-0.1-1-0.1-1.4c-0.1-1-0.2-1.9-0.2-2.8c0-0.9,0-1.8,0-2.6c-0.1-1-0.1-2,0-3l0-5.1c0-0.6,0.1-1.2,0.1-1.9
		c0-0.6,0.1-1.3,0.4-1.9c0.2-0.6,0.5-0.9,1-1c0.5-0.1,0.9,0.1,1.4,0.5c0.3,0.4,0.6,1,0.8,1.9c0.2,0.8,0.3,1.7,0.4,2.6
		c0.1,0.9,0.1,1.8,0.1,2.8c0,0.9,0,1.6,0,2.3v0c0,1.3,0,2.7-0.1,4.1c-0.1,1.4,0,2.9,0.1,4.5c0.1,0.8,0,1.5-0.4,2.2
		C241.8,173.4,241.3,173.8,240.7,174.1z"/>
</g>
<circle id="XMLID_4_" class="st3" cx="239.7" cy="163.6" r="18.5"/>
<g id="XMLID_7_">
	<path id="XMLID_51_" d="M161.8,381c0.7,0.5,1,1,1,1.6c-0.1,0.3-0.3,0.6-0.6,0.9c-0.3,0.3-0.7,0.4-1.1,0.5c-0.8,0.1-1.6,0.1-2.3,0.2
		c-0.7,0.1-1.4,0.1-2.1,0.2c-1,0.1-2.1,0.2-3.1,0.3c-1,0.1-2.1,0.1-3.3,0.1c-0.7,0-1.3-0.1-1.9-0.3c-0.6-0.2-1-0.5-1.3-1.1
		c-0.2-0.5-0.2-0.9,0-1.2c0.2-0.4,0.5-0.8,0.9-1.4c0.1-0.1,0.3-0.4,0.5-0.8c0.2-0.4,0.5-0.8,0.9-1.3s0.7-1,1.1-1.6
		c0.4-0.6,0.8-1.2,1.2-1.7c2.1-2.9,3.1-5,2.9-6.3c-0.1-0.4-0.4-0.7-0.9-0.9c-0.5-0.2-1.2-0.3-2-0.3c-0.8,0-1.5,0.1-2.3,0.3
		c-0.7,0.2-1.5,0.3-2.3,0.3c-0.5-0.1-0.7-0.3-0.8-0.7c-0.1-0.4-0.1-0.8,0-1.1c0.1-0.4,0.3-0.6,0.6-0.8s0.6-0.4,0.9-0.5
		c0.7-0.3,1.5-0.5,2.5-0.6c1-0.1,1.9-0.1,2.9,0c1,0.1,1.9,0.3,2.7,0.6c0.9,0.3,1.5,0.7,2.1,1.2c0.3,0.3,0.5,0.7,0.6,1.2
		c0.1,0.5,0.1,1,0,1.6c-0.1,0.5-0.2,1.1-0.3,1.6s-0.3,0.9-0.4,1.2c-0.2,0.5-0.4,1-0.6,1.5c-0.2,0.5-0.5,1.2-0.9,1.9
		s-0.9,1.6-1.6,2.5c-0.6,1-1.4,2.2-2.4,3.6l6.2-0.3c0.6,0,1.1-0.1,1.7-0.1C160.8,380.7,161.4,380.8,161.8,381z"/>
</g>
<circle id="XMLID_5_" class="st3" cx="153" cy="374.6" r="18.5"/>
<g id="XMLID_3_">
	<g id="XMLID_32_">
		<path id="XMLID_35_" class="st1" d="M198.9,222.9c0,0-12.3,126.4,18.1,154.9c13.1,12.3,50.7,10.7,71.8,8.7"/>
		<g id="XMLID_33_">
			<path id="XMLID_34_" d="M303.8,384.7c-6.8,3.4-15,8.9-19.9,14.2l2.9-12.3l-5.6-11.3C287.1,379.4,296.4,382.9,303.8,384.7z"/>
		</g>
	</g>
</g>
<g id="XMLID_22_">
	<g id="XMLID_24_">
		<line id="XMLID_40_" class="st1" x1="360.1" y1="197.9" x2="440.6" y2="197.9"/>
		<g id="XMLID_25_">
			<path id="XMLID_39_" d="M455.7,197.9c-7.1,2.6-15.9,7.1-21.4,11.9l4.3-11.9l-4.3-11.9C439.7,190.8,448.6,195.3,455.7,197.9z"/>
		</g>
	</g>
</g>
<g id="XMLID_19_">
	<path id="XMLID_21_" class="st2" d="M474.4,371.5"/>
</g>
<g id="XMLID_10_">
	<g id="XMLID_12_">
		<path id="XMLID_18_" class="st1" d="M362.6,209.7c0,0-12.3,126.4,18.1,154.9c13.1,12.3,50.7,10.7,71.8,8.7"/>
		<g id="XMLID_13_">
			<path id="XMLID_17_" d="M467.5,371.5c-6.8,3.4-15,8.9-19.9,14.2l2.9-12.3l-5.6-11.3C450.8,366.2,460.1,369.7,467.5,371.5z"/>
		</g>
	</g>
</g>
<g id="XMLID_42_">
	<path id="XMLID_49_" d="M410.7,156.5c0.6,0.2,1.2,0.5,1.7,0.9c0.5,0.3,0.9,0.8,1.3,1.4c0.3,0.4,0.5,1,0.5,1.8
		c0,0.7-0.1,1.5-0.5,2.2c-0.4,0.9-0.8,1.6-1.4,2.3c-0.5,0.6-1,1.1-1.2,1.4c-0.2,0.1-0.5,0.4-0.9,0.8c-0.5,0.4-1,0.8-1.6,1.2
		c-0.6,0.4-1.3,0.8-2,1c-0.7,0.3-1.4,0.5-2,0.5c-0.6,0-1.1-0.3-1.3-0.9c-0.2-0.4-0.1-0.8,0.3-1.3c0.4-0.5,0.7-0.9,1-1.1
		c0.4-0.2,0.9-0.6,1.6-1.1c0.7-0.5,1.3-1,1.9-1.5c0.6-0.5,1.1-1.1,1.4-1.7c0.3-0.6,0.4-1.2,0.1-1.8c-0.3-0.5-0.8-0.8-1.5-1
		c-0.7-0.2-1.3-0.3-1.8-0.4c-0.2,0-0.5-0.1-0.8-0.1c-0.3-0.1-0.7-0.1-1-0.3c-0.3-0.1-0.6-0.3-0.8-0.4c-0.3-0.2-0.4-0.4-0.5-0.6
		c-0.2-0.4,0-1.1,0.5-1.9c0.5-0.8,1-1.6,1.5-2.4c0.5-0.7,0.9-1.5,1.3-2.4c0.3-0.6,0.5-1.1,0.6-1.5c0.1-0.4,0.2-0.9,0.1-1.6
		c-0.1-0.6-0.4-0.8-0.9-0.8c-0.3,0-0.6,0-0.9,0.1c-0.3,0.1-0.6,0.2-0.9,0.3c-0.8,0.3-1.4,0.5-1.8,0.7c-0.4,0.2-0.9,0.3-1.5,0.3
		c-0.4,0-0.7-0.2-1-0.5c-0.2-0.3-0.3-0.7-0.3-1c0.1-0.3,0.2-0.6,0.4-0.9c0.2-0.2,0.6-0.5,1.2-0.8c0.9-0.4,2-0.8,3.1-1.1
		s2.3-0.5,3.5-0.6c0.4,0,0.8,0.1,1.3,0.3c0.5,0.2,0.9,0.5,1.1,0.9c0.3,0.5,0.5,1.2,0.5,1.9c0,0.7,0,1.5-0.2,2.3
		c-0.2,0.8-0.4,1.6-0.7,2.4c-0.3,0.8-0.6,1.5-1,2.2c-0.2,0.4-0.4,0.8-0.7,1.1c-0.3,0.3-0.3,0.6-0.3,0.9c0,0.3,0.3,0.5,0.9,0.5
		C409.7,156.1,410.2,156.3,410.7,156.5z"/>
</g>
<circle id="XMLID_41_" class="st3" cx="407.9" cy="156" r="18.5"/>
<g id="XMLID_44_">
	<path id="XMLID_47_" d="M431.3,305.2c0.3,0,0.6,0.1,1,0.3c0.4,0.1,0.6,0.4,0.6,0.8c0,0.5-0.1,0.8-0.3,1.1c-0.2,0.3-0.6,0.5-1.1,0.8
		c-0.9,0.2-1.5,0.3-1.9,0.4c-0.4,0.1-0.7,0.1-1,0.2c-0.2,0-0.4,0.1-0.6,0.1c-0.2,0-0.4,0-0.8,0.1c0,0.3,0,0.7,0,1.4s0,1.3,0,1.8
		c0,0.5,0,0.9,0,1.4s0,0.9-0.1,1.3s-0.2,0.7-0.5,1c-0.2,0.3-0.6,0.4-1,0.4c-0.6,0-1-0.2-1.3-0.5c-0.3-0.3-0.5-0.8-0.6-1.5
		c-0.1-0.6-0.2-1.4-0.2-2.4s-0.1-1.9-0.1-2.7c0,0-0.2,0-0.7,0c-0.5,0-1.1,0.1-1.9,0.1s-1.6,0-2.5,0c-0.9,0-1.7-0.1-2.5-0.2
		c-0.6-0.1-1.1-0.4-1.4-0.8c-0.7-1.1-0.8-3.1-0.3-6c0.3-1.4,0.6-2.6,0.9-3.7c0.4-1.1,0.6-1.8,0.7-2c0-0.1,0.1-0.3,0.3-0.6
		c0.2-0.3,0.4-0.4,0.6-0.4c0.7,0,1.2,0.2,1.5,0.6c0.3,0.4,0.4,0.9,0.4,1.5c0,0.6-0.1,1.2-0.2,1.9c-0.2,0.7-0.3,1.3-0.3,1.9
		c-0.1,1.1-0.2,2-0.2,2.7c0,0.7,0,1.2,0.1,1.5c0.1,0.2,0.2,0.3,0.4,0.3c0.2,0.1,0.6,0.1,1.2,0.1c0.6,0,1.2,0,1.8,0
		c0.6,0,1.1-0.1,1.5-0.2c0.5-0.1,0.7-0.1,0.7-0.2v-2.1c0-0.9,0-1.8,0.1-2.7c0-0.9,0-1.8,0-2.7c0-0.8,0-1.5,0-2.2
		c0-0.7,0.2-1.3,0.5-2c0.1-0.3,0.4-0.5,0.8-0.6c0.4,0,0.7,0.1,0.9,0.4c0.3,0.4,0.5,0.9,0.7,1.5c0.2,0.6,0.3,1.3,0.4,2
		c0.1,0.7,0.2,1.4,0.2,2.2c0,0.8,0,1.5,0,2.2v2.3c0,0.6,0,1.2,0,1.9c0.1,0,0.3,0,0.7-0.1c0.4,0,0.8-0.1,1.2-0.1s0.9-0.1,1.3-0.1
		C430.8,305.1,431.1,305.1,431.3,305.2z"/>
</g>
<circle id="XMLID_43_" class="st3" cx="421.1" cy="303.8" r="18.5"/>
<g id="XMLID_45_">
</g>
<g id="XMLID_46_">
</g>
<g id="XMLID_58_">
</g>
<g id="XMLID_59_">
</g>
<g id="XMLID_60_">
</g>
<g id="XMLID_61_">
</g>
<g id="XMLID_62_">
</g>
<g id="XMLID_63_">
</g>
</svg>
