<?xml version="1.0" encoding="utf-8"?>
<!-- Generator: Adobe Illustrator 19.0.0, SVG Export Plug-In . SVG Version: 6.00 Build 0)  -->
<svg version="1.1" id="레이어_1" xmlns="http://www.w3.org/2000/svg" xmlns:xlink="http://www.w3.org/1999/xlink" x="0px"
	 y="0px" viewBox="0 0 600 580" style="enable-background:new 0 0 600 580;" xml:space="preserve">
<style type="text/css">
	.st0{opacity:0.5;}
	.st1{fill:none;stroke:#000000;stroke-width:5;stroke-miterlimit:10;}
	.st2{fill:none;stroke:#000000;}
</style>
<g id="XMLID_9_" class="st0">
	<path id="XMLID_19_" d="M347.2,434.6c-16.3,0.9-31.3,1.4-45,1.4c-13.7,0-28.7,0-45,0c-4.2,0-9-0.5-14.4-1.4
		c-5.4-0.9-10.3-2.5-14.7-4.6c-4.4-2.1-8.4-5.1-11.9-9.1c-3.5-4-5.5-9.2-5.9-15.8c-4.7-1.4-8.1-4.7-10.1-9.8
		c-2.1-5.1-3.5-10.6-4.2-16.5c-0.7-5.8-0.9-11.7-0.7-17.5c0.2-5.8,0.4-10.6,0.4-14.3c0-20.5,0.4-40.3,1.1-59.2
		c0.7-18.9,1.5-39.1,2.4-60.6c0.5-9.8,1.5-19,3.1-27.6c1.6-8.6,7.1-15.8,16.5-21.4c8.4-5.1,16.3-6.6,23.8-4.5
		c7.5,2.1,14.5,6.4,21,12.9c0.5,0,5.3-0.1,14.6-0.3c9.3-0.2,19.4-0.4,30.3-0.4c10.9,0,21,0,30.3,0s14.6,0,16,0
		c19.5,0.5,34.5,4.2,45,11.2s17.8,19.6,22,37.8c1.9,7.9,3.2,16.7,3.8,26.3c0.7,9.6,1.1,19.5,1.1,29.8c0,10.3-0.1,20.4-0.3,30.4
		c-0.2,10-0.3,19.3-0.3,27.7c0,8.9-0.2,17.6-0.7,26.3c-0.5,8.6-1.9,17.2-4.2,25.5c-1.9,7.9-5.6,14.2-11.2,18.9
		c-5.6,4.7-11.8,8-18.8,10.1c-7,2.1-14.4,3.4-22.3,3.9C360.9,434.4,353.7,434.6,347.2,434.6z M261.4,365.3c0,5.1,1.9,8.4,5.6,9.8
		c3.7,1.4,7.5,2.1,11.2,2.1c9.8,0.5,20,0.7,30.5,0.7c10.5,0,20.4,0,29.8,0c10.7,0,17.5-1.4,20.3-4.2c2.8-2.8,4.2-8.2,4.2-16.1
		c0-11.2,0.1-22.2,0.3-32.9c0.2-10.7,0.3-22.2,0.3-34.3c0-6.5-0.1-12.7-0.3-18.5c-0.2-5.8-2-11.6-5.3-17.1
		c-4.2-5.6-8.6-8.9-13.3-9.8c-4.7-0.9-10.3-1.4-16.8-1.4c-8.4,0-15.2,0-20.3,0c-5.1,0-12.4-0.2-21.7-0.7c-6.1-0.5-11.1-0.1-15.1,1.1
		c-4,1.2-6.4,5.3-7.4,12.3c-0.5,17.3-0.7,34.9-0.7,52.9C262.8,326.9,262.4,345.7,261.4,365.3z"/>
</g>
<g id="XMLID_6_">
	<g id="XMLID_24_">
		<line id="XMLID_27_" class="st1" x1="237.6" y1="407.5" x2="381.7" y2="407.5"/>
		<g id="XMLID_25_">
			<path id="XMLID_26_" d="M396.8,407.5c-7.1,2.6-15.9,7.1-21.4,11.9l4.3-11.9l-4.3-11.9C380.9,400.4,389.7,404.9,396.8,407.5z"/>
		</g>
	</g>
</g>
<g id="XMLID_1_">
	<path id="XMLID_17_" d="M172,282c-0.5,0.2-0.8,0.1-1.1-0.1c-0.3-0.2-0.5-0.6-0.6-1c-0.1-0.5-0.3-0.9-0.3-1.5c0-0.5-0.1-1-0.1-1.4
		c-0.1-1-0.2-1.9-0.2-2.8c0-0.9,0-1.8,0-2.6c-0.1-1-0.1-2,0-3l0-5.1c0-0.6,0.1-1.2,0.1-1.9c0-0.6,0.1-1.3,0.4-1.9
		c0.2-0.6,0.5-0.9,1-1c0.5-0.1,0.9,0.1,1.4,0.5c0.3,0.4,0.6,1,0.8,1.9c0.2,0.8,0.3,1.7,0.4,2.6c0.1,0.9,0.1,1.8,0.1,2.8
		c0,0.9,0,1.6,0,2.3v0c0,1.3,0,2.7-0.1,4.1c-0.1,1.4,0,2.9,0.1,4.5c0.1,0.8,0,1.5-0.4,2.2C173.1,281.2,172.6,281.7,172,282z"/>
</g>
<circle id="XMLID_4_" class="st2" cx="171" cy="271.5" r="18.5"/>
<g id="XMLID_7_">
	<path id="XMLID_15_" d="M424.1,182.6c0.7,0.5,1,1,1,1.6c-0.1,0.3-0.3,0.6-0.6,0.9c-0.3,0.3-0.7,0.4-1.1,0.5
		c-0.8,0.1-1.6,0.1-2.3,0.2c-0.7,0.1-1.4,0.1-2.1,0.2c-1,0.1-2,0.2-3,0.3c-1,0.1-2.1,0.1-3.3,0.1c-0.7,0-1.3-0.1-1.9-0.3
		c-0.6-0.2-1-0.5-1.3-1.1c-0.2-0.5-0.2-0.9,0-1.2c0.2-0.4,0.5-0.8,0.9-1.4c0.1-0.1,0.3-0.4,0.5-0.8c0.2-0.4,0.5-0.8,0.9-1.3
		c0.3-0.5,0.7-1,1.1-1.6c0.4-0.6,0.8-1.2,1.2-1.7c2.1-2.9,3.1-5,2.9-6.4c-0.1-0.4-0.4-0.7-0.9-0.9c-0.5-0.2-1.2-0.3-2-0.3
		s-1.5,0.1-2.3,0.3c-0.7,0.2-1.5,0.3-2.3,0.3c-0.5-0.1-0.7-0.3-0.8-0.7c-0.1-0.4-0.1-0.8,0-1.1c0.1-0.4,0.3-0.6,0.6-0.8
		c0.3-0.2,0.6-0.4,0.9-0.6c0.7-0.3,1.5-0.5,2.5-0.6c1-0.1,1.9-0.1,2.9,0c1,0.1,1.8,0.3,2.7,0.6c0.8,0.3,1.5,0.7,2.1,1.2
		c0.3,0.3,0.5,0.7,0.6,1.2c0.1,0.5,0.1,1,0,1.6c-0.1,0.5-0.2,1.1-0.3,1.6c-0.2,0.5-0.3,0.9-0.4,1.2c-0.2,0.5-0.4,1-0.6,1.5
		c-0.2,0.5-0.5,1.2-0.9,1.9c-0.4,0.7-0.9,1.6-1.6,2.5c-0.6,1-1.4,2.2-2.4,3.6l6.2-0.3c0.6,0,1.1-0.1,1.7-0.1
		C423.1,182.3,423.7,182.4,424.1,182.6z"/>
</g>
<circle id="XMLID_5_" class="st2" cx="415.3" cy="176.2" r="18.5"/>
<g id="XMLID_8_">
	<g id="XMLID_34_">
		<line id="XMLID_40_" class="st1" x1="229.9" y1="209.6" x2="229.9" y2="381.4"/>
		<g id="XMLID_35_">
			<path id="XMLID_39_" d="M229.9,396.5c-2.6-7.1-7.1-15.9-11.9-21.4l11.9,4.3l11.9-4.3C237.1,380.6,232.6,389.4,229.9,396.5z"/>
		</g>
	</g>
</g>
<g id="XMLID_11_">
	<path id="XMLID_13_" d="M315.6,463.8c0.6,0.2,1.2,0.5,1.7,0.8c0.5,0.3,0.9,0.8,1.3,1.4c0.3,0.4,0.5,1,0.5,1.8
		c0,0.7-0.1,1.5-0.5,2.2c-0.4,0.9-0.8,1.6-1.4,2.3c-0.5,0.6-1,1.1-1.2,1.4c-0.2,0.1-0.5,0.4-0.9,0.8c-0.5,0.4-1,0.8-1.6,1.2
		c-0.6,0.4-1.3,0.8-2,1s-1.4,0.5-2,0.5c-0.6,0-1.1-0.3-1.3-0.9c-0.2-0.4-0.1-0.8,0.3-1.3c0.4-0.5,0.7-0.9,1-1.1
		c0.4-0.2,0.9-0.6,1.6-1.1c0.7-0.5,1.3-1,1.9-1.5c0.6-0.5,1-1.1,1.4-1.7c0.4-0.6,0.4-1.2,0.1-1.8c-0.3-0.5-0.8-0.8-1.4-1
		c-0.7-0.2-1.3-0.3-1.8-0.4c-0.2,0-0.5-0.1-0.8-0.1c-0.3,0-0.7-0.1-1-0.3c-0.3-0.1-0.6-0.3-0.9-0.4s-0.4-0.4-0.5-0.7
		c-0.2-0.4-0.1-1.1,0.4-1.9c0.5-0.8,1-1.6,1.5-2.4c0.5-0.7,0.9-1.5,1.3-2.3c0.3-0.6,0.5-1.1,0.6-1.5c0.1-0.4,0.2-0.9,0.1-1.6
		c-0.1-0.6-0.4-0.8-0.9-0.8c-0.3,0-0.6,0-0.9,0.1c-0.3,0.1-0.6,0.2-0.9,0.3c-0.8,0.3-1.4,0.5-1.9,0.7c-0.4,0.2-0.9,0.3-1.5,0.3
		c-0.4,0-0.7-0.2-1-0.5c-0.2-0.3-0.3-0.7-0.3-1c0.1-0.3,0.2-0.6,0.4-0.8c0.2-0.2,0.6-0.5,1.2-0.8c0.9-0.4,2-0.8,3.1-1.1
		c1.1-0.4,2.3-0.5,3.5-0.6c0.4,0,0.8,0.1,1.3,0.3c0.5,0.2,0.9,0.5,1.1,0.9c0.3,0.5,0.5,1.2,0.5,1.9s0,1.5-0.2,2.3s-0.4,1.6-0.7,2.4
		c-0.3,0.8-0.6,1.5-0.9,2.2c-0.2,0.4-0.4,0.8-0.7,1.1c-0.3,0.3-0.3,0.6-0.3,0.9c0,0.3,0.3,0.5,0.9,0.5
		C314.5,463.5,315.1,463.6,315.6,463.8z"/>
</g>
<circle id="XMLID_10_" class="st2" cx="312.7" cy="463.3" r="18.5"/>
<g id="XMLID_3_">
	<g id="XMLID_31_">
		<path id="XMLID_42_" class="st1" d="M248.4,209.6c0,0,109.3-14.6,134.7,10.8c22.7,22.7,15.3,104,11.1,137.8"/>
		<g id="XMLID_32_">
			<path id="XMLID_41_" d="M392.1,373.3c-1.7-7.4-5-16.7-8.9-22.8l11.2,5.8l12.4-2.7C401.3,358.4,395.7,366.6,392.1,373.3z"/>
		</g>
	</g>
</g>
<g id="XMLID_12_">
</g>
<g id="XMLID_22_">
</g>
<g id="XMLID_28_">
</g>
<g id="XMLID_29_">
</g>
<g id="XMLID_43_">
</g>
<g id="XMLID_44_">
</g>
<g id="XMLID_45_">
</g>
</svg>
