<?xml version="1.0" encoding="utf-8"?>
<!-- Generator: Adobe Illustrator 19.0.0, SVG Export Plug-In . SVG Version: 6.00 Build 0)  -->
<svg version="1.1" id="레이어_1" xmlns="http://www.w3.org/2000/svg" xmlns:xlink="http://www.w3.org/1999/xlink" x="0px"
	 y="0px" viewBox="0 0 600 580" style="enable-background:new 0 0 600 580;" xml:space="preserve">
<style type="text/css">
	.st0{opacity:0.5;}
	.st1{fill:none;stroke:#000000;stroke-width:5;stroke-miterlimit:10;}
	.st2{fill:none;}
	.st3{fill:none;stroke:#000000;}
</style>
<g id="XMLID_9_" class="st0">
	<path id="XMLID_23_" d="M220.7,401c-7.9-2.3-12.3-7.2-13-14.7c-0.7-7.5,1.1-14.2,5.3-20.3c4.2-6.1,9.3-10.6,15.4-13.7
		c6.1-3,12.4-6.6,18.9-10.8c8.4-5.6,16.3-10.8,23.8-15.8c7.5-4.9,14.5-9.9,21-15c6.5-5.1,13-10.7,19.2-16.8
		c6.3-6.1,12.7-13.1,19.3-21c0.9-0.9,3.6-4.6,8.1-10.9c4.4-6.3,8.5-12.7,12.3-19.3c-16.8,0.5-32.8,1.8-48,3.9
		c-15.2,2.1-30.2,3.6-45.1,4.5c-4.2,0-8.6-0.2-13.3-0.7c-4.7-0.5-8.9-1.5-12.6-3.2c-3.7-1.6-6.8-4.1-9.1-7.3
		c-2.3-3.3-3.5-7.5-3.5-12.6c0.9-10.7,5.4-18.2,13.3-22.4c7.9-4.2,16.3-7,25.2-8.4c14-1.9,27.5-3.4,40.6-4.5
		c13.1-1.2,27.3-2.5,42.7-3.9c5.6-0.5,12-0.9,19.3-1.4c7.2-0.5,14.5-0.2,21.7,0.7c7.2,0.9,13.8,2.9,19.6,5.9
		c5.8,3,10.2,7.8,12.9,14.4c2.8,6.5,4,13.2,3.5,20c-0.5,6.8-1.9,13.4-4.2,19.9c-4.7,11.7-10.4,22.8-17.2,33.3
		c-6.8,10.5-14.1,21.1-22.1,31.9c10.7,7.5,22.8,14.9,36.1,22.4c13.3,7.5,24.6,15.9,33.9,25.2c8.9,8.4,12.6,17,11.2,25.9
		c-0.5,3.7-1.6,7.1-3.5,10.2c-1.9,3-4.7,5.3-8.4,6.6c-7.9,2.3-16.7,1.9-26.3-1.4c-9.6-3.3-19.3-7.8-29.1-13.7
		c-9.8-5.8-19.4-12.1-28.7-18.9c-9.3-6.8-17.3-12.5-23.8-17.2c-7.9,5.6-16.4,11.8-25.5,18.5c-9.1,6.8-18.7,13-28.7,18.5
		c-10,5.6-20.3,9.8-30.8,12.6S230.5,404.3,220.7,401z"/>
</g>
<g id="XMLID_6_">
	<g id="XMLID_30_">
		<line id="XMLID_33_" class="st1" x1="342.6" y1="317.2" x2="422" y2="373.8"/>
		<g id="XMLID_31_">
			<path id="XMLID_32_" d="M434.3,382.6c-7.3-2-17.1-3.4-24.3-2.7l10.4-7.2l3.4-12.2C425.5,367.5,430.1,376.3,434.3,382.6z"/>
		</g>
	</g>
</g>
<g id="XMLID_10_">
	<path id="XMLID_20_" class="st2" d="M415.8,382.6"/>
</g>
<g id="XMLID_8_">
	<path id="XMLID_17_" class="st2" d="M217.2,229.8"/>
</g>
<g id="XMLID_1_">
	<path id="XMLID_21_" d="M310.1,173.3c-0.5,0.2-0.8,0.1-1.1-0.1c-0.3-0.2-0.5-0.6-0.6-1c-0.1-0.5-0.3-0.9-0.3-1.5
		c0-0.5-0.1-1-0.1-1.4c-0.1-1-0.2-1.9-0.2-2.8c0-0.9,0-1.8,0-2.6c-0.1-1-0.1-2,0-3l0-5.1c0-0.6,0.1-1.2,0.1-1.9
		c0-0.6,0.1-1.3,0.3-1.9c0.2-0.6,0.5-0.9,1-1c0.5-0.1,1,0.1,1.4,0.5c0.3,0.4,0.6,1,0.8,1.9c0.2,0.8,0.3,1.7,0.4,2.6
		c0.1,0.9,0.1,1.8,0.1,2.8c0,0.9,0,1.6,0,2.3v0c0,1.3,0,2.7-0.1,4.1c-0.1,1.4,0,2.9,0.1,4.5c0.1,0.8,0,1.5-0.4,2.2
		C311.2,172.5,310.7,173,310.1,173.3z"/>
</g>
<circle id="XMLID_4_" class="st3" cx="309.1" cy="162.8" r="18.5"/>
<g id="XMLID_7_">
	<path id="XMLID_13_" d="M446.1,323.5c0.7,0.5,1,1,1,1.6c-0.1,0.3-0.3,0.6-0.6,0.9c-0.3,0.3-0.7,0.4-1.1,0.5
		c-0.8,0.1-1.6,0.1-2.3,0.2c-0.7,0.1-1.4,0.1-2.1,0.2c-1,0.1-2.1,0.2-3.1,0.3c-1,0.1-2.1,0.1-3.3,0.1c-0.7,0-1.3-0.1-1.8-0.3
		c-0.6-0.2-1-0.5-1.3-1.1c-0.2-0.5-0.2-0.9,0-1.2c0.2-0.4,0.5-0.8,0.8-1.4c0.1-0.1,0.3-0.4,0.5-0.8c0.2-0.4,0.5-0.8,0.9-1.3
		c0.4-0.5,0.7-1,1.1-1.6c0.4-0.6,0.8-1.2,1.2-1.7c2.1-2.9,3.1-5,2.9-6.3c-0.1-0.4-0.4-0.7-0.9-0.9c-0.5-0.2-1.2-0.3-2-0.3
		c-0.8,0-1.5,0.1-2.3,0.3c-0.7,0.2-1.5,0.3-2.3,0.3c-0.5-0.1-0.7-0.3-0.8-0.7c-0.1-0.4-0.1-0.8,0-1.1c0.1-0.4,0.3-0.6,0.6-0.8
		s0.6-0.4,0.9-0.5c0.7-0.3,1.5-0.5,2.5-0.6c1-0.1,1.9-0.1,2.8,0c1,0.1,1.9,0.3,2.7,0.6c0.9,0.3,1.5,0.7,2.1,1.2
		c0.3,0.3,0.5,0.7,0.5,1.2c0.1,0.5,0.1,1,0,1.6c-0.1,0.5-0.2,1.1-0.3,1.6c-0.1,0.5-0.3,0.9-0.4,1.2c-0.2,0.5-0.4,1-0.6,1.5
		s-0.5,1.2-0.9,1.9c-0.4,0.7-0.9,1.6-1.5,2.5c-0.6,1-1.4,2.2-2.4,3.6l6.2-0.3c0.6,0,1.1-0.1,1.7-0.1
		C445.1,323.2,445.7,323.3,446.1,323.5z"/>
</g>
<circle id="XMLID_5_" class="st3" cx="437.3" cy="317.2" r="18.5"/>
<path id="XMLID_3_" class="st1" d="M244,222.8c6.3-0.6,107.1-33.3,130.7-4.8c37.8,45.5-46.7,120.8-140.4,164.6"/>
<path id="XMLID_11_" class="st1" d="M394.7,208.9"/>
<g id="XMLID_12_">
</g>
<g id="XMLID_25_">
</g>
<g id="XMLID_26_">
</g>
<g id="XMLID_27_">
</g>
<g id="XMLID_28_">
</g>
<g id="XMLID_34_">
</g>
<g id="XMLID_35_">
</g>
</svg>
