<?xml version="1.0" encoding="utf-8"?>
<!-- Generator: Adobe Illustrator 19.0.0, SVG Export Plug-In . SVG Version: 6.00 Build 0)  -->
<svg version="1.1" id="레이어_1" xmlns="http://www.w3.org/2000/svg" xmlns:xlink="http://www.w3.org/1999/xlink" x="0px"
	 y="0px" viewBox="0 0 600 580" style="enable-background:new 0 0 600 580;" xml:space="preserve">
<style type="text/css">
	.st0{opacity:0.47;}
	.st1{fill:#E60012;}
	.st2{fill:none;stroke:#000000;stroke-miterlimit:10;}
	.st3{fill:none;stroke:#E71F19;stroke-width:16;stroke-linecap:square;stroke-linejoin:round;stroke-miterlimit:10;}
	.st4{fill:none;stroke:#000000;stroke-width:5;stroke-linecap:square;stroke-linejoin:round;stroke-miterlimit:10;}
	.st5{fill:none;stroke:#000000;stroke-width:15;stroke-linecap:round;stroke-miterlimit:10;}
</style>
<g id="XMLID_1_" class="st0">
	<path id="XMLID_10_" class="st1" d="M408.4,367.4c7,4.2,10.5,10.5,10.5,18.9s-4.2,15.6-12.6,21.7c-8.4,6.1-19,11.2-31.8,15.4
		c-12.8,4.2-26.9,7.1-42.3,8.8c-15.4,1.6-30.5,2.2-45.2,1.8c-14.7-0.5-27.9-2.3-39.6-5.6c-11.7-3.3-20.1-7.7-25.2-13.3
		c-6.1-6.5-11.1-12.8-15.1-18.9c-4-6.1-7.8-15.2-11.5-27.3c-2.8-9.8-4.7-21.9-5.6-36.4c-0.9-14.5,1.2-27.1,6.3-37.8
		c3.3-7,8.5-12.7,15.8-17.1c7.2-4.4,15.4-8.2,24.5-11.2c9.1-3,18.4-5.7,28-8c9.6-2.3,18.3-4.9,26.3-7.7c7.9-2.8,14.5-6.2,19.6-10.1
		c5.1-4,7.7-9,7.7-15c0-5.1-0.4-10.7-1-16.8c-0.7-6.1-2-11.8-3.9-17.1c-1.9-5.4-4.4-9.8-7.7-13.3c-3.3-3.5-7.5-5.3-12.6-5.3
		c-2.8,0-7.3,0.1-13.6,0.3c-6.3,0.2-13.2,0.6-20.6,1.1c-7.5,0.5-14.5,0.9-21,1.4c-6.5,0.5-11.2,0.9-14,1.4
		c-7.9,0.9-15.5,0.4-22.8-1.8c-7.2-2.1-10.9-8-10.9-17.9c0-9.3,3.5-15.9,10.5-19.6c8.4-4.7,20.2-8.3,35.4-10.9
		c15.2-2.6,30.7-3.5,46.5-2.8c15.9,0.7,30.6,3.3,44.1,7.7c13.5,4.4,22.9,11.1,28,20c4.2,7.9,8,18,11.5,30.1
		c3.5,12.1,5.6,24.3,6.3,36.4c0.7,12.1-0.2,23.6-2.8,34.3c-2.6,10.7-7.6,18.7-15,23.8c-5.6,3.7-11.9,7.2-18.9,10.5
		c-7,3.3-14.4,6.2-22,8.8c-7.7,2.6-15.4,4.9-23.1,7c-7.7,2.1-14.6,4.1-20.6,6c-6.1,1.9-10.4,5.1-13,9.8c-2.6,4.7-3.9,10-3.9,16.1
		c0,6.1,0.9,12,2.8,17.8c1.9,5.8,4.2,10.9,7,15c5.6,7.9,14,12.4,25.2,13.3c11.2,0.9,23.1,0.3,35.7-1.8c12.6-2.1,25-4.9,37.1-8.4
		c12.1-3.5,21.9-5.7,29.4-6.7C397.6,363,403.7,364.2,408.4,367.4z"/>
</g>
<path id="XMLID_2_" class="st2" d="M159.1,170.7"/>
<path id="XMLID_3_" class="st3" d="M505.8,418.6"/>
<path id="XMLID_7_" class="st4" d="M342-42"/>
<g id="XMLID_8_">
	<path id="XMLID_6_" class="st1" d="M455.5,451.2c-0.1,0.5-0.4,1-0.9,1.3c-0.5,0.3-1.1,0.6-1.7,0.8c-0.6,0.2-1.2,0.3-1.7,0.4
		c-0.5,0.1-0.8,0.1-0.9,0.1c-1.3,0.2-2.6,0.4-4.1,0.5c-1.5,0.2-3,0.3-4.5,0.5c-1.5,0.1-3,0.2-4.4,0.3c-1.4,0.1-2.8,0.1-4,0
		c-1.1-0.1-2.1-0.3-2.8-0.6c-0.7-0.3-1.3-0.8-1.8-1.3c-0.5-0.6-0.8-1.2-1.1-1.9c-0.3-0.7-0.5-1.4-0.7-2.1c-0.1-0.6-0.3-1.4-0.4-2.3
		c-0.1-0.9-0.2-2-0.2-3.1c0-1.1,0-2.2,0-3.3c0-1.1,0.1-2.2,0.2-3.3c0,0.1,0-0.3,0.1-1s0.1-1.5,0.2-2.3c0.1-0.9,0.1-1.7,0.2-2.4
		c0-0.7,0-1,0-1c0.4-2.5,0.8-4.8,1.1-7c0.3-2.2,0.9-4.6,1.6-7.1c0.1-0.3,0.4-0.7,0.8-1.2c0.4-0.5,0.8-0.8,1.5-1
		c0.4-0.1,0.9-0.2,1.6-0.3c0.7-0.1,1.5,0.4,2.3,1.3c0.4,0.4,0.7,1,0.8,2c0.1,0.9,0.2,1.8,0.2,2.8s-0.1,2-0.2,2.9
		c-0.1,0.9-0.3,1.7-0.4,2.2c-0.2,1.5-0.4,3-0.6,4.3c-0.2,1.3-0.4,2.5-0.5,3.8c-0.1,1.2-0.3,2.5-0.3,3.8s-0.2,2.7-0.3,4.3
		c0,0.3,0,0.8,0,1.3s0,1,0,1.5c0,0.5,0.1,1,0.2,1.5c0.1,0.5,0.2,0.9,0.4,1c0.3,0.4,1.2,0.6,2.6,0.7c1.4,0.1,2.9,0.1,4.5,0
		c1.6-0.1,3.2-0.2,4.6-0.3c1.5-0.2,2.5-0.3,3-0.5c0.7,0,1.5-0.1,2.4-0.2c0.8-0.1,1.6,0,2.3,0.4c0.9,0.5,1.3,1.2,1.3,2.1
		C455.7,449.7,455.6,450.5,455.5,451.2z"/>
</g>
<path id="XMLID_4_" class="st5" d="M229.9,275.1c0,0-22.1,102.9,0,125c30.1,30.1,170,0,170,0"/>
<g id="XMLID_5_">
</g>
<g id="XMLID_12_">
</g>
<g id="XMLID_13_">
</g>
<g id="XMLID_14_">
</g>
<g id="XMLID_15_">
</g>
<g id="XMLID_16_">
</g>
</svg>
