<?xml version="1.0" encoding="utf-8"?>
<!-- Generator: Adobe Illustrator 19.0.0, SVG Export Plug-In . SVG Version: 6.00 Build 0)  -->
<svg version="1.1" id="레이어_1" xmlns="http://www.w3.org/2000/svg" xmlns:xlink="http://www.w3.org/1999/xlink" x="0px"
	 y="0px" viewBox="0 0 600 580" style="enable-background:new 0 0 600 580;" xml:space="preserve">
<style type="text/css">
	.st0{opacity:0.5;}
	.st1{fill:none;}
	.st2{fill:none;stroke:#000000;}
	.st3{fill:none;stroke:#000000;stroke-width:5;stroke-miterlimit:10;}
</style>
<g id="XMLID_9_" class="st0">
	<path id="XMLID_39_" d="M230.8,219.8c10.7,1.4,21.4,3.5,31.9,6.3s19.5,8.9,26.9,18.2c8.4,10.3,14.4,20.3,17.9,30.1
		c3.5,9.8,5.4,19.8,5.6,30.1c0.2,10.3-0.5,20.9-2.1,31.8c-1.6,11-3.2,22.3-4.5,34c-1.4,8.9-2.9,17.7-4.6,26.6
		c-1.6,8.9-5,17-10.1,24.5c-4.2,6.5-9.6,10.9-16.1,13c-6.5,2.1-12.8-0.1-18.9-6.6c-6.5-6.1-10.1-13.1-10.9-21
		c-0.7-7.9-1-15.9-1-23.8c0-8.9,0.5-16.6,1.4-23.1c0.9-6.5,1.4-14.2,1.4-23.1c0-7.5,0-14.5,0-21c0-6.5-1-12.4-3.1-17.5
		c-2.1-5.1-5.6-9.2-10.5-12.3c-4.9-3-12.3-5-22-6c-5.6-0.5-13.2-0.4-22.8,0.4c-9.6,0.7-19.1,0.6-28.7-0.4c-9.6-0.9-18.1-3-25.5-6.3
		c-7.5-3.3-11.9-9.1-13.3-17.5c-1.4-10.7,2.2-18.8,10.9-24.1c8.6-5.4,19.1-9.1,31.5-11.2c12.4-2.1,25-3,37.8-2.8
		C214.6,218.2,224.3,218.8,230.8,219.8z M411.4,205.8c9.8,1.9,20.3,4.7,31.5,8.4c11.2,3.7,20.1,9.6,26.6,17.5
		c8.4,10.7,14.1,21.1,17.1,31.1c3,10,4.6,20.2,4.6,30.5c0,10.3-1.1,20.9-3.2,31.8c-2.1,11-4.1,22.5-5.9,34.7
		c-0.5,2.8-1.2,6.5-2.1,11.2c-0.9,4.7-2.1,9.6-3.5,14.7c-1.4,5.1-3,9.9-4.9,14.3c-1.9,4.4-3.5,7.6-4.9,9.5
		c-4.7,6.5-10.3,10.7-16.8,12.6c-6.5,1.9-12.8-0.5-18.9-7c-6.1-6.5-9.5-13.8-10.2-21.7c-0.7-7.9-0.8-15.9-0.3-23.8
		c0-4.2,0.2-7.6,0.7-10.1c0.5-2.6,0.9-5,1.4-7.4c0.5-2.3,0.9-4.8,1.4-7.3c0.5-2.6,0.7-6.2,0.7-10.9c0-7.5,0-14.8,0-22
		c0-7.2-0.9-13.9-2.8-20c-1.9-6.1-5.1-11.3-9.8-15.8c-4.7-4.4-11.7-7.8-21-10.1c-4.7-0.9-11.4-2-20.3-3.1
		c-8.9-1.2-17.7-2.6-26.6-4.2c-8.9-1.6-16.8-4-23.8-7c-7-3-10.7-7.1-11.2-12.3c-1.9-14.5,2.3-24.5,12.6-30.1
		c4.7-2.8,11-4.7,18.9-5.6c7.9-0.9,16.3-1.4,25.2-1.4c8.9,0,17.4,0.3,25.6,1C399.6,204,406.3,204.8,411.4,205.8z"/>
</g>
<g id="XMLID_11_">
	<path id="XMLID_27_" class="st1" d="M378.6,197.8"/>
</g>
<g id="XMLID_3_">
	<path id="XMLID_21_" class="st1" d="M181.3,197.8"/>
</g>
<g id="XMLID_10_">
	<path id="XMLID_25_" class="st1" d="M404.3,371.4"/>
</g>
<g id="XMLID_8_">
	<path id="XMLID_17_" class="st1" d="M205.6,218.7"/>
</g>
<g id="XMLID_1_">
	<path id="XMLID_34_" d="M128.8,208.4c-0.5,0.2-0.8,0.1-1.1-0.1c-0.3-0.2-0.5-0.6-0.6-1c-0.1-0.5-0.3-0.9-0.3-1.5
		c0-0.5-0.1-1-0.1-1.4c-0.1-1-0.2-1.9-0.2-2.8c0-0.9,0-1.8,0-2.6c-0.1-1-0.1-2,0-3l0-5.1c0-0.6,0.1-1.2,0.1-1.9
		c0-0.6,0.1-1.3,0.4-1.9c0.2-0.6,0.5-0.9,1-1c0.5-0.1,0.9,0.1,1.4,0.5c0.3,0.4,0.6,1,0.8,1.9c0.2,0.8,0.3,1.7,0.4,2.6
		c0.1,0.9,0.1,1.8,0.1,2.8c0,0.9,0,1.6,0,2.3v0c0,1.3,0,2.7-0.1,4.1c-0.1,1.4,0,2.9,0.1,4.5c0.1,0.8,0,1.5-0.4,2.2
		C129.9,207.6,129.4,208.1,128.8,208.4z"/>
</g>
<circle id="XMLID_4_" class="st2" cx="127.8" cy="197.8" r="18.5"/>
<g id="XMLID_7_">
	<path id="XMLID_31_" d="M495.3,214.5c0.7,0.5,1,1,1,1.6c-0.1,0.3-0.3,0.6-0.6,0.9c-0.3,0.3-0.7,0.4-1.1,0.5
		c-0.8,0.1-1.6,0.1-2.3,0.2c-0.7,0.1-1.4,0.1-2.1,0.2c-1,0.1-2,0.2-3,0.3c-1,0.1-2.1,0.1-3.3,0.1c-0.7,0-1.3-0.1-1.9-0.3
		c-0.6-0.2-1-0.5-1.3-1.1c-0.2-0.5-0.2-0.9,0-1.2c0.2-0.4,0.5-0.8,0.9-1.4c0.1-0.1,0.3-0.4,0.5-0.8c0.2-0.4,0.5-0.8,0.9-1.3
		c0.3-0.5,0.7-1,1.1-1.6c0.4-0.6,0.8-1.2,1.2-1.7c2.1-2.9,3.1-5,2.9-6.4c-0.1-0.4-0.4-0.7-0.9-0.9c-0.5-0.2-1.2-0.3-2-0.3
		s-1.5,0.1-2.3,0.3c-0.7,0.2-1.5,0.3-2.3,0.3c-0.5-0.1-0.7-0.3-0.8-0.7c-0.1-0.4-0.1-0.8,0-1.1c0.1-0.4,0.3-0.6,0.6-0.8
		c0.3-0.2,0.6-0.4,0.9-0.6c0.7-0.3,1.5-0.5,2.5-0.6c1-0.1,1.9-0.1,2.9,0c1,0.1,1.8,0.3,2.7,0.6c0.8,0.3,1.5,0.7,2.1,1.2
		c0.3,0.3,0.5,0.7,0.6,1.2c0.1,0.5,0.1,1,0,1.6c-0.1,0.5-0.2,1.1-0.3,1.6c-0.2,0.5-0.3,0.9-0.4,1.2c-0.2,0.5-0.4,1-0.6,1.5
		c-0.2,0.5-0.5,1.2-0.9,1.9c-0.4,0.7-0.9,1.6-1.6,2.5c-0.6,1-1.4,2.2-2.4,3.6l6.2-0.3c0.6,0,1.1-0.1,1.7-0.1
		C494.3,214.2,494.9,214.3,495.3,214.5z"/>
</g>
<circle id="XMLID_5_" class="st2" cx="486.5" cy="208.2" r="18.5"/>
<g id="XMLID_6_">
	<g id="XMLID_41_">
		<path id="XMLID_44_" class="st3" d="M162.1,248.6c0,0,90.4-11.7,109,8.3c20.1,21.7,9.1,92.9,3.1,124"/>
		<g id="XMLID_42_">
			<path id="XMLID_43_" d="M271.1,395.7c-1.2-7.5-3.8-17-7.4-23.3l10.8,6.6l12.5-1.8C281.3,381.6,275.1,389.3,271.1,395.7z"/>
		</g>
	</g>
</g>
<path id="XMLID_32_" class="st2" d="M328.3,377.2"/>
<g id="XMLID_12_">
	<g id="XMLID_14_">
		<path id="XMLID_29_" class="st3" d="M340.6,230.1c0,0,90.4-11.7,109,8.3c20.1,21.7,9.1,92.9,3.1,124"/>
		<g id="XMLID_18_">
			<path id="XMLID_28_" d="M449.6,377.2c-1.2-7.5-3.8-17-7.4-23.3l10.8,6.6l12.5-1.8C459.7,363.1,453.6,370.8,449.6,377.2z"/>
		</g>
	</g>
</g>
<g id="XMLID_30_">
</g>
<g id="XMLID_47_">
</g>
<g id="XMLID_48_">
</g>
<g id="XMLID_49_">
</g>
<g id="XMLID_50_">
</g>
<g id="XMLID_51_">
</g>
<g id="XMLID_52_">
</g>
</svg>
