<?xml version="1.0" encoding="utf-8"?>
<!-- Generator: Adobe Illustrator 19.0.0, SVG Export Plug-In . SVG Version: 6.00 Build 0)  -->
<svg version="1.1" id="레이어_1" xmlns="http://www.w3.org/2000/svg" xmlns:xlink="http://www.w3.org/1999/xlink" x="0px"
	 y="0px" viewBox="0 0 600 580" style="enable-background:new 0 0 600 580;" xml:space="preserve">
<style type="text/css">
	.st0{opacity:0.5;}
	.st1{fill:none;stroke:#000000;stroke-width:5;stroke-miterlimit:10;}
	.st2{fill:none;stroke:#000000;}
</style>
<g id="XMLID_9_" class="st0">
	<path id="XMLID_19_" d="M437.8,387.8c7,4.2,10.5,10.5,10.5,18.9c0,8.4-4.2,15.6-12.6,21.7c-8.4,6.1-19,11.2-31.9,15.4
		c-12.8,4.2-26.9,7.1-42.3,8.8c-15.4,1.6-30.5,2.2-45.1,1.8c-14.7-0.5-27.9-2.3-39.6-5.6c-11.7-3.3-20.1-7.7-25.2-13.3
		c-6.1-6.5-11.1-12.8-15.1-18.9c-4-6.1-7.8-15.2-11.5-27.3c-2.8-9.8-4.7-21.9-5.6-36.4c-0.9-14.5,1.2-27.1,6.3-37.8
		c3.3-7,8.5-12.7,15.8-17.2c7.2-4.4,15.4-8.2,24.5-11.2c9.1-3,18.4-5.7,28-8c9.6-2.3,18.3-4.9,26.2-7.7c7.9-2.8,14.5-6.2,19.6-10.1
		c5.1-4,7.7-9,7.7-15c0-5.1-0.3-10.7-1-16.8c-0.7-6.1-2-11.8-3.9-17.1c-1.9-5.4-4.4-9.8-7.7-13.3c-3.3-3.5-7.5-5.3-12.6-5.3
		c-2.8,0-7.3,0.1-13.6,0.3c-6.3,0.2-13.2,0.6-20.6,1.1c-7.5,0.5-14.5,0.9-21,1.4c-6.5,0.5-11.2,0.9-14,1.4
		c-7.9,0.9-15.5,0.4-22.8-1.8c-7.2-2.1-10.9-8-10.9-17.9c0-9.3,3.5-15.9,10.5-19.6c8.4-4.7,20.2-8.3,35.4-10.9
		c15.2-2.6,30.7-3.5,46.5-2.8c15.9,0.7,30.6,3.3,44.1,7.7c13.5,4.4,22.9,11.1,28,20c4.2,7.9,8.1,18,11.6,30.1
		c3.5,12.1,5.6,24.3,6.3,36.4c0.7,12.1-0.2,23.6-2.8,34.3c-2.6,10.7-7.6,18.7-15.1,23.8c-5.6,3.7-11.9,7.2-18.9,10.5
		c-7,3.3-14.3,6.2-22,8.8c-7.7,2.6-15.4,4.9-23.1,7c-7.7,2.1-14.6,4.1-20.6,6c-6.1,1.9-10.4,5.1-13,9.8c-2.6,4.7-3.9,10-3.9,16.1
		c0,6.1,0.9,12,2.8,17.9c1.9,5.8,4.2,10.8,7,15c5.6,7.9,14,12.4,25.2,13.3c11.2,0.9,23.1,0.4,35.7-1.8c12.6-2.1,25-4.9,37.1-8.4
		c12.1-3.5,21.9-5.7,29.4-6.7C427.1,383.4,433.2,384.6,437.8,387.8z"/>
</g>
<g id="XMLID_6_">
	<g id="XMLID_28_">
		<line id="XMLID_31_" class="st1" x1="238.4" y1="305.5" x2="355.5" y2="305.5"/>
		<g id="XMLID_29_">
			<path id="XMLID_30_" d="M370.5,305.5c-7.1,2.6-15.9,7.1-21.4,11.9l4.3-11.9l-4.3-11.9C354.6,298.4,363.4,302.9,370.5,305.5z"/>
		</g>
	</g>
</g>
<g id="XMLID_3_">
	<g id="XMLID_23_">
		<path id="XMLID_26_" class="st1" d="M262.8,316.5c0,0-63.3,147.3,144.4,105.6"/>
		<g id="XMLID_24_">
			<path id="XMLID_25_" d="M422,419c-6.4,4-14.1,10.2-18.5,16l1.8-12.5l-6.6-10.8C404.9,415.3,414.5,417.9,422,419z"/>
		</g>
	</g>
</g>
<g id="XMLID_1_">
	<path id="XMLID_17_" d="M191.2,182.7c-0.5,0.2-0.8,0.1-1.1-0.1c-0.3-0.2-0.5-0.6-0.6-1c-0.1-0.5-0.3-0.9-0.3-1.5
		c0-0.5-0.1-1-0.1-1.4c-0.1-1-0.2-1.9-0.2-2.8c0-0.9,0-1.8,0-2.6c-0.1-1-0.1-2,0-3l0-5.1c0-0.6,0.1-1.2,0.1-1.9
		c0-0.6,0.1-1.3,0.4-1.9c0.2-0.6,0.5-0.9,1-1c0.5-0.1,0.9,0.1,1.4,0.5c0.3,0.4,0.6,1,0.8,1.9c0.2,0.8,0.3,1.7,0.4,2.6
		c0.1,0.9,0.1,1.8,0.1,2.8c0,0.9,0,1.6,0,2.3v0c0,1.3,0,2.7-0.1,4.1c-0.1,1.4,0,2.9,0.1,4.5c0.1,0.8,0,1.5-0.4,2.2
		C192.3,181.9,191.8,182.4,191.2,182.7z"/>
</g>
<circle id="XMLID_4_" class="st2" cx="190.3" cy="172.2" r="18.5"/>
<g id="XMLID_7_">
	<path id="XMLID_15_" d="M206.7,311.9c0.7,0.5,1,1,1,1.6c-0.1,0.3-0.3,0.6-0.6,0.9s-0.7,0.4-1.1,0.5c-0.8,0.1-1.6,0.1-2.3,0.2
		c-0.7,0.1-1.4,0.1-2.1,0.2c-1,0.1-2.1,0.2-3.1,0.3s-2.1,0.1-3.3,0.1c-0.7,0-1.3-0.1-1.9-0.3c-0.6-0.2-1-0.5-1.3-1.1
		c-0.2-0.5-0.2-0.9,0-1.2c0.2-0.4,0.5-0.8,0.9-1.4c0.1-0.1,0.3-0.4,0.5-0.8c0.2-0.4,0.5-0.8,0.9-1.3s0.7-1,1.1-1.6
		c0.4-0.6,0.8-1.2,1.2-1.7c2.1-2.9,3.1-5,2.9-6.4c-0.1-0.4-0.4-0.7-0.9-0.9c-0.5-0.2-1.2-0.3-2-0.3c-0.8,0-1.5,0.1-2.3,0.3
		c-0.7,0.2-1.5,0.3-2.3,0.3c-0.5-0.1-0.7-0.3-0.8-0.7c-0.1-0.4-0.1-0.8,0-1.1c0.1-0.4,0.3-0.7,0.6-0.8c0.3-0.2,0.6-0.4,0.9-0.6
		c0.7-0.3,1.5-0.5,2.5-0.6c1-0.1,1.9-0.1,2.9,0c1,0.1,1.9,0.3,2.7,0.6s1.5,0.7,2.1,1.2c0.3,0.3,0.5,0.7,0.6,1.2c0.1,0.5,0.1,1,0,1.6
		c-0.1,0.5-0.2,1.1-0.3,1.6s-0.3,0.9-0.4,1.2c-0.2,0.5-0.4,1-0.6,1.5c-0.2,0.5-0.5,1.2-0.9,1.9c-0.4,0.7-0.9,1.6-1.6,2.5
		c-0.6,1-1.4,2.2-2.4,3.5l6.2-0.3c0.6,0,1.1-0.1,1.7-0.1C205.7,311.6,206.2,311.7,206.7,311.9z"/>
</g>
<circle id="XMLID_5_" class="st2" cx="197.9" cy="305.5" r="18.5"/>
<g id="XMLID_10_">
	<g id="XMLID_34_">
		<path id="XMLID_40_" class="st1" d="M241.4,175c0,0,150.8-64,131.5,87.9"/>
		<g id="XMLID_35_">
			<path id="XMLID_39_" d="M370.5,277.8c-1.5-7.4-4.7-16.8-8.6-22.9l11.1,6l12.4-2.5C380,263.1,374.2,271.1,370.5,277.8z"/>
		</g>
	</g>
</g>
<g id="XMLID_11_">
	<path id="XMLID_13_" d="M250.5,469.5c0.6,0.2,1.2,0.5,1.7,0.8c0.5,0.3,0.9,0.8,1.3,1.4c0.3,0.4,0.5,1,0.5,1.8
		c0,0.7-0.1,1.5-0.5,2.2c-0.4,0.9-0.8,1.6-1.4,2.3c-0.5,0.6-1,1.1-1.2,1.4c-0.2,0.1-0.5,0.4-0.9,0.8c-0.5,0.4-1,0.8-1.6,1.2
		c-0.6,0.4-1.3,0.8-2,1s-1.4,0.5-2,0.5c-0.6,0-1.1-0.3-1.3-0.9c-0.2-0.4-0.1-0.8,0.3-1.3c0.4-0.5,0.7-0.9,1-1.1
		c0.4-0.2,0.9-0.6,1.6-1.1c0.7-0.5,1.3-1,1.9-1.5c0.6-0.5,1.1-1.1,1.4-1.7c0.4-0.6,0.4-1.2,0.1-1.8c-0.3-0.5-0.8-0.8-1.4-1
		c-0.7-0.2-1.3-0.3-1.8-0.4c-0.2,0-0.5-0.1-0.8-0.1c-0.3,0-0.7-0.1-1-0.3c-0.3-0.1-0.6-0.3-0.9-0.4s-0.4-0.4-0.5-0.7
		c-0.2-0.4-0.1-1.1,0.4-1.9c0.5-0.8,1-1.6,1.5-2.4c0.5-0.7,0.9-1.5,1.3-2.3c0.3-0.6,0.5-1.1,0.6-1.5c0.1-0.4,0.2-0.9,0.1-1.6
		c-0.1-0.6-0.4-0.8-0.9-0.8c-0.3,0-0.6,0-0.9,0.1c-0.3,0.1-0.6,0.2-0.9,0.3c-0.8,0.3-1.4,0.5-1.9,0.7c-0.4,0.2-0.9,0.3-1.5,0.3
		c-0.4,0-0.7-0.2-1-0.5c-0.2-0.3-0.3-0.7-0.3-1c0.1-0.3,0.2-0.6,0.4-0.8c0.2-0.2,0.6-0.5,1.2-0.8c0.9-0.4,2-0.8,3.1-1.1
		c1.1-0.4,2.3-0.5,3.5-0.6c0.4,0,0.8,0.1,1.3,0.3c0.5,0.2,0.9,0.5,1.1,0.9c0.3,0.5,0.5,1.2,0.5,1.9c0,0.7,0,1.5-0.2,2.3
		c-0.2,0.8-0.4,1.6-0.7,2.4c-0.3,0.8-0.6,1.5-0.9,2.2c-0.2,0.4-0.4,0.8-0.7,1.1c-0.3,0.3-0.3,0.6-0.3,0.9c0,0.3,0.3,0.5,0.9,0.5
		C249.4,469.2,250,469.3,250.5,469.5z"/>
</g>
<circle id="XMLID_8_" class="st2" cx="247.6" cy="469" r="18.5"/>
<g id="XMLID_12_">
</g>
<g id="XMLID_21_">
</g>
<g id="XMLID_32_">
</g>
<g id="XMLID_41_">
</g>
<g id="XMLID_42_">
</g>
<g id="XMLID_43_">
</g>
<g id="XMLID_44_">
</g>
</svg>
