<?xml version="1.0" encoding="utf-8"?>
<!-- Generator: Adobe Illustrator 19.0.0, SVG Export Plug-In . SVG Version: 6.00 Build 0)  -->
<svg version="1.1" id="레이어_1" xmlns="http://www.w3.org/2000/svg" xmlns:xlink="http://www.w3.org/1999/xlink" x="0px"
	 y="0px" viewBox="0 0 600 580" style="enable-background:new 0 0 600 580;" xml:space="preserve">
<style type="text/css">
	.st0{opacity:0.5;}
	.st1{fill:none;stroke:#000000;stroke-width:5;stroke-miterlimit:10;}
	.st2{fill:none;}
	.st3{fill:none;stroke:#000000;}
</style>
<g id="XMLID_9_" class="st0">
	<path id="XMLID_19_" d="M419,369.5c3.7,3.7,6.7,7.9,8.8,12.6c2.1,4.7,2.7,9.6,1.8,14.7c-0.5,5.1-2.9,9.8-7.3,14
		c-4.4,4.2-9.2,6.8-14.3,7.7c-5.1,0.5-10.5-0.8-16.1-3.8c-5.6-3-11.1-6.7-16.4-10.9c-5.4-4.2-10.4-8.8-15.1-13.6
		c-4.7-4.9-8.6-9-11.9-12.3c-1.9-1.4-5.5-4.7-10.9-9.8c-5.4-5.1-11.3-10.7-17.8-16.8c-6.5-6.1-12.8-11.9-18.9-17.5
		c-6.1-5.6-10.5-9.8-13.3-12.6l-62.3,72.1c-5.1,6.1-11.3,12.1-18.5,18.2c-7.2,6.1-14.8,8.4-22.8,7c-7.9-1.9-14.2-6.1-18.9-12.6
		c-4.7-6.5-6.3-13.5-4.9-21c0.5-3.7,3.5-10,9.1-18.9c5.6-8.9,12.5-18.8,20.6-29.8c8.2-11,17-22.4,26.6-34.3
		c9.6-11.9,18.5-23.1,27-33.6c8.4-10.5,15.8-19.5,22-27c6.3-7.5,10.4-12.1,12.3-14c3.7-4.2,7.7-9.2,11.9-15
		c4.2-5.8,9-11.3,14.3-16.5c5.4-5.1,11.1-9.1,17.2-11.9c6.1-2.8,12.8-3.3,20.3-1.4c5.1,1.4,9.3,4,12.6,7.7c3.3,3.7,5.6,7.5,7,11.2
		c2.3,7.9,0.5,16.6-5.6,25.9c-7,11.2-12.1,19.4-15.4,24.5c-3.3,5.1-7,11-11.2,17.5c-0.9,0.9-0.9,1.6,0,2.1
		c7.5,7.9,15.3,16.1,23.5,24.5c8.2,8.4,16,16.6,23.4,24.5c7,7.9,14.3,16.1,22.1,24.5C405.4,353.4,412.5,361.6,419,369.5z"/>
</g>
<g id="XMLID_6_">
	<g id="XMLID_31_">
		<line id="XMLID_34_" class="st1" x1="284" y1="280.1" x2="386.5" y2="377.2"/>
		<g id="XMLID_32_">
			<path id="XMLID_33_" d="M397.4,387.6c-7-3-16.4-5.8-23.7-6.1l11.3-5.7l5.1-11.6C390.8,371.5,394.1,380.8,397.4,387.6z"/>
		</g>
	</g>
</g>
<g id="XMLID_10_">
	<path id="XMLID_25_" class="st2" d="M407.6,398.7"/>
</g>
<g id="XMLID_8_">
	<path id="XMLID_17_" class="st2" d="M209,245.9"/>
</g>
<g id="XMLID_1_">
	<path id="XMLID_14_" d="M373.7,181.7c-0.5,0.2-0.8,0.1-1.1-0.1c-0.3-0.2-0.5-0.6-0.6-1c-0.1-0.5-0.3-0.9-0.3-1.5
		c0-0.5-0.1-1-0.1-1.4c-0.1-1-0.2-1.9-0.2-2.8c0-0.9,0-1.8,0-2.6c-0.1-1-0.1-2,0-3l0-5.1c0-0.6,0.1-1.2,0.1-1.9
		c0-0.6,0.1-1.3,0.3-1.9c0.2-0.6,0.5-0.9,1-1c0.5-0.1,1,0.1,1.4,0.5c0.3,0.4,0.6,1,0.8,1.9c0.2,0.8,0.3,1.7,0.4,2.6
		c0.1,0.9,0.1,1.8,0.1,2.8c0,0.9,0,1.6,0,2.3v0c0,1.3,0,2.7-0.1,4.1c-0.1,1.4,0,2.9,0.1,4.5c0.1,0.8,0,1.5-0.4,2.2
		C374.8,180.9,374.3,181.4,373.7,181.7z"/>
</g>
<circle id="XMLID_4_" class="st3" cx="372.7" cy="171.2" r="18.5"/>
<g id="XMLID_7_">
	<path id="XMLID_12_" d="M400.1,301.9c0.7,0.5,1,1,1,1.6c-0.1,0.3-0.3,0.6-0.6,0.9s-0.7,0.4-1.1,0.5c-0.8,0.1-1.6,0.1-2.3,0.2
		c-0.7,0.1-1.4,0.1-2.1,0.2c-1,0.1-2.1,0.2-3.1,0.3s-2.1,0.1-3.3,0.1c-0.7,0-1.3-0.1-1.8-0.3c-0.6-0.2-1-0.5-1.3-1.1
		c-0.2-0.5-0.2-0.9,0-1.2c0.2-0.4,0.5-0.8,0.8-1.4c0.1-0.1,0.3-0.4,0.5-0.8c0.2-0.4,0.5-0.8,0.9-1.3c0.4-0.5,0.7-1,1.1-1.6
		c0.4-0.6,0.8-1.2,1.2-1.7c2.1-2.9,3.1-5,2.9-6.4c-0.1-0.4-0.4-0.7-0.9-0.9c-0.5-0.2-1.2-0.3-2-0.3c-0.8,0-1.5,0.1-2.3,0.3
		c-0.7,0.2-1.5,0.3-2.3,0.3c-0.5-0.1-0.7-0.3-0.8-0.7c-0.1-0.4-0.1-0.8,0-1.1c0.1-0.4,0.3-0.6,0.6-0.8c0.3-0.2,0.6-0.4,0.9-0.6
		c0.7-0.3,1.5-0.5,2.5-0.6c1-0.1,1.9-0.1,2.8,0c1,0.1,1.9,0.3,2.7,0.6c0.9,0.3,1.5,0.7,2.1,1.2c0.3,0.3,0.5,0.7,0.5,1.2
		c0.1,0.5,0.1,1,0,1.6c-0.1,0.5-0.2,1.1-0.3,1.6c-0.1,0.5-0.3,0.9-0.4,1.2c-0.2,0.5-0.4,1-0.6,1.5c-0.2,0.5-0.5,1.2-0.9,1.9
		c-0.4,0.7-0.9,1.6-1.5,2.5c-0.6,1-1.4,2.2-2.4,3.5l6.2-0.3c0.6,0,1.1-0.1,1.7-0.1C399.1,301.7,399.6,301.7,400.1,301.9z"/>
</g>
<circle id="XMLID_5_" class="st3" cx="391.2" cy="295.6" r="18.5"/>
<g id="XMLID_11_">
	<g id="XMLID_39_">
		<line id="XMLID_42_" class="st1" x1="335.5" y1="203.6" x2="199.6" y2="375.8"/>
		<g id="XMLID_40_">
			<path id="XMLID_41_" d="M190.3,387.6c2.3-7.2,4.3-16.9,3.9-24.1l6.7,10.7l12,4C205.7,379.5,196.7,383.7,190.3,387.6z"/>
		</g>
	</g>
</g>
<g id="XMLID_3_">
</g>
<g id="XMLID_21_">
</g>
<g id="XMLID_22_">
</g>
<g id="XMLID_26_">
</g>
<g id="XMLID_27_">
</g>
<g id="XMLID_28_">
</g>
<g id="XMLID_29_">
</g>
</svg>
