<?xml version="1.0" encoding="utf-8"?>
<!-- Generator: Adobe Illustrator 19.0.0, SVG Export Plug-In . SVG Version: 6.00 Build 0)  -->
<svg version="1.1" id="레이어_1" xmlns="http://www.w3.org/2000/svg" xmlns:xlink="http://www.w3.org/1999/xlink" x="0px"
	 y="0px" viewBox="0 0 600 580" style="enable-background:new 0 0 600 580;" xml:space="preserve">
<style type="text/css">
	.st0{opacity:0.5;}
	.st1{fill:none;stroke:#000000;stroke-width:5;stroke-miterlimit:10;}
	.st2{fill:none;}
	.st3{fill:none;stroke:#000000;}
</style>
<g id="XMLID_9_" class="st0">
	<path id="XMLID_55_" d="M173.2,402.9c-7.9,0.5-14.9-2-21-7.3c-6.1-5.4-9.3-12-9.8-20c-0.5-6.5,0.8-12.8,3.9-18.9
		c3-6.1,5.9-12.1,8.8-18.2c4.7-10.3,9.1-19.8,13.3-28.7c4.2-8.9,8.4-17.5,12.6-25.9c4.2-8.4,8.6-16.9,13.3-25.5
		c4.7-8.6,9.8-18.3,15.4-29c2.8-5.1,6.5-12.1,11.2-21c4.7-8.9,9.6-15.2,14.7-18.9c6.5-4.7,14.1-6.2,22.8-4.5c8.6,1.6,15,6,19.3,13
		c5.1,7.9,6.3,16.3,3.5,25.2c-2.8,8.9-6.1,17.3-9.8,25.2c-1.9,3.3-2.7,5.6-2.4,7c0.2,1.4,1.3,3.3,3.1,5.6
		c6.5,9.3,12.6,18.2,18.2,26.6c5.6,8.4,11.2,16.6,16.8,24.5c5.1-12.6,10.4-25,15.7-37.1c5.4-12.1,11.8-25.2,19.3-39.2
		c3.7-7.9,7.5-15.6,11.2-23.1c3.7-7.5,8.4-13.3,14-17.5c4.7-3.7,9.9-5.7,15.8-5.9c5.8-0.2,11.2,0.9,16.1,3.5
		c4.9,2.6,8.8,6.4,11.6,11.5c2.8,5.1,4,10.7,3.5,16.8c-0.5,5.6-1.6,11-3.5,16.1c-1.9,5.1-4,10.3-6.3,15.4c-1.4,2.8-1.9,5-1.4,6.7
		c0.5,1.6,2.3,4.5,5.6,8.8c7.5,10.7,15.2,21.2,23.1,31.5c7.9,10.3,15.9,20.8,23.8,31.5c5.1,6.5,9.5,12,13,16.5
		c3.5,4.4,7.8,10.8,12.9,19.3c2.8,4.2,4.2,8.5,4.2,13c0,4.4-1,8.5-3.1,12.3c-2.1,3.7-5.1,6.8-9.1,9.1c-4,2.3-8.5,3.5-13.6,3.5
		c-5.1-0.5-9.9-2.1-14.4-4.9c-4.4-2.8-8.3-5.8-11.5-9.1c-8.9-9.3-18.1-19.6-27.7-30.8c-9.6-11.2-21.1-25-34.7-41.3l-9.1,18.2
		c-2.3,5.6-5.3,11.9-8.8,18.9s-6.9,13.5-10.2,19.6c-3.3,6.5-7.7,13.2-13.3,20c-5.6,6.8-12.1,10.6-19.6,11.5
		c-7.9,0.5-14.7-1.6-20.3-6.3c-5.6-4.7-8.9-10.7-9.8-18.2c0-5.6,0.5-9.6,1.4-11.9c-5.1-5.1-11.4-12.3-18.9-21.4
		c-7.5-9.1-16.1-20.4-25.9-33.9l-9.1,17.5c-2.8,5.1-4.9,8.9-6.3,11.2c-1.4,2.3-2.7,4.6-3.9,6.7c-1.2,2.1-2.5,4.5-3.9,7.3
		c-1.4,2.8-3.5,7-6.3,12.6c-3.7,6.5-8.3,13.5-13.7,21C188.5,398.5,181.6,402.5,173.2,402.9z"/>
</g>
<g id="XMLID_6_">
	<g id="XMLID_28_">
		<line id="XMLID_31_" class="st1" x1="252.7" y1="206.1" x2="185.4" y2="353.5"/>
		<g id="XMLID_29_">
			<path id="XMLID_30_" d="M179.1,367.2c0.6-7.6,0.1-17.4-1.9-24.4l9,8.9l12.6,1C192.2,355.7,184.5,361.9,179.1,367.2z"/>
		</g>
	</g>
</g>
<g id="XMLID_10_">
	<path id="XMLID_20_" class="st2" d="M403.2,379.7"/>
</g>
<g id="XMLID_8_">
	<path id="XMLID_17_" class="st2" d="M204.6,226.9"/>
</g>
<g id="XMLID_1_">
	<path id="XMLID_35_" d="M161.5,257.2c-0.5,0.2-0.8,0.1-1.1-0.1c-0.3-0.2-0.5-0.6-0.6-1c-0.1-0.5-0.3-0.9-0.3-1.5
		c0-0.5-0.1-1-0.1-1.4c-0.1-1-0.2-1.9-0.2-2.8c0-0.9,0-1.8,0-2.6c-0.1-1-0.1-2,0-3l0-5.1c0-0.6,0.1-1.2,0.1-1.9
		c0-0.6,0.1-1.3,0.4-1.9c0.2-0.6,0.5-0.9,1-1c0.5-0.1,0.9,0.1,1.4,0.5c0.3,0.4,0.6,1,0.8,1.9c0.2,0.8,0.3,1.7,0.4,2.6
		c0.1,0.9,0.1,1.8,0.1,2.8c0,0.9,0,1.6,0,2.3v0c0,1.3,0,2.7-0.1,4.1c-0.1,1.4,0,2.9,0.1,4.5c0.1,0.8,0,1.5-0.4,2.2
		C162.7,256.4,162.2,256.9,161.5,257.2z"/>
</g>
<circle id="XMLID_4_" class="st3" cx="160.6" cy="246.6" r="18.5"/>
<g id="XMLID_7_">
	<path id="XMLID_33_" d="M306,257.8c0.7,0.5,1,1,1,1.6c-0.1,0.3-0.3,0.6-0.6,0.9c-0.3,0.3-0.7,0.4-1.1,0.5c-0.8,0.1-1.6,0.1-2.3,0.2
		c-0.7,0.1-1.4,0.1-2.1,0.2c-1,0.1-2.1,0.2-3.1,0.3c-1,0.1-2.1,0.1-3.3,0.1c-0.7,0-1.3-0.1-1.9-0.3c-0.6-0.2-1-0.5-1.3-1.1
		c-0.2-0.5-0.2-0.9,0-1.2c0.2-0.4,0.5-0.8,0.9-1.4c0.1-0.1,0.3-0.4,0.5-0.8c0.2-0.4,0.5-0.8,0.9-1.3s0.7-1,1.1-1.6
		c0.4-0.6,0.8-1.2,1.2-1.7c2.1-2.9,3.1-5,2.9-6.4c-0.1-0.4-0.4-0.7-0.9-0.9c-0.5-0.2-1.2-0.3-2-0.3c-0.8,0-1.5,0.1-2.3,0.3
		c-0.7,0.2-1.5,0.3-2.3,0.3c-0.5-0.1-0.7-0.3-0.8-0.7c-0.1-0.4-0.1-0.8,0-1.1c0.1-0.4,0.3-0.6,0.6-0.8c0.3-0.2,0.6-0.4,0.9-0.6
		c0.7-0.3,1.5-0.5,2.5-0.6c1-0.1,1.9-0.1,2.9,0c1,0.1,1.9,0.3,2.7,0.6c0.9,0.3,1.5,0.7,2.1,1.2c0.3,0.3,0.5,0.7,0.6,1.2
		c0.1,0.5,0.1,1,0,1.6c-0.1,0.5-0.2,1.1-0.3,1.6c-0.2,0.5-0.3,0.9-0.4,1.2c-0.2,0.5-0.4,1-0.6,1.5c-0.2,0.5-0.5,1.2-0.9,1.9
		c-0.4,0.7-0.9,1.6-1.6,2.5c-0.6,1-1.4,2.2-2.4,3.6l6.2-0.3c0.6,0,1.1-0.1,1.7-0.1C305,257.6,305.5,257.6,306,257.8z"/>
</g>
<circle id="XMLID_5_" class="st3" cx="297.2" cy="251.5" r="18.5"/>
<g id="XMLID_11_">
	<g id="XMLID_51_">
		<path id="XMLID_54_" class="st1" d="M237.4,265.1c1.6,1,34.6,46.6,50.9,69"/>
		<g id="XMLID_52_">
			<path id="XMLID_53_" d="M297.2,346.4c-6.3-4.2-15.1-8.7-22.2-10.3l12.1-3.5l7.1-10.5C293.6,329.3,295.1,339.1,297.2,346.4z"/>
		</g>
	</g>
</g>
<g id="XMLID_12_">
	<g id="XMLID_46_">
		<line id="XMLID_49_" class="st1" x1="382.6" y1="219.9" x2="316.1" y2="361.2"/>
		<g id="XMLID_47_">
			<path id="XMLID_48_" d="M309.7,374.9c0.6-7.5,0.3-17.4-1.7-24.4l8.9,9l12.6,1.2C322.9,363.5,315.1,369.6,309.7,374.9z"/>
		</g>
	</g>
</g>
<g id="XMLID_13_">
	<g id="XMLID_41_">
		<line id="XMLID_44_" class="st1" x1="377" y1="270" x2="441.5" y2="355.2"/>
		<g id="XMLID_42_">
			<path id="XMLID_43_" d="M450.6,367.2c-6.4-4.1-15.3-8.4-22.4-9.9l12.1-3.7l6.9-10.6C446.7,350.2,448.5,360,450.6,367.2z"/>
		</g>
	</g>
</g>
<g id="XMLID_14_">
	<path id="XMLID_26_" d="M416.7,166.1c0.6,0.2,1.2,0.5,1.7,0.9c0.5,0.3,0.9,0.8,1.3,1.4c0.3,0.4,0.5,1,0.5,1.8
		c0,0.7-0.1,1.5-0.5,2.2c-0.4,0.9-0.8,1.6-1.4,2.3c-0.5,0.6-1,1.1-1.2,1.4c-0.2,0.1-0.5,0.4-0.9,0.8c-0.5,0.4-1,0.8-1.6,1.2
		c-0.6,0.4-1.3,0.8-2,1c-0.7,0.3-1.4,0.5-2,0.5c-0.6,0-1.1-0.3-1.3-0.9c-0.2-0.4-0.1-0.8,0.3-1.3c0.4-0.5,0.7-0.9,1-1.1
		c0.4-0.2,0.9-0.6,1.6-1.1c0.7-0.5,1.3-1,1.9-1.5c0.6-0.5,1.1-1.1,1.4-1.7c0.3-0.6,0.4-1.2,0.1-1.8c-0.3-0.5-0.8-0.8-1.5-1
		c-0.7-0.2-1.3-0.3-1.8-0.4c-0.2,0-0.5-0.1-0.8-0.1c-0.3-0.1-0.7-0.1-1-0.3c-0.3-0.1-0.6-0.3-0.8-0.4c-0.3-0.2-0.4-0.4-0.5-0.6
		c-0.2-0.4,0-1.1,0.5-1.9c0.5-0.8,1-1.6,1.5-2.4c0.5-0.7,0.9-1.5,1.3-2.4c0.3-0.6,0.5-1.1,0.6-1.5c0.1-0.4,0.2-0.9,0.1-1.6
		c-0.1-0.6-0.4-0.8-0.9-0.8c-0.3,0-0.6,0-0.9,0.1c-0.3,0.1-0.6,0.2-0.9,0.3c-0.8,0.3-1.4,0.5-1.8,0.7c-0.4,0.2-0.9,0.3-1.5,0.3
		c-0.4,0-0.7-0.2-1-0.5c-0.2-0.3-0.3-0.7-0.3-1c0.1-0.3,0.2-0.6,0.4-0.9c0.2-0.2,0.6-0.5,1.2-0.8c0.9-0.4,2-0.8,3.1-1.1
		s2.3-0.5,3.5-0.6c0.4,0,0.8,0.1,1.3,0.3c0.5,0.2,0.9,0.5,1.1,0.9c0.3,0.5,0.5,1.2,0.5,1.9c0,0.7,0,1.5-0.2,2.3
		c-0.2,0.8-0.4,1.6-0.7,2.4c-0.3,0.8-0.6,1.5-1,2.2c-0.2,0.4-0.4,0.8-0.7,1.1c-0.3,0.3-0.3,0.6-0.3,0.9c0,0.3,0.3,0.5,0.9,0.5
		C415.6,165.8,416.2,165.9,416.7,166.1z"/>
</g>
<circle id="XMLID_3_" class="st3" cx="413.8" cy="165.7" r="18.5"/>
<g id="XMLID_22_">
	<path id="XMLID_24_" d="M460.8,288c0.3,0,0.6,0.1,1,0.3c0.4,0.1,0.6,0.4,0.6,0.8c0,0.5-0.1,0.8-0.3,1.1c-0.2,0.3-0.6,0.5-1.1,0.8
		c-0.9,0.2-1.5,0.3-1.9,0.4c-0.4,0.1-0.7,0.1-1,0.2s-0.4,0.1-0.6,0.1c-0.2,0-0.4,0-0.8,0.1c0,0.3,0,0.7,0,1.4s0,1.3,0,1.8
		c0,0.5,0,0.9,0,1.4s0,0.9-0.1,1.3c-0.1,0.4-0.2,0.7-0.5,1s-0.6,0.4-1,0.4c-0.6,0-1-0.2-1.3-0.5s-0.5-0.8-0.5-1.5
		c-0.1-0.6-0.2-1.4-0.2-2.4c-0.1-1-0.1-1.9-0.1-2.7c0,0-0.2,0-0.7,0c-0.5,0-1.1,0.1-1.8,0.1s-1.6,0-2.5,0c-0.9,0-1.7-0.1-2.5-0.2
		c-0.6-0.1-1.1-0.4-1.4-0.9c-0.7-1.1-0.8-3.1-0.3-6c0.3-1.4,0.6-2.6,0.9-3.7c0.3-1.1,0.6-1.8,0.7-2c0-0.1,0.1-0.3,0.3-0.6
		c0.2-0.3,0.4-0.4,0.7-0.4c0.7,0,1.2,0.2,1.5,0.6c0.3,0.4,0.4,0.9,0.4,1.5c0,0.6-0.1,1.2-0.2,1.9c-0.1,0.7-0.3,1.3-0.3,1.9
		c-0.1,1.1-0.2,2-0.2,2.7c0,0.7,0,1.2,0.1,1.5c0.1,0.2,0.2,0.3,0.3,0.3c0.2,0.1,0.6,0.1,1.2,0.1c0.6,0,1.2,0,1.8-0.1
		c0.6,0,1.1-0.1,1.5-0.1c0.5-0.1,0.7-0.1,0.7-0.2v-2.1c0-0.9,0-1.8,0-2.7c0-0.9,0-1.8,0-2.7c0-0.8,0-1.5,0.1-2.2
		c0-0.7,0.2-1.3,0.4-2c0.1-0.3,0.4-0.5,0.8-0.6c0.4,0,0.7,0.1,0.9,0.4c0.3,0.4,0.5,0.9,0.7,1.5c0.2,0.6,0.3,1.3,0.4,2
		c0.1,0.7,0.2,1.4,0.2,2.2c0,0.8,0,1.5,0,2.1v2.3c0,0.6,0,1.2,0,1.9c0.1,0,0.3,0,0.6-0.1c0.4,0,0.8-0.1,1.2-0.1
		c0.5,0,0.9-0.1,1.3-0.1C460.4,287.9,460.7,287.9,460.8,288z"/>
</g>
<circle id="XMLID_21_" class="st3" cx="450.6" cy="286.6" r="18.5"/>
<g id="XMLID_23_">
</g>
<g id="XMLID_57_">
</g>
<g id="XMLID_58_">
</g>
<g id="XMLID_59_">
</g>
<g id="XMLID_60_">
</g>
<g id="XMLID_61_">
</g>
<g id="XMLID_62_">
</g>
</svg>
