<?xml version="1.0" encoding="utf-8"?>
<!-- Generator: Adobe Illustrator 19.0.0, SVG Export Plug-In . SVG Version: 6.00 Build 0)  -->
<svg version="1.1" id="레이어_1" xmlns="http://www.w3.org/2000/svg" xmlns:xlink="http://www.w3.org/1999/xlink" x="0px"
	 y="0px" viewBox="0 0 600 580" style="enable-background:new 0 0 600 580;" xml:space="preserve">
<style type="text/css">
	.st0{opacity:0.5;}
	.st1{fill:none;stroke:#000000;stroke-width:5;stroke-miterlimit:10;}
	.st2{fill:none;}
	.st3{fill:none;stroke:#000000;}
</style>
<g id="XMLID_9_" class="st0">
	<path id="XMLID_48_" d="M451.3,320.7c7.5,8.9,15.3,17.5,23.5,25.9c8.2,8.4,14.8,17.7,19.9,28c2.3,5.1,3.5,11,3.5,17.5
		c0,6.5-1.2,11.9-3.5,16.1c-2.3,6.1-5.7,9.7-10.1,10.8c-4.4,1.2-9.1,0.9-14-0.7c-4.9-1.6-9.6-4-14-7c-4.4-3-8-5.9-10.9-8.8
		c-9.3-10.3-17.6-19.6-24.8-28c-7.2-8.4-15.5-18-24.8-28.7c-9.3,8.9-19,17-29.1,24.5c-10,7.5-20.4,14.7-31.1,21.7
		c1.4,5.1,2,10.5,1.8,16.1c-0.2,5.6-1,10-2.5,13.3c-3.3,5.6-7.1,9.2-11.5,10.8c-4.4,1.6-8.9,1.9-13.3,0.7c-4.4-1.2-8.9-3.3-13.3-6.3
		c-4.4-3-8.3-6.4-11.6-10.2c-10.7-10.3-19.8-20.2-27.3-29.8c-7.5-9.6-16.6-19.5-27.3-29.8l-61.6,47.6c-2.8,2.3-6.5,4.5-11.2,6.6
		c-4.7,2.1-9.6,3.6-14.7,4.6c-5.1,0.9-9.9,1-14.4,0.3c-4.4-0.7-8.1-3.2-10.9-7.3c-4.2-8.4-4.7-17-1.4-25.9c2.3-5.6,5.5-10.6,9.4-15
		c4-4.4,8.5-9.2,13.7-14.4c17.3-11.7,32.8-26.5,46.5-44.4c13.8-18,24.9-35.8,33.3-53.6c0.5-1.4,1.8-4.7,3.9-9.8
		c2.1-5.1,4-10.5,5.6-16.1c1.6-5.6,2.6-10.6,2.8-15c0.2-4.4-1-6.6-3.9-6.6c-13.5,0-26.4,0.7-38.5,2.1c-12.1,1.4-25.4,1.6-39.9,0.7
		c-7-0.5-12-2.9-15-7.4c-3-4.4-4.3-10.1-3.9-17.1c0.5-6.5,2.6-11.8,6.3-15.8c3.7-4,8.2-7,13.3-9.1c5.1-2.1,10.5-3.5,16.1-4.2
		c5.6-0.7,10.5-1.3,14.7-1.8c13.1-0.9,25.1-1.6,36-2.1c11-0.5,23.5-0.2,37.5,0.7c7.9,0.5,16,1.6,24.1,3.5
		c8.2,1.9,14.1,7.2,17.9,16.1c2.8,7,3.5,14.8,2.1,23.5c-1.4,8.6-3,16.2-4.9,22.8c-1.4,7-2.7,13.1-3.9,18.2
		c-1.2,5.1-2.7,10.6-4.6,16.5c-1.9,5.8-4.2,12.6-7,20.3c-2.8,7.7-6.5,17.4-11.2,29.1l0.7,0.7c3.7,7.9,8.5,15.2,14.4,21.7
		c5.8,6.5,11.8,13.3,17.9,20.3c7.9-7.9,16.2-15.9,24.8-23.8c8.6-7.9,16.9-16,24.9-24.1c7.9-8.2,15.2-16.7,21.7-25.6
		c6.5-8.9,11.7-18.4,15.4-28.7c0.5-1.4,2-4.7,4.5-9.8c2.6-5.1,4.8-10.6,6.7-16.4c1.9-5.8,3-11.1,3.5-15.8c0.5-4.7-0.7-7-3.5-7
		c-13.5,0-25.4,0.6-35.7,1.8c-10.3,1.2-22.4,0.8-36.4-1.1c-6.5-0.5-11.3-3-14.4-7.7c-3-4.7-4.1-10.3-3.1-16.8
		c0.5-6.5,2.6-11.7,6.3-15.4c3.7-3.7,8.2-6.6,13.3-8.8c5.1-2.1,10.5-3.5,16.1-4.2c5.6-0.7,10.5-1.3,14.7-1.8
		c5.6-0.5,13.9-0.9,24.9-1.4c11-0.5,22.2-0.3,33.6,0.4c11.4,0.7,21.9,2.7,31.5,6c9.6,3.3,15.8,8.6,18.5,16.1
		c2.3,6.5,2.9,14.1,1.8,22.8c-1.2,8.6-2.9,16.4-5.3,23.4c-2.3,8.9-4.4,16-6.3,21.4c-1.9,5.4-4,10.9-6.3,16.5c-2.3,5.6-5,11.9-8,18.9
		c-3,7-6.4,16.3-10.2,28l0.7,2.1c2.8,5.6,5.4,9.8,7.7,12.6C443.9,310.9,447.1,315.1,451.3,320.7z"/>
</g>
<g id="XMLID_6_">
	<g id="XMLID_31_">
		<line id="XMLID_34_" class="st1" x1="239.2" y1="309.7" x2="306.4" y2="398.4"/>
		<g id="XMLID_32_">
			<path id="XMLID_33_" d="M315.6,410.4c-6.4-4.1-15.3-8.4-22.4-9.8l12.1-3.8l6.9-10.6C311.6,393.4,313.4,403.1,315.6,410.4z"/>
		</g>
	</g>
</g>
<g id="XMLID_10_">
	<path id="XMLID_20_" class="st2" d="M415.8,364.5"/>
</g>
<g id="XMLID_8_">
	<path id="XMLID_17_" class="st2" d="M217.2,211.7"/>
</g>
<g id="XMLID_1_">
	<path id="XMLID_46_" d="M214.9,137.8c-0.5,0.2-0.8,0.1-1.1-0.1c-0.3-0.2-0.5-0.6-0.6-1c-0.1-0.5-0.3-0.9-0.3-1.5
		c0-0.5-0.1-1-0.1-1.4c-0.1-1-0.2-1.9-0.2-2.8c0-0.9,0-1.8,0-2.6c-0.1-1-0.1-2,0-3l0-5.1c0-0.6,0.1-1.2,0.1-1.9
		c0-0.6,0.1-1.3,0.4-1.9c0.2-0.6,0.5-0.9,1-1c0.5-0.1,0.9,0.1,1.4,0.5c0.3,0.4,0.6,1,0.8,1.9c0.2,0.8,0.3,1.7,0.4,2.6
		c0.1,0.9,0.1,1.8,0.1,2.8c0,0.9,0,1.6,0,2.3v0c0,1.3,0,2.7-0.1,4.1c-0.1,1.4,0,2.9,0.1,4.5c0.1,0.8,0,1.5-0.4,2.2
		C216.1,137,215.6,137.5,214.9,137.8z"/>
</g>
<circle id="XMLID_4_" class="st3" cx="214" cy="127.3" r="18.5"/>
<g id="XMLID_7_">
	<path id="XMLID_44_" d="M244.3,416.7c0.7,0.5,1,1,1,1.6c-0.1,0.3-0.3,0.6-0.6,0.9s-0.7,0.4-1.1,0.5c-0.8,0.1-1.6,0.1-2.3,0.2
		c-0.7,0.1-1.4,0.1-2.1,0.2c-1,0.1-2.1,0.2-3.1,0.3s-2.1,0.1-3.3,0.1c-0.7,0-1.3-0.1-1.9-0.3c-0.6-0.2-1-0.5-1.3-1.1
		c-0.2-0.5-0.2-0.9,0-1.2c0.2-0.4,0.5-0.8,0.9-1.4c0.1-0.1,0.3-0.4,0.5-0.8c0.2-0.4,0.5-0.8,0.9-1.3s0.7-1,1.1-1.6
		c0.4-0.6,0.8-1.2,1.2-1.7c2.1-2.9,3.1-5,2.9-6.4c-0.1-0.4-0.4-0.7-0.9-0.9c-0.5-0.2-1.2-0.3-2-0.3c-0.8,0-1.5,0.1-2.3,0.3
		c-0.7,0.2-1.5,0.3-2.3,0.3c-0.5-0.1-0.7-0.3-0.8-0.7c-0.1-0.4-0.1-0.8,0-1.1c0.1-0.4,0.3-0.7,0.6-0.8c0.3-0.2,0.6-0.4,0.9-0.6
		c0.7-0.3,1.5-0.5,2.5-0.6c1-0.1,1.9-0.1,2.9,0c1,0.1,1.9,0.3,2.7,0.6s1.5,0.7,2.1,1.2c0.3,0.3,0.5,0.7,0.6,1.2c0.1,0.5,0.1,1,0,1.6
		c-0.1,0.5-0.2,1.1-0.3,1.6s-0.3,0.9-0.4,1.2c-0.2,0.5-0.4,1-0.6,1.5c-0.2,0.5-0.5,1.2-0.9,1.9c-0.4,0.7-0.9,1.6-1.6,2.5
		c-0.6,1-1.4,2.2-2.4,3.5l6.2-0.3c0.6,0,1.1-0.1,1.7-0.1C243.3,416.4,243.8,416.5,244.3,416.7z"/>
</g>
<circle id="XMLID_5_" class="st3" cx="235.5" cy="410.4" r="18.5"/>
<path id="XMLID_3_" class="st1" d="M157.9,179.8c0,0,93.3-15.1,107.6,11.1c29.8,54.4-121.5,198-121.5,198"/>
<g id="XMLID_21_">
	<g id="XMLID_23_">
		<line id="XMLID_26_" class="st1" x1="405.7" y1="298.9" x2="473" y2="387.6"/>
		<g id="XMLID_24_">
			<path id="XMLID_25_" d="M482.1,399.6c-6.4-4.1-15.3-8.4-22.4-9.8l12.1-3.8l6.9-10.6C478.1,382.6,479.9,392.4,482.1,399.6z"/>
		</g>
	</g>
</g>
<g id="XMLID_12_">
	<path id="XMLID_14_" class="st2" d="M383.7,201"/>
</g>
<path id="XMLID_11_" class="st1" d="M324.4,169.1c0,0,93.3-15.1,107.6,11.1c29.8,54.4-121.5,198-121.5,198"/>
<g id="XMLID_28_">
	<path id="XMLID_42_" d="M427,118.4c0.6,0.2,1.2,0.5,1.7,0.9c0.5,0.3,0.9,0.8,1.3,1.4c0.3,0.4,0.5,1,0.5,1.8c0,0.7-0.1,1.5-0.5,2.2
		c-0.4,0.9-0.8,1.6-1.4,2.3c-0.5,0.6-1,1.1-1.2,1.4c-0.2,0.1-0.5,0.4-0.9,0.8c-0.5,0.4-1,0.8-1.6,1.2c-0.6,0.4-1.3,0.8-2,1
		c-0.7,0.3-1.4,0.5-2,0.5c-0.6,0-1.1-0.3-1.3-0.9c-0.2-0.4-0.1-0.8,0.3-1.3c0.4-0.5,0.7-0.9,1-1.1c0.4-0.2,0.9-0.6,1.6-1.1
		c0.7-0.5,1.3-1,1.9-1.5c0.6-0.5,1.1-1.1,1.4-1.7c0.3-0.6,0.4-1.2,0.1-1.8c-0.3-0.5-0.8-0.8-1.5-1c-0.7-0.2-1.3-0.3-1.8-0.4
		c-0.2,0-0.5-0.1-0.8-0.1c-0.3-0.1-0.7-0.1-1-0.3c-0.3-0.1-0.6-0.3-0.8-0.4c-0.3-0.2-0.4-0.4-0.5-0.6c-0.2-0.4,0-1.1,0.5-1.9
		c0.5-0.8,1-1.6,1.5-2.4c0.5-0.7,0.9-1.5,1.3-2.4c0.3-0.6,0.5-1.1,0.6-1.5c0.1-0.4,0.2-0.9,0.1-1.6c-0.1-0.6-0.4-0.8-0.9-0.8
		c-0.3,0-0.6,0-0.9,0.1c-0.3,0.1-0.6,0.2-0.9,0.3c-0.8,0.3-1.4,0.5-1.8,0.7c-0.4,0.2-0.9,0.3-1.5,0.3c-0.4,0-0.7-0.2-1-0.5
		c-0.2-0.3-0.3-0.7-0.3-1c0.1-0.3,0.2-0.6,0.4-0.9c0.2-0.2,0.6-0.5,1.2-0.8c0.9-0.4,2-0.8,3.1-1.1s2.3-0.5,3.5-0.6
		c0.4,0,0.8,0.1,1.3,0.3c0.5,0.2,0.9,0.5,1.1,0.9c0.3,0.5,0.5,1.2,0.5,1.9c0,0.7,0,1.5-0.2,2.3c-0.2,0.8-0.4,1.6-0.7,2.4
		c-0.3,0.8-0.6,1.5-1,2.2c-0.2,0.4-0.4,0.8-0.7,1.1c-0.3,0.3-0.3,0.6-0.3,0.9c0,0.3,0.3,0.5,0.9,0.5
		C426,118.1,426.5,118.2,427,118.4z"/>
</g>
<circle id="XMLID_27_" class="st3" cx="424.2" cy="117.9" r="18.5"/>
<g id="XMLID_35_">
	<path id="XMLID_40_" d="M497.5,318.8c0.3,0,0.6,0.1,1,0.3c0.4,0.1,0.6,0.4,0.6,0.8c0,0.5-0.1,0.8-0.3,1.1c-0.2,0.3-0.6,0.5-1.1,0.8
		c-0.9,0.2-1.5,0.3-1.9,0.4c-0.4,0.1-0.7,0.1-1,0.2c-0.2,0-0.4,0.1-0.6,0.1s-0.4,0-0.8,0.1c0,0.3,0,0.7,0,1.4c0,0.7,0,1.3,0,1.9
		c0,0.5,0,0.9,0,1.4c0,0.5,0,0.9-0.1,1.3c-0.1,0.4-0.2,0.7-0.5,1c-0.2,0.3-0.6,0.4-1,0.4c-0.6,0-1-0.2-1.3-0.5
		c-0.3-0.3-0.5-0.8-0.6-1.5c-0.1-0.6-0.2-1.4-0.2-2.4s-0.1-1.9-0.1-2.7c0,0-0.2,0-0.7,0c-0.5,0-1.1,0.1-1.9,0.1s-1.6,0-2.5,0
		s-1.7-0.1-2.5-0.2c-0.6-0.1-1.1-0.4-1.4-0.8c-0.7-1.1-0.8-3.1-0.3-6c0.3-1.4,0.6-2.6,0.9-3.7c0.4-1.1,0.6-1.8,0.7-2
		c0-0.1,0.1-0.3,0.3-0.5c0.2-0.3,0.4-0.5,0.6-0.5c0.7,0,1.2,0.2,1.5,0.6c0.3,0.4,0.4,0.9,0.4,1.5s-0.1,1.2-0.2,1.9
		c-0.2,0.7-0.3,1.3-0.3,1.9c-0.1,1.1-0.2,2-0.2,2.7s0,1.2,0.1,1.5c0.1,0.2,0.2,0.3,0.4,0.3c0.2,0.1,0.6,0.1,1.2,0.1
		c0.6,0,1.2,0,1.8-0.1c0.6,0,1.1-0.1,1.5-0.1c0.5-0.1,0.7-0.1,0.7-0.2v-2.1c0-0.9,0-1.8,0.1-2.7c0-0.9,0-1.8,0-2.7
		c0-0.8,0-1.5,0-2.2c0-0.7,0.2-1.3,0.5-2c0.1-0.3,0.4-0.5,0.8-0.5s0.7,0.1,0.9,0.3c0.3,0.4,0.5,0.9,0.7,1.5c0.2,0.6,0.3,1.3,0.4,2
		c0.1,0.7,0.2,1.4,0.2,2.2s0,1.5,0,2.1v2.3c0,0.6,0,1.2,0,1.8c0.1,0,0.3,0,0.7,0c0.4,0,0.8-0.1,1.2-0.1c0.5,0,0.9-0.1,1.3-0.1
		C497,318.7,497.3,318.7,497.5,318.8z"/>
</g>
<circle id="XMLID_29_" class="st3" cx="487.3" cy="317.4" r="18.5"/>
<g id="XMLID_39_">
</g>
<g id="XMLID_50_">
</g>
<g id="XMLID_51_">
</g>
<g id="XMLID_52_">
</g>
<g id="XMLID_53_">
</g>
<g id="XMLID_54_">
</g>
<g id="XMLID_55_">
</g>
</svg>
